<svg width="1200" height="1800" viewBox="0 0 1200 1800" fill="none" xmlns="http://www.w3.org/2000/svg" role="img" aria-labelledby="title desc">
  <title id="title">The 33 Strategies of War cover</title>
  <desc id="desc">Auto-generated themed cover for The 33 Strategies of War by Robert Greene.</desc>
  <defs>
    <linearGradient id="g1699823103" x1="0" y1="0" x2="0" y2="1800" gradientUnits="userSpaceOnUse">
      <stop offset="0%" stop-color="#0E2A44"/>
      <stop offset="100%" stop-color="#1E486A"/>
    </linearGradient>
  </defs>

  <rect width="1200" height="1800" fill="url(#g1699823103)"/>

  <circle cx="600" cy="840" r="420" fill="#7AA4C4" opacity="0.16"/>
  <circle cx="600" cy="840" r="300" fill="#FFF8EE" opacity="0.16"/>
  <circle cx="597" cy="818" r="210" fill="#D19A34" opacity="0.18"/>
  <circle cx="603" cy="862" r="130" fill="#FFF8EE" opacity="0.34"/>
  <rect x="116" y="304" width="968" height="1036" rx="38" fill="#F4ECDD" stroke="#CDBA9D" stroke-width="10"/>

  <g transform="translate(427 569)">
    <rect x="0" y="0" width="370" height="330" rx="24" fill="#FFF8EE" opacity="0.92" stroke="#7AA4C4" stroke-width="8"/>
    <g stroke="#7AA4C4" stroke-width="3" opacity="0.8">
      <line x1="92" y1="0" x2="92" y2="330"/>
      <line x1="184" y1="0" x2="184" y2="330"/>
      <line x1="276" y1="0" x2="276" y2="330"/>
      <line x1="0" y1="82" x2="370" y2="82"/>
      <line x1="0" y1="164" x2="370" y2="164"/>
      <line x1="0" y1="246" x2="370" y2="246"/>
    </g>
    <path d="M46 260 L136 182 L198 222 L318 112" stroke="#D19A34" stroke-width="16" stroke-linecap="round" stroke-linejoin="round"/>
    <polygon points="318,112 284,114 304,140" fill="#D19A34"/>
  </g>

  <rect x="0" y="0" width="1200" height="238" fill="#0E2A44" opacity="0.93"/>
  <rect x="0" y="1454" width="1200" height="346" fill="#1E486A" opacity="0.95"/>
  <text x="600" y="136" text-anchor="middle" fill="#FFF8EE" font-family="Georgia, serif" font-size="62" font-weight="700" letter-spacing="3">ROBERT GREENE</text>
  <text x="600" y="208" text-anchor="middle" fill="#FFF8EE" font-family="'Trebuchet MS', Arial, sans-serif" font-size="30" letter-spacing="4">STRATEGY</text>
  <text x="600" y="1114" text-anchor="middle" fill="#1C2B34" font-family="Georgia, 'Times New Roman', serif" font-size="92" font-weight="700" letter-spacing="2">THE 33</text>
  <text x="600" y="1213" text-anchor="middle" fill="#1C2B34" font-family="Georgia, 'Times New Roman', serif" font-size="92" font-weight="700" letter-spacing="2">STRATEGIES OF</text>
  <text x="600" y="1312" text-anchor="middle" fill="#1C2B34" font-family="Georgia, 'Times New Roman', serif" font-size="92" font-weight="700" letter-spacing="2">WAR</text>
  <text x="600" y="1538" text-anchor="middle" fill="#FFF8EE" font-family="'Trebuchet MS', Arial, sans-serif" font-size="30" letter-spacing="3">STRATEGY  ·  COMPETITION  ·  TIMING</text>
  <text x="600" y="1604" text-anchor="middle" fill="#FFF8EE" font-family="Georgia, serif" font-size="30">Tactical choices under pressure</text>
  <text x="600" y="1668" text-anchor="middle" fill="#FFF8EE" font-family="'Trebuchet MS', Arial, sans-serif" font-size="26" letter-spacing="2">Modern Edition · Practical Lessons · Real Scenarios</text>
</svg>
