<svg width="1200" height="1800" viewBox="0 0 1200 1800" fill="none" xmlns="http://www.w3.org/2000/svg" role="img" aria-labelledby="title desc">
  <title id="title">Antifragile cover</title>
  <desc id="desc">Auto-generated themed cover for Antifragile by Nassim Nicholas Taleb.</desc>
  <defs>
    <linearGradient id="g1795328816" x1="0" y1="0" x2="0" y2="1800" gradientUnits="userSpaceOnUse">
      <stop offset="0%" stop-color="#313847"/>
      <stop offset="100%" stop-color="#56617A"/>
    </linearGradient>
  </defs>

  <rect width="1200" height="1800" fill="url(#g1795328816)"/>

  <circle cx="600" cy="840" r="420" fill="#AEBDD1" opacity="0.16"/>
  <circle cx="600" cy="840" r="300" fill="#FEF8EE" opacity="0.16"/>
  <circle cx="577" cy="828" r="210" fill="#DE975E" opacity="0.18"/>
  <circle cx="623" cy="852" r="130" fill="#FEF8EE" opacity="0.34"/>
  <ellipse cx="600" cy="812" rx="470" ry="382" fill="#FEF8EE" opacity="0.08"/>
  <rect x="116" y="304" width="968" height="1036" rx="38" fill="#F4EDE2" stroke="#C5B39E" stroke-width="10"/>
<g opacity="0.24" transform="translate(0 -26)">
  <g transform="translate(419 578)">
    <path d="M54 194 H254 C278 194 298 174 298 150 H180 C150 150 126 126 126 96 H294 C326 96 352 122 352 154 C352 226 298 278 228 278 H166 L154 318 H76 Z" fill="#AEBDD1" opacity="0.88"/>
    <rect x="120" y="278" width="154" height="28" rx="12" fill="#2B3043" opacity="0.86"/>
    <rect x="146" y="244" width="110" height="22" rx="10" fill="#F4EDE2" opacity="0.82"/>
  </g></g>

  <g transform="translate(402 569)">
    <path d="M54 194 H254 C278 194 298 174 298 150 H180 C150 150 126 126 126 96 H294 C326 96 352 122 352 154 C352 226 298 278 228 278 H166 L154 318 H76 Z" fill="#DE975E" opacity="0.88"/>
    <rect x="120" y="278" width="154" height="28" rx="12" fill="#2B3043" opacity="0.86"/>
    <rect x="146" y="244" width="110" height="22" rx="10" fill="#FEF8EE" opacity="0.82"/>
  </g>

  <g transform="translate(922 332)">
    <rect x="12" y="12" width="152" height="152" rx="24" fill="#FEF8EE" stroke="#DE975E" stroke-width="10"/>
    <path d="M30 116 L146 52" stroke="#AEBDD1" stroke-width="8" stroke-linecap="round"/>
    <path d="M30 138 L146 74" stroke="#AEBDD1" stroke-width="8" stroke-linecap="round"/>
    <text x="88" y="102" text-anchor="middle" fill="#2B3043" font-family="'Trebuchet MS', Arial, sans-serif" font-size="44" font-weight="700" letter-spacing="2">AN</text>
  </g>

  <rect x="0" y="0" width="1200" height="238" fill="#313847" opacity="0.93"/>
  <rect x="0" y="1454" width="1200" height="346" fill="#56617A" opacity="0.95"/>
  <text x="600" y="136" text-anchor="middle" fill="#FEF8EE" font-family="Georgia, serif" font-size="62" font-weight="700" letter-spacing="3">NASSIM NICHOLAS TALEB</text>
  <text x="600" y="208" text-anchor="middle" fill="#FEF8EE" font-family="'Trebuchet MS', Arial, sans-serif" font-size="30" letter-spacing="4">RESILIENCE</text>
  <text x="600" y="1216" text-anchor="middle" fill="#2B3043" font-family="Georgia, 'Times New Roman', serif" font-size="108" font-weight="700" letter-spacing="2">ANTIFRAGILE</text>
  <g>
    <rect x="447" y="1466" width="100" height="42" rx="21" fill="#FEF8EE" opacity="0.18" stroke="#FEF8EE" stroke-width="2"/>
    <text x="497" y="1494" text-anchor="middle" fill="#FEF8EE" font-family="'Trebuchet MS', Arial, sans-serif" font-size="20" letter-spacing="1">RISK</text>
  </g>
  <g>
    <rect x="569" y="1466" width="184" height="42" rx="21" fill="#FEF8EE" opacity="0.18" stroke="#FEF8EE" stroke-width="2"/>
    <text x="661" y="1494" text-anchor="middle" fill="#FEF8EE" font-family="'Trebuchet MS', Arial, sans-serif" font-size="20" letter-spacing="1">OPTIONALITY</text>
  </g>
  <text x="600" y="1538" text-anchor="middle" fill="#FEF8EE" font-family="'Trebuchet MS', Arial, sans-serif" font-size="30" letter-spacing="3">RISK  ·  OPTIONALITY  ·  FRAGILITY</text>
  <text x="600" y="1604" text-anchor="middle" fill="#FEF8EE" font-family="Georgia, serif" font-size="30">Gain from volatility and stress</text>
  <text x="600" y="1668" text-anchor="middle" fill="#FEF8EE" font-family="'Trebuchet MS', Arial, sans-serif" font-size="26" letter-spacing="2">Modern Edition · Practical Lessons · Real Scenarios</text>
</svg>
