<svg width="1200" height="1800" viewBox="0 0 1200 1800" fill="none" xmlns="http://www.w3.org/2000/svg" role="img" aria-labelledby="title desc">
  <title id="title">Antifragile cover</title>
  <desc id="desc">Auto-generated themed cover for Antifragile by Nassim Nicholas Taleb.</desc>
  <defs>
    <linearGradient id="g1832546767" x1="0" y1="0" x2="0" y2="1800" gradientUnits="userSpaceOnUse">
      <stop offset="0%" stop-color="#2A3F5B"/>
      <stop offset="100%" stop-color="#3F5F86"/>
    </linearGradient>
  </defs>

  <rect width="1200" height="1800" fill="url(#g1832546767)"/>

  <rect x="0" y="300" width="1200" height="1180" fill="#93B0CE" opacity="0.12"/>
  <rect x="140" y="360" width="920" height="1050" rx="48" fill="#FDF8EE" opacity="0.22"/>
  <path d="M0 560 Q300 421 600 560 T1200 560" stroke="#FDF8EE" stroke-width="22" opacity="0.24"/>
  <path d="M0 1180 Q300 1041 600 1180 T1200 1180" stroke="#E4A150" stroke-width="16" opacity="0.22"/>
  <rect x="116" y="304" width="968" height="1036" rx="38" fill="#F3ECE0" stroke="#C8B7A1" stroke-width="10"/>

  <g transform="translate(387 562)">
    <rect x="0" y="0" width="400" height="324" rx="24" fill="#FDF8EE" stroke="#93B0CE" stroke-width="8"/>
    <path d="M98 232 C122 166 196 142 236 178 C264 204 246 248 202 256 C180 260 158 254 138 236 C170 274 232 284 278 246 C324 208 320 138 266 104 C226 80 176 84 138 112" fill="none" stroke="#233244" stroke-width="12" stroke-linecap="round" stroke-linejoin="round"/>
    <circle cx="252" cy="122" r="8" fill="#233244"/>
  </g>

  <g transform="translate(926 334)">
    <polygon points="88,8 162,52 162,136 88,180 14,136 14,52" fill="#FDF8EE" stroke="#E4A150" stroke-width="10"/>
    <circle cx="88" cy="94" r="44" fill="#93B0CE" opacity="0.7"/>
    <text x="88" y="108" text-anchor="middle" fill="#233244" font-family="'Trebuchet MS', Arial, sans-serif" font-size="42" font-weight="700" letter-spacing="2">AN</text>
  </g>

  <rect x="0" y="0" width="1200" height="238" fill="#2A3F5B" opacity="0.93"/>
  <rect x="0" y="1454" width="1200" height="346" fill="#3F5F86" opacity="0.95"/>
  <text x="600" y="136" text-anchor="middle" fill="#FDF8EE" font-family="Georgia, serif" font-size="62" font-weight="700" letter-spacing="3">NASSIM NICHOLAS TALEB</text>
  <text x="600" y="208" text-anchor="middle" fill="#FDF8EE" font-family="'Trebuchet MS', Arial, sans-serif" font-size="30" letter-spacing="4">THINKING</text>
  <text x="600" y="1216" text-anchor="middle" fill="#233244" font-family="Georgia, 'Times New Roman', serif" font-size="108" font-weight="700" letter-spacing="2">ANTIFRAGILE</text>
  <text x="600" y="1538" text-anchor="middle" fill="#FDF8EE" font-family="'Trebuchet MS', Arial, sans-serif" font-size="30" letter-spacing="3">RISK  ·  OPTIONALITY  ·  FRAGILITY</text>
  <text x="600" y="1604" text-anchor="middle" fill="#FDF8EE" font-family="Georgia, serif" font-size="30">Mental models and judgment</text>
  <text x="600" y="1668" text-anchor="middle" fill="#FDF8EE" font-family="'Trebuchet MS', Arial, sans-serif" font-size="26" letter-spacing="2">Modern Edition · Practical Lessons · Real Scenarios</text>
</svg>
