<svg width="1200" height="1800" viewBox="0 0 1200 1800" fill="none" xmlns="http://www.w3.org/2000/svg" role="img" aria-labelledby="title desc">
  <title id="title">The Art of War cover</title>
  <desc id="desc">Auto-generated themed cover for The Art of War by Sun Tzu.</desc>
  <defs>
    <linearGradient id="g852295292" x1="0" y1="0" x2="0" y2="1800" gradientUnits="userSpaceOnUse">
      <stop offset="0%" stop-color="#541B1B"/>
      <stop offset="100%" stop-color="#7A2A2A"/>
    </linearGradient>
  </defs>

  <rect width="1200" height="1800" fill="url(#g852295292)"/>

  <rect x="0" y="300" width="1200" height="1180" fill="#AC6A5A" opacity="0.12"/>
  <rect x="110" y="370" width="420" height="420" rx="42" fill="#FFF6EA" opacity="0.2"/>
  <rect x="670" y="360" width="420" height="430" rx="42" fill="#B98A3C" opacity="0.16"/>
  <rect x="110" y="980" width="420" height="360" rx="42" fill="#B98A3C" opacity="0.15"/>
  <rect x="670" y="950" width="420" height="390" rx="42" fill="#FFF6EA" opacity="0.2"/>
  <rect x="116" y="304" width="968" height="1036" rx="38" fill="#F3E5D2" stroke="#C5A276" stroke-width="10"/>

  <g transform="translate(404 541)">
    <rect x="38" y="28" width="320" height="300" rx="24" fill="#FFF6EA" stroke="#AC6A5A" stroke-width="8"/>
    <path d="M86 288 L302 72" stroke="#B98A3C" stroke-width="16" stroke-linecap="round"/>
    <path d="M302 288 L86 72" stroke="#AC6A5A" stroke-width="16" stroke-linecap="round"/>
    <rect x="74" y="278" width="34" height="12" rx="6" fill="#2E1A13"/>
    <rect x="292" y="278" width="34" height="12" rx="6" fill="#2E1A13"/>
  </g>

  <g transform="translate(930 336)">
    <path d="M82 8 L152 34 V90 C152 142 120 174 82 190 C44 174 12 142 12 90 V34 Z" fill="#FFF6EA" stroke="#B98A3C" stroke-width="10"/>
    <rect x="30" y="64" width="104" height="64" rx="20" fill="#AC6A5A" opacity="0.72"/>
    <text x="82" y="106" text-anchor="middle" fill="#2E1A13" font-family="'Trebuchet MS', Arial, sans-serif" font-size="40" font-weight="700" letter-spacing="2">AW</text>
  </g>

  <rect x="0" y="0" width="1200" height="238" fill="#541B1B" opacity="0.93"/>
  <rect x="0" y="1454" width="1200" height="346" fill="#7A2A2A" opacity="0.95"/>
  <text x="600" y="136" text-anchor="middle" fill="#FFF6EA" font-family="Georgia, serif" font-size="62" font-weight="700" letter-spacing="3">SUN TZU</text>
  <text x="600" y="208" text-anchor="middle" fill="#FFF6EA" font-family="'Trebuchet MS', Arial, sans-serif" font-size="30" letter-spacing="4">STRATEGY</text>
  <text x="600" y="1216" text-anchor="middle" fill="#2E1A13" font-family="Georgia, 'Times New Roman', serif" font-size="92" font-weight="700" letter-spacing="2">THE ART OF WAR</text>
  <text x="600" y="1538" text-anchor="middle" fill="#FFF6EA" font-family="'Trebuchet MS', Arial, sans-serif" font-size="30" letter-spacing="3">STRATEGY  ·  TIMING  ·  LEADERSHIP</text>
  <text x="600" y="1604" text-anchor="middle" fill="#FFF6EA" font-family="Georgia, serif" font-size="30">Win through positioning, not just force</text>
  <text x="600" y="1668" text-anchor="middle" fill="#FFF6EA" font-family="'Trebuchet MS', Arial, sans-serif" font-size="26" letter-spacing="2">Modern Edition · Practical Lessons · Real Scenarios</text>
</svg>
