<svg width="1200" height="1800" viewBox="0 0 1200 1800" fill="none" xmlns="http://www.w3.org/2000/svg" role="img" aria-labelledby="title desc">
  <title id="title">Atomic Habits cover</title>
  <desc id="desc">Auto-generated themed cover for Atomic Habits by James Clear.</desc>
  <defs>
    <linearGradient id="g17838146" x1="0" y1="0" x2="0" y2="1800" gradientUnits="userSpaceOnUse">
      <stop offset="0%" stop-color="#D6A91F"/>
      <stop offset="100%" stop-color="#F1C94C"/>
    </linearGradient>
  </defs>

  <rect width="1200" height="1800" fill="url(#g17838146)"/>

  <rect x="0" y="300" width="1200" height="1180" fill="#D9B24B" opacity="0.1"/>
  <rect x="110" y="360" width="420" height="430" rx="42" fill="#FFFDF6" opacity="0.2"/>
  <rect x="670" y="360" width="420" height="420" rx="42" fill="#3B4C6B" opacity="0.16"/>
  <rect x="110" y="980" width="420" height="360" rx="42" fill="#3B4C6B" opacity="0.15"/>
  <rect x="670" y="950" width="420" height="390" rx="42" fill="#FFFDF6" opacity="0.2"/>
  <circle cx="630" cy="835" r="128" fill="#FFFDF6" opacity="0.16"/>
  <ellipse cx="600" cy="812" rx="470" ry="382" fill="#FFFDF6" opacity="0.08"/>
  <rect x="116" y="304" width="968" height="1036" rx="38" fill="#FFF9E8" stroke="#D0B25D" stroke-width="10"/>
<g opacity="0.24" transform="translate(0 -26)">
  <g transform="translate(416 565)">
    <rect x="0" y="0" width="392" height="340" rx="24" fill="#FFF9E8" stroke="#FFFDF6" stroke-width="8"/>
    <circle cx="72" cy="70" r="13" fill="#D9B24B" opacity="0.88"/><circle cx="134" cy="70" r="13" fill="#FFFDF6" opacity="0.88"/><circle cx="196" cy="70" r="13" fill="#D9B24B" opacity="0.88"/><circle cx="258" cy="70" r="13" fill="#FFFDF6" opacity="0.88"/><circle cx="320" cy="70" r="13" fill="#D9B24B" opacity="0.88"/>
<circle cx="72" cy="126" r="13" fill="#FFFDF6" opacity="0.88"/><circle cx="134" cy="126" r="13" fill="#D9B24B" opacity="0.88"/><circle cx="196" cy="126" r="13" fill="#FFFDF6" opacity="0.88"/><circle cx="258" cy="126" r="13" fill="#D9B24B" opacity="0.88"/><circle cx="320" cy="126" r="13" fill="#FFFDF6" opacity="0.88"/>
<circle cx="72" cy="182" r="13" fill="#D9B24B" opacity="0.88"/><circle cx="134" cy="182" r="13" fill="#FFFDF6" opacity="0.88"/><circle cx="196" cy="182" r="13" fill="#D9B24B" opacity="0.88"/><circle cx="258" cy="182" r="13" fill="#FFFDF6" opacity="0.88"/><circle cx="320" cy="182" r="13" fill="#D9B24B" opacity="0.88"/>
<circle cx="72" cy="238" r="13" fill="#FFFDF6" opacity="0.88"/><circle cx="134" cy="238" r="13" fill="#D9B24B" opacity="0.88"/><circle cx="196" cy="238" r="13" fill="#FFFDF6" opacity="0.88"/><circle cx="258" cy="238" r="13" fill="#D9B24B" opacity="0.88"/><circle cx="320" cy="238" r="13" fill="#FFFDF6" opacity="0.88"/>
<circle cx="72" cy="294" r="13" fill="#D9B24B" opacity="0.88"/><circle cx="134" cy="294" r="13" fill="#FFFDF6" opacity="0.88"/><circle cx="196" cy="294" r="13" fill="#D9B24B" opacity="0.88"/><circle cx="258" cy="294" r="13" fill="#FFFDF6" opacity="0.88"/><circle cx="320" cy="294" r="13" fill="#D9B24B" opacity="0.88"/>
  </g></g>

  <g transform="translate(399 557)">
    <rect x="0" y="0" width="392" height="340" rx="24" fill="#FFFDF6" stroke="#D9B24B" stroke-width="8"/>
    <circle cx="72" cy="70" r="13" fill="#3B4C6B" opacity="0.88"/><circle cx="134" cy="70" r="13" fill="#D9B24B" opacity="0.88"/><circle cx="196" cy="70" r="13" fill="#3B4C6B" opacity="0.88"/><circle cx="258" cy="70" r="13" fill="#D9B24B" opacity="0.88"/><circle cx="320" cy="70" r="13" fill="#3B4C6B" opacity="0.88"/>
<circle cx="72" cy="126" r="13" fill="#D9B24B" opacity="0.88"/><circle cx="134" cy="126" r="13" fill="#3B4C6B" opacity="0.88"/><circle cx="196" cy="126" r="13" fill="#D9B24B" opacity="0.88"/><circle cx="258" cy="126" r="13" fill="#3B4C6B" opacity="0.88"/><circle cx="320" cy="126" r="13" fill="#D9B24B" opacity="0.88"/>
<circle cx="72" cy="182" r="13" fill="#3B4C6B" opacity="0.88"/><circle cx="134" cy="182" r="13" fill="#D9B24B" opacity="0.88"/><circle cx="196" cy="182" r="13" fill="#3B4C6B" opacity="0.88"/><circle cx="258" cy="182" r="13" fill="#D9B24B" opacity="0.88"/><circle cx="320" cy="182" r="13" fill="#3B4C6B" opacity="0.88"/>
<circle cx="72" cy="238" r="13" fill="#D9B24B" opacity="0.88"/><circle cx="134" cy="238" r="13" fill="#3B4C6B" opacity="0.88"/><circle cx="196" cy="238" r="13" fill="#D9B24B" opacity="0.88"/><circle cx="258" cy="238" r="13" fill="#3B4C6B" opacity="0.88"/><circle cx="320" cy="238" r="13" fill="#D9B24B" opacity="0.88"/>
<circle cx="72" cy="294" r="13" fill="#3B4C6B" opacity="0.88"/><circle cx="134" cy="294" r="13" fill="#D9B24B" opacity="0.88"/><circle cx="196" cy="294" r="13" fill="#3B4C6B" opacity="0.88"/><circle cx="258" cy="294" r="13" fill="#D9B24B" opacity="0.88"/><circle cx="320" cy="294" r="13" fill="#3B4C6B" opacity="0.88"/>
  </g>

  <g transform="translate(924 332)">
    <rect x="24" y="14" width="128" height="156" rx="64" fill="#FFFDF6" stroke="#3B4C6B" stroke-width="10"/>
    <path d="M44 54 H132" stroke="#D9B24B" stroke-width="10" stroke-linecap="round"/>
    <path d="M44 80 H132" stroke="#D9B24B" stroke-width="10" stroke-linecap="round"/>
    <text x="88" y="128" text-anchor="middle" fill="#2B2B22" font-family="'Trebuchet MS', Arial, sans-serif" font-size="42" font-weight="700" letter-spacing="2">AH</text>
  </g>

  <rect x="0" y="0" width="1200" height="238" fill="#D6A91F" opacity="0.93"/>
  <rect x="0" y="1454" width="1200" height="346" fill="#F1C94C" opacity="0.95"/>
  <text x="600" y="136" text-anchor="middle" fill="#FFFDF6" font-family="Georgia, serif" font-size="62" font-weight="700" letter-spacing="3">JAMES CLEAR</text>
  <text x="600" y="208" text-anchor="middle" fill="#FFFDF6" font-family="'Trebuchet MS', Arial, sans-serif" font-size="30" letter-spacing="4">PRODUCTIVITY</text>
  <text x="600" y="1216" text-anchor="middle" fill="#2B2B22" font-family="'Trebuchet MS', Arial, sans-serif" font-size="92" font-weight="700" letter-spacing="2">ATOMIC HABITS</text>
  <g>
    <rect x="459" y="1466" width="124" height="42" rx="21" fill="#FFFDF6" opacity="0.18" stroke="#FFFDF6" stroke-width="2"/>
    <text x="521" y="1494" text-anchor="middle" fill="#FFFDF6" font-family="'Trebuchet MS', Arial, sans-serif" font-size="20" letter-spacing="1">HABITS</text>
  </g>
  <g>
    <rect x="605" y="1466" width="136" height="42" rx="21" fill="#FFFDF6" opacity="0.18" stroke="#FFFDF6" stroke-width="2"/>
    <text x="673" y="1494" text-anchor="middle" fill="#FFFDF6" font-family="'Trebuchet MS', Arial, sans-serif" font-size="20" letter-spacing="1">SYSTEMS</text>
  </g>
  <text x="600" y="1538" text-anchor="middle" fill="#FFFDF6" font-family="'Trebuchet MS', Arial, sans-serif" font-size="30" letter-spacing="3">HABITS  ·  SYSTEMS  ·  CONSISTENCY</text>
  <text x="600" y="1604" text-anchor="middle" fill="#FFFDF6" font-family="Georgia, serif" font-size="30">Small habits compound into big outcomes</text>
  <text x="600" y="1668" text-anchor="middle" fill="#FFFDF6" font-family="'Trebuchet MS', Arial, sans-serif" font-size="26" letter-spacing="2">Modern Edition · Practical Lessons · Real Scenarios</text>
</svg>
