<svg width="1200" height="1800" viewBox="0 0 1200 1800" fill="none" xmlns="http://www.w3.org/2000/svg" role="img" aria-labelledby="title desc">
  <title id="title">Attached cover</title>
  <desc id="desc">Auto-generated themed cover for Attached by Amir Levine, Rachel Heller.</desc>
  <defs>
    <linearGradient id="g1119129810" x1="0" y1="0" x2="0" y2="1800" gradientUnits="userSpaceOnUse">
      <stop offset="0%" stop-color="#6A3F52"/>
      <stop offset="100%" stop-color="#8B5E6D"/>
    </linearGradient>
  </defs>

  <rect width="1200" height="1800" fill="url(#g1119129810)"/>

  <rect x="-120" y="310" width="820" height="1100" transform="rotate(-12 400 860)" fill="#C79BB1" opacity="0.24"/>
  <rect x="560" y="260" width="760" height="1150" transform="rotate(8 940 835)" fill="#DD9A54" opacity="0.16"/>
  <circle cx="266" cy="558" r="180" fill="#DD9A54" opacity="0.17"/>
  <circle cx="964" cy="1042" r="220" fill="#C79BB1" opacity="0.2"/>
  <rect x="116" y="304" width="968" height="1036" rx="38" fill="#F4ECE2" stroke="#C9B7A1" stroke-width="10"/>

  <g transform="translate(405 552)">
    <circle cx="146" cy="174" r="92" fill="none" stroke="#DD9A54" stroke-width="20"/>
    <circle cx="258" cy="174" r="92" fill="none" stroke="#C79BB1" stroke-width="20"/>
    <path d="M144 286 Q202 350 258 286" stroke="#3A2A34" stroke-width="12" stroke-linecap="round"/>
    <rect x="82" y="52" width="240" height="282" rx="28" fill="none" stroke="#FDF8EE" stroke-width="7" opacity="0.82"/>
  </g>

  <rect x="0" y="0" width="1200" height="238" fill="#6A3F52" opacity="0.93"/>
  <rect x="0" y="1454" width="1200" height="346" fill="#8B5E6D" opacity="0.95"/>
  <text x="600" y="136" text-anchor="middle" fill="#FDF8EE" font-family="Georgia, serif" font-size="62" font-weight="700" letter-spacing="3">AMIR LEVINE, RACHEL HELLER</text>
  <text x="600" y="208" text-anchor="middle" fill="#FDF8EE" font-family="'Trebuchet MS', Arial, sans-serif" font-size="30" letter-spacing="4">RELATIONSHIPS</text>
  <text x="600" y="1216" text-anchor="middle" fill="#3A2A34" font-family="'Trebuchet MS', Arial, sans-serif" font-size="108" font-weight="700" letter-spacing="2">ATTACHED</text>
  <text x="600" y="1538" text-anchor="middle" fill="#FDF8EE" font-family="'Trebuchet MS', Arial, sans-serif" font-size="30" letter-spacing="3">ATTACHMENT  ·  RELATIONSHIPS  ·  DATING</text>
  <text x="600" y="1604" text-anchor="middle" fill="#FDF8EE" font-family="Georgia, serif" font-size="30">Attachment patterns in modern relationships</text>
  <text x="600" y="1668" text-anchor="middle" fill="#FDF8EE" font-family="'Trebuchet MS', Arial, sans-serif" font-size="26" letter-spacing="2">Modern Edition · Practical Lessons · Real Scenarios</text>
</svg>
