<svg width="1200" height="1800" viewBox="0 0 1200 1800" fill="none" xmlns="http://www.w3.org/2000/svg" role="img" aria-labelledby="title desc">
  <title id="title">Blue Ocean Strategy cover</title>
  <desc id="desc">Auto-generated themed cover for Blue Ocean Strategy by W. Chan Kim, Renee Mauborgne.</desc>
  <defs>
    <linearGradient id="g2054518517" x1="0" y1="0" x2="0" y2="1800" gradientUnits="userSpaceOnUse">
      <stop offset="0%" stop-color="#1D4A6D"/>
      <stop offset="100%" stop-color="#2B7BA6"/>
    </linearGradient>
  </defs>

  <rect width="1200" height="1800" fill="url(#g2054518517)"/>

  <rect x="-120" y="310" width="820" height="1100" transform="rotate(-12 400 860)" fill="#9ED3E8" opacity="0.24"/>
  <rect x="560" y="260" width="760" height="1150" transform="rotate(8 940 835)" fill="#58A8D6" opacity="0.16"/>
  <circle cx="226" cy="550" r="180" fill="#58A8D6" opacity="0.17"/>
  <circle cx="1004" cy="1050" r="220" fill="#9ED3E8" opacity="0.2"/>
  <ellipse cx="600" cy="812" rx="470" ry="382" fill="#F8FDFF" opacity="0.08"/>
  <rect x="116" y="304" width="968" height="1036" rx="38" fill="#F1F8FC" stroke="#AAC5D8" stroke-width="10"/>
<g opacity="0.24" transform="translate(0 -26)">
  <g transform="translate(400 578)">
    <rect x="0" y="0" width="416" height="308" rx="24" fill="#F1F8FC" stroke="#F8FDFF" stroke-width="8"/>
    <path d="M20 198 C86 132 148 132 214 198 C278 262 340 262 396 198" fill="none" stroke="#9ED3E8" stroke-width="16" stroke-linecap="round"/>
    <path d="M20 242 C88 176 150 176 216 242 C278 304 340 304 396 242" fill="none" stroke="#F8FDFF" stroke-width="14" stroke-linecap="round"/>
  </g></g>

  <g transform="translate(383 569)">
    <rect x="0" y="0" width="416" height="308" rx="24" fill="#F8FDFF" stroke="#9ED3E8" stroke-width="8"/>
    <path d="M20 198 C86 132 148 132 214 198 C278 262 340 262 396 198" fill="none" stroke="#58A8D6" stroke-width="16" stroke-linecap="round"/>
    <path d="M20 242 C88 176 150 176 216 242 C278 304 340 304 396 242" fill="none" stroke="#9ED3E8" stroke-width="14" stroke-linecap="round"/>
  </g>

  <g transform="translate(928 336)">
    <circle cx="84" cy="84" r="76" fill="#F8FDFF" stroke="#58A8D6" stroke-width="10"/>
    <circle cx="84" cy="84" r="56" fill="#9ED3E8" opacity="0.68"/>
    <text x="84" y="98" text-anchor="middle" fill="#1C2F3E" font-family="'Trebuchet MS', Arial, sans-serif" font-size="44" font-weight="700" letter-spacing="2">BO</text>
  </g>

  <rect x="0" y="0" width="1200" height="238" fill="#1D4A6D" opacity="0.93"/>
  <rect x="0" y="1454" width="1200" height="346" fill="#2B7BA6" opacity="0.95"/>
  <text x="600" y="136" text-anchor="middle" fill="#F8FDFF" font-family="Georgia, serif" font-size="62" font-weight="700" letter-spacing="3">W. CHAN KIM, RENEE MAUBORGNE</text>
  <text x="600" y="208" text-anchor="middle" fill="#F8FDFF" font-family="'Trebuchet MS', Arial, sans-serif" font-size="30" letter-spacing="4">STRATEGY</text>
  <text x="600" y="1216" text-anchor="middle" fill="#1C2F3E" font-family="Georgia, 'Times New Roman', serif" font-size="78" font-weight="700" letter-spacing="2">BLUE OCEAN STRATEGY</text>
  <g>
    <rect x="429" y="1466" width="148" height="42" rx="21" fill="#F8FDFF" opacity="0.18" stroke="#F8FDFF" stroke-width="2"/>
    <text x="503" y="1494" text-anchor="middle" fill="#F8FDFF" font-family="'Trebuchet MS', Arial, sans-serif" font-size="20" letter-spacing="1">STRATEGY</text>
  </g>
  <g>
    <rect x="599" y="1466" width="172" height="42" rx="21" fill="#F8FDFF" opacity="0.18" stroke="#F8FDFF" stroke-width="2"/>
    <text x="685" y="1494" text-anchor="middle" fill="#F8FDFF" font-family="'Trebuchet MS', Arial, sans-serif" font-size="20" letter-spacing="1">INNOVATION</text>
  </g>
  <text x="600" y="1538" text-anchor="middle" fill="#F8FDFF" font-family="'Trebuchet MS', Arial, sans-serif" font-size="30" letter-spacing="3">STRATEGY  ·  INNOVATION  ·  MARKET CREATION</text>
  <text x="600" y="1604" text-anchor="middle" fill="#F8FDFF" font-family="Georgia, serif" font-size="30">Create uncontested market space</text>
  <text x="600" y="1668" text-anchor="middle" fill="#F8FDFF" font-family="'Trebuchet MS', Arial, sans-serif" font-size="26" letter-spacing="2">Modern Edition · Practical Lessons · Real Scenarios</text>
</svg>
