<svg width="1200" height="1800" viewBox="0 0 1200 1800" fill="none" xmlns="http://www.w3.org/2000/svg" role="img" aria-labelledby="title desc">
  <title id="title">Blue Ocean Strategy cover</title>
  <desc id="desc">Auto-generated themed cover for Blue Ocean Strategy by W. Chan Kim, Renee Mauborgne.</desc>
  <defs>
    <linearGradient id="g2054518517" x1="0" y1="0" x2="0" y2="1800" gradientUnits="userSpaceOnUse">
      <stop offset="0%" stop-color="#1D4A6D"/>
      <stop offset="100%" stop-color="#2B7BA6"/>
    </linearGradient>
  </defs>

  <rect width="1200" height="1800" fill="url(#g2054518517)"/>

  <rect x="0" y="300" width="1200" height="1180" fill="#9ED3E8" opacity="0.12"/>
  <rect x="110" y="370" width="420" height="420" rx="42" fill="#F8FDFF" opacity="0.2"/>
  <rect x="670" y="360" width="420" height="430" rx="42" fill="#58A8D6" opacity="0.16"/>
  <rect x="110" y="980" width="420" height="360" rx="42" fill="#58A8D6" opacity="0.15"/>
  <rect x="670" y="950" width="420" height="390" rx="42" fill="#F8FDFF" opacity="0.2"/>
  <rect x="116" y="304" width="968" height="1036" rx="38" fill="#F1F8FC" stroke="#AAC5D8" stroke-width="10"/>

  <g transform="translate(383 569)">
    <rect x="0" y="0" width="416" height="308" rx="24" fill="#F8FDFF" stroke="#9ED3E8" stroke-width="8"/>
    <path d="M20 198 C86 132 148 132 214 198 C278 262 340 262 396 198" fill="none" stroke="#58A8D6" stroke-width="16" stroke-linecap="round"/>
    <path d="M20 242 C88 176 150 176 216 242 C278 304 340 304 396 242" fill="none" stroke="#9ED3E8" stroke-width="14" stroke-linecap="round"/>
  </g>

  <g transform="translate(928 336)">
    <circle cx="84" cy="84" r="76" fill="#F8FDFF" stroke="#58A8D6" stroke-width="10"/>
    <circle cx="84" cy="84" r="56" fill="#9ED3E8" opacity="0.68"/>
    <text x="84" y="98" text-anchor="middle" fill="#1C2F3E" font-family="'Trebuchet MS', Arial, sans-serif" font-size="44" font-weight="700" letter-spacing="2">BO</text>
  </g>

  <rect x="0" y="0" width="1200" height="238" fill="#1D4A6D" opacity="0.93"/>
  <rect x="0" y="1454" width="1200" height="346" fill="#2B7BA6" opacity="0.95"/>
  <text x="600" y="136" text-anchor="middle" fill="#F8FDFF" font-family="Georgia, serif" font-size="62" font-weight="700" letter-spacing="3">W. CHAN KIM, RENEE MAUBORGNE</text>
  <text x="600" y="208" text-anchor="middle" fill="#F8FDFF" font-family="'Trebuchet MS', Arial, sans-serif" font-size="30" letter-spacing="4">STRATEGY</text>
  <text x="600" y="1216" text-anchor="middle" fill="#1C2F3E" font-family="Georgia, 'Times New Roman', serif" font-size="78" font-weight="700" letter-spacing="2">BLUE OCEAN STRATEGY</text>
  <text x="600" y="1538" text-anchor="middle" fill="#F8FDFF" font-family="'Trebuchet MS', Arial, sans-serif" font-size="30" letter-spacing="3">STRATEGY  ·  INNOVATION  ·  MARKET CREATION</text>
  <text x="600" y="1604" text-anchor="middle" fill="#F8FDFF" font-family="Georgia, serif" font-size="30">Create uncontested space instead of competing harder</text>
  <text x="600" y="1668" text-anchor="middle" fill="#F8FDFF" font-family="'Trebuchet MS', Arial, sans-serif" font-size="26" letter-spacing="2">Modern Edition · Practical Lessons · Real Scenarios</text>
</svg>
