<svg width="1200" height="1800" viewBox="0 0 1200 1800" fill="none" xmlns="http://www.w3.org/2000/svg" role="img" aria-labelledby="title desc">
  <title id="title">Built to Last cover</title>
  <desc id="desc">Auto-generated themed cover for Built to Last by Jim Collins and Jerry I. Porras.</desc>
  <defs>
    <linearGradient id="g1066260153" x1="0" y1="0" x2="0" y2="1800" gradientUnits="userSpaceOnUse">
      <stop offset="0%" stop-color="#2E324C"/>
      <stop offset="100%" stop-color="#535B7F"/>
    </linearGradient>
  </defs>

  <rect width="1200" height="1800" fill="url(#g1066260153)"/>

  <circle cx="600" cy="840" r="420" fill="#99A9CC" opacity="0.16"/>
  <circle cx="600" cy="840" r="300" fill="#FEF8EE" opacity="0.16"/>
  <circle cx="616" cy="818" r="210" fill="#D9AB58" opacity="0.18"/>
  <circle cx="584" cy="862" r="130" fill="#FEF8EE" opacity="0.34"/>
  <ellipse cx="600" cy="812" rx="470" ry="382" fill="#FEF8EE" opacity="0.08"/>
  <rect x="116" y="304" width="968" height="1036" rx="38" fill="#F2ECE1" stroke="#C3B29D" stroke-width="10"/>
<g opacity="0.24" transform="translate(0 -26)">
  <g transform="translate(386 576)">
    <rect x="0" y="0" width="404" height="312" rx="24" fill="#F2ECE1" stroke="#FEF8EE" stroke-width="8"/>
    <path d="M34 266 L132 144 L194 224 L278 112 L370 266 Z" fill="#99A9CC" opacity="0.88"/>
    <path d="M118 154 V84" stroke="#23283B" stroke-width="10" stroke-linecap="round"/>
    <path d="M118 86 L188 106 L118 126 Z" fill="#23283B" opacity="0.9"/>
    <circle cx="320" cy="78" r="22" fill="#FEF8EE" opacity="0.72"/>
  </g></g>

  <g transform="translate(399 567)">
    <rect x="0" y="0" width="404" height="312" rx="24" fill="#FEF8EE" stroke="#99A9CC" stroke-width="8"/>
    <path d="M34 266 L132 144 L194 224 L278 112 L370 266 Z" fill="#D9AB58" opacity="0.88"/>
    <path d="M118 154 V84" stroke="#23283B" stroke-width="10" stroke-linecap="round"/>
    <path d="M118 86 L188 106 L118 126 Z" fill="#23283B" opacity="0.9"/>
    <circle cx="320" cy="78" r="22" fill="#99A9CC" opacity="0.72"/>
  </g>

  <g transform="translate(924 332)">
    <rect x="24" y="14" width="128" height="156" rx="64" fill="#FEF8EE" stroke="#D9AB58" stroke-width="10"/>
    <path d="M44 54 H132" stroke="#99A9CC" stroke-width="10" stroke-linecap="round"/>
    <path d="M44 80 H132" stroke="#99A9CC" stroke-width="10" stroke-linecap="round"/>
    <text x="88" y="128" text-anchor="middle" fill="#23283B" font-family="'Trebuchet MS', Arial, sans-serif" font-size="42" font-weight="700" letter-spacing="2">BL</text>
  </g>

  <rect x="0" y="0" width="1200" height="238" fill="#2E324C" opacity="0.93"/>
  <rect x="0" y="1454" width="1200" height="346" fill="#535B7F" opacity="0.95"/>
  <text x="600" y="136" text-anchor="middle" fill="#FEF8EE" font-family="Georgia, serif" font-size="62" font-weight="700" letter-spacing="3">JIM COLLINS AND JERRY I. PORRAS</text>
  <text x="600" y="208" text-anchor="middle" fill="#FEF8EE" font-family="'Trebuchet MS', Arial, sans-serif" font-size="30" letter-spacing="4">LEADERSHIP</text>
  <text x="600" y="1216" text-anchor="middle" fill="#23283B" font-family="Georgia, 'Times New Roman', serif" font-size="92" font-weight="700" letter-spacing="2">BUILT TO LAST</text>
  <g>
    <rect x="417" y="1466" width="184" height="42" rx="21" fill="#FEF8EE" opacity="0.18" stroke="#FEF8EE" stroke-width="2"/>
    <text x="509" y="1494" text-anchor="middle" fill="#FEF8EE" font-family="'Trebuchet MS', Arial, sans-serif" font-size="20" letter-spacing="1">COMPETITION</text>
  </g>
  <g>
    <rect x="623" y="1466" width="160" height="42" rx="21" fill="#FEF8EE" opacity="0.18" stroke="#FEF8EE" stroke-width="2"/>
    <text x="703" y="1494" text-anchor="middle" fill="#FEF8EE" font-family="'Trebuchet MS', Arial, sans-serif" font-size="20" letter-spacing="1">ADVANTAGE</text>
  </g>
  <text x="600" y="1538" text-anchor="middle" fill="#FEF8EE" font-family="'Trebuchet MS', Arial, sans-serif" font-size="30" letter-spacing="3">COMPETITION  ·  ADVANTAGE  ·  LEADERSHIP</text>
  <text x="600" y="1604" text-anchor="middle" fill="#FEF8EE" font-family="Georgia, serif" font-size="30">Build institutions that outlive founders</text>
  <text x="600" y="1668" text-anchor="middle" fill="#FEF8EE" font-family="'Trebuchet MS', Arial, sans-serif" font-size="26" letter-spacing="2">Modern Edition · Practical Lessons · Real Scenarios</text>
</svg>
