<svg width="1200" height="1800" viewBox="0 0 1200 1800" fill="none" xmlns="http://www.w3.org/2000/svg" role="img" aria-labelledby="title desc">
  <title id="title">Can&#39;t Hurt Me cover</title>
  <desc id="desc">Auto-generated themed cover for Can&#39;t Hurt Me by David Goggins.</desc>
  <defs>
    <linearGradient id="g323016015" x1="0" y1="0" x2="0" y2="1800" gradientUnits="userSpaceOnUse">
      <stop offset="0%" stop-color="#1A1A1A"/>
      <stop offset="100%" stop-color="#3B3B3B"/>
    </linearGradient>
  </defs>

  <rect width="1200" height="1800" fill="url(#g323016015)"/>

  <rect x="0" y="300" width="1200" height="1180" fill="#8E8E8E" opacity="0.12"/>
  <rect x="140" y="360" width="920" height="1050" rx="48" fill="#FFF8EE" opacity="0.22"/>
  <path d="M0 560 Q300 458 600 560 T1200 560" stroke="#FFF8EE" stroke-width="22" opacity="0.24"/>
  <path d="M0 1180 Q300 1078 600 1180 T1200 1180" stroke="#C9782A" stroke-width="16" opacity="0.22"/>
  <rect x="116" y="304" width="968" height="1036" rx="38" fill="#F1ECE4" stroke="#BFB3A5" stroke-width="10"/>

  <g transform="translate(413 553)">
    <path d="M182 26 L326 84 V192 C326 286 262 350 182 384 C102 350 38 286 38 192 V84 Z" fill="#C9782A" opacity="0.88"/>
    <path d="M182 70 L286 112 V192 C286 260 244 310 182 340 C120 310 78 260 78 192 V112 Z" fill="#FFF8EE" opacity="0.9"/>
    <path d="M132 198 L166 232 L236 160" fill="none" stroke="#191512" stroke-width="16" stroke-linecap="round" stroke-linejoin="round"/>
  </g>

  <g transform="translate(926 334)">
    <polygon points="88,8 162,52 162,136 88,180 14,136 14,52" fill="#FFF8EE" stroke="#C9782A" stroke-width="10"/>
    <circle cx="88" cy="94" r="44" fill="#8E8E8E" opacity="0.7"/>
    <text x="88" y="108" text-anchor="middle" fill="#191512" font-family="'Trebuchet MS', Arial, sans-serif" font-size="42" font-weight="700" letter-spacing="2">CT</text>
  </g>

  <rect x="0" y="0" width="1200" height="238" fill="#1A1A1A" opacity="0.93"/>
  <rect x="0" y="1454" width="1200" height="346" fill="#3B3B3B" opacity="0.95"/>
  <text x="600" y="136" text-anchor="middle" fill="#FFF8EE" font-family="Georgia, serif" font-size="62" font-weight="700" letter-spacing="3">DAVID GOGGINS</text>
  <text x="600" y="208" text-anchor="middle" fill="#FFF8EE" font-family="'Trebuchet MS', Arial, sans-serif" font-size="30" letter-spacing="4">RESILIENCE</text>
  <text x="600" y="1216" text-anchor="middle" fill="#191512" font-family="Georgia, 'Times New Roman', serif" font-size="92" font-weight="700" letter-spacing="2">CAN&#39;T HURT ME</text>
  <text x="600" y="1538" text-anchor="middle" fill="#FFF8EE" font-family="'Trebuchet MS', Arial, sans-serif" font-size="30" letter-spacing="3">DISCIPLINE  ·  RESILIENCE  ·  ACCOUNTABILITY</text>
  <text x="600" y="1604" text-anchor="middle" fill="#FFF8EE" font-family="Georgia, serif" font-size="30">Mental toughness through deliberate adversity</text>
  <text x="600" y="1668" text-anchor="middle" fill="#FFF8EE" font-family="'Trebuchet MS', Arial, sans-serif" font-size="26" letter-spacing="2">Modern Edition · Practical Lessons · Real Scenarios</text>
</svg>
