<svg width="1200" height="1800" viewBox="0 0 1200 1800" fill="none" xmlns="http://www.w3.org/2000/svg" role="img" aria-labelledby="title desc">
  <title id="title">Clear Thinking cover</title>
  <desc id="desc">Auto-generated themed cover for Clear Thinking by Shane Parrish.</desc>
  <defs>
    <linearGradient id="g540719699" x1="0" y1="0" x2="0" y2="1800" gradientUnits="userSpaceOnUse">
      <stop offset="0%" stop-color="#303D5F"/>
      <stop offset="100%" stop-color="#4C5D93"/>
    </linearGradient>
  </defs>

  <rect width="1200" height="1800" fill="url(#g540719699)"/>

  <rect x="0" y="300" width="1200" height="1180" fill="#98ABCE" opacity="0.1"/>
  <rect x="110" y="360" width="420" height="430" rx="42" fill="#FDF8EE" opacity="0.2"/>
  <rect x="670" y="360" width="420" height="420" rx="42" fill="#E2B757" opacity="0.16"/>
  <rect x="110" y="980" width="420" height="360" rx="42" fill="#E2B757" opacity="0.15"/>
  <rect x="670" y="950" width="420" height="390" rx="42" fill="#FDF8EE" opacity="0.2"/>
  <circle cx="649" cy="874" r="128" fill="#FDF8EE" opacity="0.16"/>
  <ellipse cx="600" cy="812" rx="470" ry="382" fill="#FDF8EE" opacity="0.08"/>
  <rect x="116" y="304" width="968" height="1036" rx="38" fill="#F3EDE0" stroke="#C3B49C" stroke-width="10"/>
<g opacity="0.24" transform="translate(0 -26)">
  <g transform="translate(391 574)">
    <rect x="0" y="0" width="420" height="328" rx="24" fill="#F3EDE0" stroke="#FDF8EE" stroke-width="8"/>
    <path d="M56 258 C136 192 228 222 306 158" stroke="#222F40" stroke-width="10" stroke-linecap="round"/>
    <rect x="82" y="98" width="250" height="26" rx="13" fill="#FDF8EE" opacity="0.55"/>
    <rect x="82" y="132" width="212" height="26" rx="13" fill="#98ABCE" opacity="0.45"/>
    <g transform="translate(294 214) rotate(-18)">
      <rect x="0" y="0" width="88" height="22" rx="10" fill="#98ABCE" opacity="0.9"/>
      <polygon points="88,11 108,0 108,22" fill="#222F40"/>
      <polygon points="108,0 118,11 108,22" fill="#F3EDE0"/>
    </g>
  </g></g>

  <g transform="translate(404 565)">
    <rect x="0" y="0" width="420" height="328" rx="24" fill="#FDF8EE" stroke="#98ABCE" stroke-width="8"/>
    <path d="M56 258 C136 192 228 222 306 158" stroke="#222F40" stroke-width="10" stroke-linecap="round"/>
    <rect x="82" y="98" width="250" height="26" rx="13" fill="#98ABCE" opacity="0.55"/>
    <rect x="82" y="132" width="212" height="26" rx="13" fill="#E2B757" opacity="0.45"/>
    <g transform="translate(294 214) rotate(-18)">
      <rect x="0" y="0" width="88" height="22" rx="10" fill="#E2B757" opacity="0.9"/>
      <polygon points="88,11 108,0 108,22" fill="#222F40"/>
      <polygon points="108,0 118,11 108,22" fill="#FDF8EE"/>
    </g>
  </g>

  <g transform="translate(924 332)">
    <polygon points="88,8 168,88 88,168 8,88" fill="#FDF8EE" stroke="#E2B757" stroke-width="10"/>
    <circle cx="88" cy="88" r="38" fill="#98ABCE" opacity="0.72"/>
    <text x="88" y="102" text-anchor="middle" fill="#222F40" font-family="'Trebuchet MS', Arial, sans-serif" font-size="40" font-weight="700" letter-spacing="2">CT</text>
  </g>

  <rect x="0" y="0" width="1200" height="238" fill="#303D5F" opacity="0.93"/>
  <rect x="0" y="1454" width="1200" height="346" fill="#4C5D93" opacity="0.95"/>
  <text x="600" y="136" text-anchor="middle" fill="#FDF8EE" font-family="Georgia, serif" font-size="62" font-weight="700" letter-spacing="3">SHANE PARRISH</text>
  <text x="600" y="208" text-anchor="middle" fill="#FDF8EE" font-family="'Trebuchet MS', Arial, sans-serif" font-size="30" letter-spacing="4">THINKING</text>
  <text x="600" y="1216" text-anchor="middle" fill="#222F40" font-family="Georgia, 'Times New Roman', serif" font-size="92" font-weight="700" letter-spacing="2">CLEAR THINKING</text>
  <g>
    <rect x="435" y="1466" width="160" height="42" rx="21" fill="#FDF8EE" opacity="0.18" stroke="#FDF8EE" stroke-width="2"/>
    <text x="515" y="1494" text-anchor="middle" fill="#FDF8EE" font-family="'Trebuchet MS', Arial, sans-serif" font-size="20" letter-spacing="1">REASONING</text>
  </g>
  <g>
    <rect x="617" y="1466" width="148" height="42" rx="21" fill="#FDF8EE" opacity="0.18" stroke="#FDF8EE" stroke-width="2"/>
    <text x="691" y="1494" text-anchor="middle" fill="#FDF8EE" font-family="'Trebuchet MS', Arial, sans-serif" font-size="20" letter-spacing="1">JUDGMENT</text>
  </g>
  <text x="600" y="1538" text-anchor="middle" fill="#FDF8EE" font-family="'Trebuchet MS', Arial, sans-serif" font-size="30" letter-spacing="3">REASONING  ·  JUDGMENT  ·  SYSTEMS</text>
  <text x="600" y="1604" text-anchor="middle" fill="#FDF8EE" font-family="Georgia, serif" font-size="30">Pause and separate signal from impulse</text>
  <text x="600" y="1668" text-anchor="middle" fill="#FDF8EE" font-family="'Trebuchet MS', Arial, sans-serif" font-size="26" letter-spacing="2">Modern Edition · Practical Lessons · Real Scenarios</text>
</svg>
