<svg width="1200" height="1800" viewBox="0 0 1200 1800" fill="none" xmlns="http://www.w3.org/2000/svg" role="img" aria-labelledby="title desc">
  <title id="title">Competing Against Luck cover</title>
  <desc id="desc">Auto-generated themed cover for Competing Against Luck by Clayton Christensen.</desc>
  <defs>
    <linearGradient id="g250700108" x1="0" y1="0" x2="0" y2="1800" gradientUnits="userSpaceOnUse">
      <stop offset="0%" stop-color="#244C5B"/>
      <stop offset="100%" stop-color="#42858B"/>
    </linearGradient>
  </defs>

  <rect width="1200" height="1800" fill="url(#g250700108)"/>

  <rect x="-120" y="310" width="820" height="1100" transform="rotate(-12 400 860)" fill="#8FC6C8" opacity="0.24"/>
  <rect x="560" y="260" width="760" height="1150" transform="rotate(8 940 835)" fill="#EC8753" opacity="0.16"/>
  <circle cx="253" cy="561" r="180" fill="#EC8753" opacity="0.17"/>
  <circle cx="977" cy="1039" r="220" fill="#8FC6C8" opacity="0.2"/>
  <ellipse cx="600" cy="812" rx="470" ry="382" fill="#FDF8EE" opacity="0.08"/>
  <rect x="116" y="304" width="968" height="1036" rx="38" fill="#F4EBE2" stroke="#C5B19B" stroke-width="10"/>
<g opacity="0.24" transform="translate(0 -26)">
  <g transform="translate(409 548)">
    <circle cx="196" cy="186" r="152" fill="#F4EBE2" opacity="0.95" stroke="#FDF8EE" stroke-width="8"/>
    <circle cx="196" cy="186" r="104" fill="none" stroke="#8FC6C8" stroke-width="16"/>
    <circle cx="196" cy="186" r="62" fill="none" stroke="#FDF8EE" stroke-width="14"/>
    <circle cx="196" cy="186" r="24" fill="#203238"/>
  </g></g>

  <g transform="translate(392 540)">
    <circle cx="196" cy="186" r="152" fill="#FDF8EE" opacity="0.95" stroke="#8FC6C8" stroke-width="8"/>
    <circle cx="196" cy="186" r="104" fill="none" stroke="#EC8753" stroke-width="16"/>
    <circle cx="196" cy="186" r="62" fill="none" stroke="#8FC6C8" stroke-width="14"/>
    <circle cx="196" cy="186" r="24" fill="#203238"/>
  </g>

  <g transform="translate(930 336)">
    <path d="M82 8 L152 34 V90 C152 142 120 174 82 190 C44 174 12 142 12 90 V34 Z" fill="#FDF8EE" stroke="#EC8753" stroke-width="10"/>
    <rect x="30" y="64" width="104" height="64" rx="20" fill="#8FC6C8" opacity="0.72"/>
    <text x="82" y="106" text-anchor="middle" fill="#203238" font-family="'Trebuchet MS', Arial, sans-serif" font-size="40" font-weight="700" letter-spacing="2">CA</text>
  </g>

  <rect x="0" y="0" width="1200" height="238" fill="#244C5B" opacity="0.93"/>
  <rect x="0" y="1454" width="1200" height="346" fill="#42858B" opacity="0.95"/>
  <text x="600" y="136" text-anchor="middle" fill="#FDF8EE" font-family="Georgia, serif" font-size="62" font-weight="700" letter-spacing="3">CLAYTON CHRISTENSEN</text>
  <text x="600" y="208" text-anchor="middle" fill="#FDF8EE" font-family="'Trebuchet MS', Arial, sans-serif" font-size="30" letter-spacing="4">INNOVATION</text>
  <text x="600" y="1216" text-anchor="middle" fill="#203238" font-family="'Trebuchet MS', Arial, sans-serif" font-size="78" font-weight="700" letter-spacing="2">COMPETING AGAINST LUCK</text>
  <g>
    <rect x="423" y="1466" width="172" height="42" rx="21" fill="#FDF8EE" opacity="0.18" stroke="#FDF8EE" stroke-width="2"/>
    <text x="509" y="1494" text-anchor="middle" fill="#FDF8EE" font-family="'Trebuchet MS', Arial, sans-serif" font-size="20" letter-spacing="1">INNOVATION</text>
  </g>
  <g>
    <rect x="617" y="1466" width="160" height="42" rx="21" fill="#FDF8EE" opacity="0.18" stroke="#FDF8EE" stroke-width="2"/>
    <text x="697" y="1494" text-anchor="middle" fill="#FDF8EE" font-family="'Trebuchet MS', Arial, sans-serif" font-size="20" letter-spacing="1">CUSTOMERS</text>
  </g>
  <text x="600" y="1538" text-anchor="middle" fill="#FDF8EE" font-family="'Trebuchet MS', Arial, sans-serif" font-size="30" letter-spacing="3">INNOVATION  ·  CUSTOMERS  ·  STRATEGY</text>
  <text x="600" y="1604" text-anchor="middle" fill="#FDF8EE" font-family="Georgia, serif" font-size="30">Win by solving the job to be done</text>
  <text x="600" y="1668" text-anchor="middle" fill="#FDF8EE" font-family="'Trebuchet MS', Arial, sans-serif" font-size="26" letter-spacing="2">Modern Edition · Practical Lessons · Real Scenarios</text>
</svg>
