<svg width="1200" height="1800" viewBox="0 0 1200 1800" fill="none" xmlns="http://www.w3.org/2000/svg" role="img" aria-labelledby="title desc">
  <title id="title">Competing Against Luck cover</title>
  <desc id="desc">Auto-generated themed cover for Competing Against Luck by Clayton Christensen.</desc>
  <defs>
    <linearGradient id="g250700108" x1="0" y1="0" x2="0" y2="1800" gradientUnits="userSpaceOnUse">
      <stop offset="0%" stop-color="#234057"/>
      <stop offset="100%" stop-color="#3C6E7C"/>
    </linearGradient>
  </defs>

  <rect width="1200" height="1800" fill="url(#g250700108)"/>

  <rect x="0" y="300" width="1200" height="1180" fill="#8CBCC6" opacity="0.12"/>
  <rect x="140" y="360" width="920" height="1050" rx="48" fill="#FDF8EE" opacity="0.22"/>
  <path d="M0 560 Q300 441 600 560 T1200 560" stroke="#FDF8EE" stroke-width="22" opacity="0.24"/>
  <path d="M0 1180 Q300 1061 600 1180 T1200 1180" stroke="#EB9A4F" stroke-width="16" opacity="0.22"/>
  <rect x="116" y="304" width="968" height="1036" rx="38" fill="#F4ECE2" stroke="#C8B8A2" stroke-width="10"/>

  <g transform="translate(392 536)">
    <rect x="38" y="28" width="320" height="300" rx="24" fill="#FDF8EE" stroke="#8CBCC6" stroke-width="8"/>
    <path d="M86 288 L302 72" stroke="#EB9A4F" stroke-width="16" stroke-linecap="round"/>
    <path d="M302 288 L86 72" stroke="#8CBCC6" stroke-width="16" stroke-linecap="round"/>
    <rect x="74" y="278" width="34" height="12" rx="6" fill="#22343B"/>
    <rect x="292" y="278" width="34" height="12" rx="6" fill="#22343B"/>
  </g>

  <rect x="0" y="0" width="1200" height="238" fill="#234057" opacity="0.93"/>
  <rect x="0" y="1454" width="1200" height="346" fill="#3C6E7C" opacity="0.95"/>
  <text x="600" y="136" text-anchor="middle" fill="#FDF8EE" font-family="Georgia, serif" font-size="62" font-weight="700" letter-spacing="3">CLAYTON CHRISTENSEN</text>
  <text x="600" y="208" text-anchor="middle" fill="#FDF8EE" font-family="'Trebuchet MS', Arial, sans-serif" font-size="30" letter-spacing="4">INNOVATION</text>
  <text x="600" y="1216" text-anchor="middle" fill="#22343B" font-family="'Trebuchet MS', Arial, sans-serif" font-size="78" font-weight="700" letter-spacing="2">COMPETING AGAINST LUCK</text>
  <text x="600" y="1538" text-anchor="middle" fill="#FDF8EE" font-family="'Trebuchet MS', Arial, sans-serif" font-size="30" letter-spacing="3">INNOVATION  ·  CUSTOMERS  ·  STRATEGY</text>
  <text x="600" y="1604" text-anchor="middle" fill="#FDF8EE" font-family="Georgia, serif" font-size="30">Entrepreneurship and growth</text>
  <text x="600" y="1668" text-anchor="middle" fill="#FDF8EE" font-family="'Trebuchet MS', Arial, sans-serif" font-size="26" letter-spacing="2">Modern Edition · Practical Lessons · Real Scenarios</text>
</svg>
