<svg width="1200" height="1800" viewBox="0 0 1200 1800" fill="none" xmlns="http://www.w3.org/2000/svg" role="img" aria-labelledby="title desc">
  <title id="title">Deep Work cover</title>
  <desc id="desc">Auto-generated themed cover for Deep Work by Cal Newport.</desc>
  <defs>
    <linearGradient id="g1380698989" x1="0" y1="0" x2="0" y2="1800" gradientUnits="userSpaceOnUse">
      <stop offset="0%" stop-color="#0F2F58"/>
      <stop offset="100%" stop-color="#20518A"/>
    </linearGradient>
  </defs>

  <rect width="1200" height="1800" fill="url(#g1380698989)"/>

  <rect x="-120" y="310" width="820" height="1100" transform="rotate(-12 400 860)" fill="#88A9D0" opacity="0.24"/>
  <rect x="560" y="260" width="760" height="1150" transform="rotate(8 940 835)" fill="#1B3F73" opacity="0.16"/>
  <circle cx="272" cy="539" r="180" fill="#1B3F73" opacity="0.17"/>
  <circle cx="958" cy="1061" r="220" fill="#88A9D0" opacity="0.2"/>
  <ellipse cx="600" cy="812" rx="470" ry="382" fill="#FFFFFF" opacity="0.08"/>
  <rect x="116" y="304" width="968" height="1036" rx="38" fill="#F8FBFF" stroke="#B6C5D8" stroke-width="10"/>
<g opacity="0.24" transform="translate(0 -26)">
  <g transform="translate(404 571)">
    <rect x="0" y="0" width="380" height="332" rx="20" fill="#F8FBFF" stroke="#FFFFFF" stroke-width="8"/>
    <rect x="62" y="64" width="256" height="188" rx="14" fill="#15253B" opacity="0.9"/>
    <rect x="92" y="278" width="196" height="20" rx="10" fill="#88A9D0" opacity="0.86"/>
  </g></g>

  <g transform="translate(417 563)">
    <rect x="0" y="0" width="380" height="332" rx="20" fill="#FFFFFF" stroke="#88A9D0" stroke-width="8"/>
    <rect x="62" y="64" width="256" height="188" rx="14" fill="#15253B" opacity="0.9"/>
    <rect x="92" y="278" width="196" height="20" rx="10" fill="#1B3F73" opacity="0.86"/>
  </g>

  <g transform="translate(924 332)">
    <rect x="24" y="14" width="128" height="156" rx="64" fill="#FFFFFF" stroke="#1B3F73" stroke-width="10"/>
    <path d="M44 54 H132" stroke="#88A9D0" stroke-width="10" stroke-linecap="round"/>
    <path d="M44 80 H132" stroke="#88A9D0" stroke-width="10" stroke-linecap="round"/>
    <text x="88" y="128" text-anchor="middle" fill="#15253B" font-family="'Trebuchet MS', Arial, sans-serif" font-size="42" font-weight="700" letter-spacing="2">DW</text>
  </g>

  <rect x="0" y="0" width="1200" height="238" fill="#0F2F58" opacity="0.93"/>
  <rect x="0" y="1454" width="1200" height="346" fill="#20518A" opacity="0.95"/>
  <text x="600" y="136" text-anchor="middle" fill="#FFFFFF" font-family="Georgia, serif" font-size="62" font-weight="700" letter-spacing="3">CAL NEWPORT</text>
  <text x="600" y="208" text-anchor="middle" fill="#FFFFFF" font-family="'Trebuchet MS', Arial, sans-serif" font-size="30" letter-spacing="4">PRODUCTIVITY</text>
  <text x="600" y="1216" text-anchor="middle" fill="#15253B" font-family="'Trebuchet MS', Arial, sans-serif" font-size="108" font-weight="700" letter-spacing="2">DEEP WORK</text>
  <g>
    <rect x="429" y="1466" width="112" height="42" rx="21" fill="#FFFFFF" opacity="0.18" stroke="#FFFFFF" stroke-width="2"/>
    <text x="485" y="1494" text-anchor="middle" fill="#FFFFFF" font-family="'Trebuchet MS', Arial, sans-serif" font-size="20" letter-spacing="1">FOCUS</text>
  </g>
  <g>
    <rect x="563" y="1466" width="208" height="42" rx="21" fill="#FFFFFF" opacity="0.18" stroke="#FFFFFF" stroke-width="2"/>
    <text x="667" y="1494" text-anchor="middle" fill="#FFFFFF" font-family="'Trebuchet MS', Arial, sans-serif" font-size="20" letter-spacing="1">CONCENTRATION</text>
  </g>
  <text x="600" y="1538" text-anchor="middle" fill="#FFFFFF" font-family="'Trebuchet MS', Arial, sans-serif" font-size="30" letter-spacing="3">FOCUS  ·  CONCENTRATION  ·  ATTENTION</text>
  <text x="600" y="1604" text-anchor="middle" fill="#FFFFFF" font-family="Georgia, serif" font-size="30">Concentrate deeply where value is created</text>
  <text x="600" y="1668" text-anchor="middle" fill="#FFFFFF" font-family="'Trebuchet MS', Arial, sans-serif" font-size="26" letter-spacing="2">Modern Edition · Practical Lessons · Real Scenarios</text>
</svg>
