<svg width="1200" height="1800" viewBox="0 0 1200 1800" fill="none" xmlns="http://www.w3.org/2000/svg" role="img" aria-labelledby="title desc">
  <title id="title">Deep Work cover</title>
  <desc id="desc">Auto-generated themed cover for Deep Work by Cal Newport.</desc>
  <defs>
    <linearGradient id="g1380698989" x1="0" y1="0" x2="0" y2="1800" gradientUnits="userSpaceOnUse">
      <stop offset="0%" stop-color="#0F2F58"/>
      <stop offset="100%" stop-color="#20518A"/>
    </linearGradient>
  </defs>

  <rect width="1200" height="1800" fill="url(#g1380698989)"/>

  <rect x="0" y="300" width="1200" height="1180" fill="#88A9D0" opacity="0.12"/>
  <rect x="140" y="360" width="920" height="1050" rx="48" fill="#FFFFFF" opacity="0.22"/>
  <path d="M0 560 Q300 419 600 560 T1200 560" stroke="#FFFFFF" stroke-width="22" opacity="0.24"/>
  <path d="M0 1180 Q300 1039 600 1180 T1200 1180" stroke="#1B3F73" stroke-width="16" opacity="0.22"/>
  <rect x="116" y="304" width="968" height="1036" rx="38" fill="#F8FBFF" stroke="#B6C5D8" stroke-width="10"/>

  <g transform="translate(417 563)">
    <rect x="0" y="0" width="380" height="332" rx="20" fill="#FFFFFF" stroke="#88A9D0" stroke-width="8"/>
    <rect x="62" y="64" width="256" height="188" rx="14" fill="#15253B" opacity="0.9"/>
    <rect x="92" y="278" width="196" height="20" rx="10" fill="#1B3F73" opacity="0.86"/>
  </g>

  <rect x="0" y="0" width="1200" height="238" fill="#0F2F58" opacity="0.93"/>
  <rect x="0" y="1454" width="1200" height="346" fill="#20518A" opacity="0.95"/>
  <text x="600" y="136" text-anchor="middle" fill="#FFFFFF" font-family="Georgia, serif" font-size="62" font-weight="700" letter-spacing="3">CAL NEWPORT</text>
  <text x="600" y="208" text-anchor="middle" fill="#FFFFFF" font-family="'Trebuchet MS', Arial, sans-serif" font-size="30" letter-spacing="4">PRODUCTIVITY</text>
  <text x="600" y="1216" text-anchor="middle" fill="#15253B" font-family="'Trebuchet MS', Arial, sans-serif" font-size="108" font-weight="700" letter-spacing="2">DEEP WORK</text>
  <text x="600" y="1538" text-anchor="middle" fill="#FFFFFF" font-family="'Trebuchet MS', Arial, sans-serif" font-size="30" letter-spacing="3">FOCUS  ·  CONCENTRATION  ·  ATTENTION</text>
  <text x="600" y="1604" text-anchor="middle" fill="#FFFFFF" font-family="Georgia, serif" font-size="30">Focus deeply on work that truly matters</text>
  <text x="600" y="1668" text-anchor="middle" fill="#FFFFFF" font-family="'Trebuchet MS', Arial, sans-serif" font-size="26" letter-spacing="2">Modern Edition · Practical Lessons · Real Scenarios</text>
</svg>
