<svg width="1200" height="1800" viewBox="0 0 1200 1800" fill="none" xmlns="http://www.w3.org/2000/svg" role="img" aria-labelledby="title desc">
  <title id="title">Discipline Is Destiny cover</title>
  <desc id="desc">Auto-generated themed cover for Discipline Is Destiny by Ryan Holiday.</desc>
  <defs>
    <linearGradient id="g247506451" x1="0" y1="0" x2="0" y2="1800" gradientUnits="userSpaceOnUse">
      <stop offset="0%" stop-color="#274F4C"/>
      <stop offset="100%" stop-color="#3E7364"/>
    </linearGradient>
  </defs>

  <rect width="1200" height="1800" fill="url(#g247506451)"/>

  <rect x="0" y="300" width="1200" height="1180" fill="#8AC0AB" opacity="0.12"/>
  <rect x="110" y="370" width="420" height="420" rx="42" fill="#FBF8EF" opacity="0.2"/>
  <rect x="670" y="360" width="420" height="430" rx="42" fill="#DB9F4F" opacity="0.16"/>
  <rect x="110" y="980" width="420" height="360" rx="42" fill="#DB9F4F" opacity="0.15"/>
  <rect x="670" y="950" width="420" height="390" rx="42" fill="#FBF8EF" opacity="0.2"/>
  <rect x="116" y="304" width="968" height="1036" rx="38" fill="#F2EEE3" stroke="#C6B9A3" stroke-width="10"/>

  <g transform="translate(407 571)">
    <circle cx="204" cy="72" r="44" fill="#DB9F4F" opacity="0.44"/>
    <path d="M24 292 L132 144 L208 248 L296 114 L388 292 Z" fill="#8AC0AB" opacity="0.82"/>
    <path d="M84 292 L168 186 L226 260 L302 172 L360 292 Z" fill="#DB9F4F" opacity="0.82"/>
    <path d="M34 292 H378" stroke="#FBF8EF" stroke-width="12" stroke-linecap="round" opacity="0.8"/>
  </g>

  <g transform="translate(926 334)">
    <polygon points="88,8 162,52 162,136 88,180 14,136 14,52" fill="#FBF8EF" stroke="#DB9F4F" stroke-width="10"/>
    <circle cx="88" cy="94" r="44" fill="#8AC0AB" opacity="0.7"/>
    <text x="88" y="108" text-anchor="middle" fill="#203230" font-family="'Trebuchet MS', Arial, sans-serif" font-size="42" font-weight="700" letter-spacing="2">DD</text>
  </g>

  <rect x="0" y="0" width="1200" height="238" fill="#274F4C" opacity="0.93"/>
  <rect x="0" y="1454" width="1200" height="346" fill="#3E7364" opacity="0.95"/>
  <text x="600" y="136" text-anchor="middle" fill="#FBF8EF" font-family="Georgia, serif" font-size="62" font-weight="700" letter-spacing="3">RYAN HOLIDAY</text>
  <text x="600" y="208" text-anchor="middle" fill="#FBF8EF" font-family="'Trebuchet MS', Arial, sans-serif" font-size="30" letter-spacing="4">PRODUCTIVITY</text>
  <text x="600" y="1216" text-anchor="middle" fill="#203230" font-family="'Trebuchet MS', Arial, sans-serif" font-size="78" font-weight="700" letter-spacing="2">DISCIPLINE IS DESTINY</text>
  <text x="600" y="1538" text-anchor="middle" fill="#FBF8EF" font-family="'Trebuchet MS', Arial, sans-serif" font-size="30" letter-spacing="3">DISCIPLINE  ·  SELF CONTROL  ·  STOICISM</text>
  <text x="600" y="1604" text-anchor="middle" fill="#FBF8EF" font-family="Georgia, serif" font-size="30">Focus, habits, and execution</text>
  <text x="600" y="1668" text-anchor="middle" fill="#FBF8EF" font-family="'Trebuchet MS', Arial, sans-serif" font-size="26" letter-spacing="2">Modern Edition · Practical Lessons · Real Scenarios</text>
</svg>
