<svg width="1200" height="1800" viewBox="0 0 1200 1800" fill="none" xmlns="http://www.w3.org/2000/svg" role="img" aria-labelledby="title desc">
  <title id="title">Discipline Is Destiny cover</title>
  <desc id="desc">Auto-generated themed cover for Discipline Is Destiny by Ryan Holiday.</desc>
  <defs>
    <linearGradient id="g1938582610" x1="0" y1="0" x2="0" y2="1800" gradientUnits="userSpaceOnUse">
      <stop offset="0%" stop-color="#323C55"/>
      <stop offset="100%" stop-color="#54628B"/>
    </linearGradient>
  </defs>

  <rect width="1200" height="1800" fill="url(#g1938582610)"/>

  <rect x="0" y="300" width="1200" height="1180" fill="#ABBBD4" opacity="0.1"/>
  <g fill="#FEF8EE" opacity="0.19">
    <circle cx="210" cy="560" r="124"/>
    <circle cx="1020" cy="640" r="110"/>
    <circle cx="920" cy="1220" r="132"/>
    <circle cx="230" cy="1190" r="96"/>
  </g>
  <path d="M70 730 Q300 585 600 740 T1130 760" stroke="#E39B59" stroke-width="20" opacity="0.2"/>
  <path d="M70 960 Q320 1075 600 940 T1130 920" stroke="#FEF8EE" stroke-width="16" opacity="0.24"/>
  <ellipse cx="600" cy="812" rx="470" ry="382" fill="#FEF8EE" opacity="0.08"/>
  <rect x="116" y="304" width="968" height="1036" rx="38" fill="#F4EDE2" stroke="#C8B39B" stroke-width="10"/>
<g opacity="0.24" transform="translate(0 -26)">
  <g transform="translate(431 547)">
    <rect x="0" y="0" width="356" height="352" rx="24" fill="#F4EDE2" stroke="#FEF8EE" stroke-width="8"/>
    <path d="M88 72 H268 C264 112 236 146 200 176 C236 206 264 240 268 280 H88 C92 240 120 206 156 176 C120 146 92 112 88 72 Z" fill="#ABBBD4" opacity="0.86"/>
    <path d="M156 176 H200" stroke="#293044" stroke-width="8" stroke-linecap="round"/>
    <circle cx="178" cy="168" r="7" fill="#F4EDE2"/>
    <circle cx="186" cy="186" r="6" fill="#F4EDE2"/>
    <circle cx="172" cy="204" r="5" fill="#F4EDE2"/>
  </g></g>

  <g transform="translate(414 539)">
    <rect x="0" y="0" width="356" height="352" rx="24" fill="#FEF8EE" stroke="#ABBBD4" stroke-width="8"/>
    <path d="M88 72 H268 C264 112 236 146 200 176 C236 206 264 240 268 280 H88 C92 240 120 206 156 176 C120 146 92 112 88 72 Z" fill="#E39B59" opacity="0.86"/>
    <path d="M156 176 H200" stroke="#293044" stroke-width="8" stroke-linecap="round"/>
    <circle cx="178" cy="168" r="7" fill="#FEF8EE"/>
    <circle cx="186" cy="186" r="6" fill="#FEF8EE"/>
    <circle cx="172" cy="204" r="5" fill="#FEF8EE"/>
  </g>

  <g transform="translate(924 332)">
    <polygon points="88,8 168,88 88,168 8,88" fill="#FEF8EE" stroke="#E39B59" stroke-width="10"/>
    <circle cx="88" cy="88" r="38" fill="#ABBBD4" opacity="0.72"/>
    <text x="88" y="102" text-anchor="middle" fill="#293044" font-family="'Trebuchet MS', Arial, sans-serif" font-size="40" font-weight="700" letter-spacing="2">DD</text>
  </g>

  <rect x="0" y="0" width="1200" height="238" fill="#323C55" opacity="0.93"/>
  <rect x="0" y="1454" width="1200" height="346" fill="#54628B" opacity="0.95"/>
  <text x="600" y="136" text-anchor="middle" fill="#FEF8EE" font-family="Georgia, serif" font-size="62" font-weight="700" letter-spacing="3">RYAN HOLIDAY</text>
  <text x="600" y="208" text-anchor="middle" fill="#FEF8EE" font-family="'Trebuchet MS', Arial, sans-serif" font-size="30" letter-spacing="4">RESILIENCE</text>
  <text x="600" y="1216" text-anchor="middle" fill="#293044" font-family="Georgia, 'Times New Roman', serif" font-size="78" font-weight="700" letter-spacing="2">DISCIPLINE IS DESTINY</text>
  <g>
    <rect x="405" y="1466" width="172" height="42" rx="21" fill="#FEF8EE" opacity="0.18" stroke="#FEF8EE" stroke-width="2"/>
    <text x="491" y="1494" text-anchor="middle" fill="#FEF8EE" font-family="'Trebuchet MS', Arial, sans-serif" font-size="20" letter-spacing="1">DISCIPLINE</text>
  </g>
  <g>
    <rect x="599" y="1466" width="196" height="42" rx="21" fill="#FEF8EE" opacity="0.18" stroke="#FEF8EE" stroke-width="2"/>
    <text x="697" y="1494" text-anchor="middle" fill="#FEF8EE" font-family="'Trebuchet MS', Arial, sans-serif" font-size="20" letter-spacing="1">SELF CONTROL</text>
  </g>
  <text x="600" y="1538" text-anchor="middle" fill="#FEF8EE" font-family="'Trebuchet MS', Arial, sans-serif" font-size="30" letter-spacing="3">DISCIPLINE  ·  SELF CONTROL  ·  STOICISM</text>
  <text x="600" y="1604" text-anchor="middle" fill="#FEF8EE" font-family="Georgia, serif" font-size="30">Temperance and self command build character</text>
  <text x="600" y="1668" text-anchor="middle" fill="#FEF8EE" font-family="'Trebuchet MS', Arial, sans-serif" font-size="26" letter-spacing="2">Modern Edition · Practical Lessons · Real Scenarios</text>
</svg>
