<svg width="1200" height="1800" viewBox="0 0 1200 1800" fill="none" xmlns="http://www.w3.org/2000/svg" role="img" aria-labelledby="title desc">
  <title id="title">Ego Is the Enemy cover</title>
  <desc id="desc">Auto-generated themed cover for Ego Is the Enemy by Ryan Holiday.</desc>
  <defs>
    <linearGradient id="g714027957" x1="0" y1="0" x2="0" y2="1800" gradientUnits="userSpaceOnUse">
      <stop offset="0%" stop-color="#4A3A32"/>
      <stop offset="100%" stop-color="#725B4E"/>
    </linearGradient>
  </defs>

  <rect width="1200" height="1800" fill="url(#g714027957)"/>

  <circle cx="600" cy="840" r="420" fill="#B7A090" opacity="0.16"/>
  <circle cx="600" cy="840" r="300" fill="#FDF7EC" opacity="0.16"/>
  <circle cx="628" cy="842" r="210" fill="#D79466" opacity="0.18"/>
  <circle cx="572" cy="838" r="130" fill="#FDF7EC" opacity="0.34"/>
  <ellipse cx="600" cy="812" rx="470" ry="382" fill="#FDF7EC" opacity="0.08"/>
  <rect x="116" y="304" width="968" height="1036" rx="38" fill="#F3EBE0" stroke="#C2B09C" stroke-width="10"/>
<g opacity="0.24" transform="translate(0 -26)">
  <g transform="translate(410 553)">
    <line x1="186" y1="64" x2="186" y2="318" stroke="#30261E" stroke-width="12" stroke-linecap="round"/>
    <line x1="88" y1="114" x2="284" y2="114" stroke="#30261E" stroke-width="12" stroke-linecap="round"/>
    <path d="M114 114 L84 184 H144 Z" fill="#B7A090" opacity="0.86"/>
    <path d="M258 114 L228 184 H288 Z" fill="#FDF7EC" opacity="0.9"/>
    <rect x="126" y="318" width="120" height="18" rx="9" fill="#30261E" opacity="0.88"/>
    <circle cx="186" cy="74" r="20" fill="#F3EBE0" stroke="#FDF7EC" stroke-width="8"/>
  </g></g>

  <g transform="translate(423 570)">
    <line x1="186" y1="64" x2="186" y2="318" stroke="#30261E" stroke-width="12" stroke-linecap="round"/>
    <line x1="88" y1="114" x2="284" y2="114" stroke="#30261E" stroke-width="12" stroke-linecap="round"/>
    <path d="M114 114 L84 184 H144 Z" fill="#D79466" opacity="0.86"/>
    <path d="M258 114 L228 184 H288 Z" fill="#B7A090" opacity="0.9"/>
    <rect x="126" y="318" width="120" height="18" rx="9" fill="#30261E" opacity="0.88"/>
    <circle cx="186" cy="74" r="20" fill="#FDF7EC" stroke="#B7A090" stroke-width="8"/>
  </g>

  <g transform="translate(924 332)">
    <rect x="24" y="14" width="128" height="156" rx="64" fill="#FDF7EC" stroke="#D79466" stroke-width="10"/>
    <path d="M44 54 H132" stroke="#B7A090" stroke-width="10" stroke-linecap="round"/>
    <path d="M44 80 H132" stroke="#B7A090" stroke-width="10" stroke-linecap="round"/>
    <text x="88" y="128" text-anchor="middle" fill="#30261E" font-family="'Trebuchet MS', Arial, sans-serif" font-size="42" font-weight="700" letter-spacing="2">EE</text>
  </g>

  <rect x="0" y="0" width="1200" height="238" fill="#4A3A32" opacity="0.93"/>
  <rect x="0" y="1454" width="1200" height="346" fill="#725B4E" opacity="0.95"/>
  <text x="600" y="136" text-anchor="middle" fill="#FDF7EC" font-family="Georgia, serif" font-size="62" font-weight="700" letter-spacing="3">RYAN HOLIDAY</text>
  <text x="600" y="208" text-anchor="middle" fill="#FDF7EC" font-family="'Trebuchet MS', Arial, sans-serif" font-size="30" letter-spacing="4">PHILOSOPHY</text>
  <text x="600" y="1216" text-anchor="middle" fill="#30261E" font-family="Georgia, 'Times New Roman', serif" font-size="92" font-weight="700" letter-spacing="2">EGO IS THE ENEMY</text>
  <g>
    <rect x="435" y="1466" width="136" height="42" rx="21" fill="#FDF7EC" opacity="0.18" stroke="#FDF7EC" stroke-width="2"/>
    <text x="503" y="1494" text-anchor="middle" fill="#FDF7EC" font-family="'Trebuchet MS', Arial, sans-serif" font-size="20" letter-spacing="1">MEANING</text>
  </g>
  <g>
    <rect x="593" y="1466" width="172" height="42" rx="21" fill="#FDF7EC" opacity="0.18" stroke="#FDF7EC" stroke-width="2"/>
    <text x="679" y="1494" text-anchor="middle" fill="#FDF7EC" font-family="'Trebuchet MS', Arial, sans-serif" font-size="20" letter-spacing="1">DISCIPLINE</text>
  </g>
  <text x="600" y="1538" text-anchor="middle" fill="#FDF7EC" font-family="'Trebuchet MS', Arial, sans-serif" font-size="30" letter-spacing="3">MEANING  ·  DISCIPLINE  ·  STOICISM</text>
  <text x="600" y="1604" text-anchor="middle" fill="#FDF7EC" font-family="Georgia, serif" font-size="30">Trade ego for humility and steady progress</text>
  <text x="600" y="1668" text-anchor="middle" fill="#FDF7EC" font-family="'Trebuchet MS', Arial, sans-serif" font-size="26" letter-spacing="2">Modern Edition · Practical Lessons · Real Scenarios</text>
</svg>
