<svg width="1200" height="1800" viewBox="0 0 1200 1800" fill="none" xmlns="http://www.w3.org/2000/svg" role="img" aria-labelledby="title desc">
  <title id="title">Essentialism cover</title>
  <desc id="desc">Auto-generated themed cover for Essentialism by Greg McKeown.</desc>
  <defs>
    <linearGradient id="g932159786" x1="0" y1="0" x2="0" y2="1800" gradientUnits="userSpaceOnUse">
      <stop offset="0%" stop-color="#205155"/>
      <stop offset="100%" stop-color="#3F8182"/>
    </linearGradient>
  </defs>

  <rect width="1200" height="1800" fill="url(#g932159786)"/>

  <circle cx="600" cy="840" r="420" fill="#84C5BE" opacity="0.16"/>
  <circle cx="600" cy="840" r="300" fill="#FDF8EE" opacity="0.16"/>
  <circle cx="609" cy="839" r="210" fill="#E0B15E" opacity="0.18"/>
  <circle cx="591" cy="841" r="130" fill="#FDF8EE" opacity="0.34"/>
  <ellipse cx="600" cy="812" rx="470" ry="382" fill="#FDF8EE" opacity="0.08"/>
  <rect x="116" y="304" width="968" height="1036" rx="38" fill="#F4EEE3" stroke="#C3B59E" stroke-width="10"/>
<g opacity="0.24" transform="translate(0 -26)">
  <g transform="translate(441 584)">
    <rect x="0" y="0" width="340" height="276" rx="22" fill="#F4EEE3" stroke="#FDF8EE" stroke-width="8"/>
    <circle cx="170" cy="130" r="68" fill="#1E2F2E" opacity="0.92"/>
    <rect x="84" y="214" width="172" height="20" rx="10" fill="#84C5BE" opacity="0.88"/>
  </g></g>

  <g transform="translate(424 601)">
    <rect x="0" y="0" width="340" height="276" rx="22" fill="#FDF8EE" stroke="#84C5BE" stroke-width="8"/>
    <circle cx="170" cy="130" r="68" fill="#1E2F2E" opacity="0.92"/>
    <rect x="84" y="214" width="172" height="20" rx="10" fill="#E0B15E" opacity="0.88"/>
  </g>

  <g transform="translate(930 336)">
    <path d="M82 8 L152 34 V90 C152 142 120 174 82 190 C44 174 12 142 12 90 V34 Z" fill="#FDF8EE" stroke="#E0B15E" stroke-width="10"/>
    <rect x="30" y="64" width="104" height="64" rx="20" fill="#84C5BE" opacity="0.72"/>
    <text x="82" y="106" text-anchor="middle" fill="#1E2F2E" font-family="'Trebuchet MS', Arial, sans-serif" font-size="40" font-weight="700" letter-spacing="2">ES</text>
  </g>

  <rect x="0" y="0" width="1200" height="238" fill="#205155" opacity="0.93"/>
  <rect x="0" y="1454" width="1200" height="346" fill="#3F8182" opacity="0.95"/>
  <text x="600" y="136" text-anchor="middle" fill="#FDF8EE" font-family="Georgia, serif" font-size="62" font-weight="700" letter-spacing="3">GREG MCKEOWN</text>
  <text x="600" y="208" text-anchor="middle" fill="#FDF8EE" font-family="'Trebuchet MS', Arial, sans-serif" font-size="30" letter-spacing="4">PRODUCTIVITY</text>
  <text x="600" y="1216" text-anchor="middle" fill="#1E2F2E" font-family="'Trebuchet MS', Arial, sans-serif" font-size="108" font-weight="700" letter-spacing="2">ESSENTIALISM</text>
  <g>
    <rect x="447" y="1466" width="112" height="42" rx="21" fill="#FDF8EE" opacity="0.18" stroke="#FDF8EE" stroke-width="2"/>
    <text x="503" y="1494" text-anchor="middle" fill="#FDF8EE" font-family="'Trebuchet MS', Arial, sans-serif" font-size="20" letter-spacing="1">FOCUS</text>
  </g>
  <g>
    <rect x="581" y="1466" width="172" height="42" rx="21" fill="#FDF8EE" opacity="0.18" stroke="#FDF8EE" stroke-width="2"/>
    <text x="667" y="1494" text-anchor="middle" fill="#FDF8EE" font-family="'Trebuchet MS', Arial, sans-serif" font-size="20" letter-spacing="1">PRIORITIES</text>
  </g>
  <text x="600" y="1538" text-anchor="middle" fill="#FDF8EE" font-family="'Trebuchet MS', Arial, sans-serif" font-size="30" letter-spacing="3">FOCUS  ·  PRIORITIES  ·  TRADEOFFS</text>
  <text x="600" y="1604" text-anchor="middle" fill="#FDF8EE" font-family="Georgia, serif" font-size="30">Protect the vital few from the trivial many</text>
  <text x="600" y="1668" text-anchor="middle" fill="#FDF8EE" font-family="'Trebuchet MS', Arial, sans-serif" font-size="26" letter-spacing="2">Modern Edition · Practical Lessons · Real Scenarios</text>
</svg>
