<svg width="1200" height="1800" viewBox="0 0 1200 1800" fill="none" xmlns="http://www.w3.org/2000/svg" role="img" aria-labelledby="title desc">
  <title id="title">Execution cover</title>
  <desc id="desc">Auto-generated themed cover for Execution by Larry Bossidy and Ram Charan.</desc>
  <defs>
    <linearGradient id="g695170202" x1="0" y1="0" x2="0" y2="1800" gradientUnits="userSpaceOnUse">
      <stop offset="0%" stop-color="#1B2D45"/>
      <stop offset="100%" stop-color="#425875"/>
    </linearGradient>
  </defs>

  <rect width="1200" height="1800" fill="url(#g695170202)"/>

  <rect x="0" y="300" width="1200" height="1180" fill="#8DABC7" opacity="0.1"/>
  <g stroke="#FDF8EE" opacity="0.2">
    <line x1="160" y1="320" x2="160" y2="1460" stroke-width="4"/>
    <line x1="320" y1="320" x2="320" y2="1460" stroke-width="3"/>
    <line x1="480" y1="320" x2="480" y2="1460" stroke-width="2"/>
    <line x1="640" y1="320" x2="640" y2="1460" stroke-width="3"/>
    <line x1="800" y1="320" x2="800" y2="1460" stroke-width="2"/>
    <line x1="960" y1="320" x2="960" y2="1460" stroke-width="3"/>
  </g>
  <path d="M140 430 L1060 430" stroke="#D99B4F" stroke-width="10" opacity="0.22"/>
  <path d="M140 1330 L1060 1330" stroke="#D99B4F" stroke-width="10" opacity="0.2"/>
  <ellipse cx="600" cy="812" rx="470" ry="382" fill="#FDF8EE" opacity="0.08"/>
  <rect x="116" y="304" width="968" height="1036" rx="38" fill="#F4EDE2" stroke="#C5B49D" stroke-width="10"/>
<g opacity="0.24" transform="translate(0 -26)">
  <g transform="translate(408 547)">
    <rect x="0" y="0" width="392" height="332" rx="24" fill="#F4EDE2" stroke="#FDF8EE" stroke-width="8"/>
    <rect x="54" y="58" width="282" height="224" rx="18" fill="#8DABC7" opacity="0.16"/>
    <rect x="82" y="92" width="24" height="24" rx="6" fill="#FDF8EE" opacity="0.86"/>
    <path d="M86 104 L92 110 L104 96" fill="none" stroke="#212F3E" stroke-width="6" stroke-linecap="round" stroke-linejoin="round"/>
    <rect x="120" y="96" width="186" height="14" rx="7" fill="#8DABC7" opacity="0.82"/>
    <rect x="82" y="144" width="24" height="24" rx="6" fill="#FDF8EE" opacity="0.86"/>
    <path d="M86 156 L92 162 L104 148" fill="none" stroke="#212F3E" stroke-width="6" stroke-linecap="round" stroke-linejoin="round"/>
    <rect x="120" y="148" width="164" height="14" rx="7" fill="#8DABC7" opacity="0.78"/>
    <rect x="82" y="196" width="24" height="24" rx="6" fill="#FDF8EE" opacity="0.86"/>
    <path d="M86 208 L92 214 L104 200" fill="none" stroke="#212F3E" stroke-width="6" stroke-linecap="round" stroke-linejoin="round"/>
    <rect x="120" y="200" width="206" height="14" rx="7" fill="#8DABC7" opacity="0.74"/>
  </g></g>

  <g transform="translate(391 564)">
    <rect x="0" y="0" width="392" height="332" rx="24" fill="#FDF8EE" stroke="#8DABC7" stroke-width="8"/>
    <rect x="54" y="58" width="282" height="224" rx="18" fill="#D99B4F" opacity="0.16"/>
    <rect x="82" y="92" width="24" height="24" rx="6" fill="#8DABC7" opacity="0.86"/>
    <path d="M86 104 L92 110 L104 96" fill="none" stroke="#212F3E" stroke-width="6" stroke-linecap="round" stroke-linejoin="round"/>
    <rect x="120" y="96" width="186" height="14" rx="7" fill="#D99B4F" opacity="0.82"/>
    <rect x="82" y="144" width="24" height="24" rx="6" fill="#8DABC7" opacity="0.86"/>
    <path d="M86 156 L92 162 L104 148" fill="none" stroke="#212F3E" stroke-width="6" stroke-linecap="round" stroke-linejoin="round"/>
    <rect x="120" y="148" width="164" height="14" rx="7" fill="#D99B4F" opacity="0.78"/>
    <rect x="82" y="196" width="24" height="24" rx="6" fill="#8DABC7" opacity="0.86"/>
    <path d="M86 208 L92 214 L104 200" fill="none" stroke="#212F3E" stroke-width="6" stroke-linecap="round" stroke-linejoin="round"/>
    <rect x="120" y="200" width="206" height="14" rx="7" fill="#D99B4F" opacity="0.74"/>
  </g>

  <g transform="translate(926 334)">
    <polygon points="88,8 162,52 162,136 88,180 14,136 14,52" fill="#FDF8EE" stroke="#D99B4F" stroke-width="10"/>
    <circle cx="88" cy="94" r="44" fill="#8DABC7" opacity="0.7"/>
    <text x="88" y="108" text-anchor="middle" fill="#212F3E" font-family="'Trebuchet MS', Arial, sans-serif" font-size="42" font-weight="700" letter-spacing="2">EX</text>
  </g>

  <rect x="0" y="0" width="1200" height="238" fill="#1B2D45" opacity="0.93"/>
  <rect x="0" y="1454" width="1200" height="346" fill="#425875" opacity="0.95"/>
  <text x="600" y="136" text-anchor="middle" fill="#FDF8EE" font-family="Georgia, serif" font-size="62" font-weight="700" letter-spacing="3">LARRY BOSSIDY AND RAM CHARAN</text>
  <text x="600" y="208" text-anchor="middle" fill="#FDF8EE" font-family="'Trebuchet MS', Arial, sans-serif" font-size="30" letter-spacing="4">LEADERSHIP</text>
  <text x="600" y="1216" text-anchor="middle" fill="#212F3E" font-family="Georgia, 'Times New Roman', serif" font-size="108" font-weight="700" letter-spacing="2">EXECUTION</text>
  <g>
    <rect x="417" y="1466" width="184" height="42" rx="21" fill="#FDF8EE" opacity="0.18" stroke="#FDF8EE" stroke-width="2"/>
    <text x="509" y="1494" text-anchor="middle" fill="#FDF8EE" font-family="'Trebuchet MS', Arial, sans-serif" font-size="20" letter-spacing="1">COMPETITION</text>
  </g>
  <g>
    <rect x="623" y="1466" width="160" height="42" rx="21" fill="#FDF8EE" opacity="0.18" stroke="#FDF8EE" stroke-width="2"/>
    <text x="703" y="1494" text-anchor="middle" fill="#FDF8EE" font-family="'Trebuchet MS', Arial, sans-serif" font-size="20" letter-spacing="1">ADVANTAGE</text>
  </g>
  <text x="600" y="1538" text-anchor="middle" fill="#FDF8EE" font-family="'Trebuchet MS', Arial, sans-serif" font-size="30" letter-spacing="3">COMPETITION  ·  ADVANTAGE  ·  LEADERSHIP</text>
  <text x="600" y="1604" text-anchor="middle" fill="#FDF8EE" font-family="Georgia, serif" font-size="30">Turn strategy into accountable action</text>
  <text x="600" y="1668" text-anchor="middle" fill="#FDF8EE" font-family="'Trebuchet MS', Arial, sans-serif" font-size="26" letter-spacing="2">Modern Edition · Practical Lessons · Real Scenarios</text>
</svg>
