<svg width="1200" height="1800" viewBox="0 0 1200 1800" fill="none" xmlns="http://www.w3.org/2000/svg" role="img" aria-labelledby="title desc">
  <title id="title">Execution cover</title>
  <desc id="desc">Auto-generated themed cover for Execution by Larry Bossidy and Ram Charan.</desc>
  <defs>
    <linearGradient id="g1837295992" x1="0" y1="0" x2="0" y2="1800" gradientUnits="userSpaceOnUse">
      <stop offset="0%" stop-color="#2B2A3D"/>
      <stop offset="100%" stop-color="#4A486E"/>
    </linearGradient>
  </defs>

  <rect width="1200" height="1800" fill="url(#g1837295992)"/>

  <circle cx="600" cy="840" r="420" fill="#8F90C0" opacity="0.16"/>
  <circle cx="600" cy="840" r="300" fill="#FEF8F0" opacity="0.16"/>
  <circle cx="588" cy="829" r="210" fill="#D59A43" opacity="0.18"/>
  <circle cx="612" cy="851" r="130" fill="#FEF8F0" opacity="0.34"/>
  <rect x="116" y="304" width="968" height="1036" rx="38" fill="#F2ECE1" stroke="#C7B9A3" stroke-width="10"/>

  <g transform="translate(407 556)">
    <rect x="0" y="0" width="392" height="332" rx="24" fill="#FEF8F0" stroke="#8F90C0" stroke-width="8"/>
    <rect x="54" y="58" width="282" height="224" rx="18" fill="#D59A43" opacity="0.16"/>
    <rect x="82" y="92" width="24" height="24" rx="6" fill="#8F90C0" opacity="0.86"/>
    <path d="M86 104 L92 110 L104 96" fill="none" stroke="#232733" stroke-width="6" stroke-linecap="round" stroke-linejoin="round"/>
    <rect x="120" y="96" width="186" height="14" rx="7" fill="#D59A43" opacity="0.82"/>
    <rect x="82" y="144" width="24" height="24" rx="6" fill="#8F90C0" opacity="0.86"/>
    <path d="M86 156 L92 162 L104 148" fill="none" stroke="#232733" stroke-width="6" stroke-linecap="round" stroke-linejoin="round"/>
    <rect x="120" y="148" width="164" height="14" rx="7" fill="#D59A43" opacity="0.78"/>
    <rect x="82" y="196" width="24" height="24" rx="6" fill="#8F90C0" opacity="0.86"/>
    <path d="M86 208 L92 214 L104 200" fill="none" stroke="#232733" stroke-width="6" stroke-linecap="round" stroke-linejoin="round"/>
    <rect x="120" y="200" width="206" height="14" rx="7" fill="#D59A43" opacity="0.74"/>
  </g>

  <g transform="translate(928 336)">
    <circle cx="84" cy="84" r="76" fill="#FEF8F0" stroke="#D59A43" stroke-width="10"/>
    <circle cx="84" cy="84" r="56" fill="#8F90C0" opacity="0.68"/>
    <text x="84" y="98" text-anchor="middle" fill="#232733" font-family="'Trebuchet MS', Arial, sans-serif" font-size="44" font-weight="700" letter-spacing="2">EX</text>
  </g>

  <rect x="0" y="0" width="1200" height="238" fill="#2B2A3D" opacity="0.93"/>
  <rect x="0" y="1454" width="1200" height="346" fill="#4A486E" opacity="0.95"/>
  <text x="600" y="136" text-anchor="middle" fill="#FEF8F0" font-family="Georgia, serif" font-size="62" font-weight="700" letter-spacing="3">LARRY BOSSIDY AND RAM CHARAN</text>
  <text x="600" y="208" text-anchor="middle" fill="#FEF8F0" font-family="'Trebuchet MS', Arial, sans-serif" font-size="30" letter-spacing="4">STRATEGY</text>
  <text x="600" y="1216" text-anchor="middle" fill="#232733" font-family="Georgia, 'Times New Roman', serif" font-size="108" font-weight="700" letter-spacing="2">EXECUTION</text>
  <text x="600" y="1538" text-anchor="middle" fill="#FEF8F0" font-family="'Trebuchet MS', Arial, sans-serif" font-size="30" letter-spacing="3">COMPETITION  ·  ADVANTAGE  ·  LEADERSHIP</text>
  <text x="600" y="1604" text-anchor="middle" fill="#FEF8F0" font-family="Georgia, serif" font-size="30">Position, timing, and leverage</text>
  <text x="600" y="1668" text-anchor="middle" fill="#FEF8F0" font-family="'Trebuchet MS', Arial, sans-serif" font-size="26" letter-spacing="2">Modern Edition · Practical Lessons · Real Scenarios</text>
</svg>
