<svg width="1200" height="1800" viewBox="0 0 1200 1800" fill="none" xmlns="http://www.w3.org/2000/svg" role="img" aria-labelledby="title desc">
  <title id="title">Extreme Ownership cover</title>
  <desc id="desc">Auto-generated themed cover for Extreme Ownership by Jocko Willink, Leif Babin.</desc>
  <defs>
    <linearGradient id="g1816368740" x1="0" y1="0" x2="0" y2="1800" gradientUnits="userSpaceOnUse">
      <stop offset="0%" stop-color="#1E3352"/>
      <stop offset="100%" stop-color="#3F5978"/>
    </linearGradient>
  </defs>

  <rect width="1200" height="1800" fill="url(#g1816368740)"/>

  <circle cx="600" cy="840" r="420" fill="#88A8C7" opacity="0.16"/>
  <circle cx="600" cy="840" r="300" fill="#FDF8EE" opacity="0.16"/>
  <circle cx="618" cy="816" r="210" fill="#DA9A49" opacity="0.18"/>
  <circle cx="582" cy="864" r="130" fill="#FDF8EE" opacity="0.34"/>
  <rect x="116" y="304" width="968" height="1036" rx="38" fill="#F4EDE2" stroke="#CAB9A3" stroke-width="10"/>

  <g transform="translate(417 559)">
    <path d="M182 26 L326 84 V192 C326 286 262 350 182 384 C102 350 38 286 38 192 V84 Z" fill="#DA9A49" opacity="0.88"/>
    <path d="M182 70 L286 112 V192 C286 260 244 310 182 340 C120 310 78 260 78 192 V112 Z" fill="#FDF8EE" opacity="0.9"/>
    <path d="M132 198 L166 232 L236 160" fill="none" stroke="#223142" stroke-width="16" stroke-linecap="round" stroke-linejoin="round"/>
  </g>

  <rect x="0" y="0" width="1200" height="238" fill="#1E3352" opacity="0.93"/>
  <rect x="0" y="1454" width="1200" height="346" fill="#3F5978" opacity="0.95"/>
  <text x="600" y="136" text-anchor="middle" fill="#FDF8EE" font-family="Georgia, serif" font-size="62" font-weight="700" letter-spacing="3">JOCKO WILLINK, LEIF BABIN</text>
  <text x="600" y="208" text-anchor="middle" fill="#FDF8EE" font-family="'Trebuchet MS', Arial, sans-serif" font-size="30" letter-spacing="4">LEADERSHIP</text>
  <text x="600" y="1216" text-anchor="middle" fill="#223142" font-family="Georgia, 'Times New Roman', serif" font-size="92" font-weight="700" letter-spacing="2">EXTREME OWNERSHIP</text>
  <text x="600" y="1538" text-anchor="middle" fill="#FDF8EE" font-family="'Trebuchet MS', Arial, sans-serif" font-size="30" letter-spacing="3">LEADERSHIP  ·  ACCOUNTABILITY  ·  TEAMS</text>
  <text x="600" y="1604" text-anchor="middle" fill="#FDF8EE" font-family="Georgia, serif" font-size="30">Responsibility and alignment</text>
  <text x="600" y="1668" text-anchor="middle" fill="#FDF8EE" font-family="'Trebuchet MS', Arial, sans-serif" font-size="26" letter-spacing="2">Modern Edition · Practical Lessons · Real Scenarios</text>
</svg>
