<svg width="1200" height="1800" viewBox="0 0 1200 1800" fill="none" xmlns="http://www.w3.org/2000/svg" role="img" aria-labelledby="title desc">
  <title id="title">Extreme Ownership cover</title>
  <desc id="desc">Auto-generated themed cover for Extreme Ownership by Jocko Willink, Leif Babin.</desc>
  <defs>
    <linearGradient id="g1816368740" x1="0" y1="0" x2="0" y2="1800" gradientUnits="userSpaceOnUse">
      <stop offset="0%" stop-color="#131F39"/>
      <stop offset="100%" stop-color="#35486E"/>
    </linearGradient>
  </defs>

  <rect width="1200" height="1800" fill="url(#g1816368740)"/>

  <rect x="0" y="300" width="1200" height="1180" fill="#8AA6CB" opacity="0.12"/>
  <rect x="140" y="360" width="920" height="1050" rx="48" fill="#FDF8EE" opacity="0.22"/>
  <path d="M0 560 Q300 416 600 560 T1200 560" stroke="#FDF8EE" stroke-width="22" opacity="0.24"/>
  <path d="M0 1180 Q300 1036 600 1180 T1200 1180" stroke="#DEA84A" stroke-width="16" opacity="0.22"/>
  <ellipse cx="600" cy="812" rx="470" ry="382" fill="#FDF8EE" opacity="0.08"/>
  <rect x="116" y="304" width="968" height="1036" rx="38" fill="#F4EEE2" stroke="#C8B59B" stroke-width="10"/>
<g opacity="0.24" transform="translate(0 -26)">
  <g transform="translate(404 542)">
    <path d="M182 26 L326 84 V192 C326 286 262 350 182 384 C102 350 38 286 38 192 V84 Z" fill="#8AA6CB" opacity="0.88"/>
    <path d="M182 70 L286 112 V192 C286 260 244 310 182 340 C120 310 78 260 78 192 V112 Z" fill="#F4EEE2" opacity="0.9"/>
    <path d="M132 198 L166 232 L236 160" fill="none" stroke="#202E3F" stroke-width="16" stroke-linecap="round" stroke-linejoin="round"/>
  </g></g>

  <g transform="translate(417 559)">
    <path d="M182 26 L326 84 V192 C326 286 262 350 182 384 C102 350 38 286 38 192 V84 Z" fill="#DEA84A" opacity="0.88"/>
    <path d="M182 70 L286 112 V192 C286 260 244 310 182 340 C120 310 78 260 78 192 V112 Z" fill="#FDF8EE" opacity="0.9"/>
    <path d="M132 198 L166 232 L236 160" fill="none" stroke="#202E3F" stroke-width="16" stroke-linecap="round" stroke-linejoin="round"/>
  </g>

  <g transform="translate(928 336)">
    <circle cx="84" cy="84" r="76" fill="#FDF8EE" stroke="#DEA84A" stroke-width="10"/>
    <circle cx="84" cy="84" r="56" fill="#8AA6CB" opacity="0.68"/>
    <text x="84" y="98" text-anchor="middle" fill="#202E3F" font-family="'Trebuchet MS', Arial, sans-serif" font-size="44" font-weight="700" letter-spacing="2">EO</text>
  </g>

  <rect x="0" y="0" width="1200" height="238" fill="#131F39" opacity="0.93"/>
  <rect x="0" y="1454" width="1200" height="346" fill="#35486E" opacity="0.95"/>
  <text x="600" y="136" text-anchor="middle" fill="#FDF8EE" font-family="Georgia, serif" font-size="62" font-weight="700" letter-spacing="3">JOCKO WILLINK, LEIF BABIN</text>
  <text x="600" y="208" text-anchor="middle" fill="#FDF8EE" font-family="'Trebuchet MS', Arial, sans-serif" font-size="30" letter-spacing="4">LEADERSHIP</text>
  <text x="600" y="1216" text-anchor="middle" fill="#202E3F" font-family="Georgia, 'Times New Roman', serif" font-size="92" font-weight="700" letter-spacing="2">EXTREME OWNERSHIP</text>
  <g>
    <rect x="393" y="1466" width="172" height="42" rx="21" fill="#FDF8EE" opacity="0.18" stroke="#FDF8EE" stroke-width="2"/>
    <text x="479" y="1494" text-anchor="middle" fill="#FDF8EE" font-family="'Trebuchet MS', Arial, sans-serif" font-size="20" letter-spacing="1">LEADERSHIP</text>
  </g>
  <g>
    <rect x="587" y="1466" width="220" height="42" rx="21" fill="#FDF8EE" opacity="0.18" stroke="#FDF8EE" stroke-width="2"/>
    <text x="697" y="1494" text-anchor="middle" fill="#FDF8EE" font-family="'Trebuchet MS', Arial, sans-serif" font-size="20" letter-spacing="1">ACCOUNTABILITY</text>
  </g>
  <text x="600" y="1538" text-anchor="middle" fill="#FDF8EE" font-family="'Trebuchet MS', Arial, sans-serif" font-size="30" letter-spacing="3">LEADERSHIP  ·  ACCOUNTABILITY  ·  TEAMS</text>
  <text x="600" y="1604" text-anchor="middle" fill="#FDF8EE" font-family="Georgia, serif" font-size="30">Own outcomes and lead from the front</text>
  <text x="600" y="1668" text-anchor="middle" fill="#FDF8EE" font-family="'Trebuchet MS', Arial, sans-serif" font-size="26" letter-spacing="2">Modern Edition · Practical Lessons · Real Scenarios</text>
</svg>
