<svg width="1200" height="1800" viewBox="0 0 1200 1800" fill="none" xmlns="http://www.w3.org/2000/svg" role="img" aria-labelledby="title desc">
  <title id="title">How to Win Friends and Influence People cover</title>
  <desc id="desc">Auto-generated themed cover for How to Win Friends and Influence People by Dale Carnegie.</desc>
  <defs>
    <linearGradient id="g1807133457" x1="0" y1="0" x2="0" y2="1800" gradientUnits="userSpaceOnUse">
      <stop offset="0%" stop-color="#2D4A64"/>
      <stop offset="100%" stop-color="#3E6D8C"/>
    </linearGradient>
  </defs>

  <rect width="1200" height="1800" fill="url(#g1807133457)"/>

  <rect x="0" y="300" width="1200" height="1180" fill="#8DBBCB" opacity="0.12"/>
  <rect x="140" y="360" width="920" height="1050" rx="48" fill="#FDF8EE" opacity="0.22"/>
  <path d="M0 560 Q300 457 600 560 T1200 560" stroke="#FDF8EE" stroke-width="22" opacity="0.24"/>
  <path d="M0 1180 Q300 1077 600 1180 T1200 1180" stroke="#E19345" stroke-width="16" opacity="0.22"/>
  <rect x="116" y="304" width="968" height="1036" rx="38" fill="#F4EFE4" stroke="#CBBBA3" stroke-width="10"/>

  <g transform="translate(412 587)">
    <path d="M30 46 H270 Q304 46 304 80 V188 Q304 222 270 222 H150 L110 260 L110 222 H30 Q-4 222 -4 188 V80 Q-4 46 30 46 Z" fill="#FDF8EE" stroke="#8DBBCB" stroke-width="8"/>
    <path d="M194 142 H366 Q398 142 398 174 V280 Q398 312 366 312 H280 L244 346 V312 H194 Q162 312 162 280 V174 Q162 142 194 142 Z" fill="#E19345" opacity="0.86"/>
    <circle cx="86" cy="132" r="12" fill="#20313C"/>
    <circle cx="148" cy="132" r="12" fill="#20313C"/>
    <circle cx="210" cy="132" r="12" fill="#20313C"/>
    <rect x="214" y="222" width="132" height="14" rx="7" fill="#FDF8EE" opacity="0.92"/>
    <rect x="214" y="252" width="102" height="14" rx="7" fill="#FDF8EE" opacity="0.92"/>
  </g>

  <rect x="0" y="0" width="1200" height="238" fill="#2D4A64" opacity="0.93"/>
  <rect x="0" y="1454" width="1200" height="346" fill="#3E6D8C" opacity="0.95"/>
  <text x="600" y="136" text-anchor="middle" fill="#FDF8EE" font-family="Georgia, serif" font-size="62" font-weight="700" letter-spacing="3">DALE CARNEGIE</text>
  <text x="600" y="208" text-anchor="middle" fill="#FDF8EE" font-family="'Trebuchet MS', Arial, sans-serif" font-size="30" letter-spacing="4">COMMUNICATION</text>
  <text x="600" y="1114" text-anchor="middle" fill="#20313C" font-family="'Trebuchet MS', Arial, sans-serif" font-size="78" font-weight="700" letter-spacing="2">HOW TO WIN</text>
  <text x="600" y="1198" text-anchor="middle" fill="#20313C" font-family="'Trebuchet MS', Arial, sans-serif" font-size="78" font-weight="700" letter-spacing="2">FRIENDS AND INFLUENCE</text>
  <text x="600" y="1282" text-anchor="middle" fill="#20313C" font-family="'Trebuchet MS', Arial, sans-serif" font-size="78" font-weight="700" letter-spacing="2">PEOPLE</text>
  <text x="600" y="1538" text-anchor="middle" fill="#FDF8EE" font-family="'Trebuchet MS', Arial, sans-serif" font-size="30" letter-spacing="3">CONVERSATION  ·  INFLUENCE  ·  FRIENDSHIP</text>
  <text x="600" y="1604" text-anchor="middle" fill="#FDF8EE" font-family="Georgia, serif" font-size="30">Influence, dialogue, and trust</text>
  <text x="600" y="1668" text-anchor="middle" fill="#FDF8EE" font-family="'Trebuchet MS', Arial, sans-serif" font-size="26" letter-spacing="2">Modern Edition · Practical Lessons · Real Scenarios</text>
</svg>
