<svg width="1200" height="1800" viewBox="0 0 1200 1800" fill="none" xmlns="http://www.w3.org/2000/svg" role="img" aria-labelledby="title desc">
  <title id="title">How to Win Friends and Influence People cover</title>
  <desc id="desc">Auto-generated themed cover for How to Win Friends and Influence People by Dale Carnegie.</desc>
  <defs>
    <linearGradient id="g1807133457" x1="0" y1="0" x2="0" y2="1800" gradientUnits="userSpaceOnUse">
      <stop offset="0%" stop-color="#2E5063"/>
      <stop offset="100%" stop-color="#447A96"/>
    </linearGradient>
  </defs>

  <rect width="1200" height="1800" fill="url(#g1807133457)"/>

  <rect x="0" y="300" width="1200" height="1180" fill="#91C2CC" opacity="0.1"/>
  <g stroke="#FDF8EE" opacity="0.2">
    <line x1="160" y1="320" x2="160" y2="1460" stroke-width="4"/>
    <line x1="320" y1="320" x2="320" y2="1460" stroke-width="3"/>
    <line x1="480" y1="320" x2="480" y2="1460" stroke-width="2"/>
    <line x1="640" y1="320" x2="640" y2="1460" stroke-width="3"/>
    <line x1="800" y1="320" x2="800" y2="1460" stroke-width="2"/>
    <line x1="960" y1="320" x2="960" y2="1460" stroke-width="3"/>
  </g>
  <path d="M140 430 L1060 430" stroke="#E1894A" stroke-width="10" opacity="0.22"/>
  <path d="M140 1330 L1060 1330" stroke="#E1894A" stroke-width="10" opacity="0.2"/>
  <ellipse cx="600" cy="812" rx="470" ry="382" fill="#FDF8EE" opacity="0.08"/>
  <rect x="116" y="304" width="968" height="1036" rx="38" fill="#F4EFE4" stroke="#C7B59D" stroke-width="10"/>
<g opacity="0.24" transform="translate(0 -26)">
  <g transform="translate(397 562)">
    <rect x="22" y="32" width="238" height="156" rx="28" fill="#F4EFE4" stroke="#FDF8EE" stroke-width="8"/>
    <polygon points="108,188 140,188 120,220" fill="#F4EFE4" stroke="#FDF8EE" stroke-width="8"/>
    <rect x="166" y="128" width="218" height="162" rx="28" fill="#91C2CC" opacity="0.84"/>
    <polygon points="302,290 336,290 318,322" fill="#91C2CC" opacity="0.84"/>
    <rect x="62" y="82" width="160" height="14" rx="7" fill="#FDF8EE" opacity="0.72"/>
    <rect x="62" y="112" width="124" height="14" rx="7" fill="#91C2CC" opacity="0.7"/>
    <rect x="194" y="182" width="156" height="14" rx="7" fill="#F4EFE4" opacity="0.78"/>
    <rect x="194" y="212" width="128" height="14" rx="7" fill="#F4EFE4" opacity="0.68"/>
  </g></g>

  <g transform="translate(410 580)">
    <rect x="22" y="32" width="238" height="156" rx="28" fill="#FDF8EE" stroke="#91C2CC" stroke-width="8"/>
    <polygon points="108,188 140,188 120,220" fill="#FDF8EE" stroke="#91C2CC" stroke-width="8"/>
    <rect x="166" y="128" width="218" height="162" rx="28" fill="#E1894A" opacity="0.84"/>
    <polygon points="302,290 336,290 318,322" fill="#E1894A" opacity="0.84"/>
    <rect x="62" y="82" width="160" height="14" rx="7" fill="#91C2CC" opacity="0.72"/>
    <rect x="62" y="112" width="124" height="14" rx="7" fill="#E1894A" opacity="0.7"/>
    <rect x="194" y="182" width="156" height="14" rx="7" fill="#FDF8EE" opacity="0.78"/>
    <rect x="194" y="212" width="128" height="14" rx="7" fill="#FDF8EE" opacity="0.68"/>
  </g>

  <g transform="translate(930 336)">
    <path d="M82 8 L152 34 V90 C152 142 120 174 82 190 C44 174 12 142 12 90 V34 Z" fill="#FDF8EE" stroke="#E1894A" stroke-width="10"/>
    <rect x="30" y="64" width="104" height="64" rx="20" fill="#91C2CC" opacity="0.72"/>
    <text x="82" y="106" text-anchor="middle" fill="#1E2F39" font-family="'Trebuchet MS', Arial, sans-serif" font-size="40" font-weight="700" letter-spacing="2">HW</text>
  </g>

  <rect x="0" y="0" width="1200" height="238" fill="#2E5063" opacity="0.93"/>
  <rect x="0" y="1454" width="1200" height="346" fill="#447A96" opacity="0.95"/>
  <text x="600" y="136" text-anchor="middle" fill="#FDF8EE" font-family="Georgia, serif" font-size="62" font-weight="700" letter-spacing="3">DALE CARNEGIE</text>
  <text x="600" y="208" text-anchor="middle" fill="#FDF8EE" font-family="'Trebuchet MS', Arial, sans-serif" font-size="30" letter-spacing="4">COMMUNICATION</text>
  <text x="600" y="1114" text-anchor="middle" fill="#1E2F39" font-family="'Trebuchet MS', Arial, sans-serif" font-size="78" font-weight="700" letter-spacing="2">HOW TO WIN</text>
  <text x="600" y="1198" text-anchor="middle" fill="#1E2F39" font-family="'Trebuchet MS', Arial, sans-serif" font-size="78" font-weight="700" letter-spacing="2">FRIENDS AND INFLUENCE</text>
  <text x="600" y="1282" text-anchor="middle" fill="#1E2F39" font-family="'Trebuchet MS', Arial, sans-serif" font-size="78" font-weight="700" letter-spacing="2">PEOPLE</text>
  <g>
    <rect x="411" y="1466" width="196" height="42" rx="21" fill="#FDF8EE" opacity="0.18" stroke="#FDF8EE" stroke-width="2"/>
    <text x="509" y="1494" text-anchor="middle" fill="#FDF8EE" font-family="'Trebuchet MS', Arial, sans-serif" font-size="20" letter-spacing="1">CONVERSATION</text>
  </g>
  <g>
    <rect x="629" y="1466" width="160" height="42" rx="21" fill="#FDF8EE" opacity="0.18" stroke="#FDF8EE" stroke-width="2"/>
    <text x="709" y="1494" text-anchor="middle" fill="#FDF8EE" font-family="'Trebuchet MS', Arial, sans-serif" font-size="20" letter-spacing="1">INFLUENCE</text>
  </g>
  <text x="600" y="1538" text-anchor="middle" fill="#FDF8EE" font-family="'Trebuchet MS', Arial, sans-serif" font-size="30" letter-spacing="3">CONVERSATION  ·  INFLUENCE  ·  FRIENDSHIP</text>
  <text x="600" y="1604" text-anchor="middle" fill="#FDF8EE" font-family="Georgia, serif" font-size="30">Build trust through genuine interest and respect</text>
  <text x="600" y="1668" text-anchor="middle" fill="#FDF8EE" font-family="'Trebuchet MS', Arial, sans-serif" font-size="26" letter-spacing="2">Modern Edition · Practical Lessons · Real Scenarios</text>
</svg>
