<svg width="1200" height="1800" viewBox="0 0 1200 1800" fill="none" xmlns="http://www.w3.org/2000/svg" role="img" aria-labelledby="title desc">
  <title id="title">Games People Play cover</title>
  <desc id="desc">Auto-generated themed cover for Games People Play by Eric Berne.</desc>
  <defs>
    <linearGradient id="g116034736" x1="0" y1="0" x2="0" y2="1800" gradientUnits="userSpaceOnUse">
      <stop offset="0%" stop-color="#2D3656"/>
      <stop offset="100%" stop-color="#4E5E8A"/>
    </linearGradient>
  </defs>

  <rect width="1200" height="1800" fill="url(#g116034736)"/>

  <rect x="0" y="300" width="1200" height="1180" fill="#9AACD2" opacity="0.12"/>
  <rect x="140" y="360" width="920" height="1050" rx="48" fill="#FDF8EF" opacity="0.22"/>
  <path d="M0 560 Q300 448 600 560 T1200 560" stroke="#FDF8EF" stroke-width="22" opacity="0.24"/>
  <path d="M0 1180 Q300 1068 600 1180 T1200 1180" stroke="#D88D57" stroke-width="16" opacity="0.22"/>
  <rect x="116" y="304" width="968" height="1036" rx="38" fill="#F3ECE2" stroke="#C9B8A2" stroke-width="10"/>

  <g transform="translate(405 545)">
    <rect x="18" y="24" width="364" height="334" rx="26" fill="#FDF8EF" stroke="#9AACD2" stroke-width="8"/>
    <g stroke="#D88D57" stroke-width="8" opacity="0.86">
      <line x1="84" y1="96" x2="174" y2="144"/>
      <line x1="174" y1="144" x2="282" y2="110"/>
      <line x1="174" y1="144" x2="166" y2="244"/>
      <line x1="166" y1="244" x2="280" y2="286"/>
      <line x1="84" y1="96" x2="96" y2="232"/>
      <line x1="96" y1="232" x2="166" y2="244"/>
      <line x1="282" y1="110" x2="280" y2="286"/>
    </g>
    <g fill="#232B3B">
      <circle cx="84" cy="96" r="14"/>
      <circle cx="174" cy="144" r="14"/>
      <circle cx="282" cy="110" r="14"/>
      <circle cx="96" cy="232" r="14"/>
      <circle cx="166" cy="244" r="14"/>
      <circle cx="280" cy="286" r="14"/>
    </g>
  </g>

  <g transform="translate(928 336)">
    <circle cx="84" cy="84" r="76" fill="#FDF8EF" stroke="#D88D57" stroke-width="10"/>
    <circle cx="84" cy="84" r="56" fill="#9AACD2" opacity="0.68"/>
    <text x="84" y="98" text-anchor="middle" fill="#232B3B" font-family="'Trebuchet MS', Arial, sans-serif" font-size="44" font-weight="700" letter-spacing="2">GP</text>
  </g>

  <rect x="0" y="0" width="1200" height="238" fill="#2D3656" opacity="0.93"/>
  <rect x="0" y="1454" width="1200" height="346" fill="#4E5E8A" opacity="0.95"/>
  <text x="600" y="136" text-anchor="middle" fill="#FDF8EF" font-family="Georgia, serif" font-size="62" font-weight="700" letter-spacing="3">ERIC BERNE</text>
  <text x="600" y="208" text-anchor="middle" fill="#FDF8EF" font-family="'Trebuchet MS', Arial, sans-serif" font-size="30" letter-spacing="4">PSYCHOLOGY</text>
  <text x="600" y="1216" text-anchor="middle" fill="#232B3B" font-family="Georgia, 'Times New Roman', serif" font-size="92" font-weight="700" letter-spacing="2">GAMES PEOPLE PLAY</text>
  <text x="600" y="1538" text-anchor="middle" fill="#FDF8EF" font-family="'Trebuchet MS', Arial, sans-serif" font-size="30" letter-spacing="3">TRANSACTIONAL ANALYSIS  ·  RELATIONSHIPS  ·  COMMUNICATION</text>
  <text x="600" y="1604" text-anchor="middle" fill="#FDF8EF" font-family="Georgia, serif" font-size="30">Behavior, bias, and motivation</text>
  <text x="600" y="1668" text-anchor="middle" fill="#FDF8EF" font-family="'Trebuchet MS', Arial, sans-serif" font-size="26" letter-spacing="2">Modern Edition · Practical Lessons · Real Scenarios</text>
</svg>
