<svg width="1200" height="1800" viewBox="0 0 1200 1800" fill="none" xmlns="http://www.w3.org/2000/svg" role="img" aria-labelledby="title desc">
  <title id="title">Getting Things Done cover</title>
  <desc id="desc">Auto-generated themed cover for Getting Things Done by David Allen.</desc>
  <defs>
    <linearGradient id="g1252246242" x1="0" y1="0" x2="0" y2="1800" gradientUnits="userSpaceOnUse">
      <stop offset="0%" stop-color="#205F5D"/>
      <stop offset="100%" stop-color="#3A8279"/>
    </linearGradient>
  </defs>

  <rect width="1200" height="1800" fill="url(#g1252246242)"/>

  <rect x="-120" y="310" width="820" height="1100" transform="rotate(-12 400 860)" fill="#7FC5B8" opacity="0.24"/>
  <rect x="560" y="260" width="760" height="1150" transform="rotate(8 940 835)" fill="#E2A457" opacity="0.16"/>
  <circle cx="234" cy="544" r="180" fill="#E2A457" opacity="0.17"/>
  <circle cx="996" cy="1056" r="220" fill="#7FC5B8" opacity="0.2"/>
  <rect x="116" y="304" width="968" height="1036" rx="38" fill="#F4EEE3" stroke="#C8B9A3" stroke-width="10"/>

  <g transform="translate(407 558)">
    <rect x="0" y="0" width="384" height="334" rx="26" fill="#FDF8EE" stroke="#7FC5B8" stroke-width="8"/>
    <rect x="34" y="46" width="316" height="28" rx="12" fill="#7FC5B8" opacity="0.55"/>
    <g stroke="#1F3331" stroke-width="8" stroke-linecap="round" stroke-linejoin="round">
      <rect x="42" y="108" width="40" height="40" rx="8" fill="none"/>
      <path d="M52 128 L62 138 L82 116"/>
      <rect x="42" y="174" width="40" height="40" rx="8" fill="none"/>
      <path d="M52 194 L62 204 L82 182"/>
      <rect x="42" y="240" width="40" height="40" rx="8" fill="none"/>
      <path d="M52 260 L62 270 L82 248"/>
    </g>
    <rect x="106" y="112" width="240" height="28" rx="10" fill="#E2A457" opacity="0.8"/>
    <rect x="106" y="178" width="224" height="28" rx="10" fill="#7FC5B8" opacity="0.72"/>
    <rect x="106" y="244" width="258" height="28" rx="10" fill="#E2A457" opacity="0.7"/>
  </g>

  <rect x="0" y="0" width="1200" height="238" fill="#205F5D" opacity="0.93"/>
  <rect x="0" y="1454" width="1200" height="346" fill="#3A8279" opacity="0.95"/>
  <text x="600" y="136" text-anchor="middle" fill="#FDF8EE" font-family="Georgia, serif" font-size="62" font-weight="700" letter-spacing="3">DAVID ALLEN</text>
  <text x="600" y="208" text-anchor="middle" fill="#FDF8EE" font-family="'Trebuchet MS', Arial, sans-serif" font-size="30" letter-spacing="4">PRODUCTIVITY</text>
  <text x="600" y="1216" text-anchor="middle" fill="#1F3331" font-family="'Trebuchet MS', Arial, sans-serif" font-size="78" font-weight="700" letter-spacing="2">GETTING THINGS DONE</text>
  <text x="600" y="1538" text-anchor="middle" fill="#FDF8EE" font-family="'Trebuchet MS', Arial, sans-serif" font-size="30" letter-spacing="3">FOCUS  ·  PLANNING  ·  SYSTEMS</text>
  <text x="600" y="1604" text-anchor="middle" fill="#FDF8EE" font-family="Georgia, serif" font-size="30">Focus, habits, and execution</text>
  <text x="600" y="1668" text-anchor="middle" fill="#FDF8EE" font-family="'Trebuchet MS', Arial, sans-serif" font-size="26" letter-spacing="2">Modern Edition · Practical Lessons · Real Scenarios</text>
</svg>
