<svg width="1200" height="1800" viewBox="0 0 1200 1800" fill="none" xmlns="http://www.w3.org/2000/svg" role="img" aria-labelledby="title desc">
  <title id="title">Good Strategy Bad Strategy cover</title>
  <desc id="desc">Auto-generated themed cover for Good Strategy Bad Strategy by Richard Rumelt.</desc>
  <defs>
    <linearGradient id="g503923461" x1="0" y1="0" x2="0" y2="1800" gradientUnits="userSpaceOnUse">
      <stop offset="0%" stop-color="#0D2136"/>
      <stop offset="100%" stop-color="#214467"/>
    </linearGradient>
  </defs>

  <rect width="1200" height="1800" fill="url(#g503923461)"/>

  <rect x="-120" y="310" width="820" height="1100" transform="rotate(-12 400 860)" fill="#80A5C4" opacity="0.24"/>
  <rect x="560" y="260" width="760" height="1150" transform="rotate(8 940 835)" fill="#CF9D3B" opacity="0.16"/>
  <circle cx="242" cy="565" r="180" fill="#CF9D3B" opacity="0.17"/>
  <circle cx="988" cy="1035" r="220" fill="#80A5C4" opacity="0.2"/>
  <ellipse cx="600" cy="812" rx="470" ry="382" fill="#FFF8EE" opacity="0.08"/>
  <rect x="116" y="304" width="968" height="1036" rx="38" fill="#F4ECDD" stroke="#C8B598" stroke-width="10"/>
<g opacity="0.24" transform="translate(0 -26)">
  <g transform="translate(398 565)">
    <circle cx="196" cy="172" r="144" fill="#F4ECDD" stroke="#FFF8EE" stroke-width="8"/>
    <circle cx="196" cy="172" r="94" fill="none" stroke="#80A5C4" stroke-width="12" opacity="0.86"/>
    <polygon points="196,46 230,138 322,172 230,206 196,298 162,206 70,172 162,138" fill="#1B2830" opacity="0.88"/>
    <polygon points="196,88 214,146 272,172 214,198 196,256 178,198 120,172 178,146" fill="#F4ECDD" opacity="0.92"/>
  </g></g>

  <g transform="translate(411 557)">
    <circle cx="196" cy="172" r="144" fill="#FFF8EE" stroke="#80A5C4" stroke-width="8"/>
    <circle cx="196" cy="172" r="94" fill="none" stroke="#CF9D3B" stroke-width="12" opacity="0.86"/>
    <polygon points="196,46 230,138 322,172 230,206 196,298 162,206 70,172 162,138" fill="#1B2830" opacity="0.88"/>
    <polygon points="196,88 214,146 272,172 214,198 196,256 178,198 120,172 178,146" fill="#FFF8EE" opacity="0.92"/>
  </g>

  <g transform="translate(924 332)">
    <rect x="24" y="14" width="128" height="156" rx="64" fill="#FFF8EE" stroke="#CF9D3B" stroke-width="10"/>
    <path d="M44 54 H132" stroke="#80A5C4" stroke-width="10" stroke-linecap="round"/>
    <path d="M44 80 H132" stroke="#80A5C4" stroke-width="10" stroke-linecap="round"/>
    <text x="88" y="128" text-anchor="middle" fill="#1B2830" font-family="'Trebuchet MS', Arial, sans-serif" font-size="42" font-weight="700" letter-spacing="2">GS</text>
  </g>

  <rect x="0" y="0" width="1200" height="238" fill="#0D2136" opacity="0.93"/>
  <rect x="0" y="1454" width="1200" height="346" fill="#214467" opacity="0.95"/>
  <text x="600" y="136" text-anchor="middle" fill="#FFF8EE" font-family="Georgia, serif" font-size="62" font-weight="700" letter-spacing="3">RICHARD RUMELT</text>
  <text x="600" y="208" text-anchor="middle" fill="#FFF8EE" font-family="'Trebuchet MS', Arial, sans-serif" font-size="30" letter-spacing="4">STRATEGY</text>
  <text x="600" y="1216" text-anchor="middle" fill="#1B2830" font-family="Georgia, 'Times New Roman', serif" font-size="78" font-weight="700" letter-spacing="2">GOOD STRATEGY BAD STRATEGY</text>
  <g>
    <rect x="429" y="1466" width="148" height="42" rx="21" fill="#FFF8EE" opacity="0.18" stroke="#FFF8EE" stroke-width="2"/>
    <text x="503" y="1494" text-anchor="middle" fill="#FFF8EE" font-family="'Trebuchet MS', Arial, sans-serif" font-size="20" letter-spacing="1">STRATEGY</text>
  </g>
  <g>
    <rect x="599" y="1466" width="172" height="42" rx="21" fill="#FFF8EE" opacity="0.18" stroke="#FFF8EE" stroke-width="2"/>
    <text x="685" y="1494" text-anchor="middle" fill="#FFF8EE" font-family="'Trebuchet MS', Arial, sans-serif" font-size="20" letter-spacing="1">LEADERSHIP</text>
  </g>
  <text x="600" y="1538" text-anchor="middle" fill="#FFF8EE" font-family="'Trebuchet MS', Arial, sans-serif" font-size="30" letter-spacing="3">STRATEGY  ·  LEADERSHIP  ·  DIAGNOSIS</text>
  <text x="600" y="1604" text-anchor="middle" fill="#FFF8EE" font-family="Georgia, serif" font-size="30">Diagnosis, leverage, and coherent action</text>
  <text x="600" y="1668" text-anchor="middle" fill="#FFF8EE" font-family="'Trebuchet MS', Arial, sans-serif" font-size="26" letter-spacing="2">Modern Edition · Practical Lessons · Real Scenarios</text>
</svg>
