<svg width="1200" height="1800" viewBox="0 0 1200 1800" fill="none" xmlns="http://www.w3.org/2000/svg" role="img" aria-labelledby="title desc">
  <title id="title">Good to Great cover</title>
  <desc id="desc">Auto-generated themed cover for Good to Great by Jim Collins.</desc>
  <defs>
    <linearGradient id="g1391604231" x1="0" y1="0" x2="0" y2="1800" gradientUnits="userSpaceOnUse">
      <stop offset="0%" stop-color="#30354F"/>
      <stop offset="100%" stop-color="#4F5A79"/>
    </linearGradient>
  </defs>

  <rect width="1200" height="1800" fill="url(#g1391604231)"/>

  <rect x="0" y="300" width="1200" height="1180" fill="#96A8CA" opacity="0.1"/>
  <g stroke="#FEF8EE" opacity="0.2">
    <line x1="160" y1="320" x2="160" y2="1460" stroke-width="4"/>
    <line x1="320" y1="320" x2="320" y2="1460" stroke-width="3"/>
    <line x1="480" y1="320" x2="480" y2="1460" stroke-width="2"/>
    <line x1="640" y1="320" x2="640" y2="1460" stroke-width="3"/>
    <line x1="800" y1="320" x2="800" y2="1460" stroke-width="2"/>
    <line x1="960" y1="320" x2="960" y2="1460" stroke-width="3"/>
  </g>
  <path d="M140 430 L1060 430" stroke="#D8A354" stroke-width="10" opacity="0.22"/>
  <path d="M140 1330 L1060 1330" stroke="#D8A354" stroke-width="10" opacity="0.2"/>
  <rect x="116" y="304" width="968" height="1036" rx="38" fill="#F2ECE1" stroke="#C7B7A3" stroke-width="10"/>

  <g transform="translate(408 546)">
    <rect x="38" y="28" width="320" height="300" rx="24" fill="#FEF8EE" stroke="#96A8CA" stroke-width="8"/>
    <path d="M86 288 L302 72" stroke="#D8A354" stroke-width="16" stroke-linecap="round"/>
    <path d="M302 288 L86 72" stroke="#96A8CA" stroke-width="16" stroke-linecap="round"/>
    <rect x="74" y="278" width="34" height="12" rx="6" fill="#252B3E"/>
    <rect x="292" y="278" width="34" height="12" rx="6" fill="#252B3E"/>
  </g>

  <g transform="translate(922 332)">
    <rect x="12" y="12" width="152" height="152" rx="24" fill="#FEF8EE" stroke="#D8A354" stroke-width="10"/>
    <path d="M30 116 L146 52" stroke="#96A8CA" stroke-width="8" stroke-linecap="round"/>
    <path d="M30 138 L146 74" stroke="#96A8CA" stroke-width="8" stroke-linecap="round"/>
    <text x="88" y="102" text-anchor="middle" fill="#252B3E" font-family="'Trebuchet MS', Arial, sans-serif" font-size="44" font-weight="700" letter-spacing="2">GG</text>
  </g>

  <rect x="0" y="0" width="1200" height="238" fill="#30354F" opacity="0.93"/>
  <rect x="0" y="1454" width="1200" height="346" fill="#4F5A79" opacity="0.95"/>
  <text x="600" y="136" text-anchor="middle" fill="#FEF8EE" font-family="Georgia, serif" font-size="62" font-weight="700" letter-spacing="3">JIM COLLINS</text>
  <text x="600" y="208" text-anchor="middle" fill="#FEF8EE" font-family="'Trebuchet MS', Arial, sans-serif" font-size="30" letter-spacing="4">LEADERSHIP</text>
  <text x="600" y="1216" text-anchor="middle" fill="#252B3E" font-family="Georgia, 'Times New Roman', serif" font-size="92" font-weight="700" letter-spacing="2">GOOD TO GREAT</text>
  <text x="600" y="1538" text-anchor="middle" fill="#FEF8EE" font-family="'Trebuchet MS', Arial, sans-serif" font-size="30" letter-spacing="3">LEADERSHIP  ·  DISCIPLINE  ·  STRATEGY</text>
  <text x="600" y="1604" text-anchor="middle" fill="#FEF8EE" font-family="Georgia, serif" font-size="30">Responsibility and alignment</text>
  <text x="600" y="1668" text-anchor="middle" fill="#FEF8EE" font-family="'Trebuchet MS', Arial, sans-serif" font-size="26" letter-spacing="2">Modern Edition · Practical Lessons · Real Scenarios</text>
</svg>
