<svg width="1200" height="1800" viewBox="0 0 1200 1800" fill="none" xmlns="http://www.w3.org/2000/svg" role="img" aria-labelledby="title desc">
  <title id="title">Good Strategy Bad Strategy cover</title>
  <desc id="desc">Auto-generated themed cover for Good Strategy Bad Strategy by Richard Rumelt.</desc>
  <defs>
    <linearGradient id="g503923461" x1="0" y1="0" x2="0" y2="1800" gradientUnits="userSpaceOnUse">
      <stop offset="0%" stop-color="#0E2A44"/>
      <stop offset="100%" stop-color="#1E486A"/>
    </linearGradient>
  </defs>

  <rect width="1200" height="1800" fill="url(#g503923461)"/>

  <rect x="0" y="300" width="1200" height="1180" fill="#7AA4C4" opacity="0.1"/>
  <g stroke="#FFF8EE" opacity="0.2">
    <line x1="160" y1="320" x2="160" y2="1460" stroke-width="4"/>
    <line x1="320" y1="320" x2="320" y2="1460" stroke-width="3"/>
    <line x1="480" y1="320" x2="480" y2="1460" stroke-width="2"/>
    <line x1="640" y1="320" x2="640" y2="1460" stroke-width="3"/>
    <line x1="800" y1="320" x2="800" y2="1460" stroke-width="2"/>
    <line x1="960" y1="320" x2="960" y2="1460" stroke-width="3"/>
  </g>
  <path d="M140 430 L1060 430" stroke="#D19A34" stroke-width="10" opacity="0.22"/>
  <path d="M140 1330 L1060 1330" stroke="#D19A34" stroke-width="10" opacity="0.2"/>
  <rect x="116" y="304" width="968" height="1036" rx="38" fill="#F4ECDD" stroke="#CDBA9D" stroke-width="10"/>

  <g transform="translate(411 549)">
    <rect x="38" y="28" width="320" height="300" rx="24" fill="#FFF8EE" stroke="#7AA4C4" stroke-width="8"/>
    <path d="M86 288 L302 72" stroke="#D19A34" stroke-width="16" stroke-linecap="round"/>
    <path d="M302 288 L86 72" stroke="#7AA4C4" stroke-width="16" stroke-linecap="round"/>
    <rect x="74" y="278" width="34" height="12" rx="6" fill="#1C2B34"/>
    <rect x="292" y="278" width="34" height="12" rx="6" fill="#1C2B34"/>
  </g>

  <g transform="translate(924 332)">
    <rect x="24" y="14" width="128" height="156" rx="64" fill="#FFF8EE" stroke="#D19A34" stroke-width="10"/>
    <path d="M44 54 H132" stroke="#7AA4C4" stroke-width="10" stroke-linecap="round"/>
    <path d="M44 80 H132" stroke="#7AA4C4" stroke-width="10" stroke-linecap="round"/>
    <text x="88" y="128" text-anchor="middle" fill="#1C2B34" font-family="'Trebuchet MS', Arial, sans-serif" font-size="42" font-weight="700" letter-spacing="2">GS</text>
  </g>

  <rect x="0" y="0" width="1200" height="238" fill="#0E2A44" opacity="0.93"/>
  <rect x="0" y="1454" width="1200" height="346" fill="#1E486A" opacity="0.95"/>
  <text x="600" y="136" text-anchor="middle" fill="#FFF8EE" font-family="Georgia, serif" font-size="62" font-weight="700" letter-spacing="3">RICHARD RUMELT</text>
  <text x="600" y="208" text-anchor="middle" fill="#FFF8EE" font-family="'Trebuchet MS', Arial, sans-serif" font-size="30" letter-spacing="4">STRATEGY</text>
  <text x="600" y="1216" text-anchor="middle" fill="#1C2B34" font-family="Georgia, 'Times New Roman', serif" font-size="78" font-weight="700" letter-spacing="2">GOOD STRATEGY BAD STRATEGY</text>
  <text x="600" y="1538" text-anchor="middle" fill="#FFF8EE" font-family="'Trebuchet MS', Arial, sans-serif" font-size="30" letter-spacing="3">STRATEGY  ·  LEADERSHIP  ·  DIAGNOSIS</text>
  <text x="600" y="1604" text-anchor="middle" fill="#FFF8EE" font-family="Georgia, serif" font-size="30">Position, timing, and leverage</text>
  <text x="600" y="1668" text-anchor="middle" fill="#FFF8EE" font-family="'Trebuchet MS', Arial, sans-serif" font-size="26" letter-spacing="2">Modern Edition · Practical Lessons · Real Scenarios</text>
</svg>
