<svg width="1200" height="1800" viewBox="0 0 1200 1800" fill="none" xmlns="http://www.w3.org/2000/svg" role="img" aria-labelledby="title desc">
  <title id="title">Good to Great cover</title>
  <desc id="desc">Auto-generated themed cover for Good to Great by Jim Collins.</desc>
  <defs>
    <linearGradient id="g1391604231" x1="0" y1="0" x2="0" y2="1800" gradientUnits="userSpaceOnUse">
      <stop offset="0%" stop-color="#35384F"/>
      <stop offset="100%" stop-color="#5D6280"/>
    </linearGradient>
  </defs>

  <rect width="1200" height="1800" fill="url(#g1391604231)"/>

  <rect x="0" y="300" width="1200" height="1180" fill="#9BA9CA" opacity="0.12"/>
  <rect x="140" y="360" width="920" height="1050" rx="48" fill="#FEF8EE" opacity="0.22"/>
  <path d="M0 560 Q300 437 600 560 T1200 560" stroke="#FEF8EE" stroke-width="22" opacity="0.24"/>
  <path d="M0 1180 Q300 1057 600 1180 T1200 1180" stroke="#D6AC5B" stroke-width="16" opacity="0.22"/>
  <ellipse cx="600" cy="812" rx="470" ry="382" fill="#FEF8EE" opacity="0.08"/>
  <rect x="116" y="304" width="968" height="1036" rx="38" fill="#F2ECE1" stroke="#C2B29E" stroke-width="10"/>
<g opacity="0.24" transform="translate(0 -26)">
  <g transform="translate(389 576)">
    <rect x="0" y="0" width="404" height="312" rx="24" fill="#F2ECE1" stroke="#FEF8EE" stroke-width="8"/>
    <path d="M34 266 L132 144 L194 224 L278 112 L370 266 Z" fill="#9BA9CA" opacity="0.88"/>
    <path d="M118 154 V84" stroke="#24293A" stroke-width="10" stroke-linecap="round"/>
    <path d="M118 86 L188 106 L118 126 Z" fill="#24293A" opacity="0.9"/>
    <circle cx="320" cy="78" r="22" fill="#FEF8EE" opacity="0.72"/>
  </g></g>

  <g transform="translate(402 568)">
    <rect x="0" y="0" width="404" height="312" rx="24" fill="#FEF8EE" stroke="#9BA9CA" stroke-width="8"/>
    <path d="M34 266 L132 144 L194 224 L278 112 L370 266 Z" fill="#D6AC5B" opacity="0.88"/>
    <path d="M118 154 V84" stroke="#24293A" stroke-width="10" stroke-linecap="round"/>
    <path d="M118 86 L188 106 L118 126 Z" fill="#24293A" opacity="0.9"/>
    <circle cx="320" cy="78" r="22" fill="#9BA9CA" opacity="0.72"/>
  </g>

  <g transform="translate(922 332)">
    <rect x="12" y="12" width="152" height="152" rx="24" fill="#FEF8EE" stroke="#D6AC5B" stroke-width="10"/>
    <path d="M30 116 L146 52" stroke="#9BA9CA" stroke-width="8" stroke-linecap="round"/>
    <path d="M30 138 L146 74" stroke="#9BA9CA" stroke-width="8" stroke-linecap="round"/>
    <text x="88" y="102" text-anchor="middle" fill="#24293A" font-family="'Trebuchet MS', Arial, sans-serif" font-size="44" font-weight="700" letter-spacing="2">GG</text>
  </g>

  <rect x="0" y="0" width="1200" height="238" fill="#35384F" opacity="0.93"/>
  <rect x="0" y="1454" width="1200" height="346" fill="#5D6280" opacity="0.95"/>
  <text x="600" y="136" text-anchor="middle" fill="#FEF8EE" font-family="Georgia, serif" font-size="62" font-weight="700" letter-spacing="3">JIM COLLINS</text>
  <text x="600" y="208" text-anchor="middle" fill="#FEF8EE" font-family="'Trebuchet MS', Arial, sans-serif" font-size="30" letter-spacing="4">LEADERSHIP</text>
  <text x="600" y="1216" text-anchor="middle" fill="#24293A" font-family="Georgia, 'Times New Roman', serif" font-size="92" font-weight="700" letter-spacing="2">GOOD TO GREAT</text>
  <g>
    <rect x="417" y="1466" width="172" height="42" rx="21" fill="#FEF8EE" opacity="0.18" stroke="#FEF8EE" stroke-width="2"/>
    <text x="503" y="1494" text-anchor="middle" fill="#FEF8EE" font-family="'Trebuchet MS', Arial, sans-serif" font-size="20" letter-spacing="1">LEADERSHIP</text>
  </g>
  <g>
    <rect x="611" y="1466" width="172" height="42" rx="21" fill="#FEF8EE" opacity="0.18" stroke="#FEF8EE" stroke-width="2"/>
    <text x="697" y="1494" text-anchor="middle" fill="#FEF8EE" font-family="'Trebuchet MS', Arial, sans-serif" font-size="20" letter-spacing="1">DISCIPLINE</text>
  </g>
  <text x="600" y="1538" text-anchor="middle" fill="#FEF8EE" font-family="'Trebuchet MS', Arial, sans-serif" font-size="30" letter-spacing="3">LEADERSHIP  ·  DISCIPLINE  ·  STRATEGY</text>
  <text x="600" y="1604" text-anchor="middle" fill="#FEF8EE" font-family="Georgia, serif" font-size="30">Disciplined people and compounding momentum</text>
  <text x="600" y="1668" text-anchor="middle" fill="#FEF8EE" font-family="'Trebuchet MS', Arial, sans-serif" font-size="26" letter-spacing="2">Modern Edition · Practical Lessons · Real Scenarios</text>
</svg>
