<svg width="1200" height="1800" viewBox="0 0 1200 1800" fill="none" xmlns="http://www.w3.org/2000/svg" role="img" aria-labelledby="title desc">
  <title id="title">Grit cover</title>
  <desc id="desc">Auto-generated themed cover for Grit by Angela Duckworth.</desc>
  <defs>
    <linearGradient id="g107413344" x1="0" y1="0" x2="0" y2="1800" gradientUnits="userSpaceOnUse">
      <stop offset="0%" stop-color="#2D3656"/>
      <stop offset="100%" stop-color="#4E5E8A"/>
    </linearGradient>
  </defs>

  <rect width="1200" height="1800" fill="url(#g107413344)"/>

  <rect x="0" y="300" width="1200" height="1180" fill="#9AACD2" opacity="0.12"/>
  <rect x="110" y="370" width="420" height="420" rx="42" fill="#FDF8EF" opacity="0.2"/>
  <rect x="670" y="360" width="420" height="430" rx="42" fill="#D88D57" opacity="0.16"/>
  <rect x="110" y="980" width="420" height="360" rx="42" fill="#D88D57" opacity="0.15"/>
  <rect x="670" y="950" width="420" height="390" rx="42" fill="#FDF8EF" opacity="0.2"/>
  <rect x="116" y="304" width="968" height="1036" rx="38" fill="#F3ECE2" stroke="#C9B8A2" stroke-width="10"/>

  <g transform="translate(399 551)">
    <circle cx="204" cy="72" r="44" fill="#D88D57" opacity="0.44"/>
    <path d="M24 292 L132 144 L208 248 L296 114 L388 292 Z" fill="#9AACD2" opacity="0.82"/>
    <path d="M84 292 L168 186 L226 260 L302 172 L360 292 Z" fill="#D88D57" opacity="0.82"/>
    <path d="M34 292 H378" stroke="#FDF8EF" stroke-width="12" stroke-linecap="round" opacity="0.8"/>
  </g>

  <g transform="translate(928 336)">
    <circle cx="84" cy="84" r="76" fill="#FDF8EF" stroke="#D88D57" stroke-width="10"/>
    <circle cx="84" cy="84" r="56" fill="#9AACD2" opacity="0.68"/>
    <text x="84" y="98" text-anchor="middle" fill="#232B3B" font-family="'Trebuchet MS', Arial, sans-serif" font-size="44" font-weight="700" letter-spacing="2">GR</text>
  </g>

  <rect x="0" y="0" width="1200" height="238" fill="#2D3656" opacity="0.93"/>
  <rect x="0" y="1454" width="1200" height="346" fill="#4E5E8A" opacity="0.95"/>
  <text x="600" y="136" text-anchor="middle" fill="#FDF8EF" font-family="Georgia, serif" font-size="62" font-weight="700" letter-spacing="3">ANGELA DUCKWORTH</text>
  <text x="600" y="208" text-anchor="middle" fill="#FDF8EF" font-family="'Trebuchet MS', Arial, sans-serif" font-size="30" letter-spacing="4">PSYCHOLOGY</text>
  <text x="600" y="1216" text-anchor="middle" fill="#232B3B" font-family="Georgia, 'Times New Roman', serif" font-size="108" font-weight="700" letter-spacing="2">GRIT</text>
  <text x="600" y="1538" text-anchor="middle" fill="#FDF8EF" font-family="'Trebuchet MS', Arial, sans-serif" font-size="30" letter-spacing="3">GRIT  ·  PERSEVERANCE  ·  PASSION</text>
  <text x="600" y="1604" text-anchor="middle" fill="#FDF8EF" font-family="Georgia, serif" font-size="30">Behavior, bias, and motivation</text>
  <text x="600" y="1668" text-anchor="middle" fill="#FDF8EF" font-family="'Trebuchet MS', Arial, sans-serif" font-size="26" letter-spacing="2">Modern Edition · Practical Lessons · Real Scenarios</text>
</svg>
