<svg width="1200" height="1800" viewBox="0 0 1200 1800" fill="none" xmlns="http://www.w3.org/2000/svg" role="img" aria-labelledby="title desc">
  <title id="title">How to Talk to Anyone cover</title>
  <desc id="desc">Auto-generated themed cover for How to Talk to Anyone by Leil Lowndes.</desc>
  <defs>
    <linearGradient id="g258911543" x1="0" y1="0" x2="0" y2="1800" gradientUnits="userSpaceOnUse">
      <stop offset="0%" stop-color="#234555"/>
      <stop offset="100%" stop-color="#377289"/>
    </linearGradient>
  </defs>

  <rect width="1200" height="1800" fill="url(#g258911543)"/>

  <rect x="-120" y="310" width="820" height="1100" transform="rotate(-12 400 860)" fill="#8FC6CE" opacity="0.24"/>
  <rect x="560" y="260" width="760" height="1150" transform="rotate(8 940 835)" fill="#E48147" opacity="0.16"/>
  <circle cx="238" cy="564" r="180" fill="#E48147" opacity="0.17"/>
  <circle cx="992" cy="1036" r="220" fill="#8FC6CE" opacity="0.2"/>
  <ellipse cx="600" cy="812" rx="470" ry="382" fill="#FDF8EE" opacity="0.08"/>
  <rect x="116" y="304" width="968" height="1036" rx="38" fill="#F4EEE4" stroke="#C9B49B" stroke-width="10"/>
<g opacity="0.24" transform="translate(0 -26)">
  <g transform="translate(388 570)">
    <rect x="22" y="32" width="238" height="156" rx="28" fill="#F4EEE4" stroke="#FDF8EE" stroke-width="8"/>
    <polygon points="108,188 140,188 120,220" fill="#F4EEE4" stroke="#FDF8EE" stroke-width="8"/>
    <rect x="166" y="128" width="218" height="162" rx="28" fill="#8FC6CE" opacity="0.84"/>
    <polygon points="302,290 336,290 318,322" fill="#8FC6CE" opacity="0.84"/>
    <rect x="62" y="82" width="160" height="14" rx="7" fill="#FDF8EE" opacity="0.72"/>
    <rect x="62" y="112" width="124" height="14" rx="7" fill="#8FC6CE" opacity="0.7"/>
    <rect x="194" y="182" width="156" height="14" rx="7" fill="#F4EEE4" opacity="0.78"/>
    <rect x="194" y="212" width="128" height="14" rx="7" fill="#F4EEE4" opacity="0.68"/>
  </g></g>

  <g transform="translate(401 561)">
    <rect x="22" y="32" width="238" height="156" rx="28" fill="#FDF8EE" stroke="#8FC6CE" stroke-width="8"/>
    <polygon points="108,188 140,188 120,220" fill="#FDF8EE" stroke="#8FC6CE" stroke-width="8"/>
    <rect x="166" y="128" width="218" height="162" rx="28" fill="#E48147" opacity="0.84"/>
    <polygon points="302,290 336,290 318,322" fill="#E48147" opacity="0.84"/>
    <rect x="62" y="82" width="160" height="14" rx="7" fill="#8FC6CE" opacity="0.72"/>
    <rect x="62" y="112" width="124" height="14" rx="7" fill="#E48147" opacity="0.7"/>
    <rect x="194" y="182" width="156" height="14" rx="7" fill="#FDF8EE" opacity="0.78"/>
    <rect x="194" y="212" width="128" height="14" rx="7" fill="#FDF8EE" opacity="0.68"/>
  </g>

  <g transform="translate(928 336)">
    <circle cx="84" cy="84" r="76" fill="#FDF8EE" stroke="#E48147" stroke-width="10"/>
    <circle cx="84" cy="84" r="56" fill="#8FC6CE" opacity="0.68"/>
    <text x="84" y="98" text-anchor="middle" fill="#1E2F39" font-family="'Trebuchet MS', Arial, sans-serif" font-size="44" font-weight="700" letter-spacing="2">HT</text>
  </g>

  <rect x="0" y="0" width="1200" height="238" fill="#234555" opacity="0.93"/>
  <rect x="0" y="1454" width="1200" height="346" fill="#377289" opacity="0.95"/>
  <text x="600" y="136" text-anchor="middle" fill="#FDF8EE" font-family="Georgia, serif" font-size="62" font-weight="700" letter-spacing="3">LEIL LOWNDES</text>
  <text x="600" y="208" text-anchor="middle" fill="#FDF8EE" font-family="'Trebuchet MS', Arial, sans-serif" font-size="30" letter-spacing="4">COMMUNICATION</text>
  <text x="600" y="1114" text-anchor="middle" fill="#1E2F39" font-family="'Trebuchet MS', Arial, sans-serif" font-size="108" font-weight="700" letter-spacing="2">HOW TO</text>
  <text x="600" y="1231" text-anchor="middle" fill="#1E2F39" font-family="'Trebuchet MS', Arial, sans-serif" font-size="108" font-weight="700" letter-spacing="2">TALK TO</text>
  <text x="600" y="1348" text-anchor="middle" fill="#1E2F39" font-family="'Trebuchet MS', Arial, sans-serif" font-size="108" font-weight="700" letter-spacing="2">ANYONE</text>
  <g>
    <rect x="423" y="1466" width="196" height="42" rx="21" fill="#FDF8EE" opacity="0.18" stroke="#FDF8EE" stroke-width="2"/>
    <text x="521" y="1494" text-anchor="middle" fill="#FDF8EE" font-family="'Trebuchet MS', Arial, sans-serif" font-size="20" letter-spacing="1">CONVERSATION</text>
  </g>
  <g>
    <rect x="641" y="1466" width="136" height="42" rx="21" fill="#FDF8EE" opacity="0.18" stroke="#FDF8EE" stroke-width="2"/>
    <text x="709" y="1494" text-anchor="middle" fill="#FDF8EE" font-family="'Trebuchet MS', Arial, sans-serif" font-size="20" letter-spacing="1">RAPPORT</text>
  </g>
  <text x="600" y="1538" text-anchor="middle" fill="#FDF8EE" font-family="'Trebuchet MS', Arial, sans-serif" font-size="30" letter-spacing="3">CONVERSATION  ·  RAPPORT  ·  LIKABILITY</text>
  <text x="600" y="1604" text-anchor="middle" fill="#FDF8EE" font-family="Georgia, serif" font-size="30">Practical conversation patterns for social ease</text>
  <text x="600" y="1668" text-anchor="middle" fill="#FDF8EE" font-family="'Trebuchet MS', Arial, sans-serif" font-size="26" letter-spacing="2">Modern Edition · Practical Lessons · Real Scenarios</text>
</svg>
