<svg width="1200" height="1800" viewBox="0 0 1200 1800" fill="none" xmlns="http://www.w3.org/2000/svg" role="img" aria-labelledby="title desc">
  <title id="title">How to Talk to Anyone cover</title>
  <desc id="desc">Auto-generated themed cover for How to Talk to Anyone by Leil Lowndes.</desc>
  <defs>
    <linearGradient id="g258911543" x1="0" y1="0" x2="0" y2="1800" gradientUnits="userSpaceOnUse">
      <stop offset="0%" stop-color="#2D4A64"/>
      <stop offset="100%" stop-color="#3E6D8C"/>
    </linearGradient>
  </defs>

  <rect width="1200" height="1800" fill="url(#g258911543)"/>

  <rect x="0" y="300" width="1200" height="1180" fill="#8DBBCB" opacity="0.1"/>
  <g stroke="#FDF8EE" opacity="0.2">
    <line x1="160" y1="320" x2="160" y2="1460" stroke-width="4"/>
    <line x1="320" y1="320" x2="320" y2="1460" stroke-width="3"/>
    <line x1="480" y1="320" x2="480" y2="1460" stroke-width="2"/>
    <line x1="640" y1="320" x2="640" y2="1460" stroke-width="3"/>
    <line x1="800" y1="320" x2="800" y2="1460" stroke-width="2"/>
    <line x1="960" y1="320" x2="960" y2="1460" stroke-width="3"/>
  </g>
  <path d="M140 430 L1060 430" stroke="#E19345" stroke-width="10" opacity="0.22"/>
  <path d="M140 1330 L1060 1330" stroke="#E19345" stroke-width="10" opacity="0.2"/>
  <rect x="116" y="304" width="968" height="1036" rx="38" fill="#F4EFE4" stroke="#CBBBA3" stroke-width="10"/>

  <g transform="translate(401 561)">
    <rect x="22" y="32" width="238" height="156" rx="28" fill="#FDF8EE" stroke="#8DBBCB" stroke-width="8"/>
    <polygon points="108,188 140,188 120,220" fill="#FDF8EE" stroke="#8DBBCB" stroke-width="8"/>
    <rect x="166" y="128" width="218" height="162" rx="28" fill="#E19345" opacity="0.84"/>
    <polygon points="302,290 336,290 318,322" fill="#E19345" opacity="0.84"/>
    <rect x="62" y="82" width="160" height="14" rx="7" fill="#8DBBCB" opacity="0.72"/>
    <rect x="62" y="112" width="124" height="14" rx="7" fill="#E19345" opacity="0.7"/>
    <rect x="194" y="182" width="156" height="14" rx="7" fill="#FDF8EE" opacity="0.78"/>
    <rect x="194" y="212" width="128" height="14" rx="7" fill="#FDF8EE" opacity="0.68"/>
  </g>

  <g transform="translate(928 336)">
    <circle cx="84" cy="84" r="76" fill="#FDF8EE" stroke="#E19345" stroke-width="10"/>
    <circle cx="84" cy="84" r="56" fill="#8DBBCB" opacity="0.68"/>
    <text x="84" y="98" text-anchor="middle" fill="#20313C" font-family="'Trebuchet MS', Arial, sans-serif" font-size="44" font-weight="700" letter-spacing="2">HT</text>
  </g>

  <rect x="0" y="0" width="1200" height="238" fill="#2D4A64" opacity="0.93"/>
  <rect x="0" y="1454" width="1200" height="346" fill="#3E6D8C" opacity="0.95"/>
  <text x="600" y="136" text-anchor="middle" fill="#FDF8EE" font-family="Georgia, serif" font-size="62" font-weight="700" letter-spacing="3">LEIL LOWNDES</text>
  <text x="600" y="208" text-anchor="middle" fill="#FDF8EE" font-family="'Trebuchet MS', Arial, sans-serif" font-size="30" letter-spacing="4">COMMUNICATION</text>
  <text x="600" y="1114" text-anchor="middle" fill="#20313C" font-family="'Trebuchet MS', Arial, sans-serif" font-size="108" font-weight="700" letter-spacing="2">HOW TO</text>
  <text x="600" y="1231" text-anchor="middle" fill="#20313C" font-family="'Trebuchet MS', Arial, sans-serif" font-size="108" font-weight="700" letter-spacing="2">TALK TO</text>
  <text x="600" y="1348" text-anchor="middle" fill="#20313C" font-family="'Trebuchet MS', Arial, sans-serif" font-size="108" font-weight="700" letter-spacing="2">ANYONE</text>
  <text x="600" y="1538" text-anchor="middle" fill="#FDF8EE" font-family="'Trebuchet MS', Arial, sans-serif" font-size="30" letter-spacing="3">CONVERSATION  ·  RAPPORT  ·  LIKABILITY</text>
  <text x="600" y="1604" text-anchor="middle" fill="#FDF8EE" font-family="Georgia, serif" font-size="30">Social ease through practical communication skills</text>
  <text x="600" y="1668" text-anchor="middle" fill="#FDF8EE" font-family="'Trebuchet MS', Arial, sans-serif" font-size="26" letter-spacing="2">Modern Edition · Practical Lessons · Real Scenarios</text>
</svg>
