<svg width="1200" height="1800" viewBox="0 0 1200 1800" fill="none" xmlns="http://www.w3.org/2000/svg" role="img" aria-labelledby="title desc">
  <title id="title">Indistractable cover</title>
  <desc id="desc">Auto-generated themed cover for Indistractable by Nir Eyal.</desc>
  <defs>
    <linearGradient id="g1429872614" x1="0" y1="0" x2="0" y2="1800" gradientUnits="userSpaceOnUse">
      <stop offset="0%" stop-color="#265E63"/>
      <stop offset="100%" stop-color="#478C8E"/>
    </linearGradient>
  </defs>

  <rect width="1200" height="1800" fill="url(#g1429872614)"/>

  <rect x="0" y="300" width="1200" height="1180" fill="#85C4BE" opacity="0.1"/>
  <rect x="110" y="360" width="420" height="430" rx="42" fill="#FDF8EE" opacity="0.2"/>
  <rect x="670" y="360" width="420" height="420" rx="42" fill="#E0B25E" opacity="0.16"/>
  <rect x="110" y="980" width="420" height="360" rx="42" fill="#E0B25E" opacity="0.15"/>
  <rect x="670" y="950" width="420" height="390" rx="42" fill="#FDF8EE" opacity="0.2"/>
  <circle cx="622" cy="881" r="128" fill="#FDF8EE" opacity="0.16"/>
  <ellipse cx="600" cy="812" rx="470" ry="382" fill="#FDF8EE" opacity="0.08"/>
  <rect x="116" y="304" width="968" height="1036" rx="38" fill="#F4EEE3" stroke="#C3B59E" stroke-width="10"/>
<g opacity="0.24" transform="translate(0 -26)">
  <g transform="translate(414 568)">
    <rect x="0" y="0" width="380" height="332" rx="20" fill="#F4EEE3" stroke="#FDF8EE" stroke-width="8"/>
    <rect x="62" y="64" width="256" height="188" rx="14" fill="#1E2F2E" opacity="0.9"/>
    <rect x="92" y="278" width="196" height="20" rx="10" fill="#85C4BE" opacity="0.86"/>
  </g></g>

  <g transform="translate(397 560)">
    <rect x="0" y="0" width="380" height="332" rx="20" fill="#FDF8EE" stroke="#85C4BE" stroke-width="8"/>
    <rect x="62" y="64" width="256" height="188" rx="14" fill="#1E2F2E" opacity="0.9"/>
    <rect x="92" y="278" width="196" height="20" rx="10" fill="#E0B25E" opacity="0.86"/>
  </g>

  <g transform="translate(926 334)">
    <polygon points="88,8 162,52 162,136 88,180 14,136 14,52" fill="#FDF8EE" stroke="#E0B25E" stroke-width="10"/>
    <circle cx="88" cy="94" r="44" fill="#85C4BE" opacity="0.7"/>
    <text x="88" y="108" text-anchor="middle" fill="#1E2F2E" font-family="'Trebuchet MS', Arial, sans-serif" font-size="42" font-weight="700" letter-spacing="2">IN</text>
  </g>

  <rect x="0" y="0" width="1200" height="238" fill="#265E63" opacity="0.93"/>
  <rect x="0" y="1454" width="1200" height="346" fill="#478C8E" opacity="0.95"/>
  <text x="600" y="136" text-anchor="middle" fill="#FDF8EE" font-family="Georgia, serif" font-size="62" font-weight="700" letter-spacing="3">NIR EYAL</text>
  <text x="600" y="208" text-anchor="middle" fill="#FDF8EE" font-family="'Trebuchet MS', Arial, sans-serif" font-size="30" letter-spacing="4">PRODUCTIVITY</text>
  <text x="600" y="1216" text-anchor="middle" fill="#1E2F2E" font-family="'Trebuchet MS', Arial, sans-serif" font-size="92" font-weight="700" letter-spacing="2">INDISTRACTABLE</text>
  <g>
    <rect x="441" y="1466" width="112" height="42" rx="21" fill="#FDF8EE" opacity="0.18" stroke="#FDF8EE" stroke-width="2"/>
    <text x="497" y="1494" text-anchor="middle" fill="#FDF8EE" font-family="'Trebuchet MS', Arial, sans-serif" font-size="20" letter-spacing="1">FOCUS</text>
  </g>
  <g>
    <rect x="575" y="1466" width="184" height="42" rx="21" fill="#FDF8EE" opacity="0.18" stroke="#FDF8EE" stroke-width="2"/>
    <text x="667" y="1494" text-anchor="middle" fill="#FDF8EE" font-family="'Trebuchet MS', Arial, sans-serif" font-size="20" letter-spacing="1">DISTRACTION</text>
  </g>
  <text x="600" y="1538" text-anchor="middle" fill="#FDF8EE" font-family="'Trebuchet MS', Arial, sans-serif" font-size="30" letter-spacing="3">FOCUS  ·  DISTRACTION  ·  ATTENTION</text>
  <text x="600" y="1604" text-anchor="middle" fill="#FDF8EE" font-family="Georgia, serif" font-size="30">Defend attention against constant distraction</text>
  <text x="600" y="1668" text-anchor="middle" fill="#FDF8EE" font-family="'Trebuchet MS', Arial, sans-serif" font-size="26" letter-spacing="2">Modern Edition · Practical Lessons · Real Scenarios</text>
</svg>
