<svg width="1200" height="1800" viewBox="0 0 1200 1800" fill="none" xmlns="http://www.w3.org/2000/svg" role="img" aria-labelledby="title desc">
  <title id="title">Influence cover</title>
  <desc id="desc">Auto-generated themed cover for Influence by Robert Cialdini.</desc>
  <defs>
    <linearGradient id="g1404145406" x1="0" y1="0" x2="0" y2="1800" gradientUnits="userSpaceOnUse">
      <stop offset="0%" stop-color="#1F3E50"/>
      <stop offset="100%" stop-color="#3E7180"/>
    </linearGradient>
  </defs>

  <rect width="1200" height="1800" fill="url(#g1404145406)"/>

  <rect x="-120" y="310" width="820" height="1100" transform="rotate(-12 400 860)" fill="#7FB2A5" opacity="0.24"/>
  <rect x="560" y="260" width="760" height="1150" transform="rotate(8 940 835)" fill="#DA8844" opacity="0.16"/>
  <circle cx="237" cy="579" r="180" fill="#DA8844" opacity="0.17"/>
  <circle cx="993" cy="1021" r="220" fill="#7FB2A5" opacity="0.2"/>
  <ellipse cx="600" cy="812" rx="470" ry="382" fill="#FEF8EE" opacity="0.08"/>
  <rect x="116" y="304" width="968" height="1036" rx="38" fill="#F4ECE0" stroke="#C6B299" stroke-width="10"/>
<g opacity="0.24" transform="translate(0 -26)">
  <g transform="translate(397 569)">
    <path d="M80 68 V214 Q80 304 170 304 H230 Q320 304 320 214 V68" fill="none" stroke="#7FB2A5" stroke-width="34" stroke-linecap="round"/>
    <rect x="66" y="40" width="44" height="68" rx="12" fill="#F4ECE0"/>
    <rect x="290" y="40" width="44" height="68" rx="12" fill="#F4ECE0"/>
    <circle cx="198" cy="182" r="54" fill="#FEF8EE" opacity="0.7"/>
    <circle cx="198" cy="182" r="26" fill="#1C2B30" opacity="0.86"/>
  </g></g>

  <g transform="translate(410 561)">
    <path d="M80 68 V214 Q80 304 170 304 H230 Q320 304 320 214 V68" fill="none" stroke="#DA8844" stroke-width="34" stroke-linecap="round"/>
    <rect x="66" y="40" width="44" height="68" rx="12" fill="#FEF8EE"/>
    <rect x="290" y="40" width="44" height="68" rx="12" fill="#FEF8EE"/>
    <circle cx="198" cy="182" r="54" fill="#7FB2A5" opacity="0.7"/>
    <circle cx="198" cy="182" r="26" fill="#1C2B30" opacity="0.86"/>
  </g>

  <g transform="translate(924 332)">
    <polygon points="88,8 168,88 88,168 8,88" fill="#FEF8EE" stroke="#DA8844" stroke-width="10"/>
    <circle cx="88" cy="88" r="38" fill="#7FB2A5" opacity="0.72"/>
    <text x="88" y="102" text-anchor="middle" fill="#1C2B30" font-family="'Trebuchet MS', Arial, sans-serif" font-size="40" font-weight="700" letter-spacing="2">IN</text>
  </g>

  <rect x="0" y="0" width="1200" height="238" fill="#1F3E50" opacity="0.93"/>
  <rect x="0" y="1454" width="1200" height="346" fill="#3E7180" opacity="0.95"/>
  <text x="600" y="136" text-anchor="middle" fill="#FEF8EE" font-family="Georgia, serif" font-size="62" font-weight="700" letter-spacing="3">ROBERT CIALDINI</text>
  <text x="600" y="208" text-anchor="middle" fill="#FEF8EE" font-family="'Trebuchet MS', Arial, sans-serif" font-size="30" letter-spacing="4">COMMUNICATION</text>
  <text x="600" y="1216" text-anchor="middle" fill="#1C2B30" font-family="'Trebuchet MS', Arial, sans-serif" font-size="108" font-weight="700" letter-spacing="2">INFLUENCE</text>
  <g>
    <rect x="405" y="1466" width="172" height="42" rx="21" fill="#FEF8EE" opacity="0.18" stroke="#FEF8EE" stroke-width="2"/>
    <text x="491" y="1494" text-anchor="middle" fill="#FEF8EE" font-family="'Trebuchet MS', Arial, sans-serif" font-size="20" letter-spacing="1">PERSUASION</text>
  </g>
  <g>
    <rect x="599" y="1466" width="196" height="42" rx="21" fill="#FEF8EE" opacity="0.18" stroke="#FEF8EE" stroke-width="2"/>
    <text x="697" y="1494" text-anchor="middle" fill="#FEF8EE" font-family="'Trebuchet MS', Arial, sans-serif" font-size="20" letter-spacing="1">SOCIAL PROOF</text>
  </g>
  <text x="600" y="1538" text-anchor="middle" fill="#FEF8EE" font-family="'Trebuchet MS', Arial, sans-serif" font-size="30" letter-spacing="3">PERSUASION  ·  SOCIAL PROOF  ·  AUTHORITY</text>
  <text x="600" y="1604" text-anchor="middle" fill="#FEF8EE" font-family="Georgia, serif" font-size="30">Persuasion principles in real decisions</text>
  <text x="600" y="1668" text-anchor="middle" fill="#FEF8EE" font-family="'Trebuchet MS', Arial, sans-serif" font-size="26" letter-spacing="2">Modern Edition · Practical Lessons · Real Scenarios</text>
</svg>
