<svg width="1200" height="1800" viewBox="0 0 1200 1800" fill="none" xmlns="http://www.w3.org/2000/svg" role="img" aria-labelledby="title desc">
  <title id="title">Influence cover</title>
  <desc id="desc">Auto-generated themed cover for Influence by Robert Cialdini.</desc>
  <defs>
    <linearGradient id="g1404145406" x1="0" y1="0" x2="0" y2="1800" gradientUnits="userSpaceOnUse">
      <stop offset="0%" stop-color="#1F3E50"/>
      <stop offset="100%" stop-color="#396A76"/>
    </linearGradient>
  </defs>

  <rect width="1200" height="1800" fill="url(#g1404145406)"/>

  <rect x="0" y="300" width="1200" height="1180" fill="#7CB0A3" opacity="0.1"/>
  <g stroke="#FEF8EE" opacity="0.2">
    <line x1="160" y1="320" x2="160" y2="1460" stroke-width="4"/>
    <line x1="320" y1="320" x2="320" y2="1460" stroke-width="3"/>
    <line x1="480" y1="320" x2="480" y2="1460" stroke-width="2"/>
    <line x1="640" y1="320" x2="640" y2="1460" stroke-width="3"/>
    <line x1="800" y1="320" x2="800" y2="1460" stroke-width="2"/>
    <line x1="960" y1="320" x2="960" y2="1460" stroke-width="3"/>
  </g>
  <path d="M140 430 L1060 430" stroke="#D98540" stroke-width="10" opacity="0.22"/>
  <path d="M140 1330 L1060 1330" stroke="#D98540" stroke-width="10" opacity="0.2"/>
  <rect x="116" y="304" width="968" height="1036" rx="38" fill="#F4ECE0" stroke="#CAB7A0" stroke-width="10"/>

  <g transform="translate(410 561)">
    <path d="M80 68 V214 Q80 304 170 304 H230 Q320 304 320 214 V68" fill="none" stroke="#D98540" stroke-width="34" stroke-linecap="round"/>
    <rect x="66" y="40" width="44" height="68" rx="12" fill="#FEF8EE"/>
    <rect x="290" y="40" width="44" height="68" rx="12" fill="#FEF8EE"/>
    <circle cx="198" cy="182" r="54" fill="#7CB0A3" opacity="0.7"/>
    <circle cx="198" cy="182" r="26" fill="#1E2E33" opacity="0.86"/>
  </g>

  <rect x="0" y="0" width="1200" height="238" fill="#1F3E50" opacity="0.93"/>
  <rect x="0" y="1454" width="1200" height="346" fill="#396A76" opacity="0.95"/>
  <text x="600" y="136" text-anchor="middle" fill="#FEF8EE" font-family="Georgia, serif" font-size="62" font-weight="700" letter-spacing="3">ROBERT CIALDINI</text>
  <text x="600" y="208" text-anchor="middle" fill="#FEF8EE" font-family="'Trebuchet MS', Arial, sans-serif" font-size="30" letter-spacing="4">COMMUNICATION</text>
  <text x="600" y="1216" text-anchor="middle" fill="#1E2E33" font-family="'Trebuchet MS', Arial, sans-serif" font-size="108" font-weight="700" letter-spacing="2">INFLUENCE</text>
  <text x="600" y="1538" text-anchor="middle" fill="#FEF8EE" font-family="'Trebuchet MS', Arial, sans-serif" font-size="30" letter-spacing="3">PERSUASION  ·  SOCIAL PROOF  ·  AUTHORITY</text>
  <text x="600" y="1604" text-anchor="middle" fill="#FEF8EE" font-family="Georgia, serif" font-size="30">Psychology of persuasion in real decisions</text>
  <text x="600" y="1668" text-anchor="middle" fill="#FEF8EE" font-family="'Trebuchet MS', Arial, sans-serif" font-size="26" letter-spacing="2">Modern Edition · Practical Lessons · Real Scenarios</text>
</svg>
