<svg width="1200" height="1800" viewBox="0 0 1200 1800" fill="none" xmlns="http://www.w3.org/2000/svg" role="img" aria-labelledby="title desc">
  <title id="title">The Laws of Human Nature cover</title>
  <desc id="desc">Auto-generated themed cover for The Laws of Human Nature by Robert Greene.</desc>
  <defs>
    <linearGradient id="g990422101" x1="0" y1="0" x2="0" y2="1800" gradientUnits="userSpaceOnUse">
      <stop offset="0%" stop-color="#2D2A4F"/>
      <stop offset="100%" stop-color="#574E7E"/>
    </linearGradient>
  </defs>

  <rect width="1200" height="1800" fill="url(#g990422101)"/>

  <rect x="0" y="300" width="1200" height="1180" fill="#A1A3DC" opacity="0.1"/>
  <rect x="110" y="360" width="420" height="430" rx="42" fill="#FDF8EE" opacity="0.2"/>
  <rect x="670" y="360" width="420" height="420" rx="42" fill="#D9B25B" opacity="0.16"/>
  <rect x="110" y="980" width="420" height="360" rx="42" fill="#D9B25B" opacity="0.15"/>
  <rect x="670" y="950" width="420" height="390" rx="42" fill="#FDF8EE" opacity="0.2"/>
  <circle cx="641" cy="836" r="128" fill="#FDF8EE" opacity="0.16"/>
  <ellipse cx="600" cy="812" rx="470" ry="382" fill="#FDF8EE" opacity="0.08"/>
  <rect x="116" y="304" width="968" height="1036" rx="38" fill="#F2EEE3" stroke="#C5B59F" stroke-width="10"/>
<g opacity="0.24" transform="translate(0 -26)">
  <g transform="translate(399 568)">
    <path d="M82 68 H188 C216 68 238 90 238 118 V238 C238 294 194 340 136 340 C78 340 34 294 34 238 V118 C34 90 56 68 82 68 Z" fill="#F2EEE3" stroke="#FDF8EE" stroke-width="8"/>
    <path d="M208 68 H314 C342 68 364 90 364 118 V238 C364 294 320 340 262 340 C204 340 160 294 160 238 V118 C160 90 182 68 208 68 Z" fill="#A1A3DC" opacity="0.84"/>
    <circle cx="102" cy="182" r="10" fill="#222537"/>
    <circle cx="164" cy="182" r="10" fill="#222537"/>
    <path d="M94 242 Q132 270 172 242" fill="none" stroke="#222537" stroke-width="10" stroke-linecap="round"/>
    <circle cx="228" cy="182" r="10" fill="#F2EEE3"/>
    <circle cx="290" cy="182" r="10" fill="#F2EEE3"/>
    <path d="M220 250 Q258 222 298 250" fill="none" stroke="#F2EEE3" stroke-width="10" stroke-linecap="round"/>
  </g></g>

  <g transform="translate(412 559)">
    <path d="M82 68 H188 C216 68 238 90 238 118 V238 C238 294 194 340 136 340 C78 340 34 294 34 238 V118 C34 90 56 68 82 68 Z" fill="#FDF8EE" stroke="#A1A3DC" stroke-width="8"/>
    <path d="M208 68 H314 C342 68 364 90 364 118 V238 C364 294 320 340 262 340 C204 340 160 294 160 238 V118 C160 90 182 68 208 68 Z" fill="#D9B25B" opacity="0.84"/>
    <circle cx="102" cy="182" r="10" fill="#222537"/>
    <circle cx="164" cy="182" r="10" fill="#222537"/>
    <path d="M94 242 Q132 270 172 242" fill="none" stroke="#222537" stroke-width="10" stroke-linecap="round"/>
    <circle cx="228" cy="182" r="10" fill="#FDF8EE"/>
    <circle cx="290" cy="182" r="10" fill="#FDF8EE"/>
    <path d="M220 250 Q258 222 298 250" fill="none" stroke="#FDF8EE" stroke-width="10" stroke-linecap="round"/>
  </g>

  <g transform="translate(930 336)">
    <path d="M82 8 L152 34 V90 C152 142 120 174 82 190 C44 174 12 142 12 90 V34 Z" fill="#FDF8EE" stroke="#D9B25B" stroke-width="10"/>
    <rect x="30" y="64" width="104" height="64" rx="20" fill="#A1A3DC" opacity="0.72"/>
    <text x="82" y="106" text-anchor="middle" fill="#222537" font-family="'Trebuchet MS', Arial, sans-serif" font-size="40" font-weight="700" letter-spacing="2">LH</text>
  </g>

  <rect x="0" y="0" width="1200" height="238" fill="#2D2A4F" opacity="0.93"/>
  <rect x="0" y="1454" width="1200" height="346" fill="#574E7E" opacity="0.95"/>
  <text x="600" y="136" text-anchor="middle" fill="#FDF8EE" font-family="Georgia, serif" font-size="62" font-weight="700" letter-spacing="3">ROBERT GREENE</text>
  <text x="600" y="208" text-anchor="middle" fill="#FDF8EE" font-family="'Trebuchet MS', Arial, sans-serif" font-size="30" letter-spacing="4">PSYCHOLOGY</text>
  <text x="600" y="1114" text-anchor="middle" fill="#222537" font-family="Georgia, 'Times New Roman', serif" font-size="108" font-weight="700" letter-spacing="2">THE LAWS</text>
  <text x="600" y="1231" text-anchor="middle" fill="#222537" font-family="Georgia, 'Times New Roman', serif" font-size="108" font-weight="700" letter-spacing="2">OF HUMAN</text>
  <text x="600" y="1348" text-anchor="middle" fill="#222537" font-family="Georgia, 'Times New Roman', serif" font-size="108" font-weight="700" letter-spacing="2">NATURE</text>
  <g>
    <rect x="405" y="1466" width="196" height="42" rx="21" fill="#FDF8EE" opacity="0.18" stroke="#FDF8EE" stroke-width="2"/>
    <text x="503" y="1494" text-anchor="middle" fill="#FDF8EE" font-family="'Trebuchet MS', Arial, sans-serif" font-size="20" letter-spacing="1">HUMAN NATURE</text>
  </g>
  <g>
    <rect x="623" y="1466" width="172" height="42" rx="21" fill="#FDF8EE" opacity="0.18" stroke="#FDF8EE" stroke-width="2"/>
    <text x="709" y="1494" text-anchor="middle" fill="#FDF8EE" font-family="'Trebuchet MS', Arial, sans-serif" font-size="20" letter-spacing="1">PSYCHOLOGY</text>
  </g>
  <text x="600" y="1538" text-anchor="middle" fill="#FDF8EE" font-family="'Trebuchet MS', Arial, sans-serif" font-size="30" letter-spacing="3">HUMAN NATURE  ·  PSYCHOLOGY  ·  LEADERSHIP</text>
  <text x="600" y="1604" text-anchor="middle" fill="#FDF8EE" font-family="Georgia, serif" font-size="30">Decode motives before they become risk</text>
  <text x="600" y="1668" text-anchor="middle" fill="#FDF8EE" font-family="'Trebuchet MS', Arial, sans-serif" font-size="26" letter-spacing="2">Modern Edition · Practical Lessons · Real Scenarios</text>
</svg>
