<svg width="1200" height="1800" viewBox="0 0 1200 1800" fill="none" xmlns="http://www.w3.org/2000/svg" role="img" aria-labelledby="title desc">
  <title id="title">The Laws of Human Nature cover</title>
  <desc id="desc">Auto-generated themed cover for The Laws of Human Nature by Robert Greene.</desc>
  <defs>
    <linearGradient id="g990422101" x1="0" y1="0" x2="0" y2="1800" gradientUnits="userSpaceOnUse">
      <stop offset="0%" stop-color="#3A3E63"/>
      <stop offset="100%" stop-color="#5A5A86"/>
    </linearGradient>
  </defs>

  <rect width="1200" height="1800" fill="url(#g990422101)"/>

  <rect x="0" y="300" width="1200" height="1180" fill="#9FA8D9" opacity="0.12"/>
  <rect x="140" y="360" width="920" height="1050" rx="48" fill="#FDF7EE" opacity="0.22"/>
  <path d="M0 560 Q300 416 600 560 T1200 560" stroke="#FDF7EE" stroke-width="22" opacity="0.24"/>
  <path d="M0 1180 Q300 1036 600 1180 T1200 1180" stroke="#D59D5A" stroke-width="16" opacity="0.22"/>
  <rect x="116" y="304" width="968" height="1036" rx="38" fill="#F2EDE3" stroke="#C8B8A7" stroke-width="10"/>

  <g transform="translate(420 557)">
    <rect x="30" y="44" width="332" height="292" rx="24" fill="#FDF7EE" stroke="#9FA8D9" stroke-width="8"/>
    <path d="M74 246 L104 118 L176 186 L222 110 L286 186 L318 118 L346 246 Z" fill="#D59D5A" opacity="0.9"/>
    <rect x="88" y="244" width="248" height="38" rx="14" fill="#24283A" opacity="0.88"/>
    <circle cx="104" cy="112" r="10" fill="#24283A"/>
    <circle cx="222" cy="102" r="11" fill="#24283A"/>
    <circle cx="318" cy="112" r="10" fill="#24283A"/>
  </g>

  <g transform="translate(930 336)">
    <path d="M82 8 L152 34 V90 C152 142 120 174 82 190 C44 174 12 142 12 90 V34 Z" fill="#FDF7EE" stroke="#D59D5A" stroke-width="10"/>
    <rect x="30" y="64" width="104" height="64" rx="20" fill="#9FA8D9" opacity="0.72"/>
    <text x="82" y="106" text-anchor="middle" fill="#24283A" font-family="'Trebuchet MS', Arial, sans-serif" font-size="40" font-weight="700" letter-spacing="2">LH</text>
  </g>

  <rect x="0" y="0" width="1200" height="238" fill="#3A3E63" opacity="0.93"/>
  <rect x="0" y="1454" width="1200" height="346" fill="#5A5A86" opacity="0.95"/>
  <text x="600" y="136" text-anchor="middle" fill="#FDF7EE" font-family="Georgia, serif" font-size="62" font-weight="700" letter-spacing="3">ROBERT GREENE</text>
  <text x="600" y="208" text-anchor="middle" fill="#FDF7EE" font-family="'Trebuchet MS', Arial, sans-serif" font-size="30" letter-spacing="4">PSYCHOLOGY</text>
  <text x="600" y="1114" text-anchor="middle" fill="#24283A" font-family="Georgia, 'Times New Roman', serif" font-size="108" font-weight="700" letter-spacing="2">THE LAWS</text>
  <text x="600" y="1231" text-anchor="middle" fill="#24283A" font-family="Georgia, 'Times New Roman', serif" font-size="108" font-weight="700" letter-spacing="2">OF HUMAN</text>
  <text x="600" y="1348" text-anchor="middle" fill="#24283A" font-family="Georgia, 'Times New Roman', serif" font-size="108" font-weight="700" letter-spacing="2">NATURE</text>
  <text x="600" y="1538" text-anchor="middle" fill="#FDF7EE" font-family="'Trebuchet MS', Arial, sans-serif" font-size="30" letter-spacing="3">HUMAN NATURE  ·  PSYCHOLOGY  ·  LEADERSHIP</text>
  <text x="600" y="1604" text-anchor="middle" fill="#FDF7EE" font-family="Georgia, serif" font-size="30">Behavior, bias, and motivation</text>
  <text x="600" y="1668" text-anchor="middle" fill="#FDF7EE" font-family="'Trebuchet MS', Arial, sans-serif" font-size="26" letter-spacing="2">Modern Edition · Practical Lessons · Real Scenarios</text>
</svg>
