<svg width="1200" height="1800" viewBox="0 0 1200 1800" fill="none" xmlns="http://www.w3.org/2000/svg" role="img" aria-labelledby="title desc">
  <title id="title">Limitless cover</title>
  <desc id="desc">Auto-generated themed cover for Limitless by Jim Kwik.</desc>
  <defs>
    <linearGradient id="g138154761" x1="0" y1="0" x2="0" y2="1800" gradientUnits="userSpaceOnUse">
      <stop offset="0%" stop-color="#2D4A6A"/>
      <stop offset="100%" stop-color="#4B7AA3"/>
    </linearGradient>
  </defs>

  <rect width="1200" height="1800" fill="url(#g138154761)"/>

  <rect x="0" y="300" width="1200" height="1180" fill="#8EB4D1" opacity="0.12"/>
  <rect x="110" y="370" width="420" height="420" rx="42" fill="#FDF8EE" opacity="0.2"/>
  <rect x="670" y="360" width="420" height="430" rx="42" fill="#E29C48" opacity="0.16"/>
  <rect x="110" y="980" width="420" height="360" rx="42" fill="#E29C48" opacity="0.15"/>
  <rect x="670" y="950" width="420" height="390" rx="42" fill="#FDF8EE" opacity="0.2"/>
  <rect x="116" y="304" width="968" height="1036" rx="38" fill="#F4EEE3" stroke="#CABAA4" stroke-width="10"/>

  <g transform="translate(403 562)">
    <path d="M18 56 Q118 6 218 56 V302 Q118 252 18 302 Z" fill="#FDF8EE" stroke="#8EB4D1" stroke-width="8"/>
    <path d="M382 56 Q282 6 182 56 V302 Q282 252 382 302 Z" fill="#FDF8EE" stroke="#8EB4D1" stroke-width="8"/>
    <path d="M200 62 Q200 22 200 8" stroke="#E29C48" stroke-width="10" stroke-linecap="round"/>
    <rect x="76" y="106" width="94" height="12" rx="6" fill="#E29C48" opacity="0.76"/>
    <rect x="76" y="138" width="112" height="12" rx="6" fill="#8EB4D1" opacity="0.76"/>
    <rect x="76" y="170" width="98" height="12" rx="6" fill="#E29C48" opacity="0.76"/>
    <rect x="226" y="106" width="94" height="12" rx="6" fill="#E29C48" opacity="0.76"/>
    <rect x="214" y="138" width="112" height="12" rx="6" fill="#8EB4D1" opacity="0.76"/>
    <rect x="224" y="170" width="98" height="12" rx="6" fill="#E29C48" opacity="0.76"/>
  </g>

  <rect x="0" y="0" width="1200" height="238" fill="#2D4A6A" opacity="0.93"/>
  <rect x="0" y="1454" width="1200" height="346" fill="#4B7AA3" opacity="0.95"/>
  <text x="600" y="136" text-anchor="middle" fill="#FDF8EE" font-family="Georgia, serif" font-size="62" font-weight="700" letter-spacing="3">JIM KWIK</text>
  <text x="600" y="208" text-anchor="middle" fill="#FDF8EE" font-family="'Trebuchet MS', Arial, sans-serif" font-size="30" letter-spacing="4">LEARNING</text>
  <text x="600" y="1216" text-anchor="middle" fill="#223445" font-family="'Trebuchet MS', Arial, sans-serif" font-size="108" font-weight="700" letter-spacing="2">LIMITLESS</text>
  <text x="600" y="1538" text-anchor="middle" fill="#FDF8EE" font-family="'Trebuchet MS', Arial, sans-serif" font-size="30" letter-spacing="3">PRACTICE  ·  MEMORY  ·  FEEDBACK</text>
  <text x="600" y="1604" text-anchor="middle" fill="#FDF8EE" font-family="Georgia, serif" font-size="30">Practice and skill building</text>
  <text x="600" y="1668" text-anchor="middle" fill="#FDF8EE" font-family="'Trebuchet MS', Arial, sans-serif" font-size="26" letter-spacing="2">Modern Edition · Practical Lessons · Real Scenarios</text>
</svg>
