<svg width="1200" height="1800" viewBox="0 0 1200 1800" fill="none" xmlns="http://www.w3.org/2000/svg" role="img" aria-labelledby="title desc">
  <title id="title">Limitless cover</title>
  <desc id="desc">Auto-generated themed cover for Limitless by Jim Kwik.</desc>
  <defs>
    <linearGradient id="g138154761" x1="0" y1="0" x2="0" y2="1800" gradientUnits="userSpaceOnUse">
      <stop offset="0%" stop-color="#2D4A6A"/>
      <stop offset="100%" stop-color="#4B7AA3"/>
    </linearGradient>
  </defs>

  <rect width="1200" height="1800" fill="url(#g138154761)"/>

  <rect x="0" y="300" width="1200" height="1180" fill="#8EB4D1" opacity="0.12"/>
  <rect x="110" y="370" width="420" height="420" rx="42" fill="#FDF8EE" opacity="0.2"/>
  <rect x="670" y="360" width="420" height="430" rx="42" fill="#E29C48" opacity="0.16"/>
  <rect x="110" y="980" width="420" height="360" rx="42" fill="#E29C48" opacity="0.15"/>
  <rect x="670" y="950" width="420" height="390" rx="42" fill="#FDF8EE" opacity="0.2"/>
  <rect x="116" y="304" width="968" height="1036" rx="38" fill="#F4EEE3" stroke="#CABAA4" stroke-width="10"/>

  <g transform="translate(397 558)">
    <rect x="0" y="0" width="420" height="328" rx="24" fill="#FDF8EE" stroke="#8EB4D1" stroke-width="8"/>
    <path d="M56 258 C136 192 228 222 306 158" stroke="#223445" stroke-width="10" stroke-linecap="round"/>
    <rect x="82" y="98" width="250" height="26" rx="13" fill="#8EB4D1" opacity="0.55"/>
    <rect x="82" y="132" width="212" height="26" rx="13" fill="#E29C48" opacity="0.45"/>
    <g transform="translate(294 214) rotate(-18)">
      <rect x="0" y="0" width="88" height="22" rx="10" fill="#E29C48" opacity="0.9"/>
      <polygon points="88,11 108,0 108,22" fill="#223445"/>
      <polygon points="108,0 118,11 108,22" fill="#FDF8EE"/>
    </g>
  </g>

  <g transform="translate(924 332)">
    <rect x="24" y="14" width="128" height="156" rx="64" fill="#FDF8EE" stroke="#E29C48" stroke-width="10"/>
    <path d="M44 54 H132" stroke="#8EB4D1" stroke-width="10" stroke-linecap="round"/>
    <path d="M44 80 H132" stroke="#8EB4D1" stroke-width="10" stroke-linecap="round"/>
    <text x="88" y="128" text-anchor="middle" fill="#223445" font-family="'Trebuchet MS', Arial, sans-serif" font-size="42" font-weight="700" letter-spacing="2">LI</text>
  </g>

  <rect x="0" y="0" width="1200" height="238" fill="#2D4A6A" opacity="0.93"/>
  <rect x="0" y="1454" width="1200" height="346" fill="#4B7AA3" opacity="0.95"/>
  <text x="600" y="136" text-anchor="middle" fill="#FDF8EE" font-family="Georgia, serif" font-size="62" font-weight="700" letter-spacing="3">JIM KWIK</text>
  <text x="600" y="208" text-anchor="middle" fill="#FDF8EE" font-family="'Trebuchet MS', Arial, sans-serif" font-size="30" letter-spacing="4">LEARNING</text>
  <text x="600" y="1216" text-anchor="middle" fill="#223445" font-family="'Trebuchet MS', Arial, sans-serif" font-size="108" font-weight="700" letter-spacing="2">LIMITLESS</text>
  <text x="600" y="1538" text-anchor="middle" fill="#FDF8EE" font-family="'Trebuchet MS', Arial, sans-serif" font-size="30" letter-spacing="3">PRACTICE  ·  MEMORY  ·  FEEDBACK</text>
  <text x="600" y="1604" text-anchor="middle" fill="#FDF8EE" font-family="Georgia, serif" font-size="30">Practice and skill building</text>
  <text x="600" y="1668" text-anchor="middle" fill="#FDF8EE" font-family="'Trebuchet MS', Arial, sans-serif" font-size="26" letter-spacing="2">Modern Edition · Practical Lessons · Real Scenarios</text>
</svg>
