<svg width="1200" height="1800" viewBox="0 0 1200 1800" fill="none" xmlns="http://www.w3.org/2000/svg" role="img" aria-labelledby="title desc">
  <title id="title">Made to Stick cover</title>
  <desc id="desc">Auto-generated themed cover for Made to Stick by Chip Heath and Dan Heath.</desc>
  <defs>
    <linearGradient id="g589535935" x1="0" y1="0" x2="0" y2="1800" gradientUnits="userSpaceOnUse">
      <stop offset="0%" stop-color="#243C49"/>
      <stop offset="100%" stop-color="#3B667A"/>
    </linearGradient>
  </defs>

  <rect width="1200" height="1800" fill="url(#g589535935)"/>

  <circle cx="600" cy="840" r="420" fill="#92C2CB" opacity="0.16"/>
  <circle cx="600" cy="840" r="300" fill="#FDF8EE" opacity="0.16"/>
  <circle cx="628" cy="817" r="210" fill="#DF874C" opacity="0.18"/>
  <circle cx="572" cy="863" r="130" fill="#FDF8EE" opacity="0.34"/>
  <ellipse cx="600" cy="812" rx="470" ry="382" fill="#FDF8EE" opacity="0.08"/>
  <rect x="116" y="304" width="968" height="1036" rx="38" fill="#F4EEE4" stroke="#C6B59E" stroke-width="10"/>
<g opacity="0.24" transform="translate(0 -26)">
  <g transform="translate(398 563)">
    <rect x="22" y="32" width="238" height="156" rx="28" fill="#F4EEE4" stroke="#FDF8EE" stroke-width="8"/>
    <polygon points="108,188 140,188 120,220" fill="#F4EEE4" stroke="#FDF8EE" stroke-width="8"/>
    <rect x="166" y="128" width="218" height="162" rx="28" fill="#92C2CB" opacity="0.84"/>
    <polygon points="302,290 336,290 318,322" fill="#92C2CB" opacity="0.84"/>
    <rect x="62" y="82" width="160" height="14" rx="7" fill="#FDF8EE" opacity="0.72"/>
    <rect x="62" y="112" width="124" height="14" rx="7" fill="#92C2CB" opacity="0.7"/>
    <rect x="194" y="182" width="156" height="14" rx="7" fill="#F4EEE4" opacity="0.78"/>
    <rect x="194" y="212" width="128" height="14" rx="7" fill="#F4EEE4" opacity="0.68"/>
  </g></g>

  <g transform="translate(411 555)">
    <rect x="22" y="32" width="238" height="156" rx="28" fill="#FDF8EE" stroke="#92C2CB" stroke-width="8"/>
    <polygon points="108,188 140,188 120,220" fill="#FDF8EE" stroke="#92C2CB" stroke-width="8"/>
    <rect x="166" y="128" width="218" height="162" rx="28" fill="#DF874C" opacity="0.84"/>
    <polygon points="302,290 336,290 318,322" fill="#DF874C" opacity="0.84"/>
    <rect x="62" y="82" width="160" height="14" rx="7" fill="#92C2CB" opacity="0.72"/>
    <rect x="62" y="112" width="124" height="14" rx="7" fill="#DF874C" opacity="0.7"/>
    <rect x="194" y="182" width="156" height="14" rx="7" fill="#FDF8EE" opacity="0.78"/>
    <rect x="194" y="212" width="128" height="14" rx="7" fill="#FDF8EE" opacity="0.68"/>
  </g>

  <g transform="translate(924 332)">
    <rect x="24" y="14" width="128" height="156" rx="64" fill="#FDF8EE" stroke="#DF874C" stroke-width="10"/>
    <path d="M44 54 H132" stroke="#92C2CB" stroke-width="10" stroke-linecap="round"/>
    <path d="M44 80 H132" stroke="#92C2CB" stroke-width="10" stroke-linecap="round"/>
    <text x="88" y="128" text-anchor="middle" fill="#1F2F38" font-family="'Trebuchet MS', Arial, sans-serif" font-size="42" font-weight="700" letter-spacing="2">MS</text>
  </g>

  <rect x="0" y="0" width="1200" height="238" fill="#243C49" opacity="0.93"/>
  <rect x="0" y="1454" width="1200" height="346" fill="#3B667A" opacity="0.95"/>
  <text x="600" y="136" text-anchor="middle" fill="#FDF8EE" font-family="Georgia, serif" font-size="62" font-weight="700" letter-spacing="3">CHIP HEATH AND DAN HEATH</text>
  <text x="600" y="208" text-anchor="middle" fill="#FDF8EE" font-family="'Trebuchet MS', Arial, sans-serif" font-size="30" letter-spacing="4">COMMUNICATION</text>
  <text x="600" y="1216" text-anchor="middle" fill="#1F2F38" font-family="'Trebuchet MS', Arial, sans-serif" font-size="92" font-weight="700" letter-spacing="2">MADE TO STICK</text>
  <g>
    <rect x="411" y="1466" width="196" height="42" rx="21" fill="#FDF8EE" opacity="0.18" stroke="#FDF8EE" stroke-width="2"/>
    <text x="509" y="1494" text-anchor="middle" fill="#FDF8EE" font-family="'Trebuchet MS', Arial, sans-serif" font-size="20" letter-spacing="1">STORYTELLING</text>
  </g>
  <g>
    <rect x="629" y="1466" width="160" height="42" rx="21" fill="#FDF8EE" opacity="0.18" stroke="#FDF8EE" stroke-width="2"/>
    <text x="709" y="1494" text-anchor="middle" fill="#FDF8EE" font-family="'Trebuchet MS', Arial, sans-serif" font-size="20" letter-spacing="1">MESSAGING</text>
  </g>
  <text x="600" y="1538" text-anchor="middle" fill="#FDF8EE" font-family="'Trebuchet MS', Arial, sans-serif" font-size="30" letter-spacing="3">STORYTELLING  ·  MESSAGING  ·  IDEAS</text>
  <text x="600" y="1604" text-anchor="middle" fill="#FDF8EE" font-family="Georgia, serif" font-size="30">Make ideas memorable and actionable</text>
  <text x="600" y="1668" text-anchor="middle" fill="#FDF8EE" font-family="'Trebuchet MS', Arial, sans-serif" font-size="26" letter-spacing="2">Modern Edition · Practical Lessons · Real Scenarios</text>
</svg>
