<svg width="1200" height="1800" viewBox="0 0 1200 1800" fill="none" xmlns="http://www.w3.org/2000/svg" role="img" aria-labelledby="title desc">
  <title id="title">Made to Stick cover</title>
  <desc id="desc">Auto-generated themed cover for Made to Stick by Chip Heath and Dan Heath.</desc>
  <defs>
    <linearGradient id="g589535935" x1="0" y1="0" x2="0" y2="1800" gradientUnits="userSpaceOnUse">
      <stop offset="0%" stop-color="#2D4A64"/>
      <stop offset="100%" stop-color="#3E6D8C"/>
    </linearGradient>
  </defs>

  <rect width="1200" height="1800" fill="url(#g589535935)"/>

  <circle cx="600" cy="840" r="420" fill="#8DBBCB" opacity="0.16"/>
  <circle cx="600" cy="840" r="300" fill="#FDF8EE" opacity="0.16"/>
  <circle cx="628" cy="817" r="210" fill="#E19345" opacity="0.18"/>
  <circle cx="572" cy="863" r="130" fill="#FDF8EE" opacity="0.34"/>
  <rect x="116" y="304" width="968" height="1036" rx="38" fill="#F4EFE4" stroke="#CBBBA3" stroke-width="10"/>

  <g transform="translate(421 549)">
    <path d="M80 68 V214 Q80 304 170 304 H230 Q320 304 320 214 V68" fill="none" stroke="#E19345" stroke-width="34" stroke-linecap="round"/>
    <rect x="66" y="40" width="44" height="68" rx="12" fill="#FDF8EE"/>
    <rect x="290" y="40" width="44" height="68" rx="12" fill="#FDF8EE"/>
    <circle cx="198" cy="182" r="54" fill="#8DBBCB" opacity="0.7"/>
    <circle cx="198" cy="182" r="26" fill="#20313C" opacity="0.86"/>
  </g>

  <g transform="translate(924 332)">
    <rect x="24" y="14" width="128" height="156" rx="64" fill="#FDF8EE" stroke="#E19345" stroke-width="10"/>
    <path d="M44 54 H132" stroke="#8DBBCB" stroke-width="10" stroke-linecap="round"/>
    <path d="M44 80 H132" stroke="#8DBBCB" stroke-width="10" stroke-linecap="round"/>
    <text x="88" y="128" text-anchor="middle" fill="#20313C" font-family="'Trebuchet MS', Arial, sans-serif" font-size="42" font-weight="700" letter-spacing="2">MS</text>
  </g>

  <rect x="0" y="0" width="1200" height="238" fill="#2D4A64" opacity="0.93"/>
  <rect x="0" y="1454" width="1200" height="346" fill="#3E6D8C" opacity="0.95"/>
  <text x="600" y="136" text-anchor="middle" fill="#FDF8EE" font-family="Georgia, serif" font-size="62" font-weight="700" letter-spacing="3">CHIP HEATH AND DAN HEATH</text>
  <text x="600" y="208" text-anchor="middle" fill="#FDF8EE" font-family="'Trebuchet MS', Arial, sans-serif" font-size="30" letter-spacing="4">COMMUNICATION</text>
  <text x="600" y="1216" text-anchor="middle" fill="#20313C" font-family="'Trebuchet MS', Arial, sans-serif" font-size="92" font-weight="700" letter-spacing="2">MADE TO STICK</text>
  <text x="600" y="1538" text-anchor="middle" fill="#FDF8EE" font-family="'Trebuchet MS', Arial, sans-serif" font-size="30" letter-spacing="3">STORYTELLING  ·  MESSAGING  ·  IDEAS</text>
  <text x="600" y="1604" text-anchor="middle" fill="#FDF8EE" font-family="Georgia, serif" font-size="30">Influence, dialogue, and trust</text>
  <text x="600" y="1668" text-anchor="middle" fill="#FDF8EE" font-family="'Trebuchet MS', Arial, sans-serif" font-size="26" letter-spacing="2">Modern Edition · Practical Lessons · Real Scenarios</text>
</svg>
