<svg width="1200" height="1800" viewBox="0 0 1200 1800" fill="none" xmlns="http://www.w3.org/2000/svg" role="img" aria-labelledby="title desc">
  <title id="title">Make Time cover</title>
  <desc id="desc">Auto-generated themed cover for Make Time by Jake Knapp, John Zeratsky.</desc>
  <defs>
    <linearGradient id="g707771827" x1="0" y1="0" x2="0" y2="1800" gradientUnits="userSpaceOnUse">
      <stop offset="0%" stop-color="#274F4C"/>
      <stop offset="100%" stop-color="#3E7364"/>
    </linearGradient>
  </defs>

  <rect width="1200" height="1800" fill="url(#g707771827)"/>

  <circle cx="600" cy="840" r="420" fill="#8AC0AB" opacity="0.16"/>
  <circle cx="600" cy="840" r="300" fill="#FBF8EF" opacity="0.16"/>
  <circle cx="612" cy="852" r="210" fill="#DB9F4F" opacity="0.18"/>
  <circle cx="588" cy="828" r="130" fill="#FBF8EF" opacity="0.34"/>
  <rect x="116" y="304" width="968" height="1036" rx="38" fill="#F2EEE3" stroke="#C6B9A3" stroke-width="10"/>

  <g transform="translate(407 568)">
    <rect x="0" y="0" width="380" height="332" rx="20" fill="#FBF8EF" stroke="#8AC0AB" stroke-width="8"/>
    <rect x="62" y="64" width="256" height="188" rx="14" fill="#203230" opacity="0.9"/>
    <rect x="92" y="278" width="196" height="20" rx="10" fill="#DB9F4F" opacity="0.86"/>
  </g>

  <g transform="translate(928 336)">
    <circle cx="84" cy="84" r="76" fill="#FBF8EF" stroke="#DB9F4F" stroke-width="10"/>
    <circle cx="84" cy="84" r="56" fill="#8AC0AB" opacity="0.68"/>
    <text x="84" y="98" text-anchor="middle" fill="#203230" font-family="'Trebuchet MS', Arial, sans-serif" font-size="44" font-weight="700" letter-spacing="2">MT</text>
  </g>

  <rect x="0" y="0" width="1200" height="238" fill="#274F4C" opacity="0.93"/>
  <rect x="0" y="1454" width="1200" height="346" fill="#3E7364" opacity="0.95"/>
  <text x="600" y="136" text-anchor="middle" fill="#FBF8EF" font-family="Georgia, serif" font-size="62" font-weight="700" letter-spacing="3">JAKE KNAPP, JOHN ZERATSKY</text>
  <text x="600" y="208" text-anchor="middle" fill="#FBF8EF" font-family="'Trebuchet MS', Arial, sans-serif" font-size="30" letter-spacing="4">PRODUCTIVITY</text>
  <text x="600" y="1216" text-anchor="middle" fill="#203230" font-family="'Trebuchet MS', Arial, sans-serif" font-size="108" font-weight="700" letter-spacing="2">MAKE TIME</text>
  <text x="600" y="1538" text-anchor="middle" fill="#FBF8EF" font-family="'Trebuchet MS', Arial, sans-serif" font-size="30" letter-spacing="3">TIME  ·  FOCUS  ·  ATTENTION</text>
  <text x="600" y="1604" text-anchor="middle" fill="#FBF8EF" font-family="Georgia, serif" font-size="30">Focus, habits, and execution</text>
  <text x="600" y="1668" text-anchor="middle" fill="#FBF8EF" font-family="'Trebuchet MS', Arial, sans-serif" font-size="26" letter-spacing="2">Modern Edition · Practical Lessons · Real Scenarios</text>
</svg>
