<svg width="1200" height="1800" viewBox="0 0 1200 1800" fill="none" xmlns="http://www.w3.org/2000/svg" role="img" aria-labelledby="title desc">
  <title id="title">Make It Stick cover</title>
  <desc id="desc">Auto-generated themed cover for Make It Stick by Peter C. Brown, Henry L. Roediger III, and Mark A. McDaniel.</desc>
  <defs>
    <linearGradient id="g1973052030" x1="0" y1="0" x2="0" y2="1800" gradientUnits="userSpaceOnUse">
      <stop offset="0%" stop-color="#2F537B"/>
      <stop offset="100%" stop-color="#5C85B3"/>
    </linearGradient>
  </defs>

  <rect width="1200" height="1800" fill="url(#g1973052030)"/>

  <rect x="-120" y="310" width="820" height="1100" transform="rotate(-12 400 860)" fill="#9EBFDD" opacity="0.24"/>
  <rect x="560" y="260" width="760" height="1150" transform="rotate(8 940 835)" fill="#E2934C" opacity="0.16"/>
  <circle cx="257" cy="562" r="180" fill="#E2934C" opacity="0.17"/>
  <circle cx="973" cy="1038" r="220" fill="#9EBFDD" opacity="0.2"/>
  <ellipse cx="600" cy="812" rx="470" ry="382" fill="#FEF8EF" opacity="0.08"/>
  <rect x="116" y="304" width="968" height="1036" rx="38" fill="#F3ECE1" stroke="#C5B39A" stroke-width="10"/>
<g opacity="0.24" transform="translate(0 -26)">
  <g transform="translate(407 564)">
    <path d="M40 74 C126 44 198 70 198 128 V304 C146 270 94 262 40 292 Z" fill="#F3ECE1" stroke="#FEF8EF" stroke-width="8"/>
    <path d="M356 74 C270 44 198 70 198 128 V304 C250 270 302 262 356 292 Z" fill="#9EBFDD" opacity="0.84"/>
    <path d="M198 128 V316" stroke="#233447" stroke-width="10" stroke-linecap="round"/>
    <path d="M74 120 C118 106 156 110 186 132" stroke="#9EBFDD" stroke-width="8" stroke-linecap="round"/>
    <path d="M320 120 C278 106 240 110 210 132" stroke="#F3ECE1" stroke-width="8" stroke-linecap="round"/>
  </g></g>

  <g transform="translate(390 555)">
    <path d="M40 74 C126 44 198 70 198 128 V304 C146 270 94 262 40 292 Z" fill="#FEF8EF" stroke="#9EBFDD" stroke-width="8"/>
    <path d="M356 74 C270 44 198 70 198 128 V304 C250 270 302 262 356 292 Z" fill="#E2934C" opacity="0.84"/>
    <path d="M198 128 V316" stroke="#233447" stroke-width="10" stroke-linecap="round"/>
    <path d="M74 120 C118 106 156 110 186 132" stroke="#E2934C" stroke-width="8" stroke-linecap="round"/>
    <path d="M320 120 C278 106 240 110 210 132" stroke="#FEF8EF" stroke-width="8" stroke-linecap="round"/>
  </g>

  <g transform="translate(922 332)">
    <rect x="12" y="12" width="152" height="152" rx="24" fill="#FEF8EF" stroke="#E2934C" stroke-width="10"/>
    <path d="M30 116 L146 52" stroke="#9EBFDD" stroke-width="8" stroke-linecap="round"/>
    <path d="M30 138 L146 74" stroke="#9EBFDD" stroke-width="8" stroke-linecap="round"/>
    <text x="88" y="102" text-anchor="middle" fill="#233447" font-family="'Trebuchet MS', Arial, sans-serif" font-size="44" font-weight="700" letter-spacing="2">MS</text>
  </g>

  <rect x="0" y="0" width="1200" height="238" fill="#2F537B" opacity="0.93"/>
  <rect x="0" y="1454" width="1200" height="346" fill="#5C85B3" opacity="0.95"/>
  <text x="600" y="136" text-anchor="middle" fill="#FEF8EF" font-family="Georgia, serif" font-size="62" font-weight="700" letter-spacing="3">PETER C. BROWN, HENRY L. ROEDIGER III, AND MARK A. MCDANIEL</text>
  <text x="600" y="208" text-anchor="middle" fill="#FEF8EF" font-family="'Trebuchet MS', Arial, sans-serif" font-size="30" letter-spacing="4">LEARNING</text>
  <text x="600" y="1216" text-anchor="middle" fill="#233447" font-family="'Trebuchet MS', Arial, sans-serif" font-size="92" font-weight="700" letter-spacing="2">MAKE IT STICK</text>
  <g>
    <rect x="453" y="1466" width="148" height="42" rx="21" fill="#FEF8EF" opacity="0.18" stroke="#FEF8EF" stroke-width="2"/>
    <text x="527" y="1494" text-anchor="middle" fill="#FEF8EF" font-family="'Trebuchet MS', Arial, sans-serif" font-size="20" letter-spacing="1">PRACTICE</text>
  </g>
  <g>
    <rect x="623" y="1466" width="124" height="42" rx="21" fill="#FEF8EF" opacity="0.18" stroke="#FEF8EF" stroke-width="2"/>
    <text x="685" y="1494" text-anchor="middle" fill="#FEF8EF" font-family="'Trebuchet MS', Arial, sans-serif" font-size="20" letter-spacing="1">MEMORY</text>
  </g>
  <text x="600" y="1538" text-anchor="middle" fill="#FEF8EF" font-family="'Trebuchet MS', Arial, sans-serif" font-size="30" letter-spacing="3">PRACTICE  ·  MEMORY  ·  FEEDBACK</text>
  <text x="600" y="1604" text-anchor="middle" fill="#FEF8EF" font-family="Georgia, serif" font-size="30">Retrieval and spacing beat rereading</text>
  <text x="600" y="1668" text-anchor="middle" fill="#FEF8EF" font-family="'Trebuchet MS', Arial, sans-serif" font-size="26" letter-spacing="2">Modern Edition · Practical Lessons · Real Scenarios</text>
</svg>
