<svg width="1200" height="1800" viewBox="0 0 1200 1800" fill="none" xmlns="http://www.w3.org/2000/svg" role="img" aria-labelledby="title desc">
  <title id="title">Man&#39;s Search for Meaning cover</title>
  <desc id="desc">Auto-generated themed cover for Man&#39;s Search for Meaning by Viktor E. Frankl.</desc>
  <defs>
    <linearGradient id="g1972692458" x1="0" y1="0" x2="0" y2="1800" gradientUnits="userSpaceOnUse">
      <stop offset="0%" stop-color="#3F3A32"/>
      <stop offset="100%" stop-color="#5F574A"/>
    </linearGradient>
  </defs>

  <rect width="1200" height="1800" fill="url(#g1972692458)"/>

  <rect x="0" y="300" width="1200" height="1180" fill="#B39F88" opacity="0.12"/>
  <rect x="110" y="370" width="420" height="420" rx="42" fill="#FEF8EE" opacity="0.2"/>
  <rect x="670" y="360" width="420" height="430" rx="42" fill="#D6A160" opacity="0.16"/>
  <rect x="110" y="980" width="420" height="360" rx="42" fill="#D6A160" opacity="0.15"/>
  <rect x="670" y="950" width="420" height="390" rx="42" fill="#FEF8EE" opacity="0.2"/>
  <rect x="116" y="304" width="968" height="1036" rx="38" fill="#F3ECE2" stroke="#C8B8A2" stroke-width="10"/>

  <g transform="translate(424 548)">
    <circle cx="190" cy="112" r="58" fill="#D6A160" opacity="0.3"/>
    <rect x="70" y="130" width="240" height="24" rx="10" fill="#B39F88" opacity="0.8"/>
    <rect x="92" y="152" width="196" height="34" rx="12" fill="#FEF8EE" stroke="#B39F88" stroke-width="6"/>
    <g fill="#FEF8EE" stroke="#B39F88" stroke-width="6">
      <rect x="106" y="184" width="38" height="170" rx="10"/>
      <rect x="170" y="184" width="38" height="170" rx="10"/>
      <rect x="234" y="184" width="38" height="170" rx="10"/>
    </g>
    <rect x="78" y="356" width="224" height="26" rx="10" fill="#D6A160" opacity="0.78"/>
  </g>

  <rect x="0" y="0" width="1200" height="238" fill="#3F3A32" opacity="0.93"/>
  <rect x="0" y="1454" width="1200" height="346" fill="#5F574A" opacity="0.95"/>
  <text x="600" y="136" text-anchor="middle" fill="#FEF8EE" font-family="Georgia, serif" font-size="62" font-weight="700" letter-spacing="3">VIKTOR E. FRANKL</text>
  <text x="600" y="208" text-anchor="middle" fill="#FEF8EE" font-family="'Trebuchet MS', Arial, sans-serif" font-size="30" letter-spacing="4">PHILOSOPHY</text>
  <text x="600" y="1216" text-anchor="middle" fill="#322C25" font-family="Georgia, 'Times New Roman', serif" font-size="78" font-weight="700" letter-spacing="2">MAN&#39;S SEARCH FOR MEANING</text>
  <text x="600" y="1538" text-anchor="middle" fill="#FEF8EE" font-family="'Trebuchet MS', Arial, sans-serif" font-size="30" letter-spacing="3">MEANING  ·  LOGOTHERAPY  ·  RESILIENCE</text>
  <text x="600" y="1604" text-anchor="middle" fill="#FEF8EE" font-family="Georgia, serif" font-size="30">Meaning and perspective</text>
  <text x="600" y="1668" text-anchor="middle" fill="#FEF8EE" font-family="'Trebuchet MS', Arial, sans-serif" font-size="26" letter-spacing="2">Modern Edition · Practical Lessons · Real Scenarios</text>
</svg>
