<svg width="1200" height="1800" viewBox="0 0 1200 1800" fill="none" xmlns="http://www.w3.org/2000/svg" role="img" aria-labelledby="title desc">
  <title id="title">Man&#39;s Search for Meaning cover</title>
  <desc id="desc">Auto-generated themed cover for Man&#39;s Search for Meaning by Viktor E. Frankl.</desc>
  <defs>
    <linearGradient id="g1972692458" x1="0" y1="0" x2="0" y2="1800" gradientUnits="userSpaceOnUse">
      <stop offset="0%" stop-color="#3C3930"/>
      <stop offset="100%" stop-color="#645F4F"/>
    </linearGradient>
  </defs>

  <rect width="1200" height="1800" fill="url(#g1972692458)"/>

  <rect x="0" y="300" width="1200" height="1180" fill="#B4A58C" opacity="0.1"/>
  <g fill="#FEF8EE" opacity="0.19">
    <circle cx="210" cy="560" r="124"/>
    <circle cx="1020" cy="640" r="110"/>
    <circle cx="920" cy="1220" r="132"/>
    <circle cx="230" cy="1190" r="96"/>
  </g>
  <path d="M70 730 Q300 567 600 740 T1130 760" stroke="#D6B065" stroke-width="20" opacity="0.2"/>
  <path d="M70 960 Q320 1057 600 940 T1130 920" stroke="#FEF8EE" stroke-width="16" opacity="0.24"/>
  <ellipse cx="600" cy="812" rx="470" ry="382" fill="#FEF8EE" opacity="0.08"/>
  <rect x="116" y="304" width="968" height="1036" rx="38" fill="#F3ECE2" stroke="#C4B59C" stroke-width="10"/>
<g opacity="0.24" transform="translate(0 -26)">
  <g transform="translate(397 574)">
    <circle cx="204" cy="72" r="44" fill="#B4A58C" opacity="0.44"/>
    <path d="M24 292 L132 144 L208 248 L296 114 L388 292 Z" fill="#FEF8EE" opacity="0.82"/>
    <path d="M84 292 L168 186 L226 260 L302 172 L360 292 Z" fill="#B4A58C" opacity="0.82"/>
    <path d="M34 292 H378" stroke="#F3ECE2" stroke-width="12" stroke-linecap="round" opacity="0.8"/>
  </g></g>

  <g transform="translate(410 566)">
    <circle cx="204" cy="72" r="44" fill="#D6B065" opacity="0.44"/>
    <path d="M24 292 L132 144 L208 248 L296 114 L388 292 Z" fill="#B4A58C" opacity="0.82"/>
    <path d="M84 292 L168 186 L226 260 L302 172 L360 292 Z" fill="#D6B065" opacity="0.82"/>
    <path d="M34 292 H378" stroke="#FEF8EE" stroke-width="12" stroke-linecap="round" opacity="0.8"/>
  </g>

  <g transform="translate(924 332)">
    <polygon points="88,8 168,88 88,168 8,88" fill="#FEF8EE" stroke="#D6B065" stroke-width="10"/>
    <circle cx="88" cy="88" r="38" fill="#B4A58C" opacity="0.72"/>
    <text x="88" y="102" text-anchor="middle" fill="#2F2A23" font-family="'Trebuchet MS', Arial, sans-serif" font-size="40" font-weight="700" letter-spacing="2">MS</text>
  </g>

  <rect x="0" y="0" width="1200" height="238" fill="#3C3930" opacity="0.93"/>
  <rect x="0" y="1454" width="1200" height="346" fill="#645F4F" opacity="0.95"/>
  <text x="600" y="136" text-anchor="middle" fill="#FEF8EE" font-family="Georgia, serif" font-size="62" font-weight="700" letter-spacing="3">VIKTOR E. FRANKL</text>
  <text x="600" y="208" text-anchor="middle" fill="#FEF8EE" font-family="'Trebuchet MS', Arial, sans-serif" font-size="30" letter-spacing="4">PHILOSOPHY</text>
  <text x="600" y="1216" text-anchor="middle" fill="#2F2A23" font-family="Georgia, 'Times New Roman', serif" font-size="78" font-weight="700" letter-spacing="2">MAN&#39;S SEARCH FOR MEANING</text>
  <g>
    <rect x="429" y="1466" width="136" height="42" rx="21" fill="#FEF8EE" opacity="0.18" stroke="#FEF8EE" stroke-width="2"/>
    <text x="497" y="1494" text-anchor="middle" fill="#FEF8EE" font-family="'Trebuchet MS', Arial, sans-serif" font-size="20" letter-spacing="1">MEANING</text>
  </g>
  <g>
    <rect x="587" y="1466" width="184" height="42" rx="21" fill="#FEF8EE" opacity="0.18" stroke="#FEF8EE" stroke-width="2"/>
    <text x="679" y="1494" text-anchor="middle" fill="#FEF8EE" font-family="'Trebuchet MS', Arial, sans-serif" font-size="20" letter-spacing="1">LOGOTHERAPY</text>
  </g>
  <text x="600" y="1538" text-anchor="middle" fill="#FEF8EE" font-family="'Trebuchet MS', Arial, sans-serif" font-size="30" letter-spacing="3">MEANING  ·  LOGOTHERAPY  ·  RESILIENCE</text>
  <text x="600" y="1604" text-anchor="middle" fill="#FEF8EE" font-family="Georgia, serif" font-size="30">Meaning as a source of endurance</text>
  <text x="600" y="1668" text-anchor="middle" fill="#FEF8EE" font-family="'Trebuchet MS', Arial, sans-serif" font-size="26" letter-spacing="2">Modern Edition · Practical Lessons · Real Scenarios</text>
</svg>
