<svg width="1200" height="1800" viewBox="0 0 1200 1800" fill="none" xmlns="http://www.w3.org/2000/svg" role="img" aria-labelledby="title desc">
  <title id="title">Measure What Matters cover</title>
  <desc id="desc">Auto-generated themed cover for Measure What Matters by John Doerr.</desc>
  <defs>
    <linearGradient id="g408252984" x1="0" y1="0" x2="0" y2="1800" gradientUnits="userSpaceOnUse">
      <stop offset="0%" stop-color="#2B2A3D"/>
      <stop offset="100%" stop-color="#4A486E"/>
    </linearGradient>
  </defs>

  <rect width="1200" height="1800" fill="url(#g408252984)"/>

  <circle cx="600" cy="840" r="420" fill="#8F90C0" opacity="0.16"/>
  <circle cx="600" cy="840" r="300" fill="#FEF8F0" opacity="0.16"/>
  <circle cx="614" cy="835" r="210" fill="#D59A43" opacity="0.18"/>
  <circle cx="586" cy="845" r="130" fill="#FEF8F0" opacity="0.34"/>
  <rect x="116" y="304" width="968" height="1036" rx="38" fill="#F2ECE1" stroke="#C7B9A3" stroke-width="10"/>

  <g transform="translate(403 545)">
    <circle cx="196" cy="186" r="152" fill="#FEF8F0" opacity="0.95" stroke="#8F90C0" stroke-width="8"/>
    <circle cx="196" cy="186" r="104" fill="none" stroke="#D59A43" stroke-width="16"/>
    <circle cx="196" cy="186" r="62" fill="none" stroke="#8F90C0" stroke-width="14"/>
    <circle cx="196" cy="186" r="24" fill="#232733"/>
  </g>

  <g transform="translate(926 334)">
    <polygon points="88,8 162,52 162,136 88,180 14,136 14,52" fill="#FEF8F0" stroke="#D59A43" stroke-width="10"/>
    <circle cx="88" cy="94" r="44" fill="#8F90C0" opacity="0.7"/>
    <text x="88" y="108" text-anchor="middle" fill="#232733" font-family="'Trebuchet MS', Arial, sans-serif" font-size="42" font-weight="700" letter-spacing="2">MW</text>
  </g>

  <rect x="0" y="0" width="1200" height="238" fill="#2B2A3D" opacity="0.93"/>
  <rect x="0" y="1454" width="1200" height="346" fill="#4A486E" opacity="0.95"/>
  <text x="600" y="136" text-anchor="middle" fill="#FEF8F0" font-family="Georgia, serif" font-size="62" font-weight="700" letter-spacing="3">JOHN DOERR</text>
  <text x="600" y="208" text-anchor="middle" fill="#FEF8F0" font-family="'Trebuchet MS', Arial, sans-serif" font-size="30" letter-spacing="4">STRATEGY</text>
  <text x="600" y="1216" text-anchor="middle" fill="#232733" font-family="Georgia, 'Times New Roman', serif" font-size="78" font-weight="700" letter-spacing="2">MEASURE WHAT MATTERS</text>
  <text x="600" y="1538" text-anchor="middle" fill="#FEF8F0" font-family="'Trebuchet MS', Arial, sans-serif" font-size="30" letter-spacing="3">COMPETITION  ·  ADVANTAGE  ·  LEADERSHIP</text>
  <text x="600" y="1604" text-anchor="middle" fill="#FEF8F0" font-family="Georgia, serif" font-size="30">Position, timing, and leverage</text>
  <text x="600" y="1668" text-anchor="middle" fill="#FEF8F0" font-family="'Trebuchet MS', Arial, sans-serif" font-size="26" letter-spacing="2">Modern Edition · Practical Lessons · Real Scenarios</text>
</svg>
