<svg width="1200" height="1800" viewBox="0 0 1200 1800" fill="none" xmlns="http://www.w3.org/2000/svg" role="img" aria-labelledby="title desc">
  <title id="title">Measure What Matters cover</title>
  <desc id="desc">Auto-generated themed cover for Measure What Matters by John Doerr.</desc>
  <defs>
    <linearGradient id="g384033830" x1="0" y1="0" x2="0" y2="1800" gradientUnits="userSpaceOnUse">
      <stop offset="0%" stop-color="#1E325D"/>
      <stop offset="100%" stop-color="#435C8E"/>
    </linearGradient>
  </defs>

  <rect width="1200" height="1800" fill="url(#g384033830)"/>

  <rect x="0" y="300" width="1200" height="1180" fill="#89A6CB" opacity="0.1"/>
  <rect x="110" y="360" width="420" height="430" rx="42" fill="#FDF8EE" opacity="0.2"/>
  <rect x="670" y="360" width="420" height="420" rx="42" fill="#DEA84A" opacity="0.16"/>
  <rect x="110" y="980" width="420" height="360" rx="42" fill="#DEA84A" opacity="0.15"/>
  <rect x="670" y="950" width="420" height="390" rx="42" fill="#FDF8EE" opacity="0.2"/>
  <circle cx="592" cy="877" r="128" fill="#FDF8EE" opacity="0.16"/>
  <ellipse cx="600" cy="812" rx="470" ry="382" fill="#FDF8EE" opacity="0.08"/>
  <rect x="116" y="304" width="968" height="1036" rx="38" fill="#F4EEE2" stroke="#C8B69B" stroke-width="10"/>
<g opacity="0.24" transform="translate(0 -26)">
  <g transform="translate(408 562)">
    <circle cx="196" cy="186" r="152" fill="#F4EEE2" opacity="0.95" stroke="#FDF8EE" stroke-width="8"/>
    <circle cx="196" cy="186" r="104" fill="none" stroke="#89A6CB" stroke-width="16"/>
    <circle cx="196" cy="186" r="62" fill="none" stroke="#FDF8EE" stroke-width="14"/>
    <circle cx="196" cy="186" r="24" fill="#202E3F"/>
  </g></g>

  <g transform="translate(391 554)">
    <circle cx="196" cy="186" r="152" fill="#FDF8EE" opacity="0.95" stroke="#89A6CB" stroke-width="8"/>
    <circle cx="196" cy="186" r="104" fill="none" stroke="#DEA84A" stroke-width="16"/>
    <circle cx="196" cy="186" r="62" fill="none" stroke="#89A6CB" stroke-width="14"/>
    <circle cx="196" cy="186" r="24" fill="#202E3F"/>
  </g>

  <g transform="translate(926 334)">
    <polygon points="88,8 162,52 162,136 88,180 14,136 14,52" fill="#FDF8EE" stroke="#DEA84A" stroke-width="10"/>
    <circle cx="88" cy="94" r="44" fill="#89A6CB" opacity="0.7"/>
    <text x="88" y="108" text-anchor="middle" fill="#202E3F" font-family="'Trebuchet MS', Arial, sans-serif" font-size="42" font-weight="700" letter-spacing="2">MW</text>
  </g>

  <rect x="0" y="0" width="1200" height="238" fill="#1E325D" opacity="0.93"/>
  <rect x="0" y="1454" width="1200" height="346" fill="#435C8E" opacity="0.95"/>
  <text x="600" y="136" text-anchor="middle" fill="#FDF8EE" font-family="Georgia, serif" font-size="62" font-weight="700" letter-spacing="3">JOHN DOERR</text>
  <text x="600" y="208" text-anchor="middle" fill="#FDF8EE" font-family="'Trebuchet MS', Arial, sans-serif" font-size="30" letter-spacing="4">LEADERSHIP</text>
  <text x="600" y="1216" text-anchor="middle" fill="#202E3F" font-family="Georgia, 'Times New Roman', serif" font-size="78" font-weight="700" letter-spacing="2">MEASURE WHAT MATTERS</text>
  <g>
    <rect x="417" y="1466" width="184" height="42" rx="21" fill="#FDF8EE" opacity="0.18" stroke="#FDF8EE" stroke-width="2"/>
    <text x="509" y="1494" text-anchor="middle" fill="#FDF8EE" font-family="'Trebuchet MS', Arial, sans-serif" font-size="20" letter-spacing="1">COMPETITION</text>
  </g>
  <g>
    <rect x="623" y="1466" width="160" height="42" rx="21" fill="#FDF8EE" opacity="0.18" stroke="#FDF8EE" stroke-width="2"/>
    <text x="703" y="1494" text-anchor="middle" fill="#FDF8EE" font-family="'Trebuchet MS', Arial, sans-serif" font-size="20" letter-spacing="1">ADVANTAGE</text>
  </g>
  <text x="600" y="1538" text-anchor="middle" fill="#FDF8EE" font-family="'Trebuchet MS', Arial, sans-serif" font-size="30" letter-spacing="3">COMPETITION  ·  ADVANTAGE  ·  LEADERSHIP</text>
  <text x="600" y="1604" text-anchor="middle" fill="#FDF8EE" font-family="Georgia, serif" font-size="30">Set clear objectives and measurable key results</text>
  <text x="600" y="1668" text-anchor="middle" fill="#FDF8EE" font-family="'Trebuchet MS', Arial, sans-serif" font-size="26" letter-spacing="2">Modern Edition · Practical Lessons · Real Scenarios</text>
</svg>
