<svg width="1200" height="1800" viewBox="0 0 1200 1800" fill="none" xmlns="http://www.w3.org/2000/svg" role="img" aria-labelledby="title desc">
  <title id="title">Meditations cover</title>
  <desc id="desc">Auto-generated themed cover for Meditations by Marcus Aurelius.</desc>
  <defs>
    <linearGradient id="g1580767895" x1="0" y1="0" x2="0" y2="1800" gradientUnits="userSpaceOnUse">
      <stop offset="0%" stop-color="#4C3D30"/>
      <stop offset="100%" stop-color="#6C5845"/>
    </linearGradient>
  </defs>

  <rect width="1200" height="1800" fill="url(#g1580767895)"/>

  <rect x="0" y="300" width="1200" height="1180" fill="#B7A28B" opacity="0.1"/>
  <g stroke="#FDF7EC" opacity="0.2">
    <line x1="160" y1="320" x2="160" y2="1460" stroke-width="4"/>
    <line x1="320" y1="320" x2="320" y2="1460" stroke-width="3"/>
    <line x1="480" y1="320" x2="480" y2="1460" stroke-width="2"/>
    <line x1="640" y1="320" x2="640" y2="1460" stroke-width="3"/>
    <line x1="800" y1="320" x2="800" y2="1460" stroke-width="2"/>
    <line x1="960" y1="320" x2="960" y2="1460" stroke-width="3"/>
  </g>
  <path d="M140 430 L1060 430" stroke="#D8A060" stroke-width="10" opacity="0.22"/>
  <path d="M140 1330 L1060 1330" stroke="#D8A060" stroke-width="10" opacity="0.2"/>
  <rect x="116" y="304" width="968" height="1036" rx="38" fill="#F3ECE0" stroke="#C7B7A1" stroke-width="10"/>

  <g transform="translate(421 549)">
    <circle cx="190" cy="112" r="58" fill="#D8A060" opacity="0.3"/>
    <rect x="70" y="130" width="240" height="24" rx="10" fill="#B7A28B" opacity="0.8"/>
    <rect x="92" y="152" width="196" height="34" rx="12" fill="#FDF7EC" stroke="#B7A28B" stroke-width="6"/>
    <g fill="#FDF7EC" stroke="#B7A28B" stroke-width="6">
      <rect x="106" y="184" width="38" height="170" rx="10"/>
      <rect x="170" y="184" width="38" height="170" rx="10"/>
      <rect x="234" y="184" width="38" height="170" rx="10"/>
    </g>
    <rect x="78" y="356" width="224" height="26" rx="10" fill="#D8A060" opacity="0.78"/>
  </g>

  <rect x="0" y="0" width="1200" height="238" fill="#4C3D30" opacity="0.93"/>
  <rect x="0" y="1454" width="1200" height="346" fill="#6C5845" opacity="0.95"/>
  <text x="600" y="136" text-anchor="middle" fill="#FDF7EC" font-family="Georgia, serif" font-size="62" font-weight="700" letter-spacing="3">MARCUS AURELIUS</text>
  <text x="600" y="208" text-anchor="middle" fill="#FDF7EC" font-family="'Trebuchet MS', Arial, sans-serif" font-size="30" letter-spacing="4">PHILOSOPHY</text>
  <text x="600" y="1216" text-anchor="middle" fill="#332920" font-family="Georgia, 'Times New Roman', serif" font-size="108" font-weight="700" letter-spacing="2">MEDITATIONS</text>
  <text x="600" y="1538" text-anchor="middle" fill="#FDF7EC" font-family="'Trebuchet MS', Arial, sans-serif" font-size="30" letter-spacing="3">STOICISM  ·  ETHICS  ·  SELF COMMAND</text>
  <text x="600" y="1604" text-anchor="middle" fill="#FDF7EC" font-family="Georgia, serif" font-size="30">Meaning and perspective</text>
  <text x="600" y="1668" text-anchor="middle" fill="#FDF7EC" font-family="'Trebuchet MS', Arial, sans-serif" font-size="26" letter-spacing="2">Modern Edition · Practical Lessons · Real Scenarios</text>
</svg>
