<svg width="1200" height="1800" viewBox="0 0 1200 1800" fill="none" xmlns="http://www.w3.org/2000/svg" role="img" aria-labelledby="title desc">
  <title id="title">Mindset cover</title>
  <desc id="desc">Auto-generated themed cover for Mindset by Carol S. Dweck.</desc>
  <defs>
    <linearGradient id="g934339354" x1="0" y1="0" x2="0" y2="1800" gradientUnits="userSpaceOnUse">
      <stop offset="0%" stop-color="#2D3656"/>
      <stop offset="100%" stop-color="#4E5E8A"/>
    </linearGradient>
  </defs>

  <rect width="1200" height="1800" fill="url(#g934339354)"/>

  <rect x="0" y="300" width="1200" height="1180" fill="#9AACD2" opacity="0.12"/>
  <rect x="110" y="370" width="420" height="420" rx="42" fill="#FDF8EF" opacity="0.2"/>
  <rect x="670" y="360" width="420" height="430" rx="42" fill="#D88D57" opacity="0.16"/>
  <rect x="110" y="980" width="420" height="360" rx="42" fill="#D88D57" opacity="0.15"/>
  <rect x="670" y="950" width="420" height="390" rx="42" fill="#FDF8EF" opacity="0.2"/>
  <rect x="116" y="304" width="968" height="1036" rx="38" fill="#F3ECE2" stroke="#C9B8A2" stroke-width="10"/>

  <g transform="translate(384 560)">
    <rect x="0" y="0" width="420" height="328" rx="24" fill="#FDF8EF" stroke="#9AACD2" stroke-width="8"/>
    <path d="M56 258 C136 192 228 222 306 158" stroke="#232B3B" stroke-width="10" stroke-linecap="round"/>
    <rect x="82" y="98" width="250" height="26" rx="13" fill="#9AACD2" opacity="0.55"/>
    <rect x="82" y="132" width="212" height="26" rx="13" fill="#D88D57" opacity="0.45"/>
    <g transform="translate(294 214) rotate(-18)">
      <rect x="0" y="0" width="88" height="22" rx="10" fill="#D88D57" opacity="0.9"/>
      <polygon points="88,11 108,0 108,22" fill="#232B3B"/>
      <polygon points="108,0 118,11 108,22" fill="#FDF8EF"/>
    </g>
  </g>

  <rect x="0" y="0" width="1200" height="238" fill="#2D3656" opacity="0.93"/>
  <rect x="0" y="1454" width="1200" height="346" fill="#4E5E8A" opacity="0.95"/>
  <text x="600" y="136" text-anchor="middle" fill="#FDF8EF" font-family="Georgia, serif" font-size="62" font-weight="700" letter-spacing="3">CAROL S. DWECK</text>
  <text x="600" y="208" text-anchor="middle" fill="#FDF8EF" font-family="'Trebuchet MS', Arial, sans-serif" font-size="30" letter-spacing="4">PSYCHOLOGY</text>
  <text x="600" y="1216" text-anchor="middle" fill="#232B3B" font-family="Georgia, 'Times New Roman', serif" font-size="108" font-weight="700" letter-spacing="2">MINDSET</text>
  <text x="600" y="1538" text-anchor="middle" fill="#FDF8EF" font-family="'Trebuchet MS', Arial, sans-serif" font-size="30" letter-spacing="3">MINDSET  ·  GROWTH  ·  LEARNING</text>
  <text x="600" y="1604" text-anchor="middle" fill="#FDF8EF" font-family="Georgia, serif" font-size="30">Behavior, bias, and motivation</text>
  <text x="600" y="1668" text-anchor="middle" fill="#FDF8EF" font-family="'Trebuchet MS', Arial, sans-serif" font-size="26" letter-spacing="2">Modern Edition · Practical Lessons · Real Scenarios</text>
</svg>
