<svg width="1200" height="1800" viewBox="0 0 1200 1800" fill="none" xmlns="http://www.w3.org/2000/svg" role="img" aria-labelledby="title desc">
  <title id="title">Mindset cover</title>
  <desc id="desc">Auto-generated themed cover for Mindset by Carol S. Dweck.</desc>
  <defs>
    <linearGradient id="g934339354" x1="0" y1="0" x2="0" y2="1800" gradientUnits="userSpaceOnUse">
      <stop offset="0%" stop-color="#242B4A"/>
      <stop offset="100%" stop-color="#49568A"/>
    </linearGradient>
  </defs>

  <rect width="1200" height="1800" fill="url(#g934339354)"/>

  <rect x="-120" y="310" width="820" height="1100" transform="rotate(-12 400 860)" fill="#9CADD5" opacity="0.24"/>
  <rect x="560" y="260" width="760" height="1150" transform="rotate(8 940 835)" fill="#DB9359" opacity="0.16"/>
  <circle cx="259" cy="574" r="180" fill="#DB9359" opacity="0.17"/>
  <circle cx="971" cy="1026" r="220" fill="#9CADD5" opacity="0.2"/>
  <ellipse cx="600" cy="812" rx="470" ry="382" fill="#FDF8EF" opacity="0.08"/>
  <rect x="116" y="304" width="968" height="1036" rx="38" fill="#F3ECE2" stroke="#C6B49B" stroke-width="10"/>
<g opacity="0.24" transform="translate(0 -26)">
  <g transform="translate(407 559)">
    <rect x="18" y="24" width="364" height="334" rx="26" fill="#F3ECE2" stroke="#FDF8EF" stroke-width="8"/>
    <g stroke="#9CADD5" stroke-width="8" opacity="0.86">
      <line x1="84" y1="96" x2="174" y2="144"/>
      <line x1="174" y1="144" x2="282" y2="110"/>
      <line x1="174" y1="144" x2="166" y2="244"/>
      <line x1="166" y1="244" x2="280" y2="286"/>
      <line x1="84" y1="96" x2="96" y2="232"/>
      <line x1="96" y1="232" x2="166" y2="244"/>
      <line x1="282" y1="110" x2="280" y2="286"/>
    </g>
    <g fill="#212838">
      <circle cx="84" cy="96" r="14"/>
      <circle cx="174" cy="144" r="14"/>
      <circle cx="282" cy="110" r="14"/>
      <circle cx="96" cy="232" r="14"/>
      <circle cx="166" cy="244" r="14"/>
      <circle cx="280" cy="286" r="14"/>
    </g>
  </g></g>

  <g transform="translate(390 550)">
    <rect x="18" y="24" width="364" height="334" rx="26" fill="#FDF8EF" stroke="#9CADD5" stroke-width="8"/>
    <g stroke="#DB9359" stroke-width="8" opacity="0.86">
      <line x1="84" y1="96" x2="174" y2="144"/>
      <line x1="174" y1="144" x2="282" y2="110"/>
      <line x1="174" y1="144" x2="166" y2="244"/>
      <line x1="166" y1="244" x2="280" y2="286"/>
      <line x1="84" y1="96" x2="96" y2="232"/>
      <line x1="96" y1="232" x2="166" y2="244"/>
      <line x1="282" y1="110" x2="280" y2="286"/>
    </g>
    <g fill="#212838">
      <circle cx="84" cy="96" r="14"/>
      <circle cx="174" cy="144" r="14"/>
      <circle cx="282" cy="110" r="14"/>
      <circle cx="96" cy="232" r="14"/>
      <circle cx="166" cy="244" r="14"/>
      <circle cx="280" cy="286" r="14"/>
    </g>
  </g>

  <g transform="translate(930 336)">
    <path d="M82 8 L152 34 V90 C152 142 120 174 82 190 C44 174 12 142 12 90 V34 Z" fill="#FDF8EF" stroke="#DB9359" stroke-width="10"/>
    <rect x="30" y="64" width="104" height="64" rx="20" fill="#9CADD5" opacity="0.72"/>
    <text x="82" y="106" text-anchor="middle" fill="#212838" font-family="'Trebuchet MS', Arial, sans-serif" font-size="40" font-weight="700" letter-spacing="2">MI</text>
  </g>

  <rect x="0" y="0" width="1200" height="238" fill="#242B4A" opacity="0.93"/>
  <rect x="0" y="1454" width="1200" height="346" fill="#49568A" opacity="0.95"/>
  <text x="600" y="136" text-anchor="middle" fill="#FDF8EF" font-family="Georgia, serif" font-size="62" font-weight="700" letter-spacing="3">CAROL S. DWECK</text>
  <text x="600" y="208" text-anchor="middle" fill="#FDF8EF" font-family="'Trebuchet MS', Arial, sans-serif" font-size="30" letter-spacing="4">PSYCHOLOGY</text>
  <text x="600" y="1216" text-anchor="middle" fill="#212838" font-family="Georgia, 'Times New Roman', serif" font-size="108" font-weight="700" letter-spacing="2">MINDSET</text>
  <g>
    <rect x="459" y="1466" width="136" height="42" rx="21" fill="#FDF8EF" opacity="0.18" stroke="#FDF8EF" stroke-width="2"/>
    <text x="527" y="1494" text-anchor="middle" fill="#FDF8EF" font-family="'Trebuchet MS', Arial, sans-serif" font-size="20" letter-spacing="1">MINDSET</text>
  </g>
  <g>
    <rect x="617" y="1466" width="124" height="42" rx="21" fill="#FDF8EF" opacity="0.18" stroke="#FDF8EF" stroke-width="2"/>
    <text x="679" y="1494" text-anchor="middle" fill="#FDF8EF" font-family="'Trebuchet MS', Arial, sans-serif" font-size="20" letter-spacing="1">GROWTH</text>
  </g>
  <text x="600" y="1538" text-anchor="middle" fill="#FDF8EF" font-family="'Trebuchet MS', Arial, sans-serif" font-size="30" letter-spacing="3">MINDSET  ·  GROWTH  ·  LEARNING</text>
  <text x="600" y="1604" text-anchor="middle" fill="#FDF8EF" font-family="Georgia, serif" font-size="30">Grow ability through effort and feedback</text>
  <text x="600" y="1668" text-anchor="middle" fill="#FDF8EF" font-family="'Trebuchet MS', Arial, sans-serif" font-size="26" letter-spacing="2">Modern Edition · Practical Lessons · Real Scenarios</text>
</svg>
