<svg width="1200" height="1800" viewBox="0 0 1200 1800" fill="none" xmlns="http://www.w3.org/2000/svg" role="img" aria-labelledby="title desc">
  <title id="title">Mistakes Were Made (But Not by Me) cover</title>
  <desc id="desc">Auto-generated themed cover for Mistakes Were Made (But Not by Me) by Carol Tavris and Elliot Aronson.</desc>
  <defs>
    <linearGradient id="g384018" x1="0" y1="0" x2="0" y2="1800" gradientUnits="userSpaceOnUse">
      <stop offset="0%" stop-color="#292B46"/>
      <stop offset="100%" stop-color="#515581"/>
    </linearGradient>
  </defs>

  <rect width="1200" height="1800" fill="url(#g384018)"/>

  <rect x="0" y="300" width="1200" height="1180" fill="#9FAAD2" opacity="0.1"/>
  <g stroke="#FDF8EF" opacity="0.2">
    <line x1="160" y1="320" x2="160" y2="1460" stroke-width="4"/>
    <line x1="320" y1="320" x2="320" y2="1460" stroke-width="3"/>
    <line x1="480" y1="320" x2="480" y2="1460" stroke-width="2"/>
    <line x1="640" y1="320" x2="640" y2="1460" stroke-width="3"/>
    <line x1="800" y1="320" x2="800" y2="1460" stroke-width="2"/>
    <line x1="960" y1="320" x2="960" y2="1460" stroke-width="3"/>
  </g>
  <path d="M140 430 L1060 430" stroke="#D69F5E" stroke-width="10" opacity="0.22"/>
  <path d="M140 1330 L1060 1330" stroke="#D69F5E" stroke-width="10" opacity="0.2"/>
  <ellipse cx="600" cy="812" rx="470" ry="382" fill="#FDF8EF" opacity="0.08"/>
  <rect x="116" y="304" width="968" height="1036" rx="38" fill="#F3ECE2" stroke="#C4B59D" stroke-width="10"/>
<g opacity="0.24" transform="translate(0 -26)">
  <g transform="translate(420 551)">
    <path d="M82 68 H188 C216 68 238 90 238 118 V238 C238 294 194 340 136 340 C78 340 34 294 34 238 V118 C34 90 56 68 82 68 Z" fill="#F3ECE2" stroke="#FDF8EF" stroke-width="8"/>
    <path d="M208 68 H314 C342 68 364 90 364 118 V238 C364 294 320 340 262 340 C204 340 160 294 160 238 V118 C160 90 182 68 208 68 Z" fill="#9FAAD2" opacity="0.84"/>
    <circle cx="102" cy="182" r="10" fill="#222837"/>
    <circle cx="164" cy="182" r="10" fill="#222837"/>
    <path d="M94 242 Q132 270 172 242" fill="none" stroke="#222837" stroke-width="10" stroke-linecap="round"/>
    <circle cx="228" cy="182" r="10" fill="#F3ECE2"/>
    <circle cx="290" cy="182" r="10" fill="#F3ECE2"/>
    <path d="M220 250 Q258 222 298 250" fill="none" stroke="#F3ECE2" stroke-width="10" stroke-linecap="round"/>
  </g></g>

  <g transform="translate(403 568)">
    <path d="M82 68 H188 C216 68 238 90 238 118 V238 C238 294 194 340 136 340 C78 340 34 294 34 238 V118 C34 90 56 68 82 68 Z" fill="#FDF8EF" stroke="#9FAAD2" stroke-width="8"/>
    <path d="M208 68 H314 C342 68 364 90 364 118 V238 C364 294 320 340 262 340 C204 340 160 294 160 238 V118 C160 90 182 68 208 68 Z" fill="#D69F5E" opacity="0.84"/>
    <circle cx="102" cy="182" r="10" fill="#222837"/>
    <circle cx="164" cy="182" r="10" fill="#222837"/>
    <path d="M94 242 Q132 270 172 242" fill="none" stroke="#222837" stroke-width="10" stroke-linecap="round"/>
    <circle cx="228" cy="182" r="10" fill="#FDF8EF"/>
    <circle cx="290" cy="182" r="10" fill="#FDF8EF"/>
    <path d="M220 250 Q258 222 298 250" fill="none" stroke="#FDF8EF" stroke-width="10" stroke-linecap="round"/>
  </g>

  <g transform="translate(928 336)">
    <circle cx="84" cy="84" r="76" fill="#FDF8EF" stroke="#D69F5E" stroke-width="10"/>
    <circle cx="84" cy="84" r="56" fill="#9FAAD2" opacity="0.68"/>
    <text x="84" y="98" text-anchor="middle" fill="#222837" font-family="'Trebuchet MS', Arial, sans-serif" font-size="44" font-weight="700" letter-spacing="2">MW</text>
  </g>

  <rect x="0" y="0" width="1200" height="238" fill="#292B46" opacity="0.93"/>
  <rect x="0" y="1454" width="1200" height="346" fill="#515581" opacity="0.95"/>
  <text x="600" y="136" text-anchor="middle" fill="#FDF8EF" font-family="Georgia, serif" font-size="62" font-weight="700" letter-spacing="3">CAROL TAVRIS AND ELLIOT ARONSON</text>
  <text x="600" y="208" text-anchor="middle" fill="#FDF8EF" font-family="'Trebuchet MS', Arial, sans-serif" font-size="30" letter-spacing="4">PSYCHOLOGY</text>
  <text x="600" y="1114" text-anchor="middle" fill="#222837" font-family="Georgia, 'Times New Roman', serif" font-size="92" font-weight="700" letter-spacing="2">MISTAKES WERE MADE</text>
  <text x="600" y="1213" text-anchor="middle" fill="#222837" font-family="Georgia, 'Times New Roman', serif" font-size="92" font-weight="700" letter-spacing="2">(BUT NOT BY</text>
  <text x="600" y="1312" text-anchor="middle" fill="#222837" font-family="Georgia, 'Times New Roman', serif" font-size="92" font-weight="700" letter-spacing="2">ME)</text>
  <g>
    <rect x="471" y="1466" width="100" height="42" rx="21" fill="#FDF8EF" opacity="0.18" stroke="#FDF8EF" stroke-width="2"/>
    <text x="521" y="1494" text-anchor="middle" fill="#FDF8EF" font-family="'Trebuchet MS', Arial, sans-serif" font-size="20" letter-spacing="1">BIAS</text>
  </g>
  <g>
    <rect x="593" y="1466" width="136" height="42" rx="21" fill="#FDF8EF" opacity="0.18" stroke="#FDF8EF" stroke-width="2"/>
    <text x="661" y="1494" text-anchor="middle" fill="#FDF8EF" font-family="'Trebuchet MS', Arial, sans-serif" font-size="20" letter-spacing="1">EMOTION</text>
  </g>
  <text x="600" y="1538" text-anchor="middle" fill="#FDF8EF" font-family="'Trebuchet MS', Arial, sans-serif" font-size="30" letter-spacing="3">BIAS  ·  EMOTION  ·  MOTIVES</text>
  <text x="600" y="1604" text-anchor="middle" fill="#FDF8EF" font-family="Georgia, serif" font-size="30">Self justification distorts memory and blame</text>
  <text x="600" y="1668" text-anchor="middle" fill="#FDF8EF" font-family="'Trebuchet MS', Arial, sans-serif" font-size="26" letter-spacing="2">Modern Edition · Practical Lessons · Real Scenarios</text>
</svg>
