<svg width="1200" height="1800" viewBox="0 0 1200 1800" fill="none" xmlns="http://www.w3.org/2000/svg" role="img" aria-labelledby="title desc">
  <title id="title">Mistakes Were Made (But Not by Me) cover</title>
  <desc id="desc">Auto-generated themed cover for Mistakes Were Made (But Not by Me) by Carol Tavris and Elliot Aronson.</desc>
  <defs>
    <linearGradient id="g384018" x1="0" y1="0" x2="0" y2="1800" gradientUnits="userSpaceOnUse">
      <stop offset="0%" stop-color="#2D3656"/>
      <stop offset="100%" stop-color="#4E5E8A"/>
    </linearGradient>
  </defs>

  <rect width="1200" height="1800" fill="url(#g384018)"/>

  <rect x="-120" y="310" width="820" height="1100" transform="rotate(-12 400 860)" fill="#9AACD2" opacity="0.24"/>
  <rect x="560" y="260" width="760" height="1150" transform="rotate(8 940 835)" fill="#D88D57" opacity="0.16"/>
  <circle cx="262" cy="562" r="180" fill="#D88D57" opacity="0.17"/>
  <circle cx="968" cy="1038" r="220" fill="#9AACD2" opacity="0.2"/>
  <rect x="116" y="304" width="968" height="1036" rx="38" fill="#F3ECE2" stroke="#C9B8A2" stroke-width="10"/>

  <g transform="translate(401 564)">
    <circle cx="196" cy="170" r="128" fill="none" stroke="#D88D57" stroke-width="20" opacity="0.88"/>
    <circle cx="196" cy="170" r="76" fill="none" stroke="#9AACD2" stroke-width="18" opacity="0.86"/>
    <polygon points="316,170 274,154 284,186" fill="#D88D57"/>
    <polygon points="118,96 132,136 98,126" fill="#9AACD2"/>
    <circle cx="196" cy="170" r="32" fill="#232B3B" opacity="0.82"/>
  </g>

  <g transform="translate(928 336)">
    <circle cx="84" cy="84" r="76" fill="#FDF8EF" stroke="#D88D57" stroke-width="10"/>
    <circle cx="84" cy="84" r="56" fill="#9AACD2" opacity="0.68"/>
    <text x="84" y="98" text-anchor="middle" fill="#232B3B" font-family="'Trebuchet MS', Arial, sans-serif" font-size="44" font-weight="700" letter-spacing="2">MW</text>
  </g>

  <rect x="0" y="0" width="1200" height="238" fill="#2D3656" opacity="0.93"/>
  <rect x="0" y="1454" width="1200" height="346" fill="#4E5E8A" opacity="0.95"/>
  <text x="600" y="136" text-anchor="middle" fill="#FDF8EF" font-family="Georgia, serif" font-size="62" font-weight="700" letter-spacing="3">CAROL TAVRIS AND ELLIOT ARONSON</text>
  <text x="600" y="208" text-anchor="middle" fill="#FDF8EF" font-family="'Trebuchet MS', Arial, sans-serif" font-size="30" letter-spacing="4">PSYCHOLOGY</text>
  <text x="600" y="1114" text-anchor="middle" fill="#232B3B" font-family="Georgia, 'Times New Roman', serif" font-size="92" font-weight="700" letter-spacing="2">MISTAKES WERE MADE</text>
  <text x="600" y="1213" text-anchor="middle" fill="#232B3B" font-family="Georgia, 'Times New Roman', serif" font-size="92" font-weight="700" letter-spacing="2">(BUT NOT BY</text>
  <text x="600" y="1312" text-anchor="middle" fill="#232B3B" font-family="Georgia, 'Times New Roman', serif" font-size="92" font-weight="700" letter-spacing="2">ME)</text>
  <text x="600" y="1538" text-anchor="middle" fill="#FDF8EF" font-family="'Trebuchet MS', Arial, sans-serif" font-size="30" letter-spacing="3">BIAS  ·  EMOTION  ·  MOTIVES</text>
  <text x="600" y="1604" text-anchor="middle" fill="#FDF8EF" font-family="Georgia, serif" font-size="30">Behavior, bias, and motivation</text>
  <text x="600" y="1668" text-anchor="middle" fill="#FDF8EF" font-family="'Trebuchet MS', Arial, sans-serif" font-size="26" letter-spacing="2">Modern Edition · Practical Lessons · Real Scenarios</text>
</svg>
