<svg width="1200" height="1800" viewBox="0 0 1200 1800" fill="none" xmlns="http://www.w3.org/2000/svg" role="img" aria-labelledby="title desc">
  <title id="title">Never Split the Difference cover</title>
  <desc id="desc">Auto-generated themed cover for Never Split the Difference by Chris Voss with Tahl Raz.</desc>
  <defs>
    <linearGradient id="g2133122518" x1="0" y1="0" x2="0" y2="1800" gradientUnits="userSpaceOnUse">
      <stop offset="0%" stop-color="#16333A"/>
      <stop offset="100%" stop-color="#33696C"/>
    </linearGradient>
  </defs>

  <rect width="1200" height="1800" fill="url(#g2133122518)"/>

  <circle cx="600" cy="840" r="420" fill="#7FB29F" opacity="0.16"/>
  <circle cx="600" cy="840" r="300" fill="#FEF7EE" opacity="0.16"/>
  <circle cx="627" cy="839" r="210" fill="#DB7244" opacity="0.18"/>
  <circle cx="573" cy="841" r="130" fill="#FEF7EE" opacity="0.34"/>
  <ellipse cx="600" cy="812" rx="470" ry="382" fill="#FEF7EE" opacity="0.08"/>
  <rect x="116" y="304" width="968" height="1036" rx="38" fill="#F4EBE0" stroke="#C7B099" stroke-width="10"/>
<g opacity="0.24" transform="translate(0 -26)">
  <g transform="translate(401 550)">
    <rect x="0" y="0" width="396" height="332" rx="24" fill="#F4EBE0" stroke="#FEF7EE" stroke-width="8"/>
    <rect x="194" y="40" width="8" height="252" rx="4" fill="#7FB29F" opacity="0.84"/>
    <path d="M68 204 Q120 152 178 190 L194 206" fill="none" stroke="#1C2C30" stroke-width="14" stroke-linecap="round"/>
    <path d="M328 204 Q276 152 218 190 L202 206" fill="none" stroke="#1C2C30" stroke-width="14" stroke-linecap="round"/>
    <rect x="86" y="90" width="94" height="22" rx="11" fill="#FEF7EE" opacity="0.72"/>
    <rect x="214" y="90" width="96" height="22" rx="11" fill="#7FB29F" opacity="0.72"/>
  </g></g>

  <g transform="translate(414 568)">
    <rect x="0" y="0" width="396" height="332" rx="24" fill="#FEF7EE" stroke="#7FB29F" stroke-width="8"/>
    <rect x="194" y="40" width="8" height="252" rx="4" fill="#DB7244" opacity="0.84"/>
    <path d="M68 204 Q120 152 178 190 L194 206" fill="none" stroke="#1C2C30" stroke-width="14" stroke-linecap="round"/>
    <path d="M328 204 Q276 152 218 190 L202 206" fill="none" stroke="#1C2C30" stroke-width="14" stroke-linecap="round"/>
    <rect x="86" y="90" width="94" height="22" rx="11" fill="#7FB29F" opacity="0.72"/>
    <rect x="214" y="90" width="96" height="22" rx="11" fill="#DB7244" opacity="0.72"/>
  </g>

  <g transform="translate(930 336)">
    <path d="M82 8 L152 34 V90 C152 142 120 174 82 190 C44 174 12 142 12 90 V34 Z" fill="#FEF7EE" stroke="#DB7244" stroke-width="10"/>
    <rect x="30" y="64" width="104" height="64" rx="20" fill="#7FB29F" opacity="0.72"/>
    <text x="82" y="106" text-anchor="middle" fill="#1C2C30" font-family="'Trebuchet MS', Arial, sans-serif" font-size="40" font-weight="700" letter-spacing="2">NS</text>
  </g>

  <rect x="0" y="0" width="1200" height="238" fill="#16333A" opacity="0.93"/>
  <rect x="0" y="1454" width="1200" height="346" fill="#33696C" opacity="0.95"/>
  <text x="600" y="136" text-anchor="middle" fill="#FEF7EE" font-family="Georgia, serif" font-size="62" font-weight="700" letter-spacing="3">CHRIS VOSS WITH TAHL RAZ</text>
  <text x="600" y="208" text-anchor="middle" fill="#FEF7EE" font-family="'Trebuchet MS', Arial, sans-serif" font-size="30" letter-spacing="4">COMMUNICATION</text>
  <text x="600" y="1216" text-anchor="middle" fill="#1C2C30" font-family="'Trebuchet MS', Arial, sans-serif" font-size="78" font-weight="700" letter-spacing="2">NEVER SPLIT THE DIFFERENCE</text>
  <g>
    <rect x="375" y="1466" width="184" height="42" rx="21" fill="#FEF7EE" opacity="0.18" stroke="#FEF7EE" stroke-width="2"/>
    <text x="467" y="1494" text-anchor="middle" fill="#FEF7EE" font-family="'Trebuchet MS', Arial, sans-serif" font-size="20" letter-spacing="1">NEGOTIATION</text>
  </g>
  <g>
    <rect x="581" y="1466" width="244" height="42" rx="21" fill="#FEF7EE" opacity="0.18" stroke="#FEF7EE" stroke-width="2"/>
    <text x="703" y="1494" text-anchor="middle" fill="#FEF7EE" font-family="'Trebuchet MS', Arial, sans-serif" font-size="20" letter-spacing="1">TACTICAL EMPATHY</text>
  </g>
  <text x="600" y="1538" text-anchor="middle" fill="#FEF7EE" font-family="'Trebuchet MS', Arial, sans-serif" font-size="30" letter-spacing="3">NEGOTIATION  ·  TACTICAL EMPATHY  ·  COMMUNICATION</text>
  <text x="600" y="1604" text-anchor="middle" fill="#FEF7EE" font-family="Georgia, serif" font-size="30">Negotiate with tactical empathy and precision</text>
  <text x="600" y="1668" text-anchor="middle" fill="#FEF7EE" font-family="'Trebuchet MS', Arial, sans-serif" font-size="26" letter-spacing="2">Modern Edition · Practical Lessons · Real Scenarios</text>
</svg>
