<svg width="1200" height="1800" viewBox="0 0 1200 1800" fill="none" xmlns="http://www.w3.org/2000/svg" role="img" aria-labelledby="title desc">
  <title id="title">Never Eat Alone cover</title>
  <desc id="desc">Auto-generated themed cover for Never Eat Alone by Keith Ferrazzi.</desc>
  <defs>
    <linearGradient id="g1026174189" x1="0" y1="0" x2="0" y2="1800" gradientUnits="userSpaceOnUse">
      <stop offset="0%" stop-color="#483748"/>
      <stop offset="100%" stop-color="#6E576D"/>
    </linearGradient>
  </defs>

  <rect width="1200" height="1800" fill="url(#g1026174189)"/>

  <rect x="0" y="300" width="1200" height="1180" fill="#C2A8C4" opacity="0.1"/>
  <rect x="110" y="360" width="420" height="430" rx="42" fill="#FDF8EE" opacity="0.2"/>
  <rect x="670" y="360" width="420" height="420" rx="42" fill="#DD9764" opacity="0.16"/>
  <rect x="110" y="980" width="420" height="360" rx="42" fill="#DD9764" opacity="0.15"/>
  <rect x="670" y="950" width="420" height="390" rx="42" fill="#FDF8EE" opacity="0.2"/>
  <circle cx="617" cy="843" r="128" fill="#FDF8EE" opacity="0.16"/>
  <ellipse cx="600" cy="812" rx="470" ry="382" fill="#FDF8EE" opacity="0.08"/>
  <rect x="116" y="304" width="968" height="1036" rx="38" fill="#F3EDE3" stroke="#C2B1A0" stroke-width="10"/>
<g opacity="0.24" transform="translate(0 -26)">
  <g transform="translate(395 565)">
    <rect x="0" y="0" width="408" height="304" rx="24" fill="#F3EDE3" stroke="#FDF8EE" stroke-width="8"/>
    <path d="M50 242 Q204 92 358 242" fill="none" stroke="#C2A8C4" stroke-width="16" stroke-linecap="round"/>
    <line x1="98" y1="214" x2="98" y2="242" stroke="#FDF8EE" stroke-width="10" stroke-linecap="round"/>
    <line x1="146" y1="174" x2="146" y2="242" stroke="#FDF8EE" stroke-width="10" stroke-linecap="round"/>
    <line x1="204" y1="150" x2="204" y2="242" stroke="#FDF8EE" stroke-width="10" stroke-linecap="round"/>
    <line x1="262" y1="174" x2="262" y2="242" stroke="#FDF8EE" stroke-width="10" stroke-linecap="round"/>
    <line x1="310" y1="214" x2="310" y2="242" stroke="#FDF8EE" stroke-width="10" stroke-linecap="round"/>
  </g></g>

  <g transform="translate(408 583)">
    <rect x="0" y="0" width="408" height="304" rx="24" fill="#FDF8EE" stroke="#C2A8C4" stroke-width="8"/>
    <path d="M50 242 Q204 92 358 242" fill="none" stroke="#DD9764" stroke-width="16" stroke-linecap="round"/>
    <line x1="98" y1="214" x2="98" y2="242" stroke="#C2A8C4" stroke-width="10" stroke-linecap="round"/>
    <line x1="146" y1="174" x2="146" y2="242" stroke="#C2A8C4" stroke-width="10" stroke-linecap="round"/>
    <line x1="204" y1="150" x2="204" y2="242" stroke="#C2A8C4" stroke-width="10" stroke-linecap="round"/>
    <line x1="262" y1="174" x2="262" y2="242" stroke="#C2A8C4" stroke-width="10" stroke-linecap="round"/>
    <line x1="310" y1="214" x2="310" y2="242" stroke="#C2A8C4" stroke-width="10" stroke-linecap="round"/>
  </g>

  <g transform="translate(930 336)">
    <path d="M82 8 L152 34 V90 C152 142 120 174 82 190 C44 174 12 142 12 90 V34 Z" fill="#FDF8EE" stroke="#DD9764" stroke-width="10"/>
    <rect x="30" y="64" width="104" height="64" rx="20" fill="#C2A8C4" opacity="0.72"/>
    <text x="82" y="106" text-anchor="middle" fill="#312531" font-family="'Trebuchet MS', Arial, sans-serif" font-size="40" font-weight="700" letter-spacing="2">NE</text>
  </g>

  <rect x="0" y="0" width="1200" height="238" fill="#483748" opacity="0.93"/>
  <rect x="0" y="1454" width="1200" height="346" fill="#6E576D" opacity="0.95"/>
  <text x="600" y="136" text-anchor="middle" fill="#FDF8EE" font-family="Georgia, serif" font-size="62" font-weight="700" letter-spacing="3">KEITH FERRAZZI</text>
  <text x="600" y="208" text-anchor="middle" fill="#FDF8EE" font-family="'Trebuchet MS', Arial, sans-serif" font-size="30" letter-spacing="4">RELATIONSHIPS</text>
  <text x="600" y="1216" text-anchor="middle" fill="#312531" font-family="'Trebuchet MS', Arial, sans-serif" font-size="92" font-weight="700" letter-spacing="2">NEVER EAT ALONE</text>
  <g>
    <rect x="399" y="1466" width="172" height="42" rx="21" fill="#FDF8EE" opacity="0.18" stroke="#FDF8EE" stroke-width="2"/>
    <text x="485" y="1494" text-anchor="middle" fill="#FDF8EE" font-family="'Trebuchet MS', Arial, sans-serif" font-size="20" letter-spacing="1">NETWORKING</text>
  </g>
  <g>
    <rect x="593" y="1466" width="208" height="42" rx="21" fill="#FDF8EE" opacity="0.18" stroke="#FDF8EE" stroke-width="2"/>
    <text x="697" y="1494" text-anchor="middle" fill="#FDF8EE" font-family="'Trebuchet MS', Arial, sans-serif" font-size="20" letter-spacing="1">RELATIONSHIPS</text>
  </g>
  <text x="600" y="1538" text-anchor="middle" fill="#FDF8EE" font-family="'Trebuchet MS', Arial, sans-serif" font-size="30" letter-spacing="3">NETWORKING  ·  RELATIONSHIPS  ·  TRUST</text>
  <text x="600" y="1604" text-anchor="middle" fill="#FDF8EE" font-family="Georgia, serif" font-size="30">Relationships grow through consistent generosity</text>
  <text x="600" y="1668" text-anchor="middle" fill="#FDF8EE" font-family="'Trebuchet MS', Arial, sans-serif" font-size="26" letter-spacing="2">Modern Edition · Practical Lessons · Real Scenarios</text>
</svg>
