<svg width="1200" height="1800" viewBox="0 0 1200 1800" fill="none" xmlns="http://www.w3.org/2000/svg" role="img" aria-labelledby="title desc">
  <title id="title">Noise cover</title>
  <desc id="desc">Auto-generated themed cover for Noise by Daniel Kahneman, Olivier Sibony, and Cass Sunstein.</desc>
  <defs>
    <linearGradient id="g1018449667" x1="0" y1="0" x2="0" y2="1800" gradientUnits="userSpaceOnUse">
      <stop offset="0%" stop-color="#2A4150"/>
      <stop offset="100%" stop-color="#476983"/>
    </linearGradient>
  </defs>

  <rect width="1200" height="1800" fill="url(#g1018449667)"/>

  <rect x="0" y="300" width="1200" height="1180" fill="#99B8CD" opacity="0.1"/>
  <g fill="#FDF8EE" opacity="0.19">
    <circle cx="210" cy="560" r="124"/>
    <circle cx="1020" cy="640" r="110"/>
    <circle cx="920" cy="1220" r="132"/>
    <circle cx="230" cy="1190" r="96"/>
  </g>
  <path d="M70 730 Q300 572 600 740 T1130 760" stroke="#E19258" stroke-width="20" opacity="0.2"/>
  <path d="M70 960 Q320 1062 600 940 T1130 920" stroke="#FDF8EE" stroke-width="16" opacity="0.24"/>
  <ellipse cx="600" cy="812" rx="470" ry="382" fill="#FDF8EE" opacity="0.08"/>
  <rect x="116" y="304" width="968" height="1036" rx="38" fill="#F3EBE0" stroke="#C2B09C" stroke-width="10"/>
<g opacity="0.24" transform="translate(0 -26)">
  <g transform="translate(410 554)">
    <rect x="0" y="0" width="388" height="332" rx="24" fill="#F3EBE0" stroke="#FDF8EE" stroke-width="8"/>
    <path d="M52 62 H338 V270 H82 V100 H286 V228 H136 V152 H236" fill="none" stroke="#99B8CD" stroke-width="14" stroke-linecap="round" stroke-linejoin="round"/>
    <circle cx="236" cy="152" r="12" fill="#223040"/>
  </g></g>

  <g transform="translate(393 571)">
    <rect x="0" y="0" width="388" height="332" rx="24" fill="#FDF8EE" stroke="#99B8CD" stroke-width="8"/>
    <path d="M52 62 H338 V270 H82 V100 H286 V228 H136 V152 H236" fill="none" stroke="#E19258" stroke-width="14" stroke-linecap="round" stroke-linejoin="round"/>
    <circle cx="236" cy="152" r="12" fill="#223040"/>
  </g>

  <g transform="translate(926 334)">
    <polygon points="88,8 162,52 162,136 88,180 14,136 14,52" fill="#FDF8EE" stroke="#E19258" stroke-width="10"/>
    <circle cx="88" cy="94" r="44" fill="#99B8CD" opacity="0.7"/>
    <text x="88" y="108" text-anchor="middle" fill="#223040" font-family="'Trebuchet MS', Arial, sans-serif" font-size="42" font-weight="700" letter-spacing="2">NO</text>
  </g>

  <rect x="0" y="0" width="1200" height="238" fill="#2A4150" opacity="0.93"/>
  <rect x="0" y="1454" width="1200" height="346" fill="#476983" opacity="0.95"/>
  <text x="600" y="136" text-anchor="middle" fill="#FDF8EE" font-family="Georgia, serif" font-size="62" font-weight="700" letter-spacing="3">DANIEL KAHNEMAN, OLIVIER SIBONY, AND CASS SUNSTEIN</text>
  <text x="600" y="208" text-anchor="middle" fill="#FDF8EE" font-family="'Trebuchet MS', Arial, sans-serif" font-size="30" letter-spacing="4">THINKING</text>
  <text x="600" y="1216" text-anchor="middle" fill="#223040" font-family="Georgia, 'Times New Roman', serif" font-size="108" font-weight="700" letter-spacing="2">NOISE</text>
  <g>
    <rect x="435" y="1466" width="160" height="42" rx="21" fill="#FDF8EE" opacity="0.18" stroke="#FDF8EE" stroke-width="2"/>
    <text x="515" y="1494" text-anchor="middle" fill="#FDF8EE" font-family="'Trebuchet MS', Arial, sans-serif" font-size="20" letter-spacing="1">REASONING</text>
  </g>
  <g>
    <rect x="617" y="1466" width="148" height="42" rx="21" fill="#FDF8EE" opacity="0.18" stroke="#FDF8EE" stroke-width="2"/>
    <text x="691" y="1494" text-anchor="middle" fill="#FDF8EE" font-family="'Trebuchet MS', Arial, sans-serif" font-size="20" letter-spacing="1">JUDGMENT</text>
  </g>
  <text x="600" y="1538" text-anchor="middle" fill="#FDF8EE" font-family="'Trebuchet MS', Arial, sans-serif" font-size="30" letter-spacing="3">REASONING  ·  JUDGMENT  ·  SYSTEMS</text>
  <text x="600" y="1604" text-anchor="middle" fill="#FDF8EE" font-family="Georgia, serif" font-size="30">Reduce random judgment variation</text>
  <text x="600" y="1668" text-anchor="middle" fill="#FDF8EE" font-family="'Trebuchet MS', Arial, sans-serif" font-size="26" letter-spacing="2">Modern Edition · Practical Lessons · Real Scenarios</text>
</svg>
