<svg width="1200" height="1800" viewBox="0 0 1200 1800" fill="none" xmlns="http://www.w3.org/2000/svg" role="img" aria-labelledby="title desc">
  <title id="title">On Becoming a Person cover</title>
  <desc id="desc">Auto-generated themed cover for On Becoming a Person by Carl Rogers.</desc>
  <defs>
    <linearGradient id="g1451483270" x1="0" y1="0" x2="0" y2="1800" gradientUnits="userSpaceOnUse">
      <stop offset="0%" stop-color="#2B3749"/>
      <stop offset="100%" stop-color="#536885"/>
    </linearGradient>
  </defs>

  <rect width="1200" height="1800" fill="url(#g1451483270)"/>

  <rect x="0" y="300" width="1200" height="1180" fill="#9FB6D2" opacity="0.1"/>
  <rect x="110" y="360" width="420" height="430" rx="42" fill="#FDF8EF" opacity="0.2"/>
  <rect x="670" y="360" width="420" height="420" rx="42" fill="#D67E5E" opacity="0.16"/>
  <rect x="110" y="980" width="420" height="360" rx="42" fill="#D67E5E" opacity="0.15"/>
  <rect x="670" y="950" width="420" height="390" rx="42" fill="#FDF8EF" opacity="0.2"/>
  <circle cx="644" cy="846" r="128" fill="#FDF8EF" opacity="0.16"/>
  <ellipse cx="600" cy="812" rx="470" ry="382" fill="#FDF8EF" opacity="0.08"/>
  <rect x="116" y="304" width="968" height="1036" rx="38" fill="#F3EBE2" stroke="#C4B19D" stroke-width="10"/>
<g opacity="0.24" transform="translate(0 -26)">
  <g transform="translate(400 553)">
    <circle cx="150" cy="176" r="88" fill="none" stroke="#9FB6D2" stroke-width="22"/>
    <circle cx="254" cy="176" r="88" fill="none" stroke="#FDF8EF" stroke-width="22"/>
    <rect x="56" y="50" width="292" height="252" rx="26" fill="none" stroke="#F3EBE2" stroke-width="8" opacity="0.78"/>
  </g></g>

  <g transform="translate(413 570)">
    <circle cx="150" cy="176" r="88" fill="none" stroke="#D67E5E" stroke-width="22"/>
    <circle cx="254" cy="176" r="88" fill="none" stroke="#9FB6D2" stroke-width="22"/>
    <rect x="56" y="50" width="292" height="252" rx="26" fill="none" stroke="#FDF8EF" stroke-width="8" opacity="0.78"/>
  </g>

  <g transform="translate(928 336)">
    <circle cx="84" cy="84" r="76" fill="#FDF8EF" stroke="#D67E5E" stroke-width="10"/>
    <circle cx="84" cy="84" r="56" fill="#9FB6D2" opacity="0.68"/>
    <text x="84" y="98" text-anchor="middle" fill="#222A37" font-family="'Trebuchet MS', Arial, sans-serif" font-size="44" font-weight="700" letter-spacing="2">BP</text>
  </g>

  <rect x="0" y="0" width="1200" height="238" fill="#2B3749" opacity="0.93"/>
  <rect x="0" y="1454" width="1200" height="346" fill="#536885" opacity="0.95"/>
  <text x="600" y="136" text-anchor="middle" fill="#FDF8EF" font-family="Georgia, serif" font-size="62" font-weight="700" letter-spacing="3">CARL ROGERS</text>
  <text x="600" y="208" text-anchor="middle" fill="#FDF8EF" font-family="'Trebuchet MS', Arial, sans-serif" font-size="30" letter-spacing="4">PSYCHOLOGY</text>
  <text x="600" y="1216" text-anchor="middle" fill="#222A37" font-family="Georgia, 'Times New Roman', serif" font-size="78" font-weight="700" letter-spacing="2">ON BECOMING A PERSON</text>
  <g>
    <rect x="453" y="1466" width="136" height="42" rx="21" fill="#FDF8EF" opacity="0.18" stroke="#FDF8EF" stroke-width="2"/>
    <text x="521" y="1494" text-anchor="middle" fill="#FDF8EF" font-family="'Trebuchet MS', Arial, sans-serif" font-size="20" letter-spacing="1">THERAPY</text>
  </g>
  <g>
    <rect x="611" y="1466" width="136" height="42" rx="21" fill="#FDF8EF" opacity="0.18" stroke="#FDF8EF" stroke-width="2"/>
    <text x="679" y="1494" text-anchor="middle" fill="#FDF8EF" font-family="'Trebuchet MS', Arial, sans-serif" font-size="20" letter-spacing="1">EMPATHY</text>
  </g>
  <text x="600" y="1538" text-anchor="middle" fill="#FDF8EF" font-family="'Trebuchet MS', Arial, sans-serif" font-size="30" letter-spacing="3">THERAPY  ·  EMPATHY  ·  GROWTH</text>
  <text x="600" y="1604" text-anchor="middle" fill="#FDF8EF" font-family="Georgia, serif" font-size="30">Empathy and authenticity enable growth</text>
  <text x="600" y="1668" text-anchor="middle" fill="#FDF8EF" font-family="'Trebuchet MS', Arial, sans-serif" font-size="26" letter-spacing="2">Modern Edition · Practical Lessons · Real Scenarios</text>
</svg>
