<svg width="1200" height="1800" viewBox="0 0 1200 1800" fill="none" xmlns="http://www.w3.org/2000/svg" role="img" aria-labelledby="title desc">
  <title id="title">On Becoming a Person cover</title>
  <desc id="desc">Auto-generated themed cover for On Becoming a Person by Carl Rogers.</desc>
  <defs>
    <linearGradient id="g1451483270" x1="0" y1="0" x2="0" y2="1800" gradientUnits="userSpaceOnUse">
      <stop offset="0%" stop-color="#2D3656"/>
      <stop offset="100%" stop-color="#4E5E8A"/>
    </linearGradient>
  </defs>

  <rect width="1200" height="1800" fill="url(#g1451483270)"/>

  <circle cx="600" cy="840" r="420" fill="#9AACD2" opacity="0.16"/>
  <circle cx="600" cy="840" r="300" fill="#FDF8EF" opacity="0.16"/>
  <circle cx="624" cy="826" r="210" fill="#D88D57" opacity="0.18"/>
  <circle cx="576" cy="854" r="130" fill="#FDF8EF" opacity="0.34"/>
  <rect x="116" y="304" width="968" height="1036" rx="38" fill="#F3ECE2" stroke="#C9B8A2" stroke-width="10"/>

  <g transform="translate(413 562)">
    <circle cx="196" cy="170" r="128" fill="none" stroke="#D88D57" stroke-width="20" opacity="0.88"/>
    <circle cx="196" cy="170" r="76" fill="none" stroke="#9AACD2" stroke-width="18" opacity="0.86"/>
    <polygon points="316,170 274,154 284,186" fill="#D88D57"/>
    <polygon points="118,96 132,136 98,126" fill="#9AACD2"/>
    <circle cx="196" cy="170" r="32" fill="#232B3B" opacity="0.82"/>
  </g>

  <g transform="translate(928 336)">
    <circle cx="84" cy="84" r="76" fill="#FDF8EF" stroke="#D88D57" stroke-width="10"/>
    <circle cx="84" cy="84" r="56" fill="#9AACD2" opacity="0.68"/>
    <text x="84" y="98" text-anchor="middle" fill="#232B3B" font-family="'Trebuchet MS', Arial, sans-serif" font-size="44" font-weight="700" letter-spacing="2">BP</text>
  </g>

  <rect x="0" y="0" width="1200" height="238" fill="#2D3656" opacity="0.93"/>
  <rect x="0" y="1454" width="1200" height="346" fill="#4E5E8A" opacity="0.95"/>
  <text x="600" y="136" text-anchor="middle" fill="#FDF8EF" font-family="Georgia, serif" font-size="62" font-weight="700" letter-spacing="3">CARL ROGERS</text>
  <text x="600" y="208" text-anchor="middle" fill="#FDF8EF" font-family="'Trebuchet MS', Arial, sans-serif" font-size="30" letter-spacing="4">PSYCHOLOGY</text>
  <text x="600" y="1216" text-anchor="middle" fill="#232B3B" font-family="Georgia, 'Times New Roman', serif" font-size="78" font-weight="700" letter-spacing="2">ON BECOMING A PERSON</text>
  <text x="600" y="1538" text-anchor="middle" fill="#FDF8EF" font-family="'Trebuchet MS', Arial, sans-serif" font-size="30" letter-spacing="3">THERAPY  ·  EMPATHY  ·  GROWTH</text>
  <text x="600" y="1604" text-anchor="middle" fill="#FDF8EF" font-family="Georgia, serif" font-size="30">Behavior, bias, and motivation</text>
  <text x="600" y="1668" text-anchor="middle" fill="#FDF8EF" font-family="'Trebuchet MS', Arial, sans-serif" font-size="26" letter-spacing="2">Modern Edition · Practical Lessons · Real Scenarios</text>
</svg>
