<svg width="1200" height="1800" viewBox="0 0 1200 1800" fill="none" xmlns="http://www.w3.org/2000/svg" role="img" aria-labelledby="title desc">
  <title id="title">Peak cover</title>
  <desc id="desc">Auto-generated themed cover for Peak by Anders Ericsson and Robert Pool.</desc>
  <defs>
    <linearGradient id="g1436487756" x1="0" y1="0" x2="0" y2="1800" gradientUnits="userSpaceOnUse">
      <stop offset="0%" stop-color="#2C4D64"/>
      <stop offset="100%" stop-color="#5681A0"/>
    </linearGradient>
  </defs>

  <rect width="1200" height="1800" fill="url(#g1436487756)"/>

  <rect x="0" y="300" width="1200" height="1180" fill="#A0C4DB" opacity="0.08"/>
  <g stroke="#FEF7EF" opacity="0.18">
    <path d="M0 380 L1200 980" stroke-width="10"/>
    <path d="M0 600 L1200 1200" stroke-width="8"/>
    <path d="M0 820 L1200 1420" stroke-width="6"/>
    <path d="M0 1040 L1040 1540" stroke-width="5"/>
    <path d="M160 300 L1200 820" stroke-width="5"/>
  </g>
  <rect x="116" y="340" width="968" height="990" rx="46" fill="#FEF7EF" opacity="0.14"/>
  <ellipse cx="600" cy="812" rx="470" ry="382" fill="#FEF7EF" opacity="0.08"/>
  <rect x="116" y="304" width="968" height="1036" rx="38" fill="#F3EBE1" stroke="#C4B19C" stroke-width="10"/>
<g opacity="0.24" transform="translate(0 -26)">
  <g transform="translate(400 574)">
    <circle cx="204" cy="72" r="44" fill="#A0C4DB" opacity="0.44"/>
    <path d="M24 292 L132 144 L208 248 L296 114 L388 292 Z" fill="#FEF7EF" opacity="0.82"/>
    <path d="M84 292 L168 186 L226 260 L302 172 L360 292 Z" fill="#A0C4DB" opacity="0.82"/>
    <path d="M34 292 H378" stroke="#F3EBE1" stroke-width="12" stroke-linecap="round" opacity="0.8"/>
  </g></g>

  <g transform="translate(383 565)">
    <circle cx="204" cy="72" r="44" fill="#DD8550" opacity="0.44"/>
    <path d="M24 292 L132 144 L208 248 L296 114 L388 292 Z" fill="#A0C4DB" opacity="0.82"/>
    <path d="M84 292 L168 186 L226 260 L302 172 L360 292 Z" fill="#DD8550" opacity="0.82"/>
    <path d="M34 292 H378" stroke="#FEF7EF" stroke-width="12" stroke-linecap="round" opacity="0.8"/>
  </g>

  <g transform="translate(926 334)">
    <polygon points="88,8 162,52 162,136 88,180 14,136 14,52" fill="#FEF7EF" stroke="#DD8550" stroke-width="10"/>
    <circle cx="88" cy="94" r="44" fill="#A0C4DB" opacity="0.7"/>
    <text x="88" y="108" text-anchor="middle" fill="#243546" font-family="'Trebuchet MS', Arial, sans-serif" font-size="42" font-weight="700" letter-spacing="2">PE</text>
  </g>

  <rect x="0" y="0" width="1200" height="238" fill="#2C4D64" opacity="0.93"/>
  <rect x="0" y="1454" width="1200" height="346" fill="#5681A0" opacity="0.95"/>
  <text x="600" y="136" text-anchor="middle" fill="#FEF7EF" font-family="Georgia, serif" font-size="62" font-weight="700" letter-spacing="3">ANDERS ERICSSON AND ROBERT POOL</text>
  <text x="600" y="208" text-anchor="middle" fill="#FEF7EF" font-family="'Trebuchet MS', Arial, sans-serif" font-size="30" letter-spacing="4">LEARNING</text>
  <text x="600" y="1216" text-anchor="middle" fill="#243546" font-family="'Trebuchet MS', Arial, sans-serif" font-size="108" font-weight="700" letter-spacing="2">PEAK</text>
  <g>
    <rect x="453" y="1466" width="148" height="42" rx="21" fill="#FEF7EF" opacity="0.18" stroke="#FEF7EF" stroke-width="2"/>
    <text x="527" y="1494" text-anchor="middle" fill="#FEF7EF" font-family="'Trebuchet MS', Arial, sans-serif" font-size="20" letter-spacing="1">PRACTICE</text>
  </g>
  <g>
    <rect x="623" y="1466" width="124" height="42" rx="21" fill="#FEF7EF" opacity="0.18" stroke="#FEF7EF" stroke-width="2"/>
    <text x="685" y="1494" text-anchor="middle" fill="#FEF7EF" font-family="'Trebuchet MS', Arial, sans-serif" font-size="20" letter-spacing="1">MEMORY</text>
  </g>
  <text x="600" y="1538" text-anchor="middle" fill="#FEF7EF" font-family="'Trebuchet MS', Arial, sans-serif" font-size="30" letter-spacing="3">PRACTICE  ·  MEMORY  ·  FEEDBACK</text>
  <text x="600" y="1604" text-anchor="middle" fill="#FEF7EF" font-family="Georgia, serif" font-size="30">Deliberate practice compounds skill</text>
  <text x="600" y="1668" text-anchor="middle" fill="#FEF7EF" font-family="'Trebuchet MS', Arial, sans-serif" font-size="26" letter-spacing="2">Modern Edition · Practical Lessons · Real Scenarios</text>
</svg>
