<svg width="1200" height="1800" viewBox="0 0 1200 1800" fill="none" xmlns="http://www.w3.org/2000/svg" role="img" aria-labelledby="title desc">
  <title id="title">Peak cover</title>
  <desc id="desc">Auto-generated themed cover for Peak by Anders Ericsson and Robert Pool.</desc>
  <defs>
    <linearGradient id="g1436487756" x1="0" y1="0" x2="0" y2="1800" gradientUnits="userSpaceOnUse">
      <stop offset="0%" stop-color="#314C74"/>
      <stop offset="100%" stop-color="#5578A6"/>
    </linearGradient>
  </defs>

  <rect width="1200" height="1800" fill="url(#g1436487756)"/>

  <rect x="0" y="300" width="1200" height="1180" fill="#9CB9DA" opacity="0.12"/>
  <rect x="140" y="360" width="920" height="1050" rx="48" fill="#FEF8EF" opacity="0.22"/>
  <path d="M0 560 Q300 420 600 560 T1200 560" stroke="#FEF8EF" stroke-width="22" opacity="0.24"/>
  <path d="M0 1180 Q300 1040 600 1180 T1200 1180" stroke="#DE9A4A" stroke-width="16" opacity="0.22"/>
  <rect x="116" y="304" width="968" height="1036" rx="38" fill="#F3ECE1" stroke="#C8B8A2" stroke-width="10"/>

  <g transform="translate(377 567)">
    <rect x="0" y="0" width="420" height="328" rx="24" fill="#FEF8EF" stroke="#9CB9DA" stroke-width="8"/>
    <path d="M56 258 C136 192 228 222 306 158" stroke="#25364A" stroke-width="10" stroke-linecap="round"/>
    <rect x="82" y="98" width="250" height="26" rx="13" fill="#9CB9DA" opacity="0.55"/>
    <rect x="82" y="132" width="212" height="26" rx="13" fill="#DE9A4A" opacity="0.45"/>
    <g transform="translate(294 214) rotate(-18)">
      <rect x="0" y="0" width="88" height="22" rx="10" fill="#DE9A4A" opacity="0.9"/>
      <polygon points="88,11 108,0 108,22" fill="#25364A"/>
      <polygon points="108,0 118,11 108,22" fill="#FEF8EF"/>
    </g>
  </g>

  <g transform="translate(926 334)">
    <polygon points="88,8 162,52 162,136 88,180 14,136 14,52" fill="#FEF8EF" stroke="#DE9A4A" stroke-width="10"/>
    <circle cx="88" cy="94" r="44" fill="#9CB9DA" opacity="0.7"/>
    <text x="88" y="108" text-anchor="middle" fill="#25364A" font-family="'Trebuchet MS', Arial, sans-serif" font-size="42" font-weight="700" letter-spacing="2">PE</text>
  </g>

  <rect x="0" y="0" width="1200" height="238" fill="#314C74" opacity="0.93"/>
  <rect x="0" y="1454" width="1200" height="346" fill="#5578A6" opacity="0.95"/>
  <text x="600" y="136" text-anchor="middle" fill="#FEF8EF" font-family="Georgia, serif" font-size="62" font-weight="700" letter-spacing="3">ANDERS ERICSSON AND ROBERT POOL</text>
  <text x="600" y="208" text-anchor="middle" fill="#FEF8EF" font-family="'Trebuchet MS', Arial, sans-serif" font-size="30" letter-spacing="4">LEARNING</text>
  <text x="600" y="1216" text-anchor="middle" fill="#25364A" font-family="'Trebuchet MS', Arial, sans-serif" font-size="108" font-weight="700" letter-spacing="2">PEAK</text>
  <text x="600" y="1538" text-anchor="middle" fill="#FEF8EF" font-family="'Trebuchet MS', Arial, sans-serif" font-size="30" letter-spacing="3">PRACTICE  ·  MEMORY  ·  FEEDBACK</text>
  <text x="600" y="1604" text-anchor="middle" fill="#FEF8EF" font-family="Georgia, serif" font-size="30">Practice and skill building</text>
  <text x="600" y="1668" text-anchor="middle" fill="#FEF8EF" font-family="'Trebuchet MS', Arial, sans-serif" font-size="26" letter-spacing="2">Modern Edition · Practical Lessons · Real Scenarios</text>
</svg>
