<svg width="1200" height="1800" viewBox="0 0 1200 1800" fill="none" xmlns="http://www.w3.org/2000/svg" role="img" aria-labelledby="title desc">
  <title id="title">Pitch Anything cover</title>
  <desc id="desc">Auto-generated themed cover for Pitch Anything by Oren Klaff.</desc>
  <defs>
    <linearGradient id="g931620616" x1="0" y1="0" x2="0" y2="1800" gradientUnits="userSpaceOnUse">
      <stop offset="0%" stop-color="#182D3E"/>
      <stop offset="100%" stop-color="#365E6F"/>
    </linearGradient>
  </defs>

  <rect width="1200" height="1800" fill="url(#g931620616)"/>

  <circle cx="600" cy="840" r="420" fill="#7FB2A8" opacity="0.16"/>
  <circle cx="600" cy="840" r="300" fill="#FEF8EE" opacity="0.16"/>
  <circle cx="595" cy="843" r="210" fill="#DA9044" opacity="0.18"/>
  <circle cx="605" cy="837" r="130" fill="#FEF8EE" opacity="0.34"/>
  <ellipse cx="600" cy="812" rx="470" ry="382" fill="#FEF8EE" opacity="0.08"/>
  <rect x="116" y="304" width="968" height="1036" rx="38" fill="#F4ECE0" stroke="#C6B399" stroke-width="10"/>
<g opacity="0.24" transform="translate(0 -26)">
  <g transform="translate(423 543)">
    <rect x="96" y="18" width="146" height="186" rx="72" fill="#7FB2A8" opacity="0.9"/>
    <rect x="116" y="42" width="106" height="138" rx="52" fill="#F4ECE0" opacity="0.9"/>
    <path d="M64 174 Q64 248 132 268 H206 Q274 248 274 174" fill="none" stroke="#1C2B30" stroke-width="12" stroke-linecap="round"/>
    <rect x="164" y="264" width="16" height="68" rx="8" fill="#1C2B30"/>
    <rect x="122" y="330" width="100" height="16" rx="8" fill="#1C2B30"/>
  </g></g>

  <g transform="translate(436 561)">
    <rect x="96" y="18" width="146" height="186" rx="72" fill="#DA9044" opacity="0.9"/>
    <rect x="116" y="42" width="106" height="138" rx="52" fill="#FEF8EE" opacity="0.9"/>
    <path d="M64 174 Q64 248 132 268 H206 Q274 248 274 174" fill="none" stroke="#1C2B30" stroke-width="12" stroke-linecap="round"/>
    <rect x="164" y="264" width="16" height="68" rx="8" fill="#1C2B30"/>
    <rect x="122" y="330" width="100" height="16" rx="8" fill="#1C2B30"/>
  </g>

  <g transform="translate(922 332)">
    <rect x="12" y="12" width="152" height="152" rx="24" fill="#FEF8EE" stroke="#DA9044" stroke-width="10"/>
    <path d="M30 116 L146 52" stroke="#7FB2A8" stroke-width="8" stroke-linecap="round"/>
    <path d="M30 138 L146 74" stroke="#7FB2A8" stroke-width="8" stroke-linecap="round"/>
    <text x="88" y="102" text-anchor="middle" fill="#1C2B30" font-family="'Trebuchet MS', Arial, sans-serif" font-size="44" font-weight="700" letter-spacing="2">PA</text>
  </g>

  <rect x="0" y="0" width="1200" height="238" fill="#182D3E" opacity="0.93"/>
  <rect x="0" y="1454" width="1200" height="346" fill="#365E6F" opacity="0.95"/>
  <text x="600" y="136" text-anchor="middle" fill="#FEF8EE" font-family="Georgia, serif" font-size="62" font-weight="700" letter-spacing="3">OREN KLAFF</text>
  <text x="600" y="208" text-anchor="middle" fill="#FEF8EE" font-family="'Trebuchet MS', Arial, sans-serif" font-size="30" letter-spacing="4">COMMUNICATION</text>
  <text x="600" y="1216" text-anchor="middle" fill="#1C2B30" font-family="'Trebuchet MS', Arial, sans-serif" font-size="92" font-weight="700" letter-spacing="2">PITCH ANYTHING</text>
  <g>
    <rect x="411" y="1466" width="148" height="42" rx="21" fill="#FEF8EE" opacity="0.18" stroke="#FEF8EE" stroke-width="2"/>
    <text x="485" y="1494" text-anchor="middle" fill="#FEF8EE" font-family="'Trebuchet MS', Arial, sans-serif" font-size="20" letter-spacing="1">PITCHING</text>
  </g>
  <g>
    <rect x="581" y="1466" width="208" height="42" rx="21" fill="#FEF8EE" opacity="0.18" stroke="#FEF8EE" stroke-width="2"/>
    <text x="685" y="1494" text-anchor="middle" fill="#FEF8EE" font-family="'Trebuchet MS', Arial, sans-serif" font-size="20" letter-spacing="1">FRAME CONTROL</text>
  </g>
  <text x="600" y="1538" text-anchor="middle" fill="#FEF8EE" font-family="'Trebuchet MS', Arial, sans-serif" font-size="30" letter-spacing="3">PITCHING  ·  FRAME CONTROL  ·  STATUS</text>
  <text x="600" y="1604" text-anchor="middle" fill="#FEF8EE" font-family="Georgia, serif" font-size="30">Control frame and raise perceived value</text>
  <text x="600" y="1668" text-anchor="middle" fill="#FEF8EE" font-family="'Trebuchet MS', Arial, sans-serif" font-size="26" letter-spacing="2">Modern Edition · Practical Lessons · Real Scenarios</text>
</svg>
