<svg width="1200" height="1800" viewBox="0 0 1200 1800" fill="none" xmlns="http://www.w3.org/2000/svg" role="img" aria-labelledby="title desc">
  <title id="title">Pitch Anything cover</title>
  <desc id="desc">Auto-generated themed cover for Pitch Anything by Oren Klaff.</desc>
  <defs>
    <linearGradient id="g931620616" x1="0" y1="0" x2="0" y2="1800" gradientUnits="userSpaceOnUse">
      <stop offset="0%" stop-color="#1F3E50"/>
      <stop offset="100%" stop-color="#396A76"/>
    </linearGradient>
  </defs>

  <rect width="1200" height="1800" fill="url(#g931620616)"/>

  <circle cx="600" cy="840" r="420" fill="#7CB0A3" opacity="0.16"/>
  <circle cx="600" cy="840" r="300" fill="#FEF8EE" opacity="0.16"/>
  <circle cx="595" cy="843" r="210" fill="#D98540" opacity="0.18"/>
  <circle cx="605" cy="837" r="130" fill="#FEF8EE" opacity="0.34"/>
  <rect x="116" y="304" width="968" height="1036" rx="38" fill="#F4ECE0" stroke="#CAB7A0" stroke-width="10"/>

  <g transform="translate(412 565)">
    <rect x="0" y="0" width="396" height="332" rx="24" fill="#FEF8EE" stroke="#7CB0A3" stroke-width="8"/>
    <rect x="194" y="40" width="8" height="252" rx="4" fill="#D98540" opacity="0.84"/>
    <path d="M68 204 Q120 152 178 190 L194 206" fill="none" stroke="#1E2E33" stroke-width="14" stroke-linecap="round"/>
    <path d="M328 204 Q276 152 218 190 L202 206" fill="none" stroke="#1E2E33" stroke-width="14" stroke-linecap="round"/>
    <rect x="86" y="90" width="94" height="22" rx="11" fill="#7CB0A3" opacity="0.72"/>
    <rect x="214" y="90" width="96" height="22" rx="11" fill="#D98540" opacity="0.72"/>
  </g>

  <rect x="0" y="0" width="1200" height="238" fill="#1F3E50" opacity="0.93"/>
  <rect x="0" y="1454" width="1200" height="346" fill="#396A76" opacity="0.95"/>
  <text x="600" y="136" text-anchor="middle" fill="#FEF8EE" font-family="Georgia, serif" font-size="62" font-weight="700" letter-spacing="3">OREN KLAFF</text>
  <text x="600" y="208" text-anchor="middle" fill="#FEF8EE" font-family="'Trebuchet MS', Arial, sans-serif" font-size="30" letter-spacing="4">COMMUNICATION</text>
  <text x="600" y="1216" text-anchor="middle" fill="#1E2E33" font-family="'Trebuchet MS', Arial, sans-serif" font-size="92" font-weight="700" letter-spacing="2">PITCH ANYTHING</text>
  <text x="600" y="1538" text-anchor="middle" fill="#FEF8EE" font-family="'Trebuchet MS', Arial, sans-serif" font-size="30" letter-spacing="3">PITCHING  ·  FRAME CONTROL  ·  STATUS</text>
  <text x="600" y="1604" text-anchor="middle" fill="#FEF8EE" font-family="Georgia, serif" font-size="30">Influence, dialogue, and trust</text>
  <text x="600" y="1668" text-anchor="middle" fill="#FEF8EE" font-family="'Trebuchet MS', Arial, sans-serif" font-size="26" letter-spacing="2">Modern Edition · Practical Lessons · Real Scenarios</text>
</svg>
