<svg width="1200" height="1800" viewBox="0 0 1200 1800" fill="none" xmlns="http://www.w3.org/2000/svg" role="img" aria-labelledby="title desc">
  <title id="title">Playing to Win cover</title>
  <desc id="desc">Auto-generated themed cover for Playing to Win by A.G. Lafley and Roger L. Martin.</desc>
  <defs>
    <linearGradient id="g256138423" x1="0" y1="0" x2="0" y2="1800" gradientUnits="userSpaceOnUse">
      <stop offset="0%" stop-color="#0A1D33"/>
      <stop offset="100%" stop-color="#1C3E67"/>
    </linearGradient>
  </defs>

  <rect width="1200" height="1800" fill="url(#g256138423)"/>

  <rect x="0" y="300" width="1200" height="1180" fill="#7DA3C6" opacity="0.1"/>
  <rect x="110" y="360" width="420" height="430" rx="42" fill="#FFF8EE" opacity="0.2"/>
  <rect x="670" y="360" width="420" height="420" rx="42" fill="#D3A537" opacity="0.16"/>
  <rect x="110" y="980" width="420" height="360" rx="42" fill="#D3A537" opacity="0.15"/>
  <rect x="670" y="950" width="420" height="390" rx="42" fill="#FFF8EE" opacity="0.2"/>
  <circle cx="639" cy="856" r="128" fill="#FFF8EE" opacity="0.16"/>
  <ellipse cx="600" cy="812" rx="470" ry="382" fill="#FFF8EE" opacity="0.08"/>
  <rect x="116" y="304" width="968" height="1036" rx="38" fill="#F4ECDD" stroke="#CAB696" stroke-width="10"/>
<g opacity="0.24" transform="translate(0 -26)">
  <g transform="translate(393 559)">
    <rect x="0" y="0" width="396" height="336" rx="24" fill="#F4ECDD" stroke="#FFF8EE" stroke-width="8"/>
    <rect x="52" y="52" width="74" height="64" rx="8" fill="#FFF8EE" opacity="0.56"/><rect x="126" y="52" width="74" height="64" rx="8" fill="#7DA3C6" opacity="0.56"/><rect x="200" y="52" width="74" height="64" rx="8" fill="#FFF8EE" opacity="0.56"/><rect x="274" y="52" width="74" height="64" rx="8" fill="#7DA3C6" opacity="0.56"/>
<rect x="52" y="116" width="74" height="64" rx="8" fill="#7DA3C6" opacity="0.56"/><rect x="126" y="116" width="74" height="64" rx="8" fill="#FFF8EE" opacity="0.56"/><rect x="200" y="116" width="74" height="64" rx="8" fill="#7DA3C6" opacity="0.56"/><rect x="274" y="116" width="74" height="64" rx="8" fill="#FFF8EE" opacity="0.56"/>
<rect x="52" y="180" width="74" height="64" rx="8" fill="#FFF8EE" opacity="0.56"/><rect x="126" y="180" width="74" height="64" rx="8" fill="#7DA3C6" opacity="0.56"/><rect x="200" y="180" width="74" height="64" rx="8" fill="#FFF8EE" opacity="0.56"/><rect x="274" y="180" width="74" height="64" rx="8" fill="#7DA3C6" opacity="0.56"/>
<rect x="52" y="244" width="74" height="64" rx="8" fill="#7DA3C6" opacity="0.56"/><rect x="126" y="244" width="74" height="64" rx="8" fill="#FFF8EE" opacity="0.56"/><rect x="200" y="244" width="74" height="64" rx="8" fill="#7DA3C6" opacity="0.56"/><rect x="274" y="244" width="74" height="64" rx="8" fill="#FFF8EE" opacity="0.56"/>
    <path d="M206 128 C174 128 154 148 154 174 C154 194 168 210 188 216 C176 228 166 244 166 266 H246 C246 244 236 228 224 216 C244 210 258 194 258 174 C258 148 238 128 206 128 Z" fill="#1A2831" opacity="0.9"/>
  </g></g>

  <g transform="translate(406 550)">
    <rect x="0" y="0" width="396" height="336" rx="24" fill="#FFF8EE" stroke="#7DA3C6" stroke-width="8"/>
    <rect x="52" y="52" width="74" height="64" rx="8" fill="#7DA3C6" opacity="0.56"/><rect x="126" y="52" width="74" height="64" rx="8" fill="#D3A537" opacity="0.56"/><rect x="200" y="52" width="74" height="64" rx="8" fill="#7DA3C6" opacity="0.56"/><rect x="274" y="52" width="74" height="64" rx="8" fill="#D3A537" opacity="0.56"/>
<rect x="52" y="116" width="74" height="64" rx="8" fill="#D3A537" opacity="0.56"/><rect x="126" y="116" width="74" height="64" rx="8" fill="#7DA3C6" opacity="0.56"/><rect x="200" y="116" width="74" height="64" rx="8" fill="#D3A537" opacity="0.56"/><rect x="274" y="116" width="74" height="64" rx="8" fill="#7DA3C6" opacity="0.56"/>
<rect x="52" y="180" width="74" height="64" rx="8" fill="#7DA3C6" opacity="0.56"/><rect x="126" y="180" width="74" height="64" rx="8" fill="#D3A537" opacity="0.56"/><rect x="200" y="180" width="74" height="64" rx="8" fill="#7DA3C6" opacity="0.56"/><rect x="274" y="180" width="74" height="64" rx="8" fill="#D3A537" opacity="0.56"/>
<rect x="52" y="244" width="74" height="64" rx="8" fill="#D3A537" opacity="0.56"/><rect x="126" y="244" width="74" height="64" rx="8" fill="#7DA3C6" opacity="0.56"/><rect x="200" y="244" width="74" height="64" rx="8" fill="#D3A537" opacity="0.56"/><rect x="274" y="244" width="74" height="64" rx="8" fill="#7DA3C6" opacity="0.56"/>
    <path d="M206 128 C174 128 154 148 154 174 C154 194 168 210 188 216 C176 228 166 244 166 266 H246 C246 244 236 228 224 216 C244 210 258 194 258 174 C258 148 238 128 206 128 Z" fill="#1A2831" opacity="0.9"/>
  </g>

  <g transform="translate(922 332)">
    <rect x="12" y="12" width="152" height="152" rx="24" fill="#FFF8EE" stroke="#D3A537" stroke-width="10"/>
    <path d="M30 116 L146 52" stroke="#7DA3C6" stroke-width="8" stroke-linecap="round"/>
    <path d="M30 138 L146 74" stroke="#7DA3C6" stroke-width="8" stroke-linecap="round"/>
    <text x="88" y="102" text-anchor="middle" fill="#1A2831" font-family="'Trebuchet MS', Arial, sans-serif" font-size="44" font-weight="700" letter-spacing="2">PW</text>
  </g>

  <rect x="0" y="0" width="1200" height="238" fill="#0A1D33" opacity="0.93"/>
  <rect x="0" y="1454" width="1200" height="346" fill="#1C3E67" opacity="0.95"/>
  <text x="600" y="136" text-anchor="middle" fill="#FFF8EE" font-family="Georgia, serif" font-size="62" font-weight="700" letter-spacing="3">A.G. LAFLEY AND ROGER L. MARTIN</text>
  <text x="600" y="208" text-anchor="middle" fill="#FFF8EE" font-family="'Trebuchet MS', Arial, sans-serif" font-size="30" letter-spacing="4">STRATEGY</text>
  <text x="600" y="1216" text-anchor="middle" fill="#1A2831" font-family="Georgia, 'Times New Roman', serif" font-size="92" font-weight="700" letter-spacing="2">PLAYING TO WIN</text>
  <g>
    <rect x="417" y="1466" width="184" height="42" rx="21" fill="#FFF8EE" opacity="0.18" stroke="#FFF8EE" stroke-width="2"/>
    <text x="509" y="1494" text-anchor="middle" fill="#FFF8EE" font-family="'Trebuchet MS', Arial, sans-serif" font-size="20" letter-spacing="1">COMPETITION</text>
  </g>
  <g>
    <rect x="623" y="1466" width="160" height="42" rx="21" fill="#FFF8EE" opacity="0.18" stroke="#FFF8EE" stroke-width="2"/>
    <text x="703" y="1494" text-anchor="middle" fill="#FFF8EE" font-family="'Trebuchet MS', Arial, sans-serif" font-size="20" letter-spacing="1">ADVANTAGE</text>
  </g>
  <text x="600" y="1538" text-anchor="middle" fill="#FFF8EE" font-family="'Trebuchet MS', Arial, sans-serif" font-size="30" letter-spacing="3">COMPETITION  ·  ADVANTAGE  ·  LEADERSHIP</text>
  <text x="600" y="1604" text-anchor="middle" fill="#FFF8EE" font-family="Georgia, serif" font-size="30">Choose where to play and how to win</text>
  <text x="600" y="1668" text-anchor="middle" fill="#FFF8EE" font-family="'Trebuchet MS', Arial, sans-serif" font-size="26" letter-spacing="2">Modern Edition · Practical Lessons · Real Scenarios</text>
</svg>
