<svg width="1200" height="1800" viewBox="0 0 1200 1800" fill="none" xmlns="http://www.w3.org/2000/svg" role="img" aria-labelledby="title desc">
  <title id="title">Playing to Win cover</title>
  <desc id="desc">Auto-generated themed cover for Playing to Win by A.G. Lafley and Roger L. Martin.</desc>
  <defs>
    <linearGradient id="g256138423" x1="0" y1="0" x2="0" y2="1800" gradientUnits="userSpaceOnUse">
      <stop offset="0%" stop-color="#0E2A44"/>
      <stop offset="100%" stop-color="#1E486A"/>
    </linearGradient>
  </defs>

  <rect width="1200" height="1800" fill="url(#g256138423)"/>

  <circle cx="600" cy="840" r="420" fill="#7AA4C4" opacity="0.16"/>
  <circle cx="600" cy="840" r="300" fill="#FFF8EE" opacity="0.16"/>
  <circle cx="619" cy="836" r="210" fill="#D19A34" opacity="0.18"/>
  <circle cx="581" cy="844" r="130" fill="#FFF8EE" opacity="0.34"/>
  <rect x="116" y="304" width="968" height="1036" rx="38" fill="#F4ECDD" stroke="#CDBA9D" stroke-width="10"/>

  <g transform="translate(408 544)">
    <rect x="38" y="28" width="320" height="300" rx="24" fill="#FFF8EE" stroke="#7AA4C4" stroke-width="8"/>
    <path d="M86 288 L302 72" stroke="#D19A34" stroke-width="16" stroke-linecap="round"/>
    <path d="M302 288 L86 72" stroke="#7AA4C4" stroke-width="16" stroke-linecap="round"/>
    <rect x="74" y="278" width="34" height="12" rx="6" fill="#1C2B34"/>
    <rect x="292" y="278" width="34" height="12" rx="6" fill="#1C2B34"/>
  </g>

  <g transform="translate(922 332)">
    <rect x="12" y="12" width="152" height="152" rx="24" fill="#FFF8EE" stroke="#D19A34" stroke-width="10"/>
    <path d="M30 116 L146 52" stroke="#7AA4C4" stroke-width="8" stroke-linecap="round"/>
    <path d="M30 138 L146 74" stroke="#7AA4C4" stroke-width="8" stroke-linecap="round"/>
    <text x="88" y="102" text-anchor="middle" fill="#1C2B34" font-family="'Trebuchet MS', Arial, sans-serif" font-size="44" font-weight="700" letter-spacing="2">PW</text>
  </g>

  <rect x="0" y="0" width="1200" height="238" fill="#0E2A44" opacity="0.93"/>
  <rect x="0" y="1454" width="1200" height="346" fill="#1E486A" opacity="0.95"/>
  <text x="600" y="136" text-anchor="middle" fill="#FFF8EE" font-family="Georgia, serif" font-size="62" font-weight="700" letter-spacing="3">A.G. LAFLEY AND ROGER L. MARTIN</text>
  <text x="600" y="208" text-anchor="middle" fill="#FFF8EE" font-family="'Trebuchet MS', Arial, sans-serif" font-size="30" letter-spacing="4">STRATEGY</text>
  <text x="600" y="1216" text-anchor="middle" fill="#1C2B34" font-family="Georgia, 'Times New Roman', serif" font-size="92" font-weight="700" letter-spacing="2">PLAYING TO WIN</text>
  <text x="600" y="1538" text-anchor="middle" fill="#FFF8EE" font-family="'Trebuchet MS', Arial, sans-serif" font-size="30" letter-spacing="3">COMPETITION  ·  ADVANTAGE  ·  LEADERSHIP</text>
  <text x="600" y="1604" text-anchor="middle" fill="#FFF8EE" font-family="Georgia, serif" font-size="30">Position, timing, and leverage</text>
  <text x="600" y="1668" text-anchor="middle" fill="#FFF8EE" font-family="'Trebuchet MS', Arial, sans-serif" font-size="26" letter-spacing="2">Modern Edition · Practical Lessons · Real Scenarios</text>
</svg>
