<svg width="1200" height="1800" viewBox="0 0 1200 1800" fill="none" xmlns="http://www.w3.org/2000/svg" role="img" aria-labelledby="title desc">
  <title id="title">Pre Suasion cover</title>
  <desc id="desc">Auto-generated themed cover for Pre Suasion by Robert Cialdini.</desc>
  <defs>
    <linearGradient id="g1339711597" x1="0" y1="0" x2="0" y2="1800" gradientUnits="userSpaceOnUse">
      <stop offset="0%" stop-color="#223F4B"/>
      <stop offset="100%" stop-color="#396C7D"/>
    </linearGradient>
  </defs>

  <rect width="1200" height="1800" fill="url(#g1339711597)"/>

  <circle cx="600" cy="840" r="420" fill="#91C5CC" opacity="0.16"/>
  <circle cx="600" cy="840" r="300" fill="#FDF7EE" opacity="0.16"/>
  <circle cx="580" cy="821" r="210" fill="#E17E4A" opacity="0.18"/>
  <circle cx="620" cy="859" r="130" fill="#FDF7EE" opacity="0.34"/>
  <ellipse cx="600" cy="812" rx="470" ry="382" fill="#FDF7EE" opacity="0.08"/>
  <rect x="116" y="304" width="968" height="1036" rx="38" fill="#F4EEE4" stroke="#C7B49D" stroke-width="10"/>
<g opacity="0.24" transform="translate(0 -26)">
  <g transform="translate(416 560)">
    <circle cx="196" cy="186" r="152" fill="#F4EEE4" opacity="0.95" stroke="#FDF7EE" stroke-width="8"/>
    <circle cx="196" cy="186" r="104" fill="none" stroke="#91C5CC" stroke-width="16"/>
    <circle cx="196" cy="186" r="62" fill="none" stroke="#FDF7EE" stroke-width="14"/>
    <circle cx="196" cy="186" r="24" fill="#1E2F39"/>
  </g></g>

  <g transform="translate(399 552)">
    <circle cx="196" cy="186" r="152" fill="#FDF7EE" opacity="0.95" stroke="#91C5CC" stroke-width="8"/>
    <circle cx="196" cy="186" r="104" fill="none" stroke="#E17E4A" stroke-width="16"/>
    <circle cx="196" cy="186" r="62" fill="none" stroke="#91C5CC" stroke-width="14"/>
    <circle cx="196" cy="186" r="24" fill="#1E2F39"/>
  </g>

  <g transform="translate(924 332)">
    <rect x="24" y="14" width="128" height="156" rx="64" fill="#FDF7EE" stroke="#E17E4A" stroke-width="10"/>
    <path d="M44 54 H132" stroke="#91C5CC" stroke-width="10" stroke-linecap="round"/>
    <path d="M44 80 H132" stroke="#91C5CC" stroke-width="10" stroke-linecap="round"/>
    <text x="88" y="128" text-anchor="middle" fill="#1E2F39" font-family="'Trebuchet MS', Arial, sans-serif" font-size="42" font-weight="700" letter-spacing="2">PS</text>
  </g>

  <rect x="0" y="0" width="1200" height="238" fill="#223F4B" opacity="0.93"/>
  <rect x="0" y="1454" width="1200" height="346" fill="#396C7D" opacity="0.95"/>
  <text x="600" y="136" text-anchor="middle" fill="#FDF7EE" font-family="Georgia, serif" font-size="62" font-weight="700" letter-spacing="3">ROBERT CIALDINI</text>
  <text x="600" y="208" text-anchor="middle" fill="#FDF7EE" font-family="'Trebuchet MS', Arial, sans-serif" font-size="30" letter-spacing="4">COMMUNICATION</text>
  <text x="600" y="1216" text-anchor="middle" fill="#1E2F39" font-family="'Trebuchet MS', Arial, sans-serif" font-size="108" font-weight="700" letter-spacing="2">PRE SUASION</text>
  <g>
    <rect x="423" y="1466" width="172" height="42" rx="21" fill="#FDF7EE" opacity="0.18" stroke="#FDF7EE" stroke-width="2"/>
    <text x="509" y="1494" text-anchor="middle" fill="#FDF7EE" font-family="'Trebuchet MS', Arial, sans-serif" font-size="20" letter-spacing="1">PERSUASION</text>
  </g>
  <g>
    <rect x="617" y="1466" width="160" height="42" rx="21" fill="#FDF7EE" opacity="0.18" stroke="#FDF7EE" stroke-width="2"/>
    <text x="697" y="1494" text-anchor="middle" fill="#FDF7EE" font-family="'Trebuchet MS', Arial, sans-serif" font-size="20" letter-spacing="1">ATTENTION</text>
  </g>
  <text x="600" y="1538" text-anchor="middle" fill="#FDF7EE" font-family="'Trebuchet MS', Arial, sans-serif" font-size="30" letter-spacing="3">PERSUASION  ·  ATTENTION  ·  FRAMING</text>
  <text x="600" y="1604" text-anchor="middle" fill="#FDF7EE" font-family="Georgia, serif" font-size="30">Shape attention before making the ask</text>
  <text x="600" y="1668" text-anchor="middle" fill="#FDF7EE" font-family="'Trebuchet MS', Arial, sans-serif" font-size="26" letter-spacing="2">Modern Edition · Practical Lessons · Real Scenarios</text>
</svg>
