<svg width="1200" height="1800" viewBox="0 0 1200 1800" fill="none" xmlns="http://www.w3.org/2000/svg" role="img" aria-labelledby="title desc">
  <title id="title">Pre Suasion cover</title>
  <desc id="desc">Auto-generated themed cover for Pre Suasion by Robert Cialdini.</desc>
  <defs>
    <linearGradient id="g1339711597" x1="0" y1="0" x2="0" y2="1800" gradientUnits="userSpaceOnUse">
      <stop offset="0%" stop-color="#2D4A64"/>
      <stop offset="100%" stop-color="#3E6D8C"/>
    </linearGradient>
  </defs>

  <rect width="1200" height="1800" fill="url(#g1339711597)"/>

  <rect x="0" y="300" width="1200" height="1180" fill="#8DBBCB" opacity="0.1"/>
  <g stroke="#FDF8EE" opacity="0.2">
    <line x1="160" y1="320" x2="160" y2="1460" stroke-width="4"/>
    <line x1="320" y1="320" x2="320" y2="1460" stroke-width="3"/>
    <line x1="480" y1="320" x2="480" y2="1460" stroke-width="2"/>
    <line x1="640" y1="320" x2="640" y2="1460" stroke-width="3"/>
    <line x1="800" y1="320" x2="800" y2="1460" stroke-width="2"/>
    <line x1="960" y1="320" x2="960" y2="1460" stroke-width="3"/>
  </g>
  <path d="M140 430 L1060 430" stroke="#E19345" stroke-width="10" opacity="0.22"/>
  <path d="M140 1330 L1060 1330" stroke="#E19345" stroke-width="10" opacity="0.2"/>
  <rect x="116" y="304" width="968" height="1036" rx="38" fill="#F4EFE4" stroke="#CBBBA3" stroke-width="10"/>

  <g transform="translate(395 575)">
    <path d="M30 46 H270 Q304 46 304 80 V188 Q304 222 270 222 H150 L110 260 L110 222 H30 Q-4 222 -4 188 V80 Q-4 46 30 46 Z" fill="#FDF8EE" stroke="#8DBBCB" stroke-width="8"/>
    <path d="M194 142 H366 Q398 142 398 174 V280 Q398 312 366 312 H280 L244 346 V312 H194 Q162 312 162 280 V174 Q162 142 194 142 Z" fill="#E19345" opacity="0.86"/>
    <circle cx="86" cy="132" r="12" fill="#20313C"/>
    <circle cx="148" cy="132" r="12" fill="#20313C"/>
    <circle cx="210" cy="132" r="12" fill="#20313C"/>
    <rect x="214" y="222" width="132" height="14" rx="7" fill="#FDF8EE" opacity="0.92"/>
    <rect x="214" y="252" width="102" height="14" rx="7" fill="#FDF8EE" opacity="0.92"/>
  </g>

  <rect x="0" y="0" width="1200" height="238" fill="#2D4A64" opacity="0.93"/>
  <rect x="0" y="1454" width="1200" height="346" fill="#3E6D8C" opacity="0.95"/>
  <text x="600" y="136" text-anchor="middle" fill="#FDF8EE" font-family="Georgia, serif" font-size="62" font-weight="700" letter-spacing="3">ROBERT CIALDINI</text>
  <text x="600" y="208" text-anchor="middle" fill="#FDF8EE" font-family="'Trebuchet MS', Arial, sans-serif" font-size="30" letter-spacing="4">COMMUNICATION</text>
  <text x="600" y="1216" text-anchor="middle" fill="#20313C" font-family="'Trebuchet MS', Arial, sans-serif" font-size="108" font-weight="700" letter-spacing="2">PRE SUASION</text>
  <text x="600" y="1538" text-anchor="middle" fill="#FDF8EE" font-family="'Trebuchet MS', Arial, sans-serif" font-size="30" letter-spacing="3">PERSUASION  ·  ATTENTION  ·  FRAMING</text>
  <text x="600" y="1604" text-anchor="middle" fill="#FDF8EE" font-family="Georgia, serif" font-size="30">Influence, dialogue, and trust</text>
  <text x="600" y="1668" text-anchor="middle" fill="#FDF8EE" font-family="'Trebuchet MS', Arial, sans-serif" font-size="26" letter-spacing="2">Modern Edition · Practical Lessons · Real Scenarios</text>
</svg>
