<svg width="1200" height="1800" viewBox="0 0 1200 1800" fill="none" xmlns="http://www.w3.org/2000/svg" role="img" aria-labelledby="title desc">
  <title id="title">Predictably Irrational cover</title>
  <desc id="desc">Auto-generated themed cover for Predictably Irrational by Dan Ariely.</desc>
  <defs>
    <linearGradient id="g1693898631" x1="0" y1="0" x2="0" y2="1800" gradientUnits="userSpaceOnUse">
      <stop offset="0%" stop-color="#3A3E63"/>
      <stop offset="100%" stop-color="#5A5A86"/>
    </linearGradient>
  </defs>

  <rect width="1200" height="1800" fill="url(#g1693898631)"/>

  <rect x="0" y="300" width="1200" height="1180" fill="#9FA8D9" opacity="0.1"/>
  <g stroke="#FDF7EE" opacity="0.2">
    <line x1="160" y1="320" x2="160" y2="1460" stroke-width="4"/>
    <line x1="320" y1="320" x2="320" y2="1460" stroke-width="3"/>
    <line x1="480" y1="320" x2="480" y2="1460" stroke-width="2"/>
    <line x1="640" y1="320" x2="640" y2="1460" stroke-width="3"/>
    <line x1="800" y1="320" x2="800" y2="1460" stroke-width="2"/>
    <line x1="960" y1="320" x2="960" y2="1460" stroke-width="3"/>
  </g>
  <path d="M140 430 L1060 430" stroke="#D59D5A" stroke-width="10" opacity="0.22"/>
  <path d="M140 1330 L1060 1330" stroke="#D59D5A" stroke-width="10" opacity="0.2"/>
  <rect x="116" y="304" width="968" height="1036" rx="38" fill="#F2EDE3" stroke="#C8B8A7" stroke-width="10"/>

  <g transform="translate(408 572)">
    <rect x="0" y="0" width="392" height="332" rx="24" fill="#FDF7EE" stroke="#9FA8D9" stroke-width="8"/>
    <rect x="74" y="192" width="46" height="94" rx="10" fill="#D59D5A" opacity="0.84"/>
    <rect x="142" y="150" width="46" height="136" rx="10" fill="#9FA8D9" opacity="0.86"/>
    <rect x="210" y="122" width="46" height="164" rx="10" fill="#D59D5A" opacity="0.88"/>
    <circle cx="302" cy="188" r="58" fill="#24283A" opacity="0.82"/>
    <text x="302" y="206" text-anchor="middle" fill="#FDF7EE" font-family="Georgia, serif" font-size="48" font-weight="700">$</text>
  </g>

  <g transform="translate(922 332)">
    <rect x="12" y="12" width="152" height="152" rx="24" fill="#FDF7EE" stroke="#D59D5A" stroke-width="10"/>
    <path d="M30 116 L146 52" stroke="#9FA8D9" stroke-width="8" stroke-linecap="round"/>
    <path d="M30 138 L146 74" stroke="#9FA8D9" stroke-width="8" stroke-linecap="round"/>
    <text x="88" y="102" text-anchor="middle" fill="#24283A" font-family="'Trebuchet MS', Arial, sans-serif" font-size="44" font-weight="700" letter-spacing="2">PI</text>
  </g>

  <rect x="0" y="0" width="1200" height="238" fill="#3A3E63" opacity="0.93"/>
  <rect x="0" y="1454" width="1200" height="346" fill="#5A5A86" opacity="0.95"/>
  <text x="600" y="136" text-anchor="middle" fill="#FDF7EE" font-family="Georgia, serif" font-size="62" font-weight="700" letter-spacing="3">DAN ARIELY</text>
  <text x="600" y="208" text-anchor="middle" fill="#FDF7EE" font-family="'Trebuchet MS', Arial, sans-serif" font-size="30" letter-spacing="4">PSYCHOLOGY</text>
  <text x="600" y="1216" text-anchor="middle" fill="#24283A" font-family="Georgia, 'Times New Roman', serif" font-size="78" font-weight="700" letter-spacing="2">PREDICTABLY IRRATIONAL</text>
  <text x="600" y="1538" text-anchor="middle" fill="#FDF7EE" font-family="'Trebuchet MS', Arial, sans-serif" font-size="30" letter-spacing="3">BIAS  ·  CHOICE  ·  IRRATIONALITY</text>
  <text x="600" y="1604" text-anchor="middle" fill="#FDF7EE" font-family="Georgia, serif" font-size="30">Behavior, bias, and motivation</text>
  <text x="600" y="1668" text-anchor="middle" fill="#FDF7EE" font-family="'Trebuchet MS', Arial, sans-serif" font-size="26" letter-spacing="2">Modern Edition · Practical Lessons · Real Scenarios</text>
</svg>
