<svg width="1200" height="1800" viewBox="0 0 1200 1800" fill="none" xmlns="http://www.w3.org/2000/svg" role="img" aria-labelledby="title desc">
  <title id="title">Seeking Wisdom cover</title>
  <desc id="desc">Auto-generated themed cover for Seeking Wisdom by Peter Bevelin.</desc>
  <defs>
    <linearGradient id="g1757420839" x1="0" y1="0" x2="0" y2="1800" gradientUnits="userSpaceOnUse">
      <stop offset="0%" stop-color="#24314D"/>
      <stop offset="100%" stop-color="#3D5283"/>
    </linearGradient>
  </defs>

  <rect width="1200" height="1800" fill="url(#g1757420839)"/>

  <circle cx="600" cy="840" r="420" fill="#97ADD0" opacity="0.16"/>
  <circle cx="600" cy="840" r="300" fill="#FDF8EE" opacity="0.16"/>
  <circle cx="594" cy="830" r="210" fill="#E5B254" opacity="0.18"/>
  <circle cx="606" cy="850" r="130" fill="#FDF8EE" opacity="0.34"/>
  <ellipse cx="600" cy="812" rx="470" ry="382" fill="#FDF8EE" opacity="0.08"/>
  <rect x="116" y="304" width="968" height="1036" rx="38" fill="#F3EDE0" stroke="#C4B49B" stroke-width="10"/>
<g opacity="0.24" transform="translate(0 -26)">
  <g transform="translate(400 550)">
    <rect x="14" y="24" width="368" height="332" rx="24" fill="#F3EDE0" stroke="#FDF8EE" stroke-width="8"/>
    <g stroke="#97ADD0" stroke-width="8" opacity="0.86">
      <line x1="94" y1="96" x2="184" y2="140"/>
      <line x1="184" y1="140" x2="288" y2="108"/>
      <line x1="184" y1="140" x2="174" y2="242"/>
      <line x1="174" y1="242" x2="286" y2="284"/>
      <line x1="94" y1="96" x2="104" y2="228"/>
      <line x1="104" y1="228" x2="174" y2="242"/>
      <line x1="288" y1="108" x2="286" y2="284"/>
    </g>
    <g fill="#212F41">
      <circle cx="94" cy="96" r="13"/>
      <circle cx="184" cy="140" r="13"/>
      <circle cx="288" cy="108" r="13"/>
      <circle cx="104" cy="228" r="13"/>
      <circle cx="174" cy="242" r="13"/>
      <circle cx="286" cy="284" r="13"/>
    </g>
  </g></g>

  <g transform="translate(413 567)">
    <rect x="14" y="24" width="368" height="332" rx="24" fill="#FDF8EE" stroke="#97ADD0" stroke-width="8"/>
    <g stroke="#E5B254" stroke-width="8" opacity="0.86">
      <line x1="94" y1="96" x2="184" y2="140"/>
      <line x1="184" y1="140" x2="288" y2="108"/>
      <line x1="184" y1="140" x2="174" y2="242"/>
      <line x1="174" y1="242" x2="286" y2="284"/>
      <line x1="94" y1="96" x2="104" y2="228"/>
      <line x1="104" y1="228" x2="174" y2="242"/>
      <line x1="288" y1="108" x2="286" y2="284"/>
    </g>
    <g fill="#212F41">
      <circle cx="94" cy="96" r="13"/>
      <circle cx="184" cy="140" r="13"/>
      <circle cx="288" cy="108" r="13"/>
      <circle cx="104" cy="228" r="13"/>
      <circle cx="174" cy="242" r="13"/>
      <circle cx="286" cy="284" r="13"/>
    </g>
  </g>

  <g transform="translate(928 336)">
    <circle cx="84" cy="84" r="76" fill="#FDF8EE" stroke="#E5B254" stroke-width="10"/>
    <circle cx="84" cy="84" r="56" fill="#97ADD0" opacity="0.68"/>
    <text x="84" y="98" text-anchor="middle" fill="#212F41" font-family="'Trebuchet MS', Arial, sans-serif" font-size="44" font-weight="700" letter-spacing="2">SW</text>
  </g>

  <rect x="0" y="0" width="1200" height="238" fill="#24314D" opacity="0.93"/>
  <rect x="0" y="1454" width="1200" height="346" fill="#3D5283" opacity="0.95"/>
  <text x="600" y="136" text-anchor="middle" fill="#FDF8EE" font-family="Georgia, serif" font-size="62" font-weight="700" letter-spacing="3">PETER BEVELIN</text>
  <text x="600" y="208" text-anchor="middle" fill="#FDF8EE" font-family="'Trebuchet MS', Arial, sans-serif" font-size="30" letter-spacing="4">THINKING</text>
  <text x="600" y="1216" text-anchor="middle" fill="#212F41" font-family="Georgia, 'Times New Roman', serif" font-size="92" font-weight="700" letter-spacing="2">SEEKING WISDOM</text>
  <g>
    <rect x="435" y="1466" width="160" height="42" rx="21" fill="#FDF8EE" opacity="0.18" stroke="#FDF8EE" stroke-width="2"/>
    <text x="515" y="1494" text-anchor="middle" fill="#FDF8EE" font-family="'Trebuchet MS', Arial, sans-serif" font-size="20" letter-spacing="1">REASONING</text>
  </g>
  <g>
    <rect x="617" y="1466" width="148" height="42" rx="21" fill="#FDF8EE" opacity="0.18" stroke="#FDF8EE" stroke-width="2"/>
    <text x="691" y="1494" text-anchor="middle" fill="#FDF8EE" font-family="'Trebuchet MS', Arial, sans-serif" font-size="20" letter-spacing="1">JUDGMENT</text>
  </g>
  <text x="600" y="1538" text-anchor="middle" fill="#FDF8EE" font-family="'Trebuchet MS', Arial, sans-serif" font-size="30" letter-spacing="3">REASONING  ·  JUDGMENT  ·  SYSTEMS</text>
  <text x="600" y="1604" text-anchor="middle" fill="#FDF8EE" font-family="Georgia, serif" font-size="30">Timeless mental models for better judgment</text>
  <text x="600" y="1668" text-anchor="middle" fill="#FDF8EE" font-family="'Trebuchet MS', Arial, sans-serif" font-size="26" letter-spacing="2">Modern Edition · Practical Lessons · Real Scenarios</text>
</svg>
