<svg width="1200" height="1800" viewBox="0 0 1200 1800" fill="none" xmlns="http://www.w3.org/2000/svg" role="img" aria-labelledby="title desc">
  <title id="title">Seven Powers cover</title>
  <desc id="desc">Auto-generated themed cover for Seven Powers by Hamilton Helmer.</desc>
  <defs>
    <linearGradient id="g1641825426" x1="0" y1="0" x2="0" y2="1800" gradientUnits="userSpaceOnUse">
      <stop offset="0%" stop-color="#2B2A3D"/>
      <stop offset="100%" stop-color="#4A486E"/>
    </linearGradient>
  </defs>

  <rect width="1200" height="1800" fill="url(#g1641825426)"/>

  <circle cx="600" cy="840" r="420" fill="#8F90C0" opacity="0.16"/>
  <circle cx="600" cy="840" r="300" fill="#FEF8F0" opacity="0.16"/>
  <circle cx="583" cy="826" r="210" fill="#D59A43" opacity="0.18"/>
  <circle cx="617" cy="854" r="130" fill="#FEF8F0" opacity="0.34"/>
  <rect x="116" y="304" width="968" height="1036" rx="38" fill="#F2ECE1" stroke="#C7B9A3" stroke-width="10"/>

  <g transform="translate(402 553)">
    <rect x="38" y="28" width="320" height="300" rx="24" fill="#FEF8F0" stroke="#8F90C0" stroke-width="8"/>
    <path d="M86 288 L302 72" stroke="#D59A43" stroke-width="16" stroke-linecap="round"/>
    <path d="M302 288 L86 72" stroke="#8F90C0" stroke-width="16" stroke-linecap="round"/>
    <rect x="74" y="278" width="34" height="12" rx="6" fill="#232733"/>
    <rect x="292" y="278" width="34" height="12" rx="6" fill="#232733"/>
  </g>

  <rect x="0" y="0" width="1200" height="238" fill="#2B2A3D" opacity="0.93"/>
  <rect x="0" y="1454" width="1200" height="346" fill="#4A486E" opacity="0.95"/>
  <text x="600" y="136" text-anchor="middle" fill="#FEF8F0" font-family="Georgia, serif" font-size="62" font-weight="700" letter-spacing="3">HAMILTON HELMER</text>
  <text x="600" y="208" text-anchor="middle" fill="#FEF8F0" font-family="'Trebuchet MS', Arial, sans-serif" font-size="30" letter-spacing="4">STRATEGY</text>
  <text x="600" y="1216" text-anchor="middle" fill="#232733" font-family="Georgia, 'Times New Roman', serif" font-size="108" font-weight="700" letter-spacing="2">SEVEN POWERS</text>
  <text x="600" y="1538" text-anchor="middle" fill="#FEF8F0" font-family="'Trebuchet MS', Arial, sans-serif" font-size="30" letter-spacing="3">COMPETITION  ·  ADVANTAGE  ·  LEADERSHIP</text>
  <text x="600" y="1604" text-anchor="middle" fill="#FEF8F0" font-family="Georgia, serif" font-size="30">Position, timing, and leverage</text>
  <text x="600" y="1668" text-anchor="middle" fill="#FEF8F0" font-family="'Trebuchet MS', Arial, sans-serif" font-size="26" letter-spacing="2">Modern Edition · Practical Lessons · Real Scenarios</text>
</svg>
