<svg width="1200" height="1800" viewBox="0 0 1200 1800" fill="none" xmlns="http://www.w3.org/2000/svg" role="img" aria-labelledby="title desc">
  <title id="title">Smarter Faster Better cover</title>
  <desc id="desc">Auto-generated themed cover for Smarter Faster Better by Charles Duhigg.</desc>
  <defs>
    <linearGradient id="g701081538" x1="0" y1="0" x2="0" y2="1800" gradientUnits="userSpaceOnUse">
      <stop offset="0%" stop-color="#184648"/>
      <stop offset="100%" stop-color="#357777"/>
    </linearGradient>
  </defs>

  <rect width="1200" height="1800" fill="url(#g701081538)"/>

  <rect x="0" y="300" width="1200" height="1180" fill="#83C7BE" opacity="0.1"/>
  <g stroke="#FDF8EE" opacity="0.2">
    <line x1="160" y1="320" x2="160" y2="1460" stroke-width="4"/>
    <line x1="320" y1="320" x2="320" y2="1460" stroke-width="3"/>
    <line x1="480" y1="320" x2="480" y2="1460" stroke-width="2"/>
    <line x1="640" y1="320" x2="640" y2="1460" stroke-width="3"/>
    <line x1="800" y1="320" x2="800" y2="1460" stroke-width="2"/>
    <line x1="960" y1="320" x2="960" y2="1460" stroke-width="3"/>
  </g>
  <path d="M140 430 L1060 430" stroke="#E3AF5B" stroke-width="10" opacity="0.22"/>
  <path d="M140 1330 L1060 1330" stroke="#E3AF5B" stroke-width="10" opacity="0.2"/>
  <ellipse cx="600" cy="812" rx="470" ry="382" fill="#FDF8EE" opacity="0.08"/>
  <rect x="116" y="304" width="968" height="1036" rx="38" fill="#F4EEE3" stroke="#C4B59D" stroke-width="10"/>
<g opacity="0.24" transform="translate(0 -26)">
  <g transform="translate(404 561)">
    <rect x="0" y="0" width="396" height="324" rx="24" fill="#F4EEE3" stroke="#FDF8EE" stroke-width="8"/>
    <line x1="62" y1="272" x2="334" y2="272" stroke="#FDF8EE" stroke-width="10" stroke-linecap="round"/>
    <line x1="62" y1="272" x2="62" y2="74" stroke="#FDF8EE" stroke-width="10" stroke-linecap="round"/>
    <path d="M78 236 L144 210 L194 226 L248 154 L318 122" fill="none" stroke="#83C7BE" stroke-width="14" stroke-linecap="round" stroke-linejoin="round"/>
    <circle cx="318" cy="122" r="12" fill="#1D302E"/>
  </g></g>

  <g transform="translate(387 579)">
    <rect x="0" y="0" width="396" height="324" rx="24" fill="#FDF8EE" stroke="#83C7BE" stroke-width="8"/>
    <line x1="62" y1="272" x2="334" y2="272" stroke="#83C7BE" stroke-width="10" stroke-linecap="round"/>
    <line x1="62" y1="272" x2="62" y2="74" stroke="#83C7BE" stroke-width="10" stroke-linecap="round"/>
    <path d="M78 236 L144 210 L194 226 L248 154 L318 122" fill="none" stroke="#E3AF5B" stroke-width="14" stroke-linecap="round" stroke-linejoin="round"/>
    <circle cx="318" cy="122" r="12" fill="#1D302E"/>
  </g>

  <g transform="translate(928 336)">
    <circle cx="84" cy="84" r="76" fill="#FDF8EE" stroke="#E3AF5B" stroke-width="10"/>
    <circle cx="84" cy="84" r="56" fill="#83C7BE" opacity="0.68"/>
    <text x="84" y="98" text-anchor="middle" fill="#1D302E" font-family="'Trebuchet MS', Arial, sans-serif" font-size="44" font-weight="700" letter-spacing="2">SF</text>
  </g>

  <rect x="0" y="0" width="1200" height="238" fill="#184648" opacity="0.93"/>
  <rect x="0" y="1454" width="1200" height="346" fill="#357777" opacity="0.95"/>
  <text x="600" y="136" text-anchor="middle" fill="#FDF8EE" font-family="Georgia, serif" font-size="62" font-weight="700" letter-spacing="3">CHARLES DUHIGG</text>
  <text x="600" y="208" text-anchor="middle" fill="#FDF8EE" font-family="'Trebuchet MS', Arial, sans-serif" font-size="30" letter-spacing="4">PRODUCTIVITY</text>
  <text x="600" y="1216" text-anchor="middle" fill="#1D302E" font-family="'Trebuchet MS', Arial, sans-serif" font-size="78" font-weight="700" letter-spacing="2">SMARTER FASTER BETTER</text>
  <g>
    <rect x="459" y="1466" width="112" height="42" rx="21" fill="#FDF8EE" opacity="0.18" stroke="#FDF8EE" stroke-width="2"/>
    <text x="515" y="1494" text-anchor="middle" fill="#FDF8EE" font-family="'Trebuchet MS', Arial, sans-serif" font-size="20" letter-spacing="1">FOCUS</text>
  </g>
  <g>
    <rect x="593" y="1466" width="148" height="42" rx="21" fill="#FDF8EE" opacity="0.18" stroke="#FDF8EE" stroke-width="2"/>
    <text x="667" y="1494" text-anchor="middle" fill="#FDF8EE" font-family="'Trebuchet MS', Arial, sans-serif" font-size="20" letter-spacing="1">PLANNING</text>
  </g>
  <text x="600" y="1538" text-anchor="middle" fill="#FDF8EE" font-family="'Trebuchet MS', Arial, sans-serif" font-size="30" letter-spacing="3">FOCUS  ·  PLANNING  ·  SYSTEMS</text>
  <text x="600" y="1604" text-anchor="middle" fill="#FDF8EE" font-family="Georgia, serif" font-size="30">Productive teams run on clarity and focus</text>
  <text x="600" y="1668" text-anchor="middle" fill="#FDF8EE" font-family="'Trebuchet MS', Arial, sans-serif" font-size="26" letter-spacing="2">Modern Edition · Practical Lessons · Real Scenarios</text>
</svg>
