<svg width="1200" height="1800" viewBox="0 0 1200 1800" fill="none" xmlns="http://www.w3.org/2000/svg" role="img" aria-labelledby="title desc">
  <title id="title">Smarter Faster Better cover</title>
  <desc id="desc">Auto-generated themed cover for Smarter Faster Better by Charles Duhigg.</desc>
  <defs>
    <linearGradient id="g701081538" x1="0" y1="0" x2="0" y2="1800" gradientUnits="userSpaceOnUse">
      <stop offset="0%" stop-color="#205F5D"/>
      <stop offset="100%" stop-color="#3A8279"/>
    </linearGradient>
  </defs>

  <rect width="1200" height="1800" fill="url(#g701081538)"/>

  <rect x="-120" y="310" width="820" height="1100" transform="rotate(-12 400 860)" fill="#7FC5B8" opacity="0.24"/>
  <rect x="560" y="260" width="760" height="1150" transform="rotate(8 940 835)" fill="#E2A457" opacity="0.16"/>
  <circle cx="220" cy="565" r="180" fill="#E2A457" opacity="0.17"/>
  <circle cx="1010" cy="1035" r="220" fill="#7FC5B8" opacity="0.2"/>
  <rect x="116" y="304" width="968" height="1036" rx="38" fill="#F4EEE3" stroke="#C8B9A3" stroke-width="10"/>

  <g transform="translate(389 571)">
    <rect x="0" y="0" width="392" height="332" rx="24" fill="#FDF8EE" stroke="#7FC5B8" stroke-width="8"/>
    <rect x="54" y="58" width="282" height="224" rx="18" fill="#E2A457" opacity="0.16"/>
    <rect x="82" y="92" width="24" height="24" rx="6" fill="#7FC5B8" opacity="0.86"/>
    <path d="M86 104 L92 110 L104 96" fill="none" stroke="#1F3331" stroke-width="6" stroke-linecap="round" stroke-linejoin="round"/>
    <rect x="120" y="96" width="186" height="14" rx="7" fill="#E2A457" opacity="0.82"/>
    <rect x="82" y="144" width="24" height="24" rx="6" fill="#7FC5B8" opacity="0.86"/>
    <path d="M86 156 L92 162 L104 148" fill="none" stroke="#1F3331" stroke-width="6" stroke-linecap="round" stroke-linejoin="round"/>
    <rect x="120" y="148" width="164" height="14" rx="7" fill="#E2A457" opacity="0.78"/>
    <rect x="82" y="196" width="24" height="24" rx="6" fill="#7FC5B8" opacity="0.86"/>
    <path d="M86 208 L92 214 L104 200" fill="none" stroke="#1F3331" stroke-width="6" stroke-linecap="round" stroke-linejoin="round"/>
    <rect x="120" y="200" width="206" height="14" rx="7" fill="#E2A457" opacity="0.74"/>
  </g>

  <g transform="translate(928 336)">
    <circle cx="84" cy="84" r="76" fill="#FDF8EE" stroke="#E2A457" stroke-width="10"/>
    <circle cx="84" cy="84" r="56" fill="#7FC5B8" opacity="0.68"/>
    <text x="84" y="98" text-anchor="middle" fill="#1F3331" font-family="'Trebuchet MS', Arial, sans-serif" font-size="44" font-weight="700" letter-spacing="2">SF</text>
  </g>

  <rect x="0" y="0" width="1200" height="238" fill="#205F5D" opacity="0.93"/>
  <rect x="0" y="1454" width="1200" height="346" fill="#3A8279" opacity="0.95"/>
  <text x="600" y="136" text-anchor="middle" fill="#FDF8EE" font-family="Georgia, serif" font-size="62" font-weight="700" letter-spacing="3">CHARLES DUHIGG</text>
  <text x="600" y="208" text-anchor="middle" fill="#FDF8EE" font-family="'Trebuchet MS', Arial, sans-serif" font-size="30" letter-spacing="4">PRODUCTIVITY</text>
  <text x="600" y="1216" text-anchor="middle" fill="#1F3331" font-family="'Trebuchet MS', Arial, sans-serif" font-size="78" font-weight="700" letter-spacing="2">SMARTER FASTER BETTER</text>
  <text x="600" y="1538" text-anchor="middle" fill="#FDF8EE" font-family="'Trebuchet MS', Arial, sans-serif" font-size="30" letter-spacing="3">FOCUS  ·  PLANNING  ·  SYSTEMS</text>
  <text x="600" y="1604" text-anchor="middle" fill="#FDF8EE" font-family="Georgia, serif" font-size="30">Focus, habits, and execution</text>
  <text x="600" y="1668" text-anchor="middle" fill="#FDF8EE" font-family="'Trebuchet MS', Arial, sans-serif" font-size="26" letter-spacing="2">Modern Edition · Practical Lessons · Real Scenarios</text>
</svg>
