<svg width="1200" height="1800" viewBox="0 0 1200 1800" fill="none" xmlns="http://www.w3.org/2000/svg" role="img" aria-labelledby="title desc">
  <title id="title">So Good They Can&#39;t Ignore You cover</title>
  <desc id="desc">Auto-generated themed cover for So Good They Can&#39;t Ignore You by Cal Newport.</desc>
  <defs>
    <linearGradient id="g469177476" x1="0" y1="0" x2="0" y2="1800" gradientUnits="userSpaceOnUse">
      <stop offset="0%" stop-color="#395676"/>
      <stop offset="100%" stop-color="#6C88A9"/>
    </linearGradient>
  </defs>

  <rect width="1200" height="1800" fill="url(#g469177476)"/>

  <rect x="-120" y="310" width="820" height="1100" transform="rotate(-12 400 860)" fill="#A2BED9" opacity="0.24"/>
  <rect x="560" y="260" width="760" height="1150" transform="rotate(8 940 835)" fill="#DB9352" opacity="0.16"/>
  <circle cx="271" cy="568" r="180" fill="#DB9352" opacity="0.17"/>
  <circle cx="959" cy="1032" r="220" fill="#A2BED9" opacity="0.2"/>
  <ellipse cx="600" cy="812" rx="470" ry="382" fill="#FEF8EF" opacity="0.08"/>
  <rect x="116" y="304" width="968" height="1036" rx="38" fill="#F3ECE1" stroke="#C2B29D" stroke-width="10"/>
<g opacity="0.24" transform="translate(0 -26)">
  <g transform="translate(383 560)">
    <rect x="0" y="0" width="420" height="328" rx="24" fill="#F3ECE1" stroke="#FEF8EF" stroke-width="8"/>
    <path d="M56 258 C136 192 228 222 306 158" stroke="#243446" stroke-width="10" stroke-linecap="round"/>
    <rect x="82" y="98" width="250" height="26" rx="13" fill="#FEF8EF" opacity="0.55"/>
    <rect x="82" y="132" width="212" height="26" rx="13" fill="#A2BED9" opacity="0.45"/>
    <g transform="translate(294 214) rotate(-18)">
      <rect x="0" y="0" width="88" height="22" rx="10" fill="#A2BED9" opacity="0.9"/>
      <polygon points="88,11 108,0 108,22" fill="#243446"/>
      <polygon points="108,0 118,11 108,22" fill="#F3ECE1"/>
    </g>
  </g></g>

  <g transform="translate(396 577)">
    <rect x="0" y="0" width="420" height="328" rx="24" fill="#FEF8EF" stroke="#A2BED9" stroke-width="8"/>
    <path d="M56 258 C136 192 228 222 306 158" stroke="#243446" stroke-width="10" stroke-linecap="round"/>
    <rect x="82" y="98" width="250" height="26" rx="13" fill="#A2BED9" opacity="0.55"/>
    <rect x="82" y="132" width="212" height="26" rx="13" fill="#DB9352" opacity="0.45"/>
    <g transform="translate(294 214) rotate(-18)">
      <rect x="0" y="0" width="88" height="22" rx="10" fill="#DB9352" opacity="0.9"/>
      <polygon points="88,11 108,0 108,22" fill="#243446"/>
      <polygon points="108,0 118,11 108,22" fill="#FEF8EF"/>
    </g>
  </g>

  <g transform="translate(930 336)">
    <path d="M82 8 L152 34 V90 C152 142 120 174 82 190 C44 174 12 142 12 90 V34 Z" fill="#FEF8EF" stroke="#DB9352" stroke-width="10"/>
    <rect x="30" y="64" width="104" height="64" rx="20" fill="#A2BED9" opacity="0.72"/>
    <text x="82" y="106" text-anchor="middle" fill="#243446" font-family="'Trebuchet MS', Arial, sans-serif" font-size="40" font-weight="700" letter-spacing="2">SG</text>
  </g>

  <rect x="0" y="0" width="1200" height="238" fill="#395676" opacity="0.93"/>
  <rect x="0" y="1454" width="1200" height="346" fill="#6C88A9" opacity="0.95"/>
  <text x="600" y="136" text-anchor="middle" fill="#FEF8EF" font-family="Georgia, serif" font-size="62" font-weight="700" letter-spacing="3">CAL NEWPORT</text>
  <text x="600" y="208" text-anchor="middle" fill="#FEF8EF" font-family="'Trebuchet MS', Arial, sans-serif" font-size="30" letter-spacing="4">LEARNING</text>
  <text x="600" y="1114" text-anchor="middle" fill="#243446" font-family="'Trebuchet MS', Arial, sans-serif" font-size="108" font-weight="700" letter-spacing="2">SO GOOD</text>
  <text x="600" y="1231" text-anchor="middle" fill="#243446" font-family="'Trebuchet MS', Arial, sans-serif" font-size="108" font-weight="700" letter-spacing="2">THEY CAN&#39;T</text>
  <text x="600" y="1348" text-anchor="middle" fill="#243446" font-family="'Trebuchet MS', Arial, sans-serif" font-size="108" font-weight="700" letter-spacing="2">IGNORE YOU</text>
  <g>
    <rect x="375" y="1466" width="220" height="42" rx="21" fill="#FEF8EF" opacity="0.18" stroke="#FEF8EF" stroke-width="2"/>
    <text x="485" y="1494" text-anchor="middle" fill="#FEF8EF" font-family="'Trebuchet MS', Arial, sans-serif" font-size="20" letter-spacing="1">CAREER CAPITAL</text>
  </g>
  <g>
    <rect x="617" y="1466" width="208" height="42" rx="21" fill="#FEF8EF" opacity="0.18" stroke="#FEF8EF" stroke-width="2"/>
    <text x="721" y="1494" text-anchor="middle" fill="#FEF8EF" font-family="'Trebuchet MS', Arial, sans-serif" font-size="20" letter-spacing="1">CRAFTSMANSHIP</text>
  </g>
  <text x="600" y="1538" text-anchor="middle" fill="#FEF8EF" font-family="'Trebuchet MS', Arial, sans-serif" font-size="30" letter-spacing="3">CAREER CAPITAL  ·  CRAFTSMANSHIP  ·  CONTROL</text>
  <text x="600" y="1604" text-anchor="middle" fill="#FEF8EF" font-family="Georgia, serif" font-size="30">Career capital before passion myths</text>
  <text x="600" y="1668" text-anchor="middle" fill="#FEF8EF" font-family="'Trebuchet MS', Arial, sans-serif" font-size="26" letter-spacing="2">Modern Edition · Practical Lessons · Real Scenarios</text>
</svg>
