<svg width="1200" height="1800" viewBox="0 0 1200 1800" fill="none" xmlns="http://www.w3.org/2000/svg" role="img" aria-labelledby="title desc">
  <title id="title">So Good They Can&#39;t Ignore You cover</title>
  <desc id="desc">Auto-generated themed cover for So Good They Can&#39;t Ignore You by Cal Newport.</desc>
  <defs>
    <linearGradient id="g469177476" x1="0" y1="0" x2="0" y2="1800" gradientUnits="userSpaceOnUse">
      <stop offset="0%" stop-color="#314C74"/>
      <stop offset="100%" stop-color="#5578A6"/>
    </linearGradient>
  </defs>

  <rect width="1200" height="1800" fill="url(#g469177476)"/>

  <rect x="0" y="300" width="1200" height="1180" fill="#9CB9DA" opacity="0.12"/>
  <rect x="110" y="370" width="420" height="420" rx="42" fill="#FEF8EF" opacity="0.2"/>
  <rect x="670" y="360" width="420" height="430" rx="42" fill="#DE9A4A" opacity="0.16"/>
  <rect x="110" y="980" width="420" height="360" rx="42" fill="#DE9A4A" opacity="0.15"/>
  <rect x="670" y="950" width="420" height="390" rx="42" fill="#FEF8EF" opacity="0.2"/>
  <rect x="116" y="304" width="968" height="1036" rx="38" fill="#F3ECE1" stroke="#C8B8A2" stroke-width="10"/>

  <g transform="translate(410 559)">
    <rect x="38" y="28" width="320" height="300" rx="24" fill="#FEF8EF" stroke="#9CB9DA" stroke-width="8"/>
    <path d="M86 288 L302 72" stroke="#DE9A4A" stroke-width="16" stroke-linecap="round"/>
    <path d="M302 288 L86 72" stroke="#9CB9DA" stroke-width="16" stroke-linecap="round"/>
    <rect x="74" y="278" width="34" height="12" rx="6" fill="#25364A"/>
    <rect x="292" y="278" width="34" height="12" rx="6" fill="#25364A"/>
  </g>

  <rect x="0" y="0" width="1200" height="238" fill="#314C74" opacity="0.93"/>
  <rect x="0" y="1454" width="1200" height="346" fill="#5578A6" opacity="0.95"/>
  <text x="600" y="136" text-anchor="middle" fill="#FEF8EF" font-family="Georgia, serif" font-size="62" font-weight="700" letter-spacing="3">CAL NEWPORT</text>
  <text x="600" y="208" text-anchor="middle" fill="#FEF8EF" font-family="'Trebuchet MS', Arial, sans-serif" font-size="30" letter-spacing="4">LEARNING</text>
  <text x="600" y="1114" text-anchor="middle" fill="#25364A" font-family="'Trebuchet MS', Arial, sans-serif" font-size="108" font-weight="700" letter-spacing="2">SO GOOD</text>
  <text x="600" y="1231" text-anchor="middle" fill="#25364A" font-family="'Trebuchet MS', Arial, sans-serif" font-size="108" font-weight="700" letter-spacing="2">THEY CAN&#39;T</text>
  <text x="600" y="1348" text-anchor="middle" fill="#25364A" font-family="'Trebuchet MS', Arial, sans-serif" font-size="108" font-weight="700" letter-spacing="2">IGNORE YOU</text>
  <text x="600" y="1538" text-anchor="middle" fill="#FEF8EF" font-family="'Trebuchet MS', Arial, sans-serif" font-size="30" letter-spacing="3">CAREER CAPITAL  ·  CRAFTSMANSHIP  ·  CONTROL</text>
  <text x="600" y="1604" text-anchor="middle" fill="#FEF8EF" font-family="Georgia, serif" font-size="30">Practice and skill building</text>
  <text x="600" y="1668" text-anchor="middle" fill="#FEF8EF" font-family="'Trebuchet MS', Arial, sans-serif" font-size="26" letter-spacing="2">Modern Edition · Practical Lessons · Real Scenarios</text>
</svg>
