<svg width="1200" height="1800" viewBox="0 0 1200 1800" fill="none" xmlns="http://www.w3.org/2000/svg" role="img" aria-labelledby="title desc">
  <title id="title">Start With Why cover</title>
  <desc id="desc">Auto-generated themed cover for Start With Why by Simon Sinek.</desc>
  <defs>
    <linearGradient id="g854027238" x1="0" y1="0" x2="0" y2="1800" gradientUnits="userSpaceOnUse">
      <stop offset="0%" stop-color="#8A1E1E"/>
      <stop offset="100%" stop-color="#B73535"/>
    </linearGradient>
  </defs>

  <rect width="1200" height="1800" fill="url(#g854027238)"/>

  <rect x="0" y="300" width="1200" height="1180" fill="#CB7474" opacity="0.1"/>
  <g fill="#FFF8F0" opacity="0.19">
    <circle cx="210" cy="560" r="124"/>
    <circle cx="1020" cy="640" r="110"/>
    <circle cx="920" cy="1220" r="132"/>
    <circle cx="230" cy="1190" r="96"/>
  </g>
  <path d="M70 730 Q300 604 600 740 T1130 760" stroke="#F1C15F" stroke-width="20" opacity="0.2"/>
  <path d="M70 960 Q320 1094 600 940 T1130 920" stroke="#FFF8F0" stroke-width="16" opacity="0.24"/>
  <ellipse cx="600" cy="812" rx="470" ry="382" fill="#FFF8F0" opacity="0.08"/>
  <rect x="116" y="304" width="968" height="1036" rx="38" fill="#F9EFE5" stroke="#D2B8A1" stroke-width="10"/>
<g opacity="0.24" transform="translate(0 -26)">
  <g transform="translate(403 547)">
    <circle cx="196" cy="186" r="152" fill="#F9EFE5" opacity="0.95" stroke="#FFF8F0" stroke-width="8"/>
    <circle cx="196" cy="186" r="104" fill="none" stroke="#CB7474" stroke-width="16"/>
    <circle cx="196" cy="186" r="62" fill="none" stroke="#FFF8F0" stroke-width="14"/>
    <circle cx="196" cy="186" r="24" fill="#2D1A15"/>
  </g></g>

  <g transform="translate(416 564)">
    <circle cx="196" cy="186" r="152" fill="#FFF8F0" opacity="0.95" stroke="#CB7474" stroke-width="8"/>
    <circle cx="196" cy="186" r="104" fill="none" stroke="#F1C15F" stroke-width="16"/>
    <circle cx="196" cy="186" r="62" fill="none" stroke="#CB7474" stroke-width="14"/>
    <circle cx="196" cy="186" r="24" fill="#2D1A15"/>
  </g>

  <g transform="translate(930 336)">
    <path d="M82 8 L152 34 V90 C152 142 120 174 82 190 C44 174 12 142 12 90 V34 Z" fill="#FFF8F0" stroke="#F1C15F" stroke-width="10"/>
    <rect x="30" y="64" width="104" height="64" rx="20" fill="#CB7474" opacity="0.72"/>
    <text x="82" y="106" text-anchor="middle" fill="#2D1A15" font-family="'Trebuchet MS', Arial, sans-serif" font-size="40" font-weight="700" letter-spacing="2">SW</text>
  </g>

  <rect x="0" y="0" width="1200" height="238" fill="#8A1E1E" opacity="0.93"/>
  <rect x="0" y="1454" width="1200" height="346" fill="#B73535" opacity="0.95"/>
  <text x="600" y="136" text-anchor="middle" fill="#FFF8F0" font-family="Georgia, serif" font-size="62" font-weight="700" letter-spacing="3">SIMON SINEK</text>
  <text x="600" y="208" text-anchor="middle" fill="#FFF8F0" font-family="'Trebuchet MS', Arial, sans-serif" font-size="30" letter-spacing="4">LEADERSHIP</text>
  <text x="600" y="1216" text-anchor="middle" fill="#2D1A15" font-family="Georgia, 'Times New Roman', serif" font-size="92" font-weight="700" letter-spacing="2">START WITH WHY</text>
  <g>
    <rect x="435" y="1466" width="136" height="42" rx="21" fill="#FFF8F0" opacity="0.18" stroke="#FFF8F0" stroke-width="2"/>
    <text x="503" y="1494" text-anchor="middle" fill="#FFF8F0" font-family="'Trebuchet MS', Arial, sans-serif" font-size="20" letter-spacing="1">PURPOSE</text>
  </g>
  <g>
    <rect x="593" y="1466" width="172" height="42" rx="21" fill="#FFF8F0" opacity="0.18" stroke="#FFF8F0" stroke-width="2"/>
    <text x="679" y="1494" text-anchor="middle" fill="#FFF8F0" font-family="'Trebuchet MS', Arial, sans-serif" font-size="20" letter-spacing="1">LEADERSHIP</text>
  </g>
  <text x="600" y="1538" text-anchor="middle" fill="#FFF8F0" font-family="'Trebuchet MS', Arial, sans-serif" font-size="30" letter-spacing="3">PURPOSE  ·  LEADERSHIP  ·  STRATEGY</text>
  <text x="600" y="1604" text-anchor="middle" fill="#FFF8F0" font-family="Georgia, serif" font-size="30">Purpose aligns action and followership</text>
  <text x="600" y="1668" text-anchor="middle" fill="#FFF8F0" font-family="'Trebuchet MS', Arial, sans-serif" font-size="26" letter-spacing="2">Modern Edition · Practical Lessons · Real Scenarios</text>
</svg>
