<svg width="1200" height="1800" viewBox="0 0 1200 1800" fill="none" xmlns="http://www.w3.org/2000/svg" role="img" aria-labelledby="title desc">
  <title id="title">Start With Why cover</title>
  <desc id="desc">Auto-generated themed cover for Start With Why by Simon Sinek.</desc>
  <defs>
    <linearGradient id="g854027238" x1="0" y1="0" x2="0" y2="1800" gradientUnits="userSpaceOnUse">
      <stop offset="0%" stop-color="#8A1E1E"/>
      <stop offset="100%" stop-color="#B73535"/>
    </linearGradient>
  </defs>

  <rect width="1200" height="1800" fill="url(#g854027238)"/>

  <rect x="0" y="300" width="1200" height="1180" fill="#CB7474" opacity="0.1"/>
  <g stroke="#FFF8F0" opacity="0.2">
    <line x1="160" y1="320" x2="160" y2="1460" stroke-width="4"/>
    <line x1="320" y1="320" x2="320" y2="1460" stroke-width="3"/>
    <line x1="480" y1="320" x2="480" y2="1460" stroke-width="2"/>
    <line x1="640" y1="320" x2="640" y2="1460" stroke-width="3"/>
    <line x1="800" y1="320" x2="800" y2="1460" stroke-width="2"/>
    <line x1="960" y1="320" x2="960" y2="1460" stroke-width="3"/>
  </g>
  <path d="M140 430 L1060 430" stroke="#F1C15F" stroke-width="10" opacity="0.22"/>
  <path d="M140 1330 L1060 1330" stroke="#F1C15F" stroke-width="10" opacity="0.2"/>
  <rect x="116" y="304" width="968" height="1036" rx="38" fill="#F9EFE5" stroke="#D2B8A1" stroke-width="10"/>

  <g transform="translate(416 564)">
    <circle cx="196" cy="186" r="152" fill="#FFF8F0" opacity="0.95" stroke="#CB7474" stroke-width="8"/>
    <circle cx="196" cy="186" r="104" fill="none" stroke="#F1C15F" stroke-width="16"/>
    <circle cx="196" cy="186" r="62" fill="none" stroke="#CB7474" stroke-width="14"/>
    <circle cx="196" cy="186" r="24" fill="#2D1A15"/>
  </g>

  <rect x="0" y="0" width="1200" height="238" fill="#8A1E1E" opacity="0.93"/>
  <rect x="0" y="1454" width="1200" height="346" fill="#B73535" opacity="0.95"/>
  <text x="600" y="136" text-anchor="middle" fill="#FFF8F0" font-family="Georgia, serif" font-size="62" font-weight="700" letter-spacing="3">SIMON SINEK</text>
  <text x="600" y="208" text-anchor="middle" fill="#FFF8F0" font-family="'Trebuchet MS', Arial, sans-serif" font-size="30" letter-spacing="4">LEADERSHIP</text>
  <text x="600" y="1216" text-anchor="middle" fill="#2D1A15" font-family="Georgia, 'Times New Roman', serif" font-size="92" font-weight="700" letter-spacing="2">START WITH WHY</text>
  <text x="600" y="1538" text-anchor="middle" fill="#FFF8F0" font-family="'Trebuchet MS', Arial, sans-serif" font-size="30" letter-spacing="3">PURPOSE  ·  LEADERSHIP  ·  STRATEGY</text>
  <text x="600" y="1604" text-anchor="middle" fill="#FFF8F0" font-family="Georgia, serif" font-size="30">Purpose first, then action and execution</text>
  <text x="600" y="1668" text-anchor="middle" fill="#FFF8F0" font-family="'Trebuchet MS', Arial, sans-serif" font-size="26" letter-spacing="2">Modern Edition · Practical Lessons · Real Scenarios</text>
</svg>
