<svg width="1200" height="1800" viewBox="0 0 1200 1800" fill="none" xmlns="http://www.w3.org/2000/svg" role="img" aria-labelledby="title desc">
  <title id="title">Super Thinking cover</title>
  <desc id="desc">Auto-generated themed cover for Super Thinking by Gabriel Weinberg and Lauren McCann.</desc>
  <defs>
    <linearGradient id="g1722568539" x1="0" y1="0" x2="0" y2="1800" gradientUnits="userSpaceOnUse">
      <stop offset="0%" stop-color="#233253"/>
      <stop offset="100%" stop-color="#3B538A"/>
    </linearGradient>
  </defs>

  <rect width="1200" height="1800" fill="url(#g1722568539)"/>

  <rect x="0" y="300" width="1200" height="1180" fill="#95ADD1" opacity="0.1"/>
  <g fill="#FDF8EE" opacity="0.19">
    <circle cx="210" cy="560" r="124"/>
    <circle cx="1020" cy="640" r="110"/>
    <circle cx="920" cy="1220" r="132"/>
    <circle cx="230" cy="1190" r="96"/>
  </g>
  <path d="M70 730 Q300 566 600 740 T1130 760" stroke="#E7B352" stroke-width="20" opacity="0.2"/>
  <path d="M70 960 Q320 1056 600 940 T1130 920" stroke="#FDF8EE" stroke-width="16" opacity="0.24"/>
  <ellipse cx="600" cy="812" rx="470" ry="382" fill="#FDF8EE" opacity="0.08"/>
  <rect x="116" y="304" width="968" height="1036" rx="38" fill="#F3EDE0" stroke="#C6B499" stroke-width="10"/>
<g opacity="0.24" transform="translate(0 -26)">
  <g transform="translate(396 564)">
    <rect x="14" y="24" width="368" height="332" rx="24" fill="#F3EDE0" stroke="#FDF8EE" stroke-width="8"/>
    <g stroke="#95ADD1" stroke-width="8" opacity="0.86">
      <line x1="94" y1="96" x2="184" y2="140"/>
      <line x1="184" y1="140" x2="288" y2="108"/>
      <line x1="184" y1="140" x2="174" y2="242"/>
      <line x1="174" y1="242" x2="286" y2="284"/>
      <line x1="94" y1="96" x2="104" y2="228"/>
      <line x1="104" y1="228" x2="174" y2="242"/>
      <line x1="288" y1="108" x2="286" y2="284"/>
    </g>
    <g fill="#212F41">
      <circle cx="94" cy="96" r="13"/>
      <circle cx="184" cy="140" r="13"/>
      <circle cx="288" cy="108" r="13"/>
      <circle cx="104" cy="228" r="13"/>
      <circle cx="174" cy="242" r="13"/>
      <circle cx="286" cy="284" r="13"/>
    </g>
  </g></g>

  <g transform="translate(409 555)">
    <rect x="14" y="24" width="368" height="332" rx="24" fill="#FDF8EE" stroke="#95ADD1" stroke-width="8"/>
    <g stroke="#E7B352" stroke-width="8" opacity="0.86">
      <line x1="94" y1="96" x2="184" y2="140"/>
      <line x1="184" y1="140" x2="288" y2="108"/>
      <line x1="184" y1="140" x2="174" y2="242"/>
      <line x1="174" y1="242" x2="286" y2="284"/>
      <line x1="94" y1="96" x2="104" y2="228"/>
      <line x1="104" y1="228" x2="174" y2="242"/>
      <line x1="288" y1="108" x2="286" y2="284"/>
    </g>
    <g fill="#212F41">
      <circle cx="94" cy="96" r="13"/>
      <circle cx="184" cy="140" r="13"/>
      <circle cx="288" cy="108" r="13"/>
      <circle cx="104" cy="228" r="13"/>
      <circle cx="174" cy="242" r="13"/>
      <circle cx="286" cy="284" r="13"/>
    </g>
  </g>

  <g transform="translate(926 334)">
    <polygon points="88,8 162,52 162,136 88,180 14,136 14,52" fill="#FDF8EE" stroke="#E7B352" stroke-width="10"/>
    <circle cx="88" cy="94" r="44" fill="#95ADD1" opacity="0.7"/>
    <text x="88" y="108" text-anchor="middle" fill="#212F41" font-family="'Trebuchet MS', Arial, sans-serif" font-size="42" font-weight="700" letter-spacing="2">ST</text>
  </g>

  <rect x="0" y="0" width="1200" height="238" fill="#233253" opacity="0.93"/>
  <rect x="0" y="1454" width="1200" height="346" fill="#3B538A" opacity="0.95"/>
  <text x="600" y="136" text-anchor="middle" fill="#FDF8EE" font-family="Georgia, serif" font-size="62" font-weight="700" letter-spacing="3">GABRIEL WEINBERG AND LAUREN MCCANN</text>
  <text x="600" y="208" text-anchor="middle" fill="#FDF8EE" font-family="'Trebuchet MS', Arial, sans-serif" font-size="30" letter-spacing="4">THINKING</text>
  <text x="600" y="1216" text-anchor="middle" fill="#212F41" font-family="Georgia, 'Times New Roman', serif" font-size="92" font-weight="700" letter-spacing="2">SUPER THINKING</text>
  <g>
    <rect x="435" y="1466" width="160" height="42" rx="21" fill="#FDF8EE" opacity="0.18" stroke="#FDF8EE" stroke-width="2"/>
    <text x="515" y="1494" text-anchor="middle" fill="#FDF8EE" font-family="'Trebuchet MS', Arial, sans-serif" font-size="20" letter-spacing="1">REASONING</text>
  </g>
  <g>
    <rect x="617" y="1466" width="148" height="42" rx="21" fill="#FDF8EE" opacity="0.18" stroke="#FDF8EE" stroke-width="2"/>
    <text x="691" y="1494" text-anchor="middle" fill="#FDF8EE" font-family="'Trebuchet MS', Arial, sans-serif" font-size="20" letter-spacing="1">JUDGMENT</text>
  </g>
  <text x="600" y="1538" text-anchor="middle" fill="#FDF8EE" font-family="'Trebuchet MS', Arial, sans-serif" font-size="30" letter-spacing="3">REASONING  ·  JUDGMENT  ·  SYSTEMS</text>
  <text x="600" y="1604" text-anchor="middle" fill="#FDF8EE" font-family="Georgia, serif" font-size="30">Use mental models to simplify complexity</text>
  <text x="600" y="1668" text-anchor="middle" fill="#FDF8EE" font-family="'Trebuchet MS', Arial, sans-serif" font-size="26" letter-spacing="2">Modern Edition · Practical Lessons · Real Scenarios</text>
</svg>
