<svg width="1200" height="1800" viewBox="0 0 1200 1800" fill="none" xmlns="http://www.w3.org/2000/svg" role="img" aria-labelledby="title desc">
  <title id="title">Super Thinking cover</title>
  <desc id="desc">Auto-generated themed cover for Super Thinking by Gabriel Weinberg and Lauren McCann.</desc>
  <defs>
    <linearGradient id="g1722568539" x1="0" y1="0" x2="0" y2="1800" gradientUnits="userSpaceOnUse">
      <stop offset="0%" stop-color="#2A3F5B"/>
      <stop offset="100%" stop-color="#3F5F86"/>
    </linearGradient>
  </defs>

  <rect width="1200" height="1800" fill="url(#g1722568539)"/>

  <circle cx="600" cy="840" r="420" fill="#93B0CE" opacity="0.16"/>
  <circle cx="600" cy="840" r="300" fill="#FDF8EE" opacity="0.16"/>
  <circle cx="620" cy="816" r="210" fill="#E4A150" opacity="0.18"/>
  <circle cx="580" cy="864" r="130" fill="#FDF8EE" opacity="0.34"/>
  <rect x="116" y="304" width="968" height="1036" rx="38" fill="#F3ECE0" stroke="#C8B7A1" stroke-width="10"/>

  <g transform="translate(395 559)">
    <rect x="0" y="0" width="420" height="328" rx="24" fill="#FDF8EE" stroke="#93B0CE" stroke-width="8"/>
    <path d="M56 258 C136 192 228 222 306 158" stroke="#233244" stroke-width="10" stroke-linecap="round"/>
    <rect x="82" y="98" width="250" height="26" rx="13" fill="#93B0CE" opacity="0.55"/>
    <rect x="82" y="132" width="212" height="26" rx="13" fill="#E4A150" opacity="0.45"/>
    <g transform="translate(294 214) rotate(-18)">
      <rect x="0" y="0" width="88" height="22" rx="10" fill="#E4A150" opacity="0.9"/>
      <polygon points="88,11 108,0 108,22" fill="#233244"/>
      <polygon points="108,0 118,11 108,22" fill="#FDF8EE"/>
    </g>
  </g>

  <g transform="translate(926 334)">
    <polygon points="88,8 162,52 162,136 88,180 14,136 14,52" fill="#FDF8EE" stroke="#E4A150" stroke-width="10"/>
    <circle cx="88" cy="94" r="44" fill="#93B0CE" opacity="0.7"/>
    <text x="88" y="108" text-anchor="middle" fill="#233244" font-family="'Trebuchet MS', Arial, sans-serif" font-size="42" font-weight="700" letter-spacing="2">ST</text>
  </g>

  <rect x="0" y="0" width="1200" height="238" fill="#2A3F5B" opacity="0.93"/>
  <rect x="0" y="1454" width="1200" height="346" fill="#3F5F86" opacity="0.95"/>
  <text x="600" y="136" text-anchor="middle" fill="#FDF8EE" font-family="Georgia, serif" font-size="62" font-weight="700" letter-spacing="3">GABRIEL WEINBERG AND LAUREN MCCANN</text>
  <text x="600" y="208" text-anchor="middle" fill="#FDF8EE" font-family="'Trebuchet MS', Arial, sans-serif" font-size="30" letter-spacing="4">THINKING</text>
  <text x="600" y="1216" text-anchor="middle" fill="#233244" font-family="Georgia, 'Times New Roman', serif" font-size="92" font-weight="700" letter-spacing="2">SUPER THINKING</text>
  <text x="600" y="1538" text-anchor="middle" fill="#FDF8EE" font-family="'Trebuchet MS', Arial, sans-serif" font-size="30" letter-spacing="3">REASONING  ·  JUDGMENT  ·  SYSTEMS</text>
  <text x="600" y="1604" text-anchor="middle" fill="#FDF8EE" font-family="Georgia, serif" font-size="30">Mental models and judgment</text>
  <text x="600" y="1668" text-anchor="middle" fill="#FDF8EE" font-family="'Trebuchet MS', Arial, sans-serif" font-size="26" letter-spacing="2">Modern Edition · Practical Lessons · Real Scenarios</text>
</svg>
