<svg width="1200" height="1800" viewBox="0 0 1200 1800" fill="none" xmlns="http://www.w3.org/2000/svg" role="img" aria-labelledby="title desc">
  <title id="title">Talk Like TED cover</title>
  <desc id="desc">Auto-generated themed cover for Talk Like TED by Carmine Gallo.</desc>
  <defs>
    <linearGradient id="g1493071143" x1="0" y1="0" x2="0" y2="1800" gradientUnits="userSpaceOnUse">
      <stop offset="0%" stop-color="#2D4A64"/>
      <stop offset="100%" stop-color="#3E6D8C"/>
    </linearGradient>
  </defs>

  <rect width="1200" height="1800" fill="url(#g1493071143)"/>

  <rect x="-120" y="310" width="820" height="1100" transform="rotate(-12 400 860)" fill="#8DBBCB" opacity="0.24"/>
  <rect x="560" y="260" width="760" height="1150" transform="rotate(8 940 835)" fill="#E19345" opacity="0.16"/>
  <circle cx="234" cy="544" r="180" fill="#E19345" opacity="0.17"/>
  <circle cx="996" cy="1056" r="220" fill="#8DBBCB" opacity="0.2"/>
  <rect x="116" y="304" width="968" height="1036" rx="38" fill="#F4EFE4" stroke="#CBBBA3" stroke-width="10"/>

  <g transform="translate(425 564)">
    <rect x="96" y="18" width="146" height="186" rx="72" fill="#E19345" opacity="0.9"/>
    <rect x="116" y="42" width="106" height="138" rx="52" fill="#FDF8EE" opacity="0.9"/>
    <path d="M64 174 Q64 248 132 268 H206 Q274 248 274 174" fill="none" stroke="#20313C" stroke-width="12" stroke-linecap="round"/>
    <rect x="164" y="264" width="16" height="68" rx="8" fill="#20313C"/>
    <rect x="122" y="330" width="100" height="16" rx="8" fill="#20313C"/>
  </g>

  <rect x="0" y="0" width="1200" height="238" fill="#2D4A64" opacity="0.93"/>
  <rect x="0" y="1454" width="1200" height="346" fill="#3E6D8C" opacity="0.95"/>
  <text x="600" y="136" text-anchor="middle" fill="#FDF8EE" font-family="Georgia, serif" font-size="62" font-weight="700" letter-spacing="3">CARMINE GALLO</text>
  <text x="600" y="208" text-anchor="middle" fill="#FDF8EE" font-family="'Trebuchet MS', Arial, sans-serif" font-size="30" letter-spacing="4">COMMUNICATION</text>
  <text x="600" y="1216" text-anchor="middle" fill="#20313C" font-family="'Trebuchet MS', Arial, sans-serif" font-size="92" font-weight="700" letter-spacing="2">TALK LIKE TED</text>
  <text x="600" y="1538" text-anchor="middle" fill="#FDF8EE" font-family="'Trebuchet MS', Arial, sans-serif" font-size="30" letter-spacing="3">SPEAKING  ·  PRESENTATION  ·  STORYTELLING</text>
  <text x="600" y="1604" text-anchor="middle" fill="#FDF8EE" font-family="Georgia, serif" font-size="30">Stories and delivery that move people</text>
  <text x="600" y="1668" text-anchor="middle" fill="#FDF8EE" font-family="'Trebuchet MS', Arial, sans-serif" font-size="26" letter-spacing="2">Modern Edition · Practical Lessons · Real Scenarios</text>
</svg>
