<svg width="1200" height="1800" viewBox="0 0 1200 1800" fill="none" xmlns="http://www.w3.org/2000/svg" role="img" aria-labelledby="title desc">
  <title id="title">The Millionaire Fastlane cover</title>
  <desc id="desc">Auto-generated themed cover for The Millionaire Fastlane by MJ DeMarco.</desc>
  <defs>
    <linearGradient id="g1732704119" x1="0" y1="0" x2="0" y2="1800" gradientUnits="userSpaceOnUse">
      <stop offset="0%" stop-color="#213F2C"/>
      <stop offset="100%" stop-color="#3C7452"/>
    </linearGradient>
  </defs>

  <rect width="1200" height="1800" fill="url(#g1732704119)"/>

  <circle cx="600" cy="840" r="420" fill="#98C3A6" opacity="0.16"/>
  <circle cx="600" cy="840" r="300" fill="#FCF8EF" opacity="0.16"/>
  <circle cx="592" cy="815" r="210" fill="#E09544" opacity="0.18"/>
  <circle cx="608" cy="865" r="130" fill="#FCF8EF" opacity="0.34"/>
  <ellipse cx="600" cy="812" rx="470" ry="382" fill="#FCF8EF" opacity="0.08"/>
  <rect x="116" y="304" width="968" height="1036" rx="38" fill="#F2EEE3" stroke="#C2B39E" stroke-width="10"/>
<g opacity="0.24" transform="translate(0 -26)">
  <g transform="translate(396 570)">
    <rect x="0" y="0" width="396" height="324" rx="24" fill="#F2EEE3" stroke="#FCF8EF" stroke-width="8"/>
    <line x1="62" y1="272" x2="334" y2="272" stroke="#FCF8EF" stroke-width="10" stroke-linecap="round"/>
    <line x1="62" y1="272" x2="62" y2="74" stroke="#FCF8EF" stroke-width="10" stroke-linecap="round"/>
    <path d="M78 236 L144 210 L194 226 L248 154 L318 122" fill="none" stroke="#98C3A6" stroke-width="14" stroke-linecap="round" stroke-linejoin="round"/>
    <circle cx="318" cy="122" r="12" fill="#1E3027"/>
  </g></g>

  <g transform="translate(409 562)">
    <rect x="0" y="0" width="396" height="324" rx="24" fill="#FCF8EF" stroke="#98C3A6" stroke-width="8"/>
    <line x1="62" y1="272" x2="334" y2="272" stroke="#98C3A6" stroke-width="10" stroke-linecap="round"/>
    <line x1="62" y1="272" x2="62" y2="74" stroke="#98C3A6" stroke-width="10" stroke-linecap="round"/>
    <path d="M78 236 L144 210 L194 226 L248 154 L318 122" fill="none" stroke="#E09544" stroke-width="14" stroke-linecap="round" stroke-linejoin="round"/>
    <circle cx="318" cy="122" r="12" fill="#1E3027"/>
  </g>

  <g transform="translate(924 332)">
    <rect x="24" y="14" width="128" height="156" rx="64" fill="#FCF8EF" stroke="#E09544" stroke-width="10"/>
    <path d="M44 54 H132" stroke="#98C3A6" stroke-width="10" stroke-linecap="round"/>
    <path d="M44 80 H132" stroke="#98C3A6" stroke-width="10" stroke-linecap="round"/>
    <text x="88" y="128" text-anchor="middle" fill="#1E3027" font-family="'Trebuchet MS', Arial, sans-serif" font-size="42" font-weight="700" letter-spacing="2">MF</text>
  </g>

  <rect x="0" y="0" width="1200" height="238" fill="#213F2C" opacity="0.93"/>
  <rect x="0" y="1454" width="1200" height="346" fill="#3C7452" opacity="0.95"/>
  <text x="600" y="136" text-anchor="middle" fill="#FCF8EF" font-family="Georgia, serif" font-size="62" font-weight="700" letter-spacing="3">MJ DEMARCO</text>
  <text x="600" y="208" text-anchor="middle" fill="#FCF8EF" font-family="'Trebuchet MS', Arial, sans-serif" font-size="30" letter-spacing="4">MONEY</text>
  <text x="600" y="1216" text-anchor="middle" fill="#1E3027" font-family="Georgia, 'Times New Roman', serif" font-size="78" font-weight="700" letter-spacing="2">THE MILLIONAIRE FASTLANE</text>
  <g>
    <rect x="405" y="1466" width="124" height="42" rx="21" fill="#FCF8EF" opacity="0.18" stroke="#FCF8EF" stroke-width="2"/>
    <text x="467" y="1494" text-anchor="middle" fill="#FCF8EF" font-family="'Trebuchet MS', Arial, sans-serif" font-size="20" letter-spacing="1">WEALTH</text>
  </g>
  <g>
    <rect x="551" y="1466" width="244" height="42" rx="21" fill="#FCF8EF" opacity="0.18" stroke="#FCF8EF" stroke-width="2"/>
    <text x="673" y="1494" text-anchor="middle" fill="#FCF8EF" font-family="'Trebuchet MS', Arial, sans-serif" font-size="20" letter-spacing="1">ENTREPRENEURSHIP</text>
  </g>
  <text x="600" y="1538" text-anchor="middle" fill="#FCF8EF" font-family="'Trebuchet MS', Arial, sans-serif" font-size="30" letter-spacing="3">WEALTH  ·  ENTREPRENEURSHIP  ·  LEVERAGE</text>
  <text x="600" y="1604" text-anchor="middle" fill="#FCF8EF" font-family="Georgia, serif" font-size="30">Leverage systems to accelerate wealth creation</text>
  <text x="600" y="1668" text-anchor="middle" fill="#FCF8EF" font-family="'Trebuchet MS', Arial, sans-serif" font-size="26" letter-spacing="2">Modern Edition · Practical Lessons · Real Scenarios</text>
</svg>
