<svg width="1200" height="1800" viewBox="0 0 1200 1800" fill="none" xmlns="http://www.w3.org/2000/svg" role="img" aria-labelledby="title desc">
  <title id="title">The Charisma Myth cover</title>
  <desc id="desc">Auto-generated themed cover for The Charisma Myth by Olivia Fox Cabane.</desc>
  <defs>
    <linearGradient id="g1086275482" x1="0" y1="0" x2="0" y2="1800" gradientUnits="userSpaceOnUse">
      <stop offset="0%" stop-color="#1F3E50"/>
      <stop offset="100%" stop-color="#396A76"/>
    </linearGradient>
  </defs>

  <rect width="1200" height="1800" fill="url(#g1086275482)"/>

  <rect x="0" y="300" width="1200" height="1180" fill="#7CB0A3" opacity="0.12"/>
  <rect x="110" y="370" width="420" height="420" rx="42" fill="#FEF8EE" opacity="0.2"/>
  <rect x="670" y="360" width="420" height="430" rx="42" fill="#D98540" opacity="0.16"/>
  <rect x="110" y="980" width="420" height="360" rx="42" fill="#D98540" opacity="0.15"/>
  <rect x="670" y="950" width="420" height="390" rx="42" fill="#FEF8EE" opacity="0.2"/>
  <rect x="116" y="304" width="968" height="1036" rx="38" fill="#F4ECE0" stroke="#CAB7A0" stroke-width="10"/>

  <g transform="translate(412 571)">
    <path d="M80 68 V214 Q80 304 170 304 H230 Q320 304 320 214 V68" fill="none" stroke="#D98540" stroke-width="34" stroke-linecap="round"/>
    <rect x="66" y="40" width="44" height="68" rx="12" fill="#FEF8EE"/>
    <rect x="290" y="40" width="44" height="68" rx="12" fill="#FEF8EE"/>
    <circle cx="198" cy="182" r="54" fill="#7CB0A3" opacity="0.7"/>
    <circle cx="198" cy="182" r="26" fill="#1E2E33" opacity="0.86"/>
  </g>

  <g transform="translate(922 332)">
    <rect x="12" y="12" width="152" height="152" rx="24" fill="#FEF8EE" stroke="#D98540" stroke-width="10"/>
    <path d="M30 116 L146 52" stroke="#7CB0A3" stroke-width="8" stroke-linecap="round"/>
    <path d="M30 138 L146 74" stroke="#7CB0A3" stroke-width="8" stroke-linecap="round"/>
    <text x="88" y="102" text-anchor="middle" fill="#1E2E33" font-family="'Trebuchet MS', Arial, sans-serif" font-size="44" font-weight="700" letter-spacing="2">CM</text>
  </g>

  <rect x="0" y="0" width="1200" height="238" fill="#1F3E50" opacity="0.93"/>
  <rect x="0" y="1454" width="1200" height="346" fill="#396A76" opacity="0.95"/>
  <text x="600" y="136" text-anchor="middle" fill="#FEF8EE" font-family="Georgia, serif" font-size="62" font-weight="700" letter-spacing="3">OLIVIA FOX CABANE</text>
  <text x="600" y="208" text-anchor="middle" fill="#FEF8EE" font-family="'Trebuchet MS', Arial, sans-serif" font-size="30" letter-spacing="4">COMMUNICATION</text>
  <text x="600" y="1216" text-anchor="middle" fill="#1E2E33" font-family="'Trebuchet MS', Arial, sans-serif" font-size="92" font-weight="700" letter-spacing="2">THE CHARISMA MYTH</text>
  <text x="600" y="1538" text-anchor="middle" fill="#FEF8EE" font-family="'Trebuchet MS', Arial, sans-serif" font-size="30" letter-spacing="3">PRESENCE  ·  WARMTH  ·  POWER</text>
  <text x="600" y="1604" text-anchor="middle" fill="#FEF8EE" font-family="Georgia, serif" font-size="30">Influence, dialogue, and trust</text>
  <text x="600" y="1668" text-anchor="middle" fill="#FEF8EE" font-family="'Trebuchet MS', Arial, sans-serif" font-size="26" letter-spacing="2">Modern Edition · Practical Lessons · Real Scenarios</text>
</svg>
