<svg width="1200" height="1800" viewBox="0 0 1200 1800" fill="none" xmlns="http://www.w3.org/2000/svg" role="img" aria-labelledby="title desc">
  <title id="title">The Psychology of Money cover</title>
  <desc id="desc">Auto-generated themed cover for The Psychology of Money by Morgan Housel.</desc>
  <defs>
    <linearGradient id="g110774657" x1="0" y1="0" x2="0" y2="1800" gradientUnits="userSpaceOnUse">
      <stop offset="0%" stop-color="#1F513A"/>
      <stop offset="100%" stop-color="#2F7A58"/>
    </linearGradient>
  </defs>

  <rect width="1200" height="1800" fill="url(#g110774657)"/>

  <rect x="0" y="300" width="1200" height="1180" fill="#89B39C" opacity="0.08"/>
  <g stroke="#FCFAF1" opacity="0.18">
    <path d="M0 380 L1200 980" stroke-width="10"/>
    <path d="M0 600 L1200 1200" stroke-width="8"/>
    <path d="M0 820 L1200 1420" stroke-width="6"/>
    <path d="M0 1040 L1040 1540" stroke-width="5"/>
    <path d="M160 300 L1200 820" stroke-width="5"/>
  </g>
  <rect x="116" y="340" width="968" height="990" rx="46" fill="#FCFAF1" opacity="0.14"/>
  <ellipse cx="600" cy="812" rx="470" ry="382" fill="#FCFAF1" opacity="0.08"/>
  <rect x="116" y="304" width="968" height="1036" rx="38" fill="#F4F1E5" stroke="#B8B193" stroke-width="10"/>
<g opacity="0.24" transform="translate(0 -26)">
  <g transform="translate(397 571)">
    <rect x="0" y="0" width="392" height="332" rx="24" fill="#F4F1E5" stroke="#FCFAF1" stroke-width="8"/>
    <rect x="74" y="192" width="46" height="94" rx="10" fill="#89B39C" opacity="0.84"/>
    <rect x="142" y="150" width="46" height="136" rx="10" fill="#FCFAF1" opacity="0.86"/>
    <rect x="210" y="122" width="46" height="164" rx="10" fill="#89B39C" opacity="0.88"/>
    <circle cx="302" cy="188" r="58" fill="#1E3128" opacity="0.82"/>
    <text x="302" y="206" text-anchor="middle" fill="#F4F1E5" font-family="Georgia, serif" font-size="48" font-weight="700">$</text>
  </g></g>

  <g transform="translate(410 562)">
    <rect x="0" y="0" width="392" height="332" rx="24" fill="#FCFAF1" stroke="#89B39C" stroke-width="8"/>
    <rect x="74" y="192" width="46" height="94" rx="10" fill="#CFA34C" opacity="0.84"/>
    <rect x="142" y="150" width="46" height="136" rx="10" fill="#89B39C" opacity="0.86"/>
    <rect x="210" y="122" width="46" height="164" rx="10" fill="#CFA34C" opacity="0.88"/>
    <circle cx="302" cy="188" r="58" fill="#1E3128" opacity="0.82"/>
    <text x="302" y="206" text-anchor="middle" fill="#FCFAF1" font-family="Georgia, serif" font-size="48" font-weight="700">$</text>
  </g>

  <g transform="translate(930 336)">
    <path d="M82 8 L152 34 V90 C152 142 120 174 82 190 C44 174 12 142 12 90 V34 Z" fill="#FCFAF1" stroke="#CFA34C" stroke-width="10"/>
    <rect x="30" y="64" width="104" height="64" rx="20" fill="#89B39C" opacity="0.72"/>
    <text x="82" y="106" text-anchor="middle" fill="#1E3128" font-family="'Trebuchet MS', Arial, sans-serif" font-size="40" font-weight="700" letter-spacing="2">PM</text>
  </g>

  <rect x="0" y="0" width="1200" height="238" fill="#1F513A" opacity="0.93"/>
  <rect x="0" y="1454" width="1200" height="346" fill="#2F7A58" opacity="0.95"/>
  <text x="600" y="136" text-anchor="middle" fill="#FCFAF1" font-family="Georgia, serif" font-size="62" font-weight="700" letter-spacing="3">MORGAN HOUSEL</text>
  <text x="600" y="208" text-anchor="middle" fill="#FCFAF1" font-family="'Trebuchet MS', Arial, sans-serif" font-size="30" letter-spacing="4">MONEY</text>
  <text x="600" y="1216" text-anchor="middle" fill="#1E3128" font-family="Georgia, 'Times New Roman', serif" font-size="78" font-weight="700" letter-spacing="2">THE PSYCHOLOGY OF MONEY</text>
  <g>
    <rect x="459" y="1466" width="112" height="42" rx="21" fill="#FCFAF1" opacity="0.18" stroke="#FCFAF1" stroke-width="2"/>
    <text x="515" y="1494" text-anchor="middle" fill="#FCFAF1" font-family="'Trebuchet MS', Arial, sans-serif" font-size="20" letter-spacing="1">MONEY</text>
  </g>
  <g>
    <rect x="593" y="1466" width="148" height="42" rx="21" fill="#FCFAF1" opacity="0.18" stroke="#FCFAF1" stroke-width="2"/>
    <text x="667" y="1494" text-anchor="middle" fill="#FCFAF1" font-family="'Trebuchet MS', Arial, sans-serif" font-size="20" letter-spacing="1">BEHAVIOR</text>
  </g>
  <text x="600" y="1538" text-anchor="middle" fill="#FCFAF1" font-family="'Trebuchet MS', Arial, sans-serif" font-size="30" letter-spacing="3">MONEY  ·  BEHAVIOR  ·  WEALTH</text>
  <text x="600" y="1604" text-anchor="middle" fill="#FCFAF1" font-family="Georgia, serif" font-size="30">Behavior beats spreadsheets over time</text>
  <text x="600" y="1668" text-anchor="middle" fill="#FCFAF1" font-family="'Trebuchet MS', Arial, sans-serif" font-size="26" letter-spacing="2">Modern Edition · Practical Lessons · Real Scenarios</text>
</svg>
