<svg width="1200" height="1800" viewBox="0 0 1200 1800" fill="none" xmlns="http://www.w3.org/2000/svg" role="img" aria-labelledby="title desc">
  <title id="title">The Art of Thinking Clearly cover</title>
  <desc id="desc">Auto-generated themed cover for The Art of Thinking Clearly by Rolf Dobelli.</desc>
  <defs>
    <linearGradient id="g648187760" x1="0" y1="0" x2="0" y2="1800" gradientUnits="userSpaceOnUse">
      <stop offset="0%" stop-color="#2A3951"/>
      <stop offset="100%" stop-color="#48658C"/>
    </linearGradient>
  </defs>

  <rect width="1200" height="1800" fill="url(#g648187760)"/>

  <circle cx="600" cy="840" r="420" fill="#9CB4D1" opacity="0.16"/>
  <circle cx="600" cy="840" r="300" fill="#FDF8EF" opacity="0.16"/>
  <circle cx="594" cy="823" r="210" fill="#DB9850" opacity="0.18"/>
  <circle cx="606" cy="857" r="130" fill="#FDF8EF" opacity="0.34"/>
  <rect x="116" y="304" width="968" height="1036" rx="38" fill="#F4EDE2" stroke="#CAB8A2" stroke-width="10"/>

  <g transform="translate(399 553)">
    <rect x="0" y="0" width="420" height="328" rx="24" fill="#FDF8EF" stroke="#9CB4D1" stroke-width="8"/>
    <path d="M56 258 C136 192 228 222 306 158" stroke="#243344" stroke-width="10" stroke-linecap="round"/>
    <rect x="82" y="98" width="250" height="26" rx="13" fill="#9CB4D1" opacity="0.55"/>
    <rect x="82" y="132" width="212" height="26" rx="13" fill="#DB9850" opacity="0.45"/>
    <g transform="translate(294 214) rotate(-18)">
      <rect x="0" y="0" width="88" height="22" rx="10" fill="#DB9850" opacity="0.9"/>
      <polygon points="88,11 108,0 108,22" fill="#243344"/>
      <polygon points="108,0 118,11 108,22" fill="#FDF8EF"/>
    </g>
  </g>

  <rect x="0" y="0" width="1200" height="238" fill="#2A3951" opacity="0.93"/>
  <rect x="0" y="1454" width="1200" height="346" fill="#48658C" opacity="0.95"/>
  <text x="600" y="136" text-anchor="middle" fill="#FDF8EF" font-family="Georgia, serif" font-size="62" font-weight="700" letter-spacing="3">ROLF DOBELLI</text>
  <text x="600" y="208" text-anchor="middle" fill="#FDF8EF" font-family="'Trebuchet MS', Arial, sans-serif" font-size="30" letter-spacing="4">THINKING</text>
  <text x="600" y="1114" text-anchor="middle" fill="#243344" font-family="Georgia, 'Times New Roman', serif" font-size="108" font-weight="700" letter-spacing="2">THE ART</text>
  <text x="600" y="1231" text-anchor="middle" fill="#243344" font-family="Georgia, 'Times New Roman', serif" font-size="108" font-weight="700" letter-spacing="2">OF THINKING</text>
  <text x="600" y="1348" text-anchor="middle" fill="#243344" font-family="Georgia, 'Times New Roman', serif" font-size="108" font-weight="700" letter-spacing="2">CLEARLY</text>
  <text x="600" y="1538" text-anchor="middle" fill="#FDF8EF" font-family="'Trebuchet MS', Arial, sans-serif" font-size="30" letter-spacing="3">BIAS  ·  EMOTION  ·  MOTIVES</text>
  <text x="600" y="1604" text-anchor="middle" fill="#FDF8EF" font-family="Georgia, serif" font-size="30">Mental models and judgment</text>
  <text x="600" y="1668" text-anchor="middle" fill="#FDF8EF" font-family="'Trebuchet MS', Arial, sans-serif" font-size="26" letter-spacing="2">Modern Edition · Practical Lessons · Real Scenarios</text>
</svg>
