<svg width="1200" height="1800" viewBox="0 0 1200 1800" fill="none" xmlns="http://www.w3.org/2000/svg" role="img" aria-labelledby="title desc">
  <title id="title">The Black Swan cover</title>
  <desc id="desc">Auto-generated themed cover for The Black Swan by Nassim Nicholas Taleb.</desc>
  <defs>
    <linearGradient id="g528522690" x1="0" y1="0" x2="0" y2="1800" gradientUnits="userSpaceOnUse">
      <stop offset="0%" stop-color="#2A3951"/>
      <stop offset="100%" stop-color="#48658C"/>
    </linearGradient>
  </defs>

  <rect width="1200" height="1800" fill="url(#g528522690)"/>

  <rect x="0" y="300" width="1200" height="1180" fill="#9CB4D1" opacity="0.12"/>
  <rect x="110" y="370" width="420" height="420" rx="42" fill="#FDF8EF" opacity="0.2"/>
  <rect x="670" y="360" width="420" height="430" rx="42" fill="#DB9850" opacity="0.16"/>
  <rect x="110" y="980" width="420" height="360" rx="42" fill="#DB9850" opacity="0.15"/>
  <rect x="670" y="950" width="420" height="390" rx="42" fill="#FDF8EF" opacity="0.2"/>
  <rect x="116" y="304" width="968" height="1036" rx="38" fill="#F4EDE2" stroke="#CAB8A2" stroke-width="10"/>

  <g transform="translate(387 547)">
    <rect x="20" y="36" width="364" height="324" rx="26" fill="#FDF8EF" stroke="#9CB4D1" stroke-width="8"/>
    <g stroke="#DB9850" stroke-width="8" opacity="0.86">
      <line x1="82" y1="92" x2="184" y2="146"/>
      <line x1="184" y1="146" x2="286" y2="108"/>
      <line x1="184" y1="146" x2="168" y2="248"/>
      <line x1="168" y1="248" x2="286" y2="288"/>
      <line x1="286" y1="108" x2="286" y2="288"/>
      <line x1="82" y1="92" x2="90" y2="232"/>
      <line x1="90" y1="232" x2="168" y2="248"/>
    </g>
    <g fill="#243344">
      <circle cx="82" cy="92" r="14"/>
      <circle cx="184" cy="146" r="14"/>
      <circle cx="286" cy="108" r="14"/>
      <circle cx="90" cy="232" r="14"/>
      <circle cx="168" cy="248" r="14"/>
      <circle cx="286" cy="288" r="14"/>
    </g>
  </g>

  <rect x="0" y="0" width="1200" height="238" fill="#2A3951" opacity="0.93"/>
  <rect x="0" y="1454" width="1200" height="346" fill="#48658C" opacity="0.95"/>
  <text x="600" y="136" text-anchor="middle" fill="#FDF8EF" font-family="Georgia, serif" font-size="62" font-weight="700" letter-spacing="3">NASSIM NICHOLAS TALEB</text>
  <text x="600" y="208" text-anchor="middle" fill="#FDF8EF" font-family="'Trebuchet MS', Arial, sans-serif" font-size="30" letter-spacing="4">THINKING</text>
  <text x="600" y="1216" text-anchor="middle" fill="#243344" font-family="Georgia, 'Times New Roman', serif" font-size="92" font-weight="700" letter-spacing="2">THE BLACK SWAN</text>
  <text x="600" y="1538" text-anchor="middle" fill="#FDF8EF" font-family="'Trebuchet MS', Arial, sans-serif" font-size="30" letter-spacing="3">REASONING  ·  JUDGMENT  ·  SYSTEMS</text>
  <text x="600" y="1604" text-anchor="middle" fill="#FDF8EF" font-family="Georgia, serif" font-size="30">Mental models and judgment</text>
  <text x="600" y="1668" text-anchor="middle" fill="#FDF8EF" font-family="'Trebuchet MS', Arial, sans-serif" font-size="26" letter-spacing="2">Modern Edition · Practical Lessons · Real Scenarios</text>
</svg>
