<svg width="1200" height="1800" viewBox="0 0 1200 1800" fill="none" xmlns="http://www.w3.org/2000/svg" role="img" aria-labelledby="title desc">
  <title id="title">The Lean Startup cover</title>
  <desc id="desc">Auto-generated themed cover for The Lean Startup by Eric Ries.</desc>
  <defs>
    <linearGradient id="g2075573472" x1="0" y1="0" x2="0" y2="1800" gradientUnits="userSpaceOnUse">
      <stop offset="0%" stop-color="#1F4E8C"/>
      <stop offset="100%" stop-color="#2D73C2"/>
    </linearGradient>
  </defs>

  <rect width="1200" height="1800" fill="url(#g2075573472)"/>

  <rect x="0" y="300" width="1200" height="1180" fill="#8AB3DF" opacity="0.1"/>
  <g fill="#FFFFFF" opacity="0.19">
    <circle cx="210" cy="560" r="124"/>
    <circle cx="1020" cy="640" r="110"/>
    <circle cx="920" cy="1220" r="132"/>
    <circle cx="230" cy="1190" r="96"/>
  </g>
  <path d="M70 730 Q300 596 600 740 T1130 760" stroke="#3B86D9" stroke-width="20" opacity="0.2"/>
  <path d="M70 960 Q320 1086 600 940 T1130 920" stroke="#FFFFFF" stroke-width="16" opacity="0.24"/>
  <ellipse cx="600" cy="812" rx="470" ry="382" fill="#FFFFFF" opacity="0.08"/>
  <rect x="116" y="304" width="968" height="1036" rx="38" fill="#F4F8FC" stroke="#B0C2D6" stroke-width="10"/>
<g opacity="0.24" transform="translate(0 -26)">
  <g transform="translate(391 549)">
    <circle cx="200" cy="188" r="146" fill="#F4F8FC" opacity="0.95" stroke="#FFFFFF" stroke-width="8"/>
    <circle cx="200" cy="188" r="104" fill="none" stroke="#8AB3DF" stroke-width="18" opacity="0.86"/>
    <circle cx="200" cy="188" r="56" fill="none" stroke="#FFFFFF" stroke-width="14" opacity="0.86"/>
    <path d="M306 168 L332 200 L292 204" fill="#8AB3DF"/>
  </g></g>

  <g transform="translate(404 566)">
    <circle cx="200" cy="188" r="146" fill="#FFFFFF" opacity="0.95" stroke="#8AB3DF" stroke-width="8"/>
    <circle cx="200" cy="188" r="104" fill="none" stroke="#3B86D9" stroke-width="18" opacity="0.86"/>
    <circle cx="200" cy="188" r="56" fill="none" stroke="#8AB3DF" stroke-width="14" opacity="0.86"/>
    <path d="M306 168 L332 200 L292 204" fill="#3B86D9"/>
  </g>

  <g transform="translate(922 332)">
    <rect x="12" y="12" width="152" height="152" rx="24" fill="#FFFFFF" stroke="#3B86D9" stroke-width="10"/>
    <path d="M30 116 L146 52" stroke="#8AB3DF" stroke-width="8" stroke-linecap="round"/>
    <path d="M30 138 L146 74" stroke="#8AB3DF" stroke-width="8" stroke-linecap="round"/>
    <text x="88" y="102" text-anchor="middle" fill="#1B2F46" font-family="'Trebuchet MS', Arial, sans-serif" font-size="44" font-weight="700" letter-spacing="2">LS</text>
  </g>

  <rect x="0" y="0" width="1200" height="238" fill="#1F4E8C" opacity="0.93"/>
  <rect x="0" y="1454" width="1200" height="346" fill="#2D73C2" opacity="0.95"/>
  <text x="600" y="136" text-anchor="middle" fill="#FFFFFF" font-family="Georgia, serif" font-size="62" font-weight="700" letter-spacing="3">ERIC RIES</text>
  <text x="600" y="208" text-anchor="middle" fill="#FFFFFF" font-family="'Trebuchet MS', Arial, sans-serif" font-size="30" letter-spacing="4">INNOVATION</text>
  <text x="600" y="1216" text-anchor="middle" fill="#1B2F46" font-family="'Trebuchet MS', Arial, sans-serif" font-size="92" font-weight="700" letter-spacing="2">THE LEAN STARTUP</text>
  <g>
    <rect x="429" y="1466" width="136" height="42" rx="21" fill="#FFFFFF" opacity="0.18" stroke="#FFFFFF" stroke-width="2"/>
    <text x="497" y="1494" text-anchor="middle" fill="#FFFFFF" font-family="'Trebuchet MS', Arial, sans-serif" font-size="20" letter-spacing="1">STARTUP</text>
  </g>
  <g>
    <rect x="587" y="1466" width="184" height="42" rx="21" fill="#FFFFFF" opacity="0.18" stroke="#FFFFFF" stroke-width="2"/>
    <text x="679" y="1494" text-anchor="middle" fill="#FFFFFF" font-family="'Trebuchet MS', Arial, sans-serif" font-size="20" letter-spacing="1">EXPERIMENTS</text>
  </g>
  <text x="600" y="1538" text-anchor="middle" fill="#FFFFFF" font-family="'Trebuchet MS', Arial, sans-serif" font-size="30" letter-spacing="3">STARTUP  ·  EXPERIMENTS  ·  INNOVATION</text>
  <text x="600" y="1604" text-anchor="middle" fill="#FFFFFF" font-family="Georgia, serif" font-size="30">Build, measure, and learn in short loops</text>
  <text x="600" y="1668" text-anchor="middle" fill="#FFFFFF" font-family="'Trebuchet MS', Arial, sans-serif" font-size="26" letter-spacing="2">Modern Edition · Practical Lessons · Real Scenarios</text>
</svg>
