<svg width="1200" height="1800" viewBox="0 0 1200 1800" fill="none" xmlns="http://www.w3.org/2000/svg" role="img" aria-labelledby="title desc">
  <title id="title">The Art of Thinking Clearly cover</title>
  <desc id="desc">Auto-generated themed cover for The Art of Thinking Clearly by Rolf Dobelli.</desc>
  <defs>
    <linearGradient id="g648187760" x1="0" y1="0" x2="0" y2="1800" gradientUnits="userSpaceOnUse">
      <stop offset="0%" stop-color="#27324A"/>
      <stop offset="100%" stop-color="#4A628F"/>
    </linearGradient>
  </defs>

  <rect width="1200" height="1800" fill="url(#g648187760)"/>

  <rect x="0" y="300" width="1200" height="1180" fill="#9FB5D3" opacity="0.1"/>
  <rect x="110" y="360" width="420" height="430" rx="42" fill="#FDF8EF" opacity="0.2"/>
  <rect x="670" y="360" width="420" height="420" rx="42" fill="#DCA054" opacity="0.16"/>
  <rect x="110" y="980" width="420" height="360" rx="42" fill="#DCA054" opacity="0.15"/>
  <rect x="670" y="950" width="420" height="390" rx="42" fill="#FDF8EF" opacity="0.2"/>
  <circle cx="614" cy="843" r="128" fill="#FDF8EF" opacity="0.16"/>
  <ellipse cx="600" cy="812" rx="470" ry="382" fill="#FDF8EF" opacity="0.08"/>
  <rect x="116" y="304" width="968" height="1036" rx="38" fill="#F4EDE2" stroke="#C6B49C" stroke-width="10"/>
<g opacity="0.24" transform="translate(0 -26)">
  <g transform="translate(386 561)">
    <rect x="0" y="0" width="420" height="328" rx="24" fill="#F4EDE2" stroke="#FDF8EF" stroke-width="8"/>
    <path d="M56 258 C136 192 228 222 306 158" stroke="#223041" stroke-width="10" stroke-linecap="round"/>
    <rect x="82" y="98" width="250" height="26" rx="13" fill="#FDF8EF" opacity="0.55"/>
    <rect x="82" y="132" width="212" height="26" rx="13" fill="#9FB5D3" opacity="0.45"/>
    <g transform="translate(294 214) rotate(-18)">
      <rect x="0" y="0" width="88" height="22" rx="10" fill="#9FB5D3" opacity="0.9"/>
      <polygon points="88,11 108,0 108,22" fill="#223041"/>
      <polygon points="108,0 118,11 108,22" fill="#F4EDE2"/>
    </g>
  </g></g>

  <g transform="translate(399 553)">
    <rect x="0" y="0" width="420" height="328" rx="24" fill="#FDF8EF" stroke="#9FB5D3" stroke-width="8"/>
    <path d="M56 258 C136 192 228 222 306 158" stroke="#223041" stroke-width="10" stroke-linecap="round"/>
    <rect x="82" y="98" width="250" height="26" rx="13" fill="#9FB5D3" opacity="0.55"/>
    <rect x="82" y="132" width="212" height="26" rx="13" fill="#DCA054" opacity="0.45"/>
    <g transform="translate(294 214) rotate(-18)">
      <rect x="0" y="0" width="88" height="22" rx="10" fill="#DCA054" opacity="0.9"/>
      <polygon points="88,11 108,0 108,22" fill="#223041"/>
      <polygon points="108,0 118,11 108,22" fill="#FDF8EF"/>
    </g>
  </g>

  <g transform="translate(928 336)">
    <circle cx="84" cy="84" r="76" fill="#FDF8EF" stroke="#DCA054" stroke-width="10"/>
    <circle cx="84" cy="84" r="56" fill="#9FB5D3" opacity="0.68"/>
    <text x="84" y="98" text-anchor="middle" fill="#223041" font-family="'Trebuchet MS', Arial, sans-serif" font-size="44" font-weight="700" letter-spacing="2">AT</text>
  </g>

  <rect x="0" y="0" width="1200" height="238" fill="#27324A" opacity="0.93"/>
  <rect x="0" y="1454" width="1200" height="346" fill="#4A628F" opacity="0.95"/>
  <text x="600" y="136" text-anchor="middle" fill="#FDF8EF" font-family="Georgia, serif" font-size="62" font-weight="700" letter-spacing="3">ROLF DOBELLI</text>
  <text x="600" y="208" text-anchor="middle" fill="#FDF8EF" font-family="'Trebuchet MS', Arial, sans-serif" font-size="30" letter-spacing="4">THINKING</text>
  <text x="600" y="1114" text-anchor="middle" fill="#223041" font-family="Georgia, 'Times New Roman', serif" font-size="108" font-weight="700" letter-spacing="2">THE ART</text>
  <text x="600" y="1231" text-anchor="middle" fill="#223041" font-family="Georgia, 'Times New Roman', serif" font-size="108" font-weight="700" letter-spacing="2">OF THINKING</text>
  <text x="600" y="1348" text-anchor="middle" fill="#223041" font-family="Georgia, 'Times New Roman', serif" font-size="108" font-weight="700" letter-spacing="2">CLEARLY</text>
  <g>
    <rect x="471" y="1466" width="100" height="42" rx="21" fill="#FDF8EF" opacity="0.18" stroke="#FDF8EF" stroke-width="2"/>
    <text x="521" y="1494" text-anchor="middle" fill="#FDF8EF" font-family="'Trebuchet MS', Arial, sans-serif" font-size="20" letter-spacing="1">BIAS</text>
  </g>
  <g>
    <rect x="593" y="1466" width="136" height="42" rx="21" fill="#FDF8EF" opacity="0.18" stroke="#FDF8EF" stroke-width="2"/>
    <text x="661" y="1494" text-anchor="middle" fill="#FDF8EF" font-family="'Trebuchet MS', Arial, sans-serif" font-size="20" letter-spacing="1">EMOTION</text>
  </g>
  <text x="600" y="1538" text-anchor="middle" fill="#FDF8EF" font-family="'Trebuchet MS', Arial, sans-serif" font-size="30" letter-spacing="3">BIAS  ·  EMOTION  ·  MOTIVES</text>
  <text x="600" y="1604" text-anchor="middle" fill="#FDF8EF" font-family="Georgia, serif" font-size="30">Recognize cognitive biases before acting</text>
  <text x="600" y="1668" text-anchor="middle" fill="#FDF8EF" font-family="'Trebuchet MS', Arial, sans-serif" font-size="26" letter-spacing="2">Modern Edition · Practical Lessons · Real Scenarios</text>
</svg>
