<svg width="1200" height="1800" viewBox="0 0 1200 1800" fill="none" xmlns="http://www.w3.org/2000/svg" role="img" aria-labelledby="title desc">
  <title id="title">The Power of Habit cover</title>
  <desc id="desc">Auto-generated themed cover for The Power of Habit by Charles Duhigg.</desc>
  <defs>
    <linearGradient id="g620406243" x1="0" y1="0" x2="0" y2="1800" gradientUnits="userSpaceOnUse">
      <stop offset="0%" stop-color="#27544F"/>
      <stop offset="100%" stop-color="#438270"/>
    </linearGradient>
  </defs>

  <rect width="1200" height="1800" fill="url(#g620406243)"/>

  <rect x="0" y="300" width="1200" height="1180" fill="#8CC3AD" opacity="0.08"/>
  <g stroke="#FBF8EF" opacity="0.18">
    <path d="M0 380 L1200 980" stroke-width="10"/>
    <path d="M0 600 L1200 1200" stroke-width="8"/>
    <path d="M0 820 L1200 1420" stroke-width="6"/>
    <path d="M0 1040 L1040 1540" stroke-width="5"/>
    <path d="M160 300 L1200 820" stroke-width="5"/>
  </g>
  <rect x="116" y="340" width="968" height="990" rx="46" fill="#FBF8EF" opacity="0.14"/>
  <ellipse cx="600" cy="812" rx="470" ry="382" fill="#FBF8EF" opacity="0.08"/>
  <rect x="116" y="304" width="968" height="1036" rx="38" fill="#F2EEE3" stroke="#C3B49C" stroke-width="10"/>
<g opacity="0.24" transform="translate(0 -26)">
  <g transform="translate(413 551)">
    <circle cx="196" cy="170" r="128" fill="none" stroke="#8CC3AD" stroke-width="20" opacity="0.88"/>
    <circle cx="196" cy="170" r="76" fill="none" stroke="#FBF8EF" stroke-width="18" opacity="0.86"/>
    <polygon points="316,170 274,154 284,186" fill="#8CC3AD"/>
    <polygon points="118,96 132,136 98,126" fill="#FBF8EF"/>
    <circle cx="196" cy="170" r="32" fill="#1E2F2D" opacity="0.82"/>
  </g></g>

  <g transform="translate(396 569)">
    <circle cx="196" cy="170" r="128" fill="none" stroke="#DD9D52" stroke-width="20" opacity="0.88"/>
    <circle cx="196" cy="170" r="76" fill="none" stroke="#8CC3AD" stroke-width="18" opacity="0.86"/>
    <polygon points="316,170 274,154 284,186" fill="#DD9D52"/>
    <polygon points="118,96 132,136 98,126" fill="#8CC3AD"/>
    <circle cx="196" cy="170" r="32" fill="#1E2F2D" opacity="0.82"/>
  </g>

  <g transform="translate(922 332)">
    <rect x="12" y="12" width="152" height="152" rx="24" fill="#FBF8EF" stroke="#DD9D52" stroke-width="10"/>
    <path d="M30 116 L146 52" stroke="#8CC3AD" stroke-width="8" stroke-linecap="round"/>
    <path d="M30 138 L146 74" stroke="#8CC3AD" stroke-width="8" stroke-linecap="round"/>
    <text x="88" y="102" text-anchor="middle" fill="#1E2F2D" font-family="'Trebuchet MS', Arial, sans-serif" font-size="44" font-weight="700" letter-spacing="2">PH</text>
  </g>

  <rect x="0" y="0" width="1200" height="238" fill="#27544F" opacity="0.93"/>
  <rect x="0" y="1454" width="1200" height="346" fill="#438270" opacity="0.95"/>
  <text x="600" y="136" text-anchor="middle" fill="#FBF8EF" font-family="Georgia, serif" font-size="62" font-weight="700" letter-spacing="3">CHARLES DUHIGG</text>
  <text x="600" y="208" text-anchor="middle" fill="#FBF8EF" font-family="'Trebuchet MS', Arial, sans-serif" font-size="30" letter-spacing="4">PRODUCTIVITY</text>
  <text x="600" y="1216" text-anchor="middle" fill="#1E2F2D" font-family="'Trebuchet MS', Arial, sans-serif" font-size="92" font-weight="700" letter-spacing="2">THE POWER OF HABIT</text>
  <g>
    <rect x="411" y="1466" width="124" height="42" rx="21" fill="#FBF8EF" opacity="0.18" stroke="#FBF8EF" stroke-width="2"/>
    <text x="473" y="1494" text-anchor="middle" fill="#FBF8EF" font-family="'Trebuchet MS', Arial, sans-serif" font-size="20" letter-spacing="1">HABITS</text>
  </g>
  <g>
    <rect x="557" y="1466" width="232" height="42" rx="21" fill="#FBF8EF" opacity="0.18" stroke="#FBF8EF" stroke-width="2"/>
    <text x="673" y="1494" text-anchor="middle" fill="#FBF8EF" font-family="'Trebuchet MS', Arial, sans-serif" font-size="20" letter-spacing="1">BEHAVIOR CHANGE</text>
  </g>
  <text x="600" y="1538" text-anchor="middle" fill="#FBF8EF" font-family="'Trebuchet MS', Arial, sans-serif" font-size="30" letter-spacing="3">HABITS  ·  BEHAVIOR-CHANGE  ·  WILLPOWER</text>
  <text x="600" y="1604" text-anchor="middle" fill="#FBF8EF" font-family="Georgia, serif" font-size="30">Redesign cues, routines, and rewards</text>
  <text x="600" y="1668" text-anchor="middle" fill="#FBF8EF" font-family="'Trebuchet MS', Arial, sans-serif" font-size="26" letter-spacing="2">Modern Edition · Practical Lessons · Real Scenarios</text>
</svg>
