<svg width="1200" height="1800" viewBox="0 0 1200 1800" fill="none" xmlns="http://www.w3.org/2000/svg" role="img" aria-labelledby="title desc">
  <title id="title">The Pyramid Principle cover</title>
  <desc id="desc">Auto-generated themed cover for The Pyramid Principle by Barbara Minto.</desc>
  <defs>
    <linearGradient id="g15764826" x1="0" y1="0" x2="0" y2="1800" gradientUnits="userSpaceOnUse">
      <stop offset="0%" stop-color="#2A3951"/>
      <stop offset="100%" stop-color="#48658C"/>
    </linearGradient>
  </defs>

  <rect width="1200" height="1800" fill="url(#g15764826)"/>

  <rect x="0" y="300" width="1200" height="1180" fill="#9CB4D1" opacity="0.1"/>
  <g stroke="#FDF8EF" opacity="0.2">
    <line x1="160" y1="320" x2="160" y2="1460" stroke-width="4"/>
    <line x1="320" y1="320" x2="320" y2="1460" stroke-width="3"/>
    <line x1="480" y1="320" x2="480" y2="1460" stroke-width="2"/>
    <line x1="640" y1="320" x2="640" y2="1460" stroke-width="3"/>
    <line x1="800" y1="320" x2="800" y2="1460" stroke-width="2"/>
    <line x1="960" y1="320" x2="960" y2="1460" stroke-width="3"/>
  </g>
  <path d="M140 430 L1060 430" stroke="#DB9850" stroke-width="10" opacity="0.22"/>
  <path d="M140 1330 L1060 1330" stroke="#DB9850" stroke-width="10" opacity="0.2"/>
  <rect x="116" y="304" width="968" height="1036" rx="38" fill="#F4EDE2" stroke="#CAB8A2" stroke-width="10"/>

  <g transform="translate(393 564)">
    <polygon points="198,34 344,304 52,304" fill="#DB9850" opacity="0.9"/>
    <polygon points="198,74 304,272 92,272" fill="#FDF8EF" opacity="0.88"/>
    <line x1="198" y1="74" x2="198" y2="272" stroke="#9CB4D1" stroke-width="10"/>
    <line x1="144" y1="174" x2="252" y2="174" stroke="#9CB4D1" stroke-width="10"/>
  </g>

  <g transform="translate(928 336)">
    <circle cx="84" cy="84" r="76" fill="#FDF8EF" stroke="#DB9850" stroke-width="10"/>
    <circle cx="84" cy="84" r="56" fill="#9CB4D1" opacity="0.68"/>
    <text x="84" y="98" text-anchor="middle" fill="#243344" font-family="'Trebuchet MS', Arial, sans-serif" font-size="44" font-weight="700" letter-spacing="2">PP</text>
  </g>

  <rect x="0" y="0" width="1200" height="238" fill="#2A3951" opacity="0.93"/>
  <rect x="0" y="1454" width="1200" height="346" fill="#48658C" opacity="0.95"/>
  <text x="600" y="136" text-anchor="middle" fill="#FDF8EF" font-family="Georgia, serif" font-size="62" font-weight="700" letter-spacing="3">BARBARA MINTO</text>
  <text x="600" y="208" text-anchor="middle" fill="#FDF8EF" font-family="'Trebuchet MS', Arial, sans-serif" font-size="30" letter-spacing="4">THINKING</text>
  <text x="600" y="1216" text-anchor="middle" fill="#243344" font-family="Georgia, 'Times New Roman', serif" font-size="78" font-weight="700" letter-spacing="2">THE PYRAMID PRINCIPLE</text>
  <text x="600" y="1538" text-anchor="middle" fill="#FDF8EF" font-family="'Trebuchet MS', Arial, sans-serif" font-size="30" letter-spacing="3">WRITING  ·  STRUCTURE  ·  COMMUNICATION</text>
  <text x="600" y="1604" text-anchor="middle" fill="#FDF8EF" font-family="Georgia, serif" font-size="30">Structured argument and clear executive communication</text>
  <text x="600" y="1668" text-anchor="middle" fill="#FDF8EF" font-family="'Trebuchet MS', Arial, sans-serif" font-size="26" letter-spacing="2">Modern Edition · Practical Lessons · Real Scenarios</text>
</svg>
