<svg width="1200" height="1800" viewBox="0 0 1200 1800" fill="none" xmlns="http://www.w3.org/2000/svg" role="img" aria-labelledby="title desc">
  <title id="title">The Obstacle Is the Way cover</title>
  <desc id="desc">Auto-generated themed cover for The Obstacle Is the Way by Ryan Holiday.</desc>
  <defs>
    <linearGradient id="g434653932" x1="0" y1="0" x2="0" y2="1800" gradientUnits="userSpaceOnUse">
      <stop offset="0%" stop-color="#41445B"/>
      <stop offset="100%" stop-color="#666A8D"/>
    </linearGradient>
  </defs>

  <rect width="1200" height="1800" fill="url(#g434653932)"/>

  <rect x="0" y="300" width="1200" height="1180" fill="#AEB8D1" opacity="0.1"/>
  <g fill="#FEF8EE" opacity="0.19">
    <circle cx="210" cy="560" r="124"/>
    <circle cx="1020" cy="640" r="110"/>
    <circle cx="920" cy="1220" r="132"/>
    <circle cx="230" cy="1190" r="96"/>
  </g>
  <path d="M70 730 Q300 602 600 740 T1130 760" stroke="#DEAD5E" stroke-width="20" opacity="0.2"/>
  <path d="M70 960 Q320 1092 600 940 T1130 920" stroke="#FEF8EE" stroke-width="16" opacity="0.24"/>
  <ellipse cx="600" cy="812" rx="470" ry="382" fill="#FEF8EE" opacity="0.08"/>
  <rect x="116" y="304" width="968" height="1036" rx="38" fill="#F4EDE2" stroke="#C5B59E" stroke-width="10"/>
<g opacity="0.24" transform="translate(0 -26)">
  <g transform="translate(405 567)">
    <circle cx="204" cy="72" r="44" fill="#AEB8D1" opacity="0.44"/>
    <path d="M24 292 L132 144 L208 248 L296 114 L388 292 Z" fill="#FEF8EE" opacity="0.82"/>
    <path d="M84 292 L168 186 L226 260 L302 172 L360 292 Z" fill="#AEB8D1" opacity="0.82"/>
    <path d="M34 292 H378" stroke="#F4EDE2" stroke-width="12" stroke-linecap="round" opacity="0.8"/>
  </g></g>

  <g transform="translate(388 558)">
    <circle cx="204" cy="72" r="44" fill="#DEAD5E" opacity="0.44"/>
    <path d="M24 292 L132 144 L208 248 L296 114 L388 292 Z" fill="#AEB8D1" opacity="0.82"/>
    <path d="M84 292 L168 186 L226 260 L302 172 L360 292 Z" fill="#DEAD5E" opacity="0.82"/>
    <path d="M34 292 H378" stroke="#FEF8EE" stroke-width="12" stroke-linecap="round" opacity="0.8"/>
  </g>

  <g transform="translate(922 332)">
    <rect x="12" y="12" width="152" height="152" rx="24" fill="#FEF8EE" stroke="#DEAD5E" stroke-width="10"/>
    <path d="M30 116 L146 52" stroke="#AEB8D1" stroke-width="8" stroke-linecap="round"/>
    <path d="M30 138 L146 74" stroke="#AEB8D1" stroke-width="8" stroke-linecap="round"/>
    <text x="88" y="102" text-anchor="middle" fill="#2B3043" font-family="'Trebuchet MS', Arial, sans-serif" font-size="44" font-weight="700" letter-spacing="2">OW</text>
  </g>

  <rect x="0" y="0" width="1200" height="238" fill="#41445B" opacity="0.93"/>
  <rect x="0" y="1454" width="1200" height="346" fill="#666A8D" opacity="0.95"/>
  <text x="600" y="136" text-anchor="middle" fill="#FEF8EE" font-family="Georgia, serif" font-size="62" font-weight="700" letter-spacing="3">RYAN HOLIDAY</text>
  <text x="600" y="208" text-anchor="middle" fill="#FEF8EE" font-family="'Trebuchet MS', Arial, sans-serif" font-size="30" letter-spacing="4">RESILIENCE</text>
  <text x="600" y="1114" text-anchor="middle" fill="#2B3043" font-family="Georgia, 'Times New Roman', serif" font-size="108" font-weight="700" letter-spacing="2">THE OBSTACLE</text>
  <text x="600" y="1231" text-anchor="middle" fill="#2B3043" font-family="Georgia, 'Times New Roman', serif" font-size="108" font-weight="700" letter-spacing="2">IS THE</text>
  <text x="600" y="1348" text-anchor="middle" fill="#2B3043" font-family="Georgia, 'Times New Roman', serif" font-size="108" font-weight="700" letter-spacing="2">WAY</text>
  <g>
    <rect x="429" y="1466" width="148" height="42" rx="21" fill="#FEF8EE" opacity="0.18" stroke="#FEF8EE" stroke-width="2"/>
    <text x="503" y="1494" text-anchor="middle" fill="#FEF8EE" font-family="'Trebuchet MS', Arial, sans-serif" font-size="20" letter-spacing="1">STOICISM</text>
  </g>
  <g>
    <rect x="599" y="1466" width="172" height="42" rx="21" fill="#FEF8EE" opacity="0.18" stroke="#FEF8EE" stroke-width="2"/>
    <text x="685" y="1494" text-anchor="middle" fill="#FEF8EE" font-family="'Trebuchet MS', Arial, sans-serif" font-size="20" letter-spacing="1">RESILIENCE</text>
  </g>
  <text x="600" y="1538" text-anchor="middle" fill="#FEF8EE" font-family="'Trebuchet MS', Arial, sans-serif" font-size="30" letter-spacing="3">STOICISM  ·  RESILIENCE  ·  DISCIPLINE</text>
  <text x="600" y="1604" text-anchor="middle" fill="#FEF8EE" font-family="Georgia, serif" font-size="30">Turn friction into fuel for action</text>
  <text x="600" y="1668" text-anchor="middle" fill="#FEF8EE" font-family="'Trebuchet MS', Arial, sans-serif" font-size="26" letter-spacing="2">Modern Edition · Practical Lessons · Real Scenarios</text>
</svg>
