<svg width="1200" height="1800" viewBox="0 0 1200 1800" fill="none" xmlns="http://www.w3.org/2000/svg" role="img" aria-labelledby="title desc">
  <title id="title">The 12 Week Year cover</title>
  <desc id="desc">Auto-generated themed cover for The 12 Week Year by Brian Moran and Michael Lennington.</desc>
  <defs>
    <linearGradient id="g1586928025" x1="0" y1="0" x2="0" y2="1800" gradientUnits="userSpaceOnUse">
      <stop offset="0%" stop-color="#274F4C"/>
      <stop offset="100%" stop-color="#3E7364"/>
    </linearGradient>
  </defs>

  <rect width="1200" height="1800" fill="url(#g1586928025)"/>

  <circle cx="600" cy="840" r="420" fill="#8AC0AB" opacity="0.16"/>
  <circle cx="600" cy="840" r="300" fill="#FBF8EF" opacity="0.16"/>
  <circle cx="602" cy="864" r="210" fill="#DB9F4F" opacity="0.18"/>
  <circle cx="598" cy="816" r="130" fill="#FBF8EF" opacity="0.34"/>
  <rect x="116" y="304" width="968" height="1036" rx="38" fill="#F2EEE3" stroke="#C6B9A3" stroke-width="10"/>

  <g transform="translate(395 565)">
    <rect x="0" y="0" width="384" height="334" rx="26" fill="#FBF8EF" stroke="#8AC0AB" stroke-width="8"/>
    <rect x="34" y="46" width="316" height="28" rx="12" fill="#8AC0AB" opacity="0.55"/>
    <g stroke="#203230" stroke-width="8" stroke-linecap="round" stroke-linejoin="round">
      <rect x="42" y="108" width="40" height="40" rx="8" fill="none"/>
      <path d="M52 128 L62 138 L82 116"/>
      <rect x="42" y="174" width="40" height="40" rx="8" fill="none"/>
      <path d="M52 194 L62 204 L82 182"/>
      <rect x="42" y="240" width="40" height="40" rx="8" fill="none"/>
      <path d="M52 260 L62 270 L82 248"/>
    </g>
    <rect x="106" y="112" width="240" height="28" rx="10" fill="#DB9F4F" opacity="0.8"/>
    <rect x="106" y="178" width="224" height="28" rx="10" fill="#8AC0AB" opacity="0.72"/>
    <rect x="106" y="244" width="258" height="28" rx="10" fill="#DB9F4F" opacity="0.7"/>
  </g>

  <rect x="0" y="0" width="1200" height="238" fill="#274F4C" opacity="0.93"/>
  <rect x="0" y="1454" width="1200" height="346" fill="#3E7364" opacity="0.95"/>
  <text x="600" y="136" text-anchor="middle" fill="#FBF8EF" font-family="Georgia, serif" font-size="62" font-weight="700" letter-spacing="3">BRIAN MORAN AND MICHAEL LENNINGTON</text>
  <text x="600" y="208" text-anchor="middle" fill="#FBF8EF" font-family="'Trebuchet MS', Arial, sans-serif" font-size="30" letter-spacing="4">PRODUCTIVITY</text>
  <text x="600" y="1216" text-anchor="middle" fill="#203230" font-family="'Trebuchet MS', Arial, sans-serif" font-size="92" font-weight="700" letter-spacing="2">THE 12 WEEK YEAR</text>
  <text x="600" y="1538" text-anchor="middle" fill="#FBF8EF" font-family="'Trebuchet MS', Arial, sans-serif" font-size="30" letter-spacing="3">FOCUS  ·  PLANNING  ·  SYSTEMS</text>
  <text x="600" y="1604" text-anchor="middle" fill="#FBF8EF" font-family="Georgia, serif" font-size="30">Focus, habits, and execution</text>
  <text x="600" y="1668" text-anchor="middle" fill="#FBF8EF" font-family="'Trebuchet MS', Arial, sans-serif" font-size="26" letter-spacing="2">Modern Edition · Practical Lessons · Real Scenarios</text>
</svg>
