<svg width="1200" height="1800" viewBox="0 0 1200 1800" fill="none" xmlns="http://www.w3.org/2000/svg" role="img" aria-labelledby="title desc">
  <title id="title">The 12 Week Year cover</title>
  <desc id="desc">Auto-generated themed cover for The 12 Week Year by Brian Moran and Michael Lennington.</desc>
  <defs>
    <linearGradient id="g1586928025" x1="0" y1="0" x2="0" y2="1800" gradientUnits="userSpaceOnUse">
      <stop offset="0%" stop-color="#274F4C"/>
      <stop offset="100%" stop-color="#3E7364"/>
    </linearGradient>
  </defs>

  <rect width="1200" height="1800" fill="url(#g1586928025)"/>

  <circle cx="600" cy="840" r="420" fill="#8AC0AB" opacity="0.16"/>
  <circle cx="600" cy="840" r="300" fill="#FBF8EF" opacity="0.16"/>
  <circle cx="602" cy="864" r="210" fill="#DB9F4F" opacity="0.18"/>
  <circle cx="598" cy="816" r="130" fill="#FBF8EF" opacity="0.34"/>
  <rect x="116" y="304" width="968" height="1036" rx="38" fill="#F2EEE3" stroke="#C6B9A3" stroke-width="10"/>

  <g transform="translate(391 557)">
    <rect x="0" y="0" width="392" height="332" rx="24" fill="#FBF8EF" stroke="#8AC0AB" stroke-width="8"/>
    <rect x="54" y="58" width="282" height="224" rx="18" fill="#DB9F4F" opacity="0.16"/>
    <rect x="82" y="92" width="24" height="24" rx="6" fill="#8AC0AB" opacity="0.86"/>
    <path d="M86 104 L92 110 L104 96" fill="none" stroke="#203230" stroke-width="6" stroke-linecap="round" stroke-linejoin="round"/>
    <rect x="120" y="96" width="186" height="14" rx="7" fill="#DB9F4F" opacity="0.82"/>
    <rect x="82" y="144" width="24" height="24" rx="6" fill="#8AC0AB" opacity="0.86"/>
    <path d="M86 156 L92 162 L104 148" fill="none" stroke="#203230" stroke-width="6" stroke-linecap="round" stroke-linejoin="round"/>
    <rect x="120" y="148" width="164" height="14" rx="7" fill="#DB9F4F" opacity="0.78"/>
    <rect x="82" y="196" width="24" height="24" rx="6" fill="#8AC0AB" opacity="0.86"/>
    <path d="M86 208 L92 214 L104 200" fill="none" stroke="#203230" stroke-width="6" stroke-linecap="round" stroke-linejoin="round"/>
    <rect x="120" y="200" width="206" height="14" rx="7" fill="#DB9F4F" opacity="0.74"/>
  </g>

  <g transform="translate(926 334)">
    <polygon points="88,8 162,52 162,136 88,180 14,136 14,52" fill="#FBF8EF" stroke="#DB9F4F" stroke-width="10"/>
    <circle cx="88" cy="94" r="44" fill="#8AC0AB" opacity="0.7"/>
    <text x="88" y="108" text-anchor="middle" fill="#203230" font-family="'Trebuchet MS', Arial, sans-serif" font-size="42" font-weight="700" letter-spacing="2">1W</text>
  </g>

  <rect x="0" y="0" width="1200" height="238" fill="#274F4C" opacity="0.93"/>
  <rect x="0" y="1454" width="1200" height="346" fill="#3E7364" opacity="0.95"/>
  <text x="600" y="136" text-anchor="middle" fill="#FBF8EF" font-family="Georgia, serif" font-size="62" font-weight="700" letter-spacing="3">BRIAN MORAN AND MICHAEL LENNINGTON</text>
  <text x="600" y="208" text-anchor="middle" fill="#FBF8EF" font-family="'Trebuchet MS', Arial, sans-serif" font-size="30" letter-spacing="4">PRODUCTIVITY</text>
  <text x="600" y="1216" text-anchor="middle" fill="#203230" font-family="'Trebuchet MS', Arial, sans-serif" font-size="92" font-weight="700" letter-spacing="2">THE 12 WEEK YEAR</text>
  <text x="600" y="1538" text-anchor="middle" fill="#FBF8EF" font-family="'Trebuchet MS', Arial, sans-serif" font-size="30" letter-spacing="3">FOCUS  ·  PLANNING  ·  SYSTEMS</text>
  <text x="600" y="1604" text-anchor="middle" fill="#FBF8EF" font-family="Georgia, serif" font-size="30">Focus, habits, and execution</text>
  <text x="600" y="1668" text-anchor="middle" fill="#FBF8EF" font-family="'Trebuchet MS', Arial, sans-serif" font-size="26" letter-spacing="2">Modern Edition · Practical Lessons · Real Scenarios</text>
</svg>
