<svg width="1200" height="1800" viewBox="0 0 1200 1800" fill="none" xmlns="http://www.w3.org/2000/svg" role="img" aria-labelledby="title desc">
  <title id="title">The Obstacle Is the Way cover</title>
  <desc id="desc">Auto-generated themed cover for The Obstacle Is the Way by Ryan Holiday.</desc>
  <defs>
    <linearGradient id="g434653932" x1="0" y1="0" x2="0" y2="1800" gradientUnits="userSpaceOnUse">
      <stop offset="0%" stop-color="#3D445F"/>
      <stop offset="100%" stop-color="#5A658A"/>
    </linearGradient>
  </defs>

  <rect width="1200" height="1800" fill="url(#g434653932)"/>

  <rect x="0" y="300" width="1200" height="1180" fill="#A9B7D1" opacity="0.1"/>
  <g stroke="#FEF8EE" opacity="0.2">
    <line x1="160" y1="320" x2="160" y2="1460" stroke-width="4"/>
    <line x1="320" y1="320" x2="320" y2="1460" stroke-width="3"/>
    <line x1="480" y1="320" x2="480" y2="1460" stroke-width="2"/>
    <line x1="640" y1="320" x2="640" y2="1460" stroke-width="3"/>
    <line x1="800" y1="320" x2="800" y2="1460" stroke-width="2"/>
    <line x1="960" y1="320" x2="960" y2="1460" stroke-width="3"/>
  </g>
  <path d="M140 430 L1060 430" stroke="#E09F57" stroke-width="10" opacity="0.22"/>
  <path d="M140 1330 L1060 1330" stroke="#E09F57" stroke-width="10" opacity="0.2"/>
  <rect x="116" y="304" width="968" height="1036" rx="38" fill="#F4EDE2" stroke="#CAB9A3" stroke-width="10"/>

  <g transform="translate(388 558)">
    <circle cx="204" cy="72" r="44" fill="#E09F57" opacity="0.44"/>
    <path d="M24 292 L132 144 L208 248 L296 114 L388 292 Z" fill="#A9B7D1" opacity="0.82"/>
    <path d="M84 292 L168 186 L226 260 L302 172 L360 292 Z" fill="#E09F57" opacity="0.82"/>
    <path d="M34 292 H378" stroke="#FEF8EE" stroke-width="12" stroke-linecap="round" opacity="0.8"/>
  </g>

  <g transform="translate(922 332)">
    <rect x="12" y="12" width="152" height="152" rx="24" fill="#FEF8EE" stroke="#E09F57" stroke-width="10"/>
    <path d="M30 116 L146 52" stroke="#A9B7D1" stroke-width="8" stroke-linecap="round"/>
    <path d="M30 138 L146 74" stroke="#A9B7D1" stroke-width="8" stroke-linecap="round"/>
    <text x="88" y="102" text-anchor="middle" fill="#2C3247" font-family="'Trebuchet MS', Arial, sans-serif" font-size="44" font-weight="700" letter-spacing="2">OW</text>
  </g>

  <rect x="0" y="0" width="1200" height="238" fill="#3D445F" opacity="0.93"/>
  <rect x="0" y="1454" width="1200" height="346" fill="#5A658A" opacity="0.95"/>
  <text x="600" y="136" text-anchor="middle" fill="#FEF8EE" font-family="Georgia, serif" font-size="62" font-weight="700" letter-spacing="3">RYAN HOLIDAY</text>
  <text x="600" y="208" text-anchor="middle" fill="#FEF8EE" font-family="'Trebuchet MS', Arial, sans-serif" font-size="30" letter-spacing="4">RESILIENCE</text>
  <text x="600" y="1114" text-anchor="middle" fill="#2C3247" font-family="Georgia, 'Times New Roman', serif" font-size="108" font-weight="700" letter-spacing="2">THE OBSTACLE</text>
  <text x="600" y="1231" text-anchor="middle" fill="#2C3247" font-family="Georgia, 'Times New Roman', serif" font-size="108" font-weight="700" letter-spacing="2">IS THE</text>
  <text x="600" y="1348" text-anchor="middle" fill="#2C3247" font-family="Georgia, 'Times New Roman', serif" font-size="108" font-weight="700" letter-spacing="2">WAY</text>
  <text x="600" y="1538" text-anchor="middle" fill="#FEF8EE" font-family="'Trebuchet MS', Arial, sans-serif" font-size="30" letter-spacing="3">STOICISM  ·  RESILIENCE  ·  DISCIPLINE</text>
  <text x="600" y="1604" text-anchor="middle" fill="#FEF8EE" font-family="Georgia, serif" font-size="30">Turn friction into progress and strength</text>
  <text x="600" y="1668" text-anchor="middle" fill="#FEF8EE" font-family="'Trebuchet MS', Arial, sans-serif" font-size="26" letter-spacing="2">Modern Edition · Practical Lessons · Real Scenarios</text>
</svg>
