<svg width="1200" height="1800" viewBox="0 0 1200 1800" fill="none" xmlns="http://www.w3.org/2000/svg" role="img" aria-labelledby="title desc">
  <title id="title">The Checklist Manifesto cover</title>
  <desc id="desc">Auto-generated themed cover for The Checklist Manifesto by Atul Gawande.</desc>
  <defs>
    <linearGradient id="g2032331966" x1="0" y1="0" x2="0" y2="1800" gradientUnits="userSpaceOnUse">
      <stop offset="0%" stop-color="#256054"/>
      <stop offset="100%" stop-color="#468B7A"/>
    </linearGradient>
  </defs>

  <rect width="1200" height="1800" fill="url(#g2032331966)"/>

  <circle cx="600" cy="840" r="420" fill="#85C4B1" opacity="0.16"/>
  <circle cx="600" cy="840" r="300" fill="#FDF7EE" opacity="0.16"/>
  <circle cx="589" cy="844" r="210" fill="#E0935E" opacity="0.18"/>
  <circle cx="611" cy="836" r="130" fill="#FDF7EE" opacity="0.34"/>
  <ellipse cx="600" cy="812" rx="470" ry="382" fill="#FDF7EE" opacity="0.08"/>
  <rect x="116" y="304" width="968" height="1036" rx="38" fill="#F4EDE3" stroke="#C3B29E" stroke-width="10"/>
<g opacity="0.24" transform="translate(0 -26)">
  <g transform="translate(395 567)">
    <rect x="0" y="0" width="392" height="332" rx="24" fill="#F4EDE3" stroke="#FDF7EE" stroke-width="8"/>
    <rect x="54" y="58" width="282" height="224" rx="18" fill="#85C4B1" opacity="0.16"/>
    <rect x="82" y="92" width="24" height="24" rx="6" fill="#FDF7EE" opacity="0.86"/>
    <path d="M86 104 L92 110 L104 96" fill="none" stroke="#1E2F2D" stroke-width="6" stroke-linecap="round" stroke-linejoin="round"/>
    <rect x="120" y="96" width="186" height="14" rx="7" fill="#85C4B1" opacity="0.82"/>
    <rect x="82" y="144" width="24" height="24" rx="6" fill="#FDF7EE" opacity="0.86"/>
    <path d="M86 156 L92 162 L104 148" fill="none" stroke="#1E2F2D" stroke-width="6" stroke-linecap="round" stroke-linejoin="round"/>
    <rect x="120" y="148" width="164" height="14" rx="7" fill="#85C4B1" opacity="0.78"/>
    <rect x="82" y="196" width="24" height="24" rx="6" fill="#FDF7EE" opacity="0.86"/>
    <path d="M86 208 L92 214 L104 200" fill="none" stroke="#1E2F2D" stroke-width="6" stroke-linecap="round" stroke-linejoin="round"/>
    <rect x="120" y="200" width="206" height="14" rx="7" fill="#85C4B1" opacity="0.74"/>
  </g></g>

  <g transform="translate(408 558)">
    <rect x="0" y="0" width="392" height="332" rx="24" fill="#FDF7EE" stroke="#85C4B1" stroke-width="8"/>
    <rect x="54" y="58" width="282" height="224" rx="18" fill="#E0935E" opacity="0.16"/>
    <rect x="82" y="92" width="24" height="24" rx="6" fill="#85C4B1" opacity="0.86"/>
    <path d="M86 104 L92 110 L104 96" fill="none" stroke="#1E2F2D" stroke-width="6" stroke-linecap="round" stroke-linejoin="round"/>
    <rect x="120" y="96" width="186" height="14" rx="7" fill="#E0935E" opacity="0.82"/>
    <rect x="82" y="144" width="24" height="24" rx="6" fill="#85C4B1" opacity="0.86"/>
    <path d="M86 156 L92 162 L104 148" fill="none" stroke="#1E2F2D" stroke-width="6" stroke-linecap="round" stroke-linejoin="round"/>
    <rect x="120" y="148" width="164" height="14" rx="7" fill="#E0935E" opacity="0.78"/>
    <rect x="82" y="196" width="24" height="24" rx="6" fill="#85C4B1" opacity="0.86"/>
    <path d="M86 208 L92 214 L104 200" fill="none" stroke="#1E2F2D" stroke-width="6" stroke-linecap="round" stroke-linejoin="round"/>
    <rect x="120" y="200" width="206" height="14" rx="7" fill="#E0935E" opacity="0.74"/>
  </g>

  <g transform="translate(922 332)">
    <rect x="12" y="12" width="152" height="152" rx="24" fill="#FDF7EE" stroke="#E0935E" stroke-width="10"/>
    <path d="M30 116 L146 52" stroke="#85C4B1" stroke-width="8" stroke-linecap="round"/>
    <path d="M30 138 L146 74" stroke="#85C4B1" stroke-width="8" stroke-linecap="round"/>
    <text x="88" y="102" text-anchor="middle" fill="#1E2F2D" font-family="'Trebuchet MS', Arial, sans-serif" font-size="44" font-weight="700" letter-spacing="2">CM</text>
  </g>

  <rect x="0" y="0" width="1200" height="238" fill="#256054" opacity="0.93"/>
  <rect x="0" y="1454" width="1200" height="346" fill="#468B7A" opacity="0.95"/>
  <text x="600" y="136" text-anchor="middle" fill="#FDF7EE" font-family="Georgia, serif" font-size="62" font-weight="700" letter-spacing="3">ATUL GAWANDE</text>
  <text x="600" y="208" text-anchor="middle" fill="#FDF7EE" font-family="'Trebuchet MS', Arial, sans-serif" font-size="30" letter-spacing="4">PRODUCTIVITY</text>
  <text x="600" y="1216" text-anchor="middle" fill="#1E2F2D" font-family="'Trebuchet MS', Arial, sans-serif" font-size="78" font-weight="700" letter-spacing="2">THE CHECKLIST MANIFESTO</text>
  <g>
    <rect x="459" y="1466" width="112" height="42" rx="21" fill="#FDF7EE" opacity="0.18" stroke="#FDF7EE" stroke-width="2"/>
    <text x="515" y="1494" text-anchor="middle" fill="#FDF7EE" font-family="'Trebuchet MS', Arial, sans-serif" font-size="20" letter-spacing="1">FOCUS</text>
  </g>
  <g>
    <rect x="593" y="1466" width="148" height="42" rx="21" fill="#FDF7EE" opacity="0.18" stroke="#FDF7EE" stroke-width="2"/>
    <text x="667" y="1494" text-anchor="middle" fill="#FDF7EE" font-family="'Trebuchet MS', Arial, sans-serif" font-size="20" letter-spacing="1">PLANNING</text>
  </g>
  <text x="600" y="1538" text-anchor="middle" fill="#FDF7EE" font-family="'Trebuchet MS', Arial, sans-serif" font-size="30" letter-spacing="3">FOCUS  ·  PLANNING  ·  SYSTEMS</text>
  <text x="600" y="1604" text-anchor="middle" fill="#FDF7EE" font-family="Georgia, serif" font-size="30">Simple checklists prevent costly misses</text>
  <text x="600" y="1668" text-anchor="middle" fill="#FDF7EE" font-family="'Trebuchet MS', Arial, sans-serif" font-size="26" letter-spacing="2">Modern Edition · Practical Lessons · Real Scenarios</text>
</svg>
