<svg width="1200" height="1800" viewBox="0 0 1200 1800" fill="none" xmlns="http://www.w3.org/2000/svg" role="img" aria-labelledby="title desc">
  <title id="title">The Power of Habit cover</title>
  <desc id="desc">Auto-generated themed cover for The Power of Habit by Charles Duhigg.</desc>
  <defs>
    <linearGradient id="g620406243" x1="0" y1="0" x2="0" y2="1800" gradientUnits="userSpaceOnUse">
      <stop offset="0%" stop-color="#274F4C"/>
      <stop offset="100%" stop-color="#3E7364"/>
    </linearGradient>
  </defs>

  <rect width="1200" height="1800" fill="url(#g620406243)"/>

  <rect x="-120" y="310" width="820" height="1100" transform="rotate(-12 400 860)" fill="#8AC0AB" opacity="0.24"/>
  <rect x="560" y="260" width="760" height="1150" transform="rotate(8 940 835)" fill="#DB9F4F" opacity="0.16"/>
  <circle cx="257" cy="579" r="180" fill="#DB9F4F" opacity="0.17"/>
  <circle cx="973" cy="1021" r="220" fill="#8AC0AB" opacity="0.2"/>
  <rect x="116" y="304" width="968" height="1036" rx="38" fill="#F2EEE3" stroke="#C6B9A3" stroke-width="10"/>

  <g transform="translate(396 569)">
    <circle cx="196" cy="170" r="128" fill="none" stroke="#DB9F4F" stroke-width="20" opacity="0.88"/>
    <circle cx="196" cy="170" r="76" fill="none" stroke="#8AC0AB" stroke-width="18" opacity="0.86"/>
    <polygon points="316,170 274,154 284,186" fill="#DB9F4F"/>
    <polygon points="118,96 132,136 98,126" fill="#8AC0AB"/>
    <circle cx="196" cy="170" r="32" fill="#203230" opacity="0.82"/>
  </g>

  <rect x="0" y="0" width="1200" height="238" fill="#274F4C" opacity="0.93"/>
  <rect x="0" y="1454" width="1200" height="346" fill="#3E7364" opacity="0.95"/>
  <text x="600" y="136" text-anchor="middle" fill="#FBF8EF" font-family="Georgia, serif" font-size="62" font-weight="700" letter-spacing="3">CHARLES DUHIGG</text>
  <text x="600" y="208" text-anchor="middle" fill="#FBF8EF" font-family="'Trebuchet MS', Arial, sans-serif" font-size="30" letter-spacing="4">PRODUCTIVITY</text>
  <text x="600" y="1216" text-anchor="middle" fill="#203230" font-family="'Trebuchet MS', Arial, sans-serif" font-size="92" font-weight="700" letter-spacing="2">THE POWER OF HABIT</text>
  <text x="600" y="1538" text-anchor="middle" fill="#FBF8EF" font-family="'Trebuchet MS', Arial, sans-serif" font-size="30" letter-spacing="3">HABITS  ·  BEHAVIOR-CHANGE  ·  WILLPOWER</text>
  <text x="600" y="1604" text-anchor="middle" fill="#FBF8EF" font-family="Georgia, serif" font-size="30">Cue, routine, and reward in daily life</text>
  <text x="600" y="1668" text-anchor="middle" fill="#FBF8EF" font-family="'Trebuchet MS', Arial, sans-serif" font-size="26" letter-spacing="2">Modern Edition · Practical Lessons · Real Scenarios</text>
</svg>
