<svg width="1200" height="1800" viewBox="0 0 1200 1800" fill="none" xmlns="http://www.w3.org/2000/svg" role="img" aria-labelledby="title desc">
  <title id="title">The Almanack of Naval Ravikant cover</title>
  <desc id="desc">Auto-generated themed cover for The Almanack of Naval Ravikant by Eric Jorgenson.</desc>
  <defs>
    <linearGradient id="g785452642" x1="0" y1="0" x2="0" y2="1800" gradientUnits="userSpaceOnUse">
      <stop offset="0%" stop-color="#2C2921"/>
      <stop offset="100%" stop-color="#564F3F"/>
    </linearGradient>
  </defs>

  <rect width="1200" height="1800" fill="url(#g785452642)"/>

  <rect x="-120" y="310" width="820" height="1100" transform="rotate(-12 400 860)" fill="#B7A48A" opacity="0.24"/>
  <rect x="560" y="260" width="760" height="1150" transform="rotate(8 940 835)" fill="#D9AA62" opacity="0.16"/>
  <circle cx="255" cy="564" r="180" fill="#D9AA62" opacity="0.17"/>
  <circle cx="975" cy="1036" r="220" fill="#B7A48A" opacity="0.2"/>
  <ellipse cx="600" cy="812" rx="470" ry="382" fill="#FEF8EE" opacity="0.08"/>
  <rect x="116" y="304" width="968" height="1036" rx="38" fill="#F3ECE2" stroke="#C5B49B" stroke-width="10"/>
<g opacity="0.24" transform="translate(0 -26)">
  <g transform="translate(417 547)">
    <line x1="186" y1="64" x2="186" y2="318" stroke="#2F2A22" stroke-width="12" stroke-linecap="round"/>
    <line x1="88" y1="114" x2="284" y2="114" stroke="#2F2A22" stroke-width="12" stroke-linecap="round"/>
    <path d="M114 114 L84 184 H144 Z" fill="#B7A48A" opacity="0.86"/>
    <path d="M258 114 L228 184 H288 Z" fill="#FEF8EE" opacity="0.9"/>
    <rect x="126" y="318" width="120" height="18" rx="9" fill="#2F2A22" opacity="0.88"/>
    <circle cx="186" cy="74" r="20" fill="#F3ECE2" stroke="#FEF8EE" stroke-width="8"/>
  </g></g>

  <g transform="translate(400 564)">
    <line x1="186" y1="64" x2="186" y2="318" stroke="#2F2A22" stroke-width="12" stroke-linecap="round"/>
    <line x1="88" y1="114" x2="284" y2="114" stroke="#2F2A22" stroke-width="12" stroke-linecap="round"/>
    <path d="M114 114 L84 184 H144 Z" fill="#D9AA62" opacity="0.86"/>
    <path d="M258 114 L228 184 H288 Z" fill="#B7A48A" opacity="0.9"/>
    <rect x="126" y="318" width="120" height="18" rx="9" fill="#2F2A22" opacity="0.88"/>
    <circle cx="186" cy="74" r="20" fill="#FEF8EE" stroke="#B7A48A" stroke-width="8"/>
  </g>

  <g transform="translate(924 332)">
    <polygon points="88,8 168,88 88,168 8,88" fill="#FEF8EE" stroke="#D9AA62" stroke-width="10"/>
    <circle cx="88" cy="88" r="38" fill="#B7A48A" opacity="0.72"/>
    <text x="88" y="102" text-anchor="middle" fill="#2F2A22" font-family="'Trebuchet MS', Arial, sans-serif" font-size="40" font-weight="700" letter-spacing="2">AN</text>
  </g>

  <rect x="0" y="0" width="1200" height="238" fill="#2C2921" opacity="0.93"/>
  <rect x="0" y="1454" width="1200" height="346" fill="#564F3F" opacity="0.95"/>
  <text x="600" y="136" text-anchor="middle" fill="#FEF8EE" font-family="Georgia, serif" font-size="62" font-weight="700" letter-spacing="3">ERIC JORGENSON</text>
  <text x="600" y="208" text-anchor="middle" fill="#FEF8EE" font-family="'Trebuchet MS', Arial, sans-serif" font-size="30" letter-spacing="4">PHILOSOPHY</text>
  <text x="600" y="1114" text-anchor="middle" fill="#2F2A22" font-family="Georgia, 'Times New Roman', serif" font-size="108" font-weight="700" letter-spacing="2">THE ALMANACK</text>
  <text x="600" y="1231" text-anchor="middle" fill="#2F2A22" font-family="Georgia, 'Times New Roman', serif" font-size="108" font-weight="700" letter-spacing="2">OF NAVAL</text>
  <text x="600" y="1348" text-anchor="middle" fill="#2F2A22" font-family="Georgia, 'Times New Roman', serif" font-size="108" font-weight="700" letter-spacing="2">RAVIKANT</text>
  <g>
    <rect x="453" y="1466" width="124" height="42" rx="21" fill="#FEF8EE" opacity="0.18" stroke="#FEF8EE" stroke-width="2"/>
    <text x="515" y="1494" text-anchor="middle" fill="#FEF8EE" font-family="'Trebuchet MS', Arial, sans-serif" font-size="20" letter-spacing="1">WEALTH</text>
  </g>
  <g>
    <rect x="599" y="1466" width="148" height="42" rx="21" fill="#FEF8EE" opacity="0.18" stroke="#FEF8EE" stroke-width="2"/>
    <text x="673" y="1494" text-anchor="middle" fill="#FEF8EE" font-family="'Trebuchet MS', Arial, sans-serif" font-size="20" letter-spacing="1">JUDGMENT</text>
  </g>
  <text x="600" y="1538" text-anchor="middle" fill="#FEF8EE" font-family="'Trebuchet MS', Arial, sans-serif" font-size="30" letter-spacing="3">WEALTH  ·  JUDGMENT  ·  HAPPINESS</text>
  <text x="600" y="1604" text-anchor="middle" fill="#FEF8EE" font-family="Georgia, serif" font-size="30">Wealth and happiness through leverage and judgment</text>
  <text x="600" y="1668" text-anchor="middle" fill="#FEF8EE" font-family="'Trebuchet MS', Arial, sans-serif" font-size="26" letter-spacing="2">Modern Edition · Practical Lessons · Real Scenarios</text>
</svg>
