<svg width="1200" height="1800" viewBox="0 0 1200 1800" fill="none" xmlns="http://www.w3.org/2000/svg" role="img" aria-labelledby="title desc">
  <title id="title">The 12 Week Year cover</title>
  <desc id="desc">Auto-generated themed cover for The 12 Week Year by Brian Moran and Michael Lennington.</desc>
  <defs>
    <linearGradient id="g1586928025" x1="0" y1="0" x2="0" y2="1800" gradientUnits="userSpaceOnUse">
      <stop offset="0%" stop-color="#213B3B"/>
      <stop offset="100%" stop-color="#3F675F"/>
    </linearGradient>
  </defs>

  <rect width="1200" height="1800" fill="url(#g1586928025)"/>

  <rect x="0" y="300" width="1200" height="1180" fill="#90BFAF" opacity="0.1"/>
  <g fill="#FBF8EF" opacity="0.19">
    <circle cx="210" cy="560" r="124"/>
    <circle cx="1020" cy="640" r="110"/>
    <circle cx="920" cy="1220" r="132"/>
    <circle cx="230" cy="1190" r="96"/>
  </g>
  <path d="M70 730 Q300 614 600 740 T1130 760" stroke="#D8A657" stroke-width="20" opacity="0.2"/>
  <path d="M70 960 Q320 1104 600 940 T1130 920" stroke="#FBF8EF" stroke-width="16" opacity="0.24"/>
  <ellipse cx="600" cy="812" rx="470" ry="382" fill="#FBF8EF" opacity="0.08"/>
  <rect x="116" y="304" width="968" height="1036" rx="38" fill="#F2EEE3" stroke="#C0B49F" stroke-width="10"/>
<g opacity="0.24" transform="translate(0 -26)">
  <g transform="translate(422 558)">
    <rect x="0" y="0" width="356" height="352" rx="24" fill="#F2EEE3" stroke="#FBF8EF" stroke-width="8"/>
    <path d="M88 72 H268 C264 112 236 146 200 176 C236 206 264 240 268 280 H88 C92 240 120 206 156 176 C120 146 92 112 88 72 Z" fill="#90BFAF" opacity="0.86"/>
    <path d="M156 176 H200" stroke="#1F2E2D" stroke-width="8" stroke-linecap="round"/>
    <circle cx="178" cy="168" r="7" fill="#F2EEE3"/>
    <circle cx="186" cy="186" r="6" fill="#F2EEE3"/>
    <circle cx="172" cy="204" r="5" fill="#F2EEE3"/>
  </g></g>

  <g transform="translate(405 549)">
    <rect x="0" y="0" width="356" height="352" rx="24" fill="#FBF8EF" stroke="#90BFAF" stroke-width="8"/>
    <path d="M88 72 H268 C264 112 236 146 200 176 C236 206 264 240 268 280 H88 C92 240 120 206 156 176 C120 146 92 112 88 72 Z" fill="#D8A657" opacity="0.86"/>
    <path d="M156 176 H200" stroke="#1F2E2D" stroke-width="8" stroke-linecap="round"/>
    <circle cx="178" cy="168" r="7" fill="#FBF8EF"/>
    <circle cx="186" cy="186" r="6" fill="#FBF8EF"/>
    <circle cx="172" cy="204" r="5" fill="#FBF8EF"/>
  </g>

  <g transform="translate(926 334)">
    <polygon points="88,8 162,52 162,136 88,180 14,136 14,52" fill="#FBF8EF" stroke="#D8A657" stroke-width="10"/>
    <circle cx="88" cy="94" r="44" fill="#90BFAF" opacity="0.7"/>
    <text x="88" y="108" text-anchor="middle" fill="#1F2E2D" font-family="'Trebuchet MS', Arial, sans-serif" font-size="42" font-weight="700" letter-spacing="2">1W</text>
  </g>

  <rect x="0" y="0" width="1200" height="238" fill="#213B3B" opacity="0.93"/>
  <rect x="0" y="1454" width="1200" height="346" fill="#3F675F" opacity="0.95"/>
  <text x="600" y="136" text-anchor="middle" fill="#FBF8EF" font-family="Georgia, serif" font-size="62" font-weight="700" letter-spacing="3">BRIAN MORAN AND MICHAEL LENNINGTON</text>
  <text x="600" y="208" text-anchor="middle" fill="#FBF8EF" font-family="'Trebuchet MS', Arial, sans-serif" font-size="30" letter-spacing="4">PRODUCTIVITY</text>
  <text x="600" y="1216" text-anchor="middle" fill="#1F2E2D" font-family="'Trebuchet MS', Arial, sans-serif" font-size="92" font-weight="700" letter-spacing="2">THE 12 WEEK YEAR</text>
  <g>
    <rect x="459" y="1466" width="112" height="42" rx="21" fill="#FBF8EF" opacity="0.18" stroke="#FBF8EF" stroke-width="2"/>
    <text x="515" y="1494" text-anchor="middle" fill="#FBF8EF" font-family="'Trebuchet MS', Arial, sans-serif" font-size="20" letter-spacing="1">FOCUS</text>
  </g>
  <g>
    <rect x="593" y="1466" width="148" height="42" rx="21" fill="#FBF8EF" opacity="0.18" stroke="#FBF8EF" stroke-width="2"/>
    <text x="667" y="1494" text-anchor="middle" fill="#FBF8EF" font-family="'Trebuchet MS', Arial, sans-serif" font-size="20" letter-spacing="1">PLANNING</text>
  </g>
  <text x="600" y="1538" text-anchor="middle" fill="#FBF8EF" font-family="'Trebuchet MS', Arial, sans-serif" font-size="30" letter-spacing="3">FOCUS  ·  PLANNING  ·  SYSTEMS</text>
  <text x="600" y="1604" text-anchor="middle" fill="#FBF8EF" font-family="Georgia, serif" font-size="30">Compress goals into shorter execution cycles</text>
  <text x="600" y="1668" text-anchor="middle" fill="#FBF8EF" font-family="'Trebuchet MS', Arial, sans-serif" font-size="26" letter-spacing="2">Modern Edition · Practical Lessons · Real Scenarios</text>
</svg>
