<svg width="1200" height="1800" viewBox="0 0 1200 1800" fill="none" xmlns="http://www.w3.org/2000/svg" role="img" aria-labelledby="title desc">
  <title id="title">The 48 Laws of Power cover</title>
  <desc id="desc">Auto-generated themed cover for The 48 Laws of Power by Robert Greene.</desc>
  <defs>
    <linearGradient id="g473887042" x1="0" y1="0" x2="0" y2="1800" gradientUnits="userSpaceOnUse">
      <stop offset="0%" stop-color="#131313"/>
      <stop offset="100%" stop-color="#2A2A2A"/>
    </linearGradient>
  </defs>

  <rect width="1200" height="1800" fill="url(#g473887042)"/>

  <circle cx="600" cy="840" r="420" fill="#6C6C6C" opacity="0.16"/>
  <circle cx="600" cy="840" r="300" fill="#FFF9EE" opacity="0.16"/>
  <circle cx="609" cy="829" r="210" fill="#9E1B1B" opacity="0.18"/>
  <circle cx="591" cy="851" r="130" fill="#FFF9EE" opacity="0.34"/>
  <ellipse cx="600" cy="812" rx="470" ry="382" fill="#FFF9EE" opacity="0.08"/>
  <rect x="116" y="304" width="968" height="1036" rx="38" fill="#F0E5D0" stroke="#BDA57D" stroke-width="10"/>
<g opacity="0.24" transform="translate(0 -26)">
  <g transform="translate(425 551)">
    <rect x="30" y="44" width="332" height="292" rx="24" fill="#F0E5D0" stroke="#FFF9EE" stroke-width="8"/>
    <path d="M74 246 L104 118 L176 186 L222 110 L286 186 L318 118 L346 246 Z" fill="#6C6C6C" opacity="0.9"/>
    <rect x="88" y="244" width="248" height="38" rx="14" fill="#1B140D" opacity="0.88"/>
    <circle cx="104" cy="112" r="10" fill="#1B140D"/>
    <circle cx="222" cy="102" r="11" fill="#1B140D"/>
    <circle cx="318" cy="112" r="10" fill="#1B140D"/>
  </g></g>

  <g transform="translate(408 568)">
    <rect x="30" y="44" width="332" height="292" rx="24" fill="#FFF9EE" stroke="#6C6C6C" stroke-width="8"/>
    <path d="M74 246 L104 118 L176 186 L222 110 L286 186 L318 118 L346 246 Z" fill="#9E1B1B" opacity="0.9"/>
    <rect x="88" y="244" width="248" height="38" rx="14" fill="#1B140D" opacity="0.88"/>
    <circle cx="104" cy="112" r="10" fill="#1B140D"/>
    <circle cx="222" cy="102" r="11" fill="#1B140D"/>
    <circle cx="318" cy="112" r="10" fill="#1B140D"/>
  </g>

  <g transform="translate(930 336)">
    <path d="M82 8 L152 34 V90 C152 142 120 174 82 190 C44 174 12 142 12 90 V34 Z" fill="#FFF9EE" stroke="#9E1B1B" stroke-width="10"/>
    <rect x="30" y="64" width="104" height="64" rx="20" fill="#6C6C6C" opacity="0.72"/>
    <text x="82" y="106" text-anchor="middle" fill="#1B140D" font-family="'Trebuchet MS', Arial, sans-serif" font-size="40" font-weight="700" letter-spacing="2">4L</text>
  </g>

  <rect x="0" y="0" width="1200" height="238" fill="#131313" opacity="0.93"/>
  <rect x="0" y="1454" width="1200" height="346" fill="#2A2A2A" opacity="0.95"/>
  <text x="600" y="136" text-anchor="middle" fill="#FFF9EE" font-family="Georgia, serif" font-size="62" font-weight="700" letter-spacing="3">ROBERT GREENE</text>
  <text x="600" y="208" text-anchor="middle" fill="#FFF9EE" font-family="'Trebuchet MS', Arial, sans-serif" font-size="30" letter-spacing="4">STRATEGY</text>
  <text x="600" y="1114" text-anchor="middle" fill="#1B140D" font-family="Georgia, 'Times New Roman', serif" font-size="108" font-weight="700" letter-spacing="2">THE 48</text>
  <text x="600" y="1231" text-anchor="middle" fill="#1B140D" font-family="Georgia, 'Times New Roman', serif" font-size="108" font-weight="700" letter-spacing="2">LAWS OF</text>
  <text x="600" y="1348" text-anchor="middle" fill="#1B140D" font-family="Georgia, 'Times New Roman', serif" font-size="108" font-weight="700" letter-spacing="2">POWER</text>
  <g>
    <rect x="459" y="1466" width="112" height="42" rx="21" fill="#FFF9EE" opacity="0.18" stroke="#FFF9EE" stroke-width="2"/>
    <text x="515" y="1494" text-anchor="middle" fill="#FFF9EE" font-family="'Trebuchet MS', Arial, sans-serif" font-size="20" letter-spacing="1">POWER</text>
  </g>
  <g>
    <rect x="593" y="1466" width="148" height="42" rx="21" fill="#FFF9EE" opacity="0.18" stroke="#FFF9EE" stroke-width="2"/>
    <text x="667" y="1494" text-anchor="middle" fill="#FFF9EE" font-family="'Trebuchet MS', Arial, sans-serif" font-size="20" letter-spacing="1">STRATEGY</text>
  </g>
  <text x="600" y="1538" text-anchor="middle" fill="#FFF9EE" font-family="'Trebuchet MS', Arial, sans-serif" font-size="30" letter-spacing="3">POWER  ·  STRATEGY  ·  INFLUENCE</text>
  <text x="600" y="1604" text-anchor="middle" fill="#FFF9EE" font-family="Georgia, serif" font-size="30">Status, timing, and strategic restraint</text>
  <text x="600" y="1668" text-anchor="middle" fill="#FFF9EE" font-family="'Trebuchet MS', Arial, sans-serif" font-size="26" letter-spacing="2">Modern Edition · Practical Lessons · Real Scenarios</text>
</svg>
