<svg width="1200" height="1800" viewBox="0 0 1200 1800" fill="none" xmlns="http://www.w3.org/2000/svg" role="img" aria-labelledby="title desc">
  <title id="title">The 7 Habits of Highly Effective People cover</title>
  <desc id="desc">Auto-generated themed cover for The 7 Habits of Highly Effective People by Stephen R. Covey.</desc>
  <defs>
    <linearGradient id="g1896454746" x1="0" y1="0" x2="0" y2="1800" gradientUnits="userSpaceOnUse">
      <stop offset="0%" stop-color="#20554A"/>
      <stop offset="100%" stop-color="#3F8271"/>
    </linearGradient>
  </defs>

  <rect width="1200" height="1800" fill="url(#g1896454746)"/>

  <rect x="-120" y="310" width="820" height="1100" transform="rotate(-12 400 860)" fill="#84C5B1" opacity="0.24"/>
  <rect x="560" y="260" width="760" height="1150" transform="rotate(8 940 835)" fill="#E0935E" opacity="0.16"/>
  <circle cx="271" cy="553" r="180" fill="#E0935E" opacity="0.17"/>
  <circle cx="959" cy="1047" r="220" fill="#84C5B1" opacity="0.2"/>
  <ellipse cx="600" cy="812" rx="470" ry="382" fill="#FDF7EE" opacity="0.08"/>
  <rect x="116" y="304" width="968" height="1036" rx="38" fill="#F4EDE3" stroke="#C3B29E" stroke-width="10"/>
<g opacity="0.24" transform="translate(0 -26)">
  <g transform="translate(397 560)">
    <rect x="0" y="0" width="392" height="332" rx="24" fill="#F4EDE3" stroke="#FDF7EE" stroke-width="8"/>
    <rect x="54" y="58" width="282" height="224" rx="18" fill="#84C5B1" opacity="0.16"/>
    <rect x="82" y="92" width="24" height="24" rx="6" fill="#FDF7EE" opacity="0.86"/>
    <path d="M86 104 L92 110 L104 96" fill="none" stroke="#1E2F2D" stroke-width="6" stroke-linecap="round" stroke-linejoin="round"/>
    <rect x="120" y="96" width="186" height="14" rx="7" fill="#84C5B1" opacity="0.82"/>
    <rect x="82" y="144" width="24" height="24" rx="6" fill="#FDF7EE" opacity="0.86"/>
    <path d="M86 156 L92 162 L104 148" fill="none" stroke="#1E2F2D" stroke-width="6" stroke-linecap="round" stroke-linejoin="round"/>
    <rect x="120" y="148" width="164" height="14" rx="7" fill="#84C5B1" opacity="0.78"/>
    <rect x="82" y="196" width="24" height="24" rx="6" fill="#FDF7EE" opacity="0.86"/>
    <path d="M86 208 L92 214 L104 200" fill="none" stroke="#1E2F2D" stroke-width="6" stroke-linecap="round" stroke-linejoin="round"/>
    <rect x="120" y="200" width="206" height="14" rx="7" fill="#84C5B1" opacity="0.74"/>
  </g></g>

  <g transform="translate(410 551)">
    <rect x="0" y="0" width="392" height="332" rx="24" fill="#FDF7EE" stroke="#84C5B1" stroke-width="8"/>
    <rect x="54" y="58" width="282" height="224" rx="18" fill="#E0935E" opacity="0.16"/>
    <rect x="82" y="92" width="24" height="24" rx="6" fill="#84C5B1" opacity="0.86"/>
    <path d="M86 104 L92 110 L104 96" fill="none" stroke="#1E2F2D" stroke-width="6" stroke-linecap="round" stroke-linejoin="round"/>
    <rect x="120" y="96" width="186" height="14" rx="7" fill="#E0935E" opacity="0.82"/>
    <rect x="82" y="144" width="24" height="24" rx="6" fill="#84C5B1" opacity="0.86"/>
    <path d="M86 156 L92 162 L104 148" fill="none" stroke="#1E2F2D" stroke-width="6" stroke-linecap="round" stroke-linejoin="round"/>
    <rect x="120" y="148" width="164" height="14" rx="7" fill="#E0935E" opacity="0.78"/>
    <rect x="82" y="196" width="24" height="24" rx="6" fill="#84C5B1" opacity="0.86"/>
    <path d="M86 208 L92 214 L104 200" fill="none" stroke="#1E2F2D" stroke-width="6" stroke-linecap="round" stroke-linejoin="round"/>
    <rect x="120" y="200" width="206" height="14" rx="7" fill="#E0935E" opacity="0.74"/>
  </g>

  <g transform="translate(930 336)">
    <path d="M82 8 L152 34 V90 C152 142 120 174 82 190 C44 174 12 142 12 90 V34 Z" fill="#FDF7EE" stroke="#E0935E" stroke-width="10"/>
    <rect x="30" y="64" width="104" height="64" rx="20" fill="#84C5B1" opacity="0.72"/>
    <text x="82" y="106" text-anchor="middle" fill="#1E2F2D" font-family="'Trebuchet MS', Arial, sans-serif" font-size="40" font-weight="700" letter-spacing="2">7H</text>
  </g>

  <rect x="0" y="0" width="1200" height="238" fill="#20554A" opacity="0.93"/>
  <rect x="0" y="1454" width="1200" height="346" fill="#3F8271" opacity="0.95"/>
  <text x="600" y="136" text-anchor="middle" fill="#FDF7EE" font-family="Georgia, serif" font-size="62" font-weight="700" letter-spacing="3">STEPHEN R. COVEY</text>
  <text x="600" y="208" text-anchor="middle" fill="#FDF7EE" font-family="'Trebuchet MS', Arial, sans-serif" font-size="30" letter-spacing="4">PRODUCTIVITY</text>
  <text x="600" y="1114" text-anchor="middle" fill="#1E2F2D" font-family="'Trebuchet MS', Arial, sans-serif" font-size="78" font-weight="700" letter-spacing="2">THE 7 HABITS</text>
  <text x="600" y="1198" text-anchor="middle" fill="#1E2F2D" font-family="'Trebuchet MS', Arial, sans-serif" font-size="78" font-weight="700" letter-spacing="2">OF HIGHLY EFFECTIVE</text>
  <text x="600" y="1282" text-anchor="middle" fill="#1E2F2D" font-family="'Trebuchet MS', Arial, sans-serif" font-size="78" font-weight="700" letter-spacing="2">PEOPLE</text>
  <g>
    <rect x="441" y="1466" width="124" height="42" rx="21" fill="#FDF7EE" opacity="0.18" stroke="#FDF7EE" stroke-width="2"/>
    <text x="503" y="1494" text-anchor="middle" fill="#FDF7EE" font-family="'Trebuchet MS', Arial, sans-serif" font-size="20" letter-spacing="1">HABITS</text>
  </g>
  <g>
    <rect x="587" y="1466" width="172" height="42" rx="21" fill="#FDF7EE" opacity="0.18" stroke="#FDF7EE" stroke-width="2"/>
    <text x="673" y="1494" text-anchor="middle" fill="#FDF7EE" font-family="'Trebuchet MS', Arial, sans-serif" font-size="20" letter-spacing="1">LEADERSHIP</text>
  </g>
  <text x="600" y="1538" text-anchor="middle" fill="#FDF7EE" font-family="'Trebuchet MS', Arial, sans-serif" font-size="30" letter-spacing="3">HABITS  ·  LEADERSHIP  ·  PRINCIPLES</text>
  <text x="600" y="1604" text-anchor="middle" fill="#FDF7EE" font-family="Georgia, serif" font-size="30">Principle centered habits for lasting effectiveness</text>
  <text x="600" y="1668" text-anchor="middle" fill="#FDF7EE" font-family="'Trebuchet MS', Arial, sans-serif" font-size="26" letter-spacing="2">Modern Edition · Practical Lessons · Real Scenarios</text>
</svg>
