<svg width="1200" height="1800" viewBox="0 0 1200 1800" fill="none" xmlns="http://www.w3.org/2000/svg" role="img" aria-labelledby="title desc">
  <title id="title">The Outsiders cover</title>
  <desc id="desc">Auto-generated themed cover for The Outsiders by William Thorndike.</desc>
  <defs>
    <linearGradient id="g879408168" x1="0" y1="0" x2="0" y2="1800" gradientUnits="userSpaceOnUse">
      <stop offset="0%" stop-color="#1B3246"/>
      <stop offset="100%" stop-color="#415E76"/>
    </linearGradient>
  </defs>

  <rect width="1200" height="1800" fill="url(#g879408168)"/>

  <rect x="0" y="300" width="1200" height="1180" fill="#8CB0C8" opacity="0.1"/>
  <g fill="#FDF8EE" opacity="0.19">
    <circle cx="210" cy="560" r="124"/>
    <circle cx="1020" cy="640" r="110"/>
    <circle cx="920" cy="1220" r="132"/>
    <circle cx="230" cy="1190" r="96"/>
  </g>
  <path d="M70 730 Q300 571 600 740 T1130 760" stroke="#D98E4F" stroke-width="20" opacity="0.2"/>
  <path d="M70 960 Q320 1061 600 940 T1130 920" stroke="#FDF8EE" stroke-width="16" opacity="0.24"/>
  <ellipse cx="600" cy="812" rx="470" ry="382" fill="#FDF8EE" opacity="0.08"/>
  <rect x="116" y="304" width="968" height="1036" rx="38" fill="#F4EDE2" stroke="#C6B29D" stroke-width="10"/>
<g opacity="0.24" transform="translate(0 -26)">
  <g transform="translate(403 561)">
    <rect x="0" y="0" width="396" height="324" rx="24" fill="#F4EDE2" stroke="#FDF8EE" stroke-width="8"/>
    <line x1="62" y1="272" x2="334" y2="272" stroke="#FDF8EE" stroke-width="10" stroke-linecap="round"/>
    <line x1="62" y1="272" x2="62" y2="74" stroke="#FDF8EE" stroke-width="10" stroke-linecap="round"/>
    <path d="M78 236 L144 210 L194 226 L248 154 L318 122" fill="none" stroke="#8CB0C8" stroke-width="14" stroke-linecap="round" stroke-linejoin="round"/>
    <circle cx="318" cy="122" r="12" fill="#212F3E"/>
  </g></g>

  <g transform="translate(416 579)">
    <rect x="0" y="0" width="396" height="324" rx="24" fill="#FDF8EE" stroke="#8CB0C8" stroke-width="8"/>
    <line x1="62" y1="272" x2="334" y2="272" stroke="#8CB0C8" stroke-width="10" stroke-linecap="round"/>
    <line x1="62" y1="272" x2="62" y2="74" stroke="#8CB0C8" stroke-width="10" stroke-linecap="round"/>
    <path d="M78 236 L144 210 L194 226 L248 154 L318 122" fill="none" stroke="#D98E4F" stroke-width="14" stroke-linecap="round" stroke-linejoin="round"/>
    <circle cx="318" cy="122" r="12" fill="#212F3E"/>
  </g>

  <g transform="translate(924 332)">
    <polygon points="88,8 168,88 88,168 8,88" fill="#FDF8EE" stroke="#D98E4F" stroke-width="10"/>
    <circle cx="88" cy="88" r="38" fill="#8CB0C8" opacity="0.72"/>
    <text x="88" y="102" text-anchor="middle" fill="#212F3E" font-family="'Trebuchet MS', Arial, sans-serif" font-size="40" font-weight="700" letter-spacing="2">OU</text>
  </g>

  <rect x="0" y="0" width="1200" height="238" fill="#1B3246" opacity="0.93"/>
  <rect x="0" y="1454" width="1200" height="346" fill="#415E76" opacity="0.95"/>
  <text x="600" y="136" text-anchor="middle" fill="#FDF8EE" font-family="Georgia, serif" font-size="62" font-weight="700" letter-spacing="3">WILLIAM THORNDIKE</text>
  <text x="600" y="208" text-anchor="middle" fill="#FDF8EE" font-family="'Trebuchet MS', Arial, sans-serif" font-size="30" letter-spacing="4">LEADERSHIP</text>
  <text x="600" y="1216" text-anchor="middle" fill="#212F3E" font-family="Georgia, 'Times New Roman', serif" font-size="92" font-weight="700" letter-spacing="2">THE OUTSIDERS</text>
  <g>
    <rect x="417" y="1466" width="184" height="42" rx="21" fill="#FDF8EE" opacity="0.18" stroke="#FDF8EE" stroke-width="2"/>
    <text x="509" y="1494" text-anchor="middle" fill="#FDF8EE" font-family="'Trebuchet MS', Arial, sans-serif" font-size="20" letter-spacing="1">COMPETITION</text>
  </g>
  <g>
    <rect x="623" y="1466" width="160" height="42" rx="21" fill="#FDF8EE" opacity="0.18" stroke="#FDF8EE" stroke-width="2"/>
    <text x="703" y="1494" text-anchor="middle" fill="#FDF8EE" font-family="'Trebuchet MS', Arial, sans-serif" font-size="20" letter-spacing="1">ADVANTAGE</text>
  </g>
  <text x="600" y="1538" text-anchor="middle" fill="#FDF8EE" font-family="'Trebuchet MS', Arial, sans-serif" font-size="30" letter-spacing="3">COMPETITION  ·  ADVANTAGE  ·  LEADERSHIP</text>
  <text x="600" y="1604" text-anchor="middle" fill="#FDF8EE" font-family="Georgia, serif" font-size="30">Unconventional allocation drives outperformance</text>
  <text x="600" y="1668" text-anchor="middle" fill="#FDF8EE" font-family="'Trebuchet MS', Arial, sans-serif" font-size="26" letter-spacing="2">Modern Edition · Practical Lessons · Real Scenarios</text>
</svg>
