<svg width="1200" height="1800" viewBox="0 0 1200 1800" fill="none" xmlns="http://www.w3.org/2000/svg" role="img" aria-labelledby="title desc">
  <title id="title">The Hard Thing About Hard Things cover</title>
  <desc id="desc">Auto-generated themed cover for The Hard Thing About Hard Things by Ben Horowitz.</desc>
  <defs>
    <linearGradient id="g1213952656" x1="0" y1="0" x2="0" y2="1800" gradientUnits="userSpaceOnUse">
      <stop offset="0%" stop-color="#1E3352"/>
      <stop offset="100%" stop-color="#3F5978"/>
    </linearGradient>
  </defs>

  <rect width="1200" height="1800" fill="url(#g1213952656)"/>

  <circle cx="600" cy="840" r="420" fill="#88A8C7" opacity="0.16"/>
  <circle cx="600" cy="840" r="300" fill="#FDF8EE" opacity="0.16"/>
  <circle cx="617" cy="860" r="210" fill="#DA9A49" opacity="0.18"/>
  <circle cx="583" cy="820" r="130" fill="#FDF8EE" opacity="0.34"/>
  <rect x="116" y="304" width="968" height="1036" rx="38" fill="#F4EDE2" stroke="#CAB9A3" stroke-width="10"/>

  <g transform="translate(398 556)">
    <circle cx="204" cy="72" r="44" fill="#DA9A49" opacity="0.44"/>
    <path d="M24 292 L132 144 L208 248 L296 114 L388 292 Z" fill="#88A8C7" opacity="0.82"/>
    <path d="M84 292 L168 186 L226 260 L302 172 L360 292 Z" fill="#DA9A49" opacity="0.82"/>
    <path d="M34 292 H378" stroke="#FDF8EE" stroke-width="12" stroke-linecap="round" opacity="0.8"/>
  </g>

  <g transform="translate(924 332)">
    <polygon points="88,8 168,88 88,168 8,88" fill="#FDF8EE" stroke="#DA9A49" stroke-width="10"/>
    <circle cx="88" cy="88" r="38" fill="#88A8C7" opacity="0.72"/>
    <text x="88" y="102" text-anchor="middle" fill="#223142" font-family="'Trebuchet MS', Arial, sans-serif" font-size="40" font-weight="700" letter-spacing="2">HT</text>
  </g>

  <rect x="0" y="0" width="1200" height="238" fill="#1E3352" opacity="0.93"/>
  <rect x="0" y="1454" width="1200" height="346" fill="#3F5978" opacity="0.95"/>
  <text x="600" y="136" text-anchor="middle" fill="#FDF8EE" font-family="Georgia, serif" font-size="62" font-weight="700" letter-spacing="3">BEN HOROWITZ</text>
  <text x="600" y="208" text-anchor="middle" fill="#FDF8EE" font-family="'Trebuchet MS', Arial, sans-serif" font-size="30" letter-spacing="4">LEADERSHIP</text>
  <text x="600" y="1114" text-anchor="middle" fill="#223142" font-family="Georgia, 'Times New Roman', serif" font-size="108" font-weight="700" letter-spacing="2">THE HARD</text>
  <text x="600" y="1231" text-anchor="middle" fill="#223142" font-family="Georgia, 'Times New Roman', serif" font-size="108" font-weight="700" letter-spacing="2">THING ABOUT</text>
  <text x="600" y="1348" text-anchor="middle" fill="#223142" font-family="Georgia, 'Times New Roman', serif" font-size="108" font-weight="700" letter-spacing="2">HARD THINGS</text>
  <text x="600" y="1538" text-anchor="middle" fill="#FDF8EE" font-family="'Trebuchet MS', Arial, sans-serif" font-size="30" letter-spacing="3">STARTUPS  ·  MANAGEMENT  ·  LEADERSHIP</text>
  <text x="600" y="1604" text-anchor="middle" fill="#FDF8EE" font-family="Georgia, serif" font-size="30">Responsibility and alignment</text>
  <text x="600" y="1668" text-anchor="middle" fill="#FDF8EE" font-family="'Trebuchet MS', Arial, sans-serif" font-size="26" letter-spacing="2">Modern Edition · Practical Lessons · Real Scenarios</text>
</svg>
