<svg width="1200" height="1800" viewBox="0 0 1200 1800" fill="none" xmlns="http://www.w3.org/2000/svg" role="img" aria-labelledby="title desc">
  <title id="title">The Mole People cover</title>
  <desc id="desc">Auto-generated themed cover for The Mole People by Jennifer Toth.</desc>
  <defs>
    <linearGradient id="g829704719" x1="0" y1="0" x2="0" y2="1800" gradientUnits="userSpaceOnUse">
      <stop offset="0%" stop-color="#3A3E63"/>
      <stop offset="100%" stop-color="#5A5A86"/>
    </linearGradient>
  </defs>

  <rect width="1200" height="1800" fill="url(#g829704719)"/>

  <rect x="0" y="300" width="1200" height="1180" fill="#9FA8D9" opacity="0.12"/>
  <rect x="110" y="370" width="420" height="420" rx="42" fill="#FDF7EE" opacity="0.2"/>
  <rect x="670" y="360" width="420" height="430" rx="42" fill="#D59D5A" opacity="0.16"/>
  <rect x="110" y="980" width="420" height="360" rx="42" fill="#D59D5A" opacity="0.15"/>
  <rect x="670" y="950" width="420" height="390" rx="42" fill="#FDF7EE" opacity="0.2"/>
  <rect x="116" y="304" width="968" height="1036" rx="38" fill="#F2EDE3" stroke="#C8B8A7" stroke-width="10"/>

  <g transform="translate(400 550)">
    <circle cx="196" cy="170" r="128" fill="none" stroke="#D59D5A" stroke-width="20" opacity="0.88"/>
    <circle cx="196" cy="170" r="76" fill="none" stroke="#9FA8D9" stroke-width="18" opacity="0.86"/>
    <polygon points="316,170 274,154 284,186" fill="#D59D5A"/>
    <polygon points="118,96 132,136 98,126" fill="#9FA8D9"/>
    <circle cx="196" cy="170" r="32" fill="#24283A" opacity="0.82"/>
  </g>

  <g transform="translate(924 332)">
    <polygon points="88,8 168,88 88,168 8,88" fill="#FDF7EE" stroke="#D59D5A" stroke-width="10"/>
    <circle cx="88" cy="88" r="38" fill="#9FA8D9" opacity="0.72"/>
    <text x="88" y="102" text-anchor="middle" fill="#24283A" font-family="'Trebuchet MS', Arial, sans-serif" font-size="40" font-weight="700" letter-spacing="2">MP</text>
  </g>

  <rect x="0" y="0" width="1200" height="238" fill="#3A3E63" opacity="0.93"/>
  <rect x="0" y="1454" width="1200" height="346" fill="#5A5A86" opacity="0.95"/>
  <text x="600" y="136" text-anchor="middle" fill="#FDF7EE" font-family="Georgia, serif" font-size="62" font-weight="700" letter-spacing="3">JENNIFER TOTH</text>
  <text x="600" y="208" text-anchor="middle" fill="#FDF7EE" font-family="'Trebuchet MS', Arial, sans-serif" font-size="30" letter-spacing="4">PSYCHOLOGY</text>
  <text x="600" y="1216" text-anchor="middle" fill="#24283A" font-family="Georgia, 'Times New Roman', serif" font-size="92" font-weight="700" letter-spacing="2">THE MOLE PEOPLE</text>
  <text x="600" y="1538" text-anchor="middle" fill="#FDF7EE" font-family="'Trebuchet MS', Arial, sans-serif" font-size="30" letter-spacing="3">INSTITUTIONS  ·  SOCIETY  ·  INCENTIVES</text>
  <text x="600" y="1604" text-anchor="middle" fill="#FDF7EE" font-family="Georgia, serif" font-size="30">Behavior, bias, and motivation</text>
  <text x="600" y="1668" text-anchor="middle" fill="#FDF7EE" font-family="'Trebuchet MS', Arial, sans-serif" font-size="26" letter-spacing="2">Modern Edition · Practical Lessons · Real Scenarios</text>
</svg>
