<svg width="1200" height="1800" viewBox="0 0 1200 1800" fill="none" xmlns="http://www.w3.org/2000/svg" role="img" aria-labelledby="title desc">
  <title id="title">The Mole People cover</title>
  <desc id="desc">Auto-generated themed cover for The Mole People by Jennifer Toth.</desc>
  <defs>
    <linearGradient id="g640949351" x1="0" y1="0" x2="0" y2="1800" gradientUnits="userSpaceOnUse">
      <stop offset="0%" stop-color="#504131"/>
      <stop offset="100%" stop-color="#7A654B"/>
    </linearGradient>
  </defs>

  <rect width="1200" height="1800" fill="url(#g640949351)"/>

  <rect x="0" y="300" width="1200" height="1180" fill="#BAA58D" opacity="0.1"/>
  <g stroke="#FDF7EC" opacity="0.2">
    <line x1="160" y1="320" x2="160" y2="1460" stroke-width="4"/>
    <line x1="320" y1="320" x2="320" y2="1460" stroke-width="3"/>
    <line x1="480" y1="320" x2="480" y2="1460" stroke-width="2"/>
    <line x1="640" y1="320" x2="640" y2="1460" stroke-width="3"/>
    <line x1="800" y1="320" x2="800" y2="1460" stroke-width="2"/>
    <line x1="960" y1="320" x2="960" y2="1460" stroke-width="3"/>
  </g>
  <path d="M140 430 L1060 430" stroke="#DAA663" stroke-width="10" opacity="0.22"/>
  <path d="M140 1330 L1060 1330" stroke="#DAA663" stroke-width="10" opacity="0.2"/>
  <ellipse cx="600" cy="812" rx="470" ry="382" fill="#FDF7EC" opacity="0.08"/>
  <rect x="116" y="304" width="968" height="1036" rx="38" fill="#F3ECE0" stroke="#C4B39A" stroke-width="10"/>
<g opacity="0.24" transform="translate(0 -26)">
  <g transform="translate(401 568)">
    <rect x="0" y="0" width="388" height="332" rx="24" fill="#F3ECE0" stroke="#FDF7EC" stroke-width="8"/>
    <path d="M52 62 H338 V270 H82 V100 H286 V228 H136 V152 H236" fill="none" stroke="#BAA58D" stroke-width="14" stroke-linecap="round" stroke-linejoin="round"/>
    <circle cx="236" cy="152" r="12" fill="#30261E"/>
  </g></g>

  <g transform="translate(414 559)">
    <rect x="0" y="0" width="388" height="332" rx="24" fill="#FDF7EC" stroke="#BAA58D" stroke-width="8"/>
    <path d="M52 62 H338 V270 H82 V100 H286 V228 H136 V152 H236" fill="none" stroke="#DAA663" stroke-width="14" stroke-linecap="round" stroke-linejoin="round"/>
    <circle cx="236" cy="152" r="12" fill="#30261E"/>
  </g>

  <g transform="translate(924 332)">
    <polygon points="88,8 168,88 88,168 8,88" fill="#FDF7EC" stroke="#DAA663" stroke-width="10"/>
    <circle cx="88" cy="88" r="38" fill="#BAA58D" opacity="0.72"/>
    <text x="88" y="102" text-anchor="middle" fill="#30261E" font-family="'Trebuchet MS', Arial, sans-serif" font-size="40" font-weight="700" letter-spacing="2">MP</text>
  </g>

  <rect x="0" y="0" width="1200" height="238" fill="#504131" opacity="0.93"/>
  <rect x="0" y="1454" width="1200" height="346" fill="#7A654B" opacity="0.95"/>
  <text x="600" y="136" text-anchor="middle" fill="#FDF7EC" font-family="Georgia, serif" font-size="62" font-weight="700" letter-spacing="3">JENNIFER TOTH</text>
  <text x="600" y="208" text-anchor="middle" fill="#FDF7EC" font-family="'Trebuchet MS', Arial, sans-serif" font-size="30" letter-spacing="4">PHILOSOPHY</text>
  <text x="600" y="1216" text-anchor="middle" fill="#30261E" font-family="Georgia, 'Times New Roman', serif" font-size="92" font-weight="700" letter-spacing="2">THE MOLE PEOPLE</text>
  <g>
    <rect x="423" y="1466" width="196" height="42" rx="21" fill="#FDF7EC" opacity="0.18" stroke="#FDF7EC" stroke-width="2"/>
    <text x="521" y="1494" text-anchor="middle" fill="#FDF7EC" font-family="'Trebuchet MS', Arial, sans-serif" font-size="20" letter-spacing="1">INSTITUTIONS</text>
  </g>
  <g>
    <rect x="641" y="1466" width="136" height="42" rx="21" fill="#FDF7EC" opacity="0.18" stroke="#FDF7EC" stroke-width="2"/>
    <text x="709" y="1494" text-anchor="middle" fill="#FDF7EC" font-family="'Trebuchet MS', Arial, sans-serif" font-size="20" letter-spacing="1">SOCIETY</text>
  </g>
  <text x="600" y="1538" text-anchor="middle" fill="#FDF7EC" font-family="'Trebuchet MS', Arial, sans-serif" font-size="30" letter-spacing="3">INSTITUTIONS  ·  SOCIETY  ·  INCENTIVES</text>
  <text x="600" y="1604" text-anchor="middle" fill="#FDF7EC" font-family="Georgia, serif" font-size="30">Invisible systems and survival underground</text>
  <text x="600" y="1668" text-anchor="middle" fill="#FDF7EC" font-family="'Trebuchet MS', Arial, sans-serif" font-size="26" letter-spacing="2">Modern Edition · Practical Lessons · Real Scenarios</text>
</svg>
