<svg width="1200" height="1800" viewBox="0 0 1200 1800" fill="none" xmlns="http://www.w3.org/2000/svg" role="img" aria-labelledby="title desc">
  <title id="title">The Checklist Manifesto cover</title>
  <desc id="desc">Auto-generated themed cover for The Checklist Manifesto by Atul Gawande.</desc>
  <defs>
    <linearGradient id="g2032331966" x1="0" y1="0" x2="0" y2="1800" gradientUnits="userSpaceOnUse">
      <stop offset="0%" stop-color="#205F5D"/>
      <stop offset="100%" stop-color="#3A8279"/>
    </linearGradient>
  </defs>

  <rect width="1200" height="1800" fill="url(#g2032331966)"/>

  <rect x="0" y="300" width="1200" height="1180" fill="#7FC5B8" opacity="0.1"/>
  <g stroke="#FDF8EE" opacity="0.2">
    <line x1="160" y1="320" x2="160" y2="1460" stroke-width="4"/>
    <line x1="320" y1="320" x2="320" y2="1460" stroke-width="3"/>
    <line x1="480" y1="320" x2="480" y2="1460" stroke-width="2"/>
    <line x1="640" y1="320" x2="640" y2="1460" stroke-width="3"/>
    <line x1="800" y1="320" x2="800" y2="1460" stroke-width="2"/>
    <line x1="960" y1="320" x2="960" y2="1460" stroke-width="3"/>
  </g>
  <path d="M140 430 L1060 430" stroke="#E2A457" stroke-width="10" opacity="0.22"/>
  <path d="M140 1330 L1060 1330" stroke="#E2A457" stroke-width="10" opacity="0.2"/>
  <rect x="116" y="304" width="968" height="1036" rx="38" fill="#F4EEE3" stroke="#C8B9A3" stroke-width="10"/>

  <g transform="translate(412 566)">
    <rect x="0" y="0" width="384" height="334" rx="26" fill="#FDF8EE" stroke="#7FC5B8" stroke-width="8"/>
    <rect x="34" y="46" width="316" height="28" rx="12" fill="#7FC5B8" opacity="0.55"/>
    <g stroke="#1F3331" stroke-width="8" stroke-linecap="round" stroke-linejoin="round">
      <rect x="42" y="108" width="40" height="40" rx="8" fill="none"/>
      <path d="M52 128 L62 138 L82 116"/>
      <rect x="42" y="174" width="40" height="40" rx="8" fill="none"/>
      <path d="M52 194 L62 204 L82 182"/>
      <rect x="42" y="240" width="40" height="40" rx="8" fill="none"/>
      <path d="M52 260 L62 270 L82 248"/>
    </g>
    <rect x="106" y="112" width="240" height="28" rx="10" fill="#E2A457" opacity="0.8"/>
    <rect x="106" y="178" width="224" height="28" rx="10" fill="#7FC5B8" opacity="0.72"/>
    <rect x="106" y="244" width="258" height="28" rx="10" fill="#E2A457" opacity="0.7"/>
  </g>

  <rect x="0" y="0" width="1200" height="238" fill="#205F5D" opacity="0.93"/>
  <rect x="0" y="1454" width="1200" height="346" fill="#3A8279" opacity="0.95"/>
  <text x="600" y="136" text-anchor="middle" fill="#FDF8EE" font-family="Georgia, serif" font-size="62" font-weight="700" letter-spacing="3">ATUL GAWANDE</text>
  <text x="600" y="208" text-anchor="middle" fill="#FDF8EE" font-family="'Trebuchet MS', Arial, sans-serif" font-size="30" letter-spacing="4">PRODUCTIVITY</text>
  <text x="600" y="1216" text-anchor="middle" fill="#1F3331" font-family="'Trebuchet MS', Arial, sans-serif" font-size="78" font-weight="700" letter-spacing="2">THE CHECKLIST MANIFESTO</text>
  <text x="600" y="1538" text-anchor="middle" fill="#FDF8EE" font-family="'Trebuchet MS', Arial, sans-serif" font-size="30" letter-spacing="3">FOCUS  ·  PLANNING  ·  SYSTEMS</text>
  <text x="600" y="1604" text-anchor="middle" fill="#FDF8EE" font-family="Georgia, serif" font-size="30">Focus, habits, and execution</text>
  <text x="600" y="1668" text-anchor="middle" fill="#FDF8EE" font-family="'Trebuchet MS', Arial, sans-serif" font-size="26" letter-spacing="2">Modern Edition · Practical Lessons · Real Scenarios</text>
</svg>
