<svg width="1200" height="1800" viewBox="0 0 1200 1800" fill="none" xmlns="http://www.w3.org/2000/svg" role="img" aria-labelledby="title desc">
  <title id="title">The 48 Laws of Power cover</title>
  <desc id="desc">Auto-generated themed cover for The 48 Laws of Power by Robert Greene.</desc>
  <defs>
    <linearGradient id="g473887042" x1="0" y1="0" x2="0" y2="1800" gradientUnits="userSpaceOnUse">
      <stop offset="0%" stop-color="#2B2A3D"/>
      <stop offset="100%" stop-color="#4A486E"/>
    </linearGradient>
  </defs>

  <rect width="1200" height="1800" fill="url(#g473887042)"/>

  <rect x="0" y="300" width="1200" height="1180" fill="#8F90C0" opacity="0.12"/>
  <rect x="140" y="360" width="920" height="1050" rx="48" fill="#FEF8F0" opacity="0.22"/>
  <path d="M0 560 Q300 429 600 560 T1200 560" stroke="#FEF8F0" stroke-width="22" opacity="0.24"/>
  <path d="M0 1180 Q300 1049 600 1180 T1200 1180" stroke="#D59A43" stroke-width="16" opacity="0.22"/>
  <rect x="116" y="304" width="968" height="1036" rx="38" fill="#F2ECE1" stroke="#C7B9A3" stroke-width="10"/>

  <g transform="translate(409 573)">
    <rect x="0" y="0" width="370" height="330" rx="24" fill="#FEF8F0" opacity="0.92" stroke="#8F90C0" stroke-width="8"/>
    <g stroke="#8F90C0" stroke-width="3" opacity="0.8">
      <line x1="92" y1="0" x2="92" y2="330"/>
      <line x1="184" y1="0" x2="184" y2="330"/>
      <line x1="276" y1="0" x2="276" y2="330"/>
      <line x1="0" y1="82" x2="370" y2="82"/>
      <line x1="0" y1="164" x2="370" y2="164"/>
      <line x1="0" y1="246" x2="370" y2="246"/>
    </g>
    <path d="M46 260 L136 182 L198 222 L318 112" stroke="#D59A43" stroke-width="16" stroke-linecap="round" stroke-linejoin="round"/>
    <polygon points="318,112 284,114 304,140" fill="#D59A43"/>
  </g>

  <rect x="0" y="0" width="1200" height="238" fill="#2B2A3D" opacity="0.93"/>
  <rect x="0" y="1454" width="1200" height="346" fill="#4A486E" opacity="0.95"/>
  <text x="600" y="136" text-anchor="middle" fill="#FEF8F0" font-family="Georgia, serif" font-size="62" font-weight="700" letter-spacing="3">ROBERT GREENE</text>
  <text x="600" y="208" text-anchor="middle" fill="#FEF8F0" font-family="'Trebuchet MS', Arial, sans-serif" font-size="30" letter-spacing="4">STRATEGY</text>
  <text x="600" y="1114" text-anchor="middle" fill="#232733" font-family="Georgia, 'Times New Roman', serif" font-size="108" font-weight="700" letter-spacing="2">THE 48</text>
  <text x="600" y="1231" text-anchor="middle" fill="#232733" font-family="Georgia, 'Times New Roman', serif" font-size="108" font-weight="700" letter-spacing="2">LAWS OF</text>
  <text x="600" y="1348" text-anchor="middle" fill="#232733" font-family="Georgia, 'Times New Roman', serif" font-size="108" font-weight="700" letter-spacing="2">POWER</text>
  <text x="600" y="1538" text-anchor="middle" fill="#FEF8F0" font-family="'Trebuchet MS', Arial, sans-serif" font-size="30" letter-spacing="3">POWER  ·  STRATEGY  ·  INFLUENCE</text>
  <text x="600" y="1604" text-anchor="middle" fill="#FEF8F0" font-family="Georgia, serif" font-size="30">Position, timing, and leverage</text>
  <text x="600" y="1668" text-anchor="middle" fill="#FEF8F0" font-family="'Trebuchet MS', Arial, sans-serif" font-size="26" letter-spacing="2">Modern Edition · Practical Lessons · Real Scenarios</text>
</svg>
