<svg width="1200" height="1800" viewBox="0 0 1200 1800" fill="none" xmlns="http://www.w3.org/2000/svg" role="img" aria-labelledby="title desc">
  <title id="title">The First 20 Hours cover</title>
  <desc id="desc">Auto-generated themed cover for The First 20 Hours by Josh Kaufman.</desc>
  <defs>
    <linearGradient id="g1401189458" x1="0" y1="0" x2="0" y2="1800" gradientUnits="userSpaceOnUse">
      <stop offset="0%" stop-color="#314C74"/>
      <stop offset="100%" stop-color="#5578A6"/>
    </linearGradient>
  </defs>

  <rect width="1200" height="1800" fill="url(#g1401189458)"/>

  <rect x="-120" y="310" width="820" height="1100" transform="rotate(-12 400 860)" fill="#9CB9DA" opacity="0.24"/>
  <rect x="560" y="260" width="760" height="1150" transform="rotate(8 940 835)" fill="#DE9A4A" opacity="0.16"/>
  <circle cx="238" cy="567" r="180" fill="#DE9A4A" opacity="0.17"/>
  <circle cx="992" cy="1033" r="220" fill="#9CB9DA" opacity="0.2"/>
  <rect x="116" y="304" width="968" height="1036" rx="38" fill="#F3ECE1" stroke="#C8B8A2" stroke-width="10"/>

  <g transform="translate(399 567)">
    <path d="M18 56 Q118 6 218 56 V302 Q118 252 18 302 Z" fill="#FEF8EF" stroke="#9CB9DA" stroke-width="8"/>
    <path d="M382 56 Q282 6 182 56 V302 Q282 252 382 302 Z" fill="#FEF8EF" stroke="#9CB9DA" stroke-width="8"/>
    <path d="M200 62 Q200 22 200 8" stroke="#DE9A4A" stroke-width="10" stroke-linecap="round"/>
    <rect x="76" y="106" width="94" height="12" rx="6" fill="#DE9A4A" opacity="0.76"/>
    <rect x="76" y="138" width="112" height="12" rx="6" fill="#9CB9DA" opacity="0.76"/>
    <rect x="76" y="170" width="98" height="12" rx="6" fill="#DE9A4A" opacity="0.76"/>
    <rect x="226" y="106" width="94" height="12" rx="6" fill="#DE9A4A" opacity="0.76"/>
    <rect x="214" y="138" width="112" height="12" rx="6" fill="#9CB9DA" opacity="0.76"/>
    <rect x="224" y="170" width="98" height="12" rx="6" fill="#DE9A4A" opacity="0.76"/>
  </g>

  <rect x="0" y="0" width="1200" height="238" fill="#314C74" opacity="0.93"/>
  <rect x="0" y="1454" width="1200" height="346" fill="#5578A6" opacity="0.95"/>
  <text x="600" y="136" text-anchor="middle" fill="#FEF8EF" font-family="Georgia, serif" font-size="62" font-weight="700" letter-spacing="3">JOSH KAUFMAN</text>
  <text x="600" y="208" text-anchor="middle" fill="#FEF8EF" font-family="'Trebuchet MS', Arial, sans-serif" font-size="30" letter-spacing="4">LEARNING</text>
  <text x="600" y="1216" text-anchor="middle" fill="#25364A" font-family="'Trebuchet MS', Arial, sans-serif" font-size="92" font-weight="700" letter-spacing="2">THE FIRST 20 HOURS</text>
  <text x="600" y="1538" text-anchor="middle" fill="#FEF8EF" font-family="'Trebuchet MS', Arial, sans-serif" font-size="30" letter-spacing="3">PRACTICE  ·  MEMORY  ·  FEEDBACK</text>
  <text x="600" y="1604" text-anchor="middle" fill="#FEF8EF" font-family="Georgia, serif" font-size="30">Practice and skill building</text>
  <text x="600" y="1668" text-anchor="middle" fill="#FEF8EF" font-family="'Trebuchet MS', Arial, sans-serif" font-size="26" letter-spacing="2">Modern Edition · Practical Lessons · Real Scenarios</text>
</svg>
