<svg width="1200" height="1800" viewBox="0 0 1200 1800" fill="none" xmlns="http://www.w3.org/2000/svg" role="img" aria-labelledby="title desc">
  <title id="title">The War of Art cover</title>
  <desc id="desc">Auto-generated themed cover for The War of Art by Steven Pressfield.</desc>
  <defs>
    <linearGradient id="g632131632" x1="0" y1="0" x2="0" y2="1800" gradientUnits="userSpaceOnUse">
      <stop offset="0%" stop-color="#3F3A32"/>
      <stop offset="100%" stop-color="#5F574A"/>
    </linearGradient>
  </defs>

  <rect width="1200" height="1800" fill="url(#g632131632)"/>

  <rect x="-120" y="310" width="820" height="1100" transform="rotate(-12 400 860)" fill="#B39F88" opacity="0.24"/>
  <rect x="560" y="260" width="760" height="1150" transform="rotate(8 940 835)" fill="#D6A160" opacity="0.16"/>
  <circle cx="278" cy="557" r="180" fill="#D6A160" opacity="0.17"/>
  <circle cx="952" cy="1043" r="220" fill="#B39F88" opacity="0.2"/>
  <rect x="116" y="304" width="968" height="1036" rx="38" fill="#F3ECE2" stroke="#C8B8A2" stroke-width="10"/>

  <g transform="translate(419 551)">
    <rect x="42" y="56" width="58" height="250" rx="8" fill="#D6A160" opacity="0.84"/>
    <rect x="294" y="56" width="58" height="250" rx="8" fill="#D6A160" opacity="0.84"/>
    <path d="M100 90 C136 40 258 40 294 90 V132 H100 Z" fill="#FEF8EE" stroke="#B39F88" stroke-width="8"/>
    <rect x="126" y="132" width="168" height="174" rx="14" fill="#FEF8EE" stroke="#B39F88" stroke-width="8"/>
    <line x1="100" y1="198" x2="294" y2="198" stroke="#B39F88" stroke-width="8"/>
  </g>

  <g transform="translate(924 332)">
    <rect x="24" y="14" width="128" height="156" rx="64" fill="#FEF8EE" stroke="#D6A160" stroke-width="10"/>
    <path d="M44 54 H132" stroke="#B39F88" stroke-width="10" stroke-linecap="round"/>
    <path d="M44 80 H132" stroke="#B39F88" stroke-width="10" stroke-linecap="round"/>
    <text x="88" y="128" text-anchor="middle" fill="#322C25" font-family="'Trebuchet MS', Arial, sans-serif" font-size="42" font-weight="700" letter-spacing="2">WA</text>
  </g>

  <rect x="0" y="0" width="1200" height="238" fill="#3F3A32" opacity="0.93"/>
  <rect x="0" y="1454" width="1200" height="346" fill="#5F574A" opacity="0.95"/>
  <text x="600" y="136" text-anchor="middle" fill="#FEF8EE" font-family="Georgia, serif" font-size="62" font-weight="700" letter-spacing="3">STEVEN PRESSFIELD</text>
  <text x="600" y="208" text-anchor="middle" fill="#FEF8EE" font-family="'Trebuchet MS', Arial, sans-serif" font-size="30" letter-spacing="4">PHILOSOPHY</text>
  <text x="600" y="1216" text-anchor="middle" fill="#322C25" font-family="Georgia, 'Times New Roman', serif" font-size="92" font-weight="700" letter-spacing="2">THE WAR OF ART</text>
  <text x="600" y="1538" text-anchor="middle" fill="#FEF8EE" font-family="'Trebuchet MS', Arial, sans-serif" font-size="30" letter-spacing="3">CREATIVITY  ·  DISCIPLINE  ·  RESISTANCE</text>
  <text x="600" y="1604" text-anchor="middle" fill="#FEF8EE" font-family="Georgia, serif" font-size="30">Meaning and perspective</text>
  <text x="600" y="1668" text-anchor="middle" fill="#FEF8EE" font-family="'Trebuchet MS', Arial, sans-serif" font-size="26" letter-spacing="2">Modern Edition · Practical Lessons · Real Scenarios</text>
</svg>
