<svg width="1200" height="1800" viewBox="0 0 1200 1800" fill="none" xmlns="http://www.w3.org/2000/svg" role="img" aria-labelledby="title desc">
  <title id="title">The Gift of Fear cover</title>
  <desc id="desc">Auto-generated themed cover for The Gift of Fear by Gavin de Becker.</desc>
  <defs>
    <linearGradient id="g1620879879" x1="0" y1="0" x2="0" y2="1800" gradientUnits="userSpaceOnUse">
      <stop offset="0%" stop-color="#344153"/>
      <stop offset="100%" stop-color="#56677E"/>
    </linearGradient>
  </defs>

  <rect width="1200" height="1800" fill="url(#g1620879879)"/>

  <rect x="0" y="300" width="1200" height="1180" fill="#A4B6C9" opacity="0.1"/>
  <g fill="#FDF8EE" opacity="0.19">
    <circle cx="210" cy="560" r="124"/>
    <circle cx="1020" cy="640" r="110"/>
    <circle cx="920" cy="1220" r="132"/>
    <circle cx="230" cy="1190" r="96"/>
  </g>
  <path d="M70 730 Q300 604 600 740 T1130 760" stroke="#DDA05A" stroke-width="20" opacity="0.2"/>
  <path d="M70 960 Q320 1094 600 940 T1130 920" stroke="#FDF8EE" stroke-width="16" opacity="0.24"/>
  <ellipse cx="600" cy="812" rx="470" ry="382" fill="#FDF8EE" opacity="0.08"/>
  <rect x="116" y="304" width="968" height="1036" rx="38" fill="#F2ECE1" stroke="#C3B29C" stroke-width="10"/>
<g opacity="0.24" transform="translate(0 -26)">
  <g transform="translate(400 555)">
    <path d="M182 26 L326 84 V192 C326 286 262 350 182 384 C102 350 38 286 38 192 V84 Z" fill="#A4B6C9" opacity="0.88"/>
    <path d="M182 70 L286 112 V192 C286 260 244 310 182 340 C120 310 78 260 78 192 V112 Z" fill="#F2ECE1" opacity="0.9"/>
    <path d="M132 198 L166 232 L236 160" fill="none" stroke="#263444" stroke-width="16" stroke-linecap="round" stroke-linejoin="round"/>
  </g></g>

  <g transform="translate(413 546)">
    <path d="M182 26 L326 84 V192 C326 286 262 350 182 384 C102 350 38 286 38 192 V84 Z" fill="#DDA05A" opacity="0.88"/>
    <path d="M182 70 L286 112 V192 C286 260 244 310 182 340 C120 310 78 260 78 192 V112 Z" fill="#FDF8EE" opacity="0.9"/>
    <path d="M132 198 L166 232 L236 160" fill="none" stroke="#263444" stroke-width="16" stroke-linecap="round" stroke-linejoin="round"/>
  </g>

  <g transform="translate(926 334)">
    <polygon points="88,8 162,52 162,136 88,180 14,136 14,52" fill="#FDF8EE" stroke="#DDA05A" stroke-width="10"/>
    <circle cx="88" cy="94" r="44" fill="#A4B6C9" opacity="0.7"/>
    <text x="88" y="108" text-anchor="middle" fill="#263444" font-family="'Trebuchet MS', Arial, sans-serif" font-size="42" font-weight="700" letter-spacing="2">GF</text>
  </g>

  <rect x="0" y="0" width="1200" height="238" fill="#344153" opacity="0.93"/>
  <rect x="0" y="1454" width="1200" height="346" fill="#56677E" opacity="0.95"/>
  <text x="600" y="136" text-anchor="middle" fill="#FDF8EE" font-family="Georgia, serif" font-size="62" font-weight="700" letter-spacing="3">GAVIN DE BECKER</text>
  <text x="600" y="208" text-anchor="middle" fill="#FDF8EE" font-family="'Trebuchet MS', Arial, sans-serif" font-size="30" letter-spacing="4">RESILIENCE</text>
  <text x="600" y="1216" text-anchor="middle" fill="#263444" font-family="Georgia, 'Times New Roman', serif" font-size="92" font-weight="700" letter-spacing="2">THE GIFT OF FEAR</text>
  <g>
    <rect x="447" y="1466" width="160" height="42" rx="21" fill="#FDF8EE" opacity="0.18" stroke="#FDF8EE" stroke-width="2"/>
    <text x="527" y="1494" text-anchor="middle" fill="#FDF8EE" font-family="'Trebuchet MS', Arial, sans-serif" font-size="20" letter-spacing="1">INTUITION</text>
  </g>
  <g>
    <rect x="629" y="1466" width="124" height="42" rx="21" fill="#FDF8EE" opacity="0.18" stroke="#FDF8EE" stroke-width="2"/>
    <text x="691" y="1494" text-anchor="middle" fill="#FDF8EE" font-family="'Trebuchet MS', Arial, sans-serif" font-size="20" letter-spacing="1">SAFETY</text>
  </g>
  <text x="600" y="1538" text-anchor="middle" fill="#FDF8EE" font-family="'Trebuchet MS', Arial, sans-serif" font-size="30" letter-spacing="3">INTUITION  ·  SAFETY  ·  BOUNDARIES</text>
  <text x="600" y="1604" text-anchor="middle" fill="#FDF8EE" font-family="Georgia, serif" font-size="30">Trust intuition and protect boundaries early</text>
  <text x="600" y="1668" text-anchor="middle" fill="#FDF8EE" font-family="'Trebuchet MS', Arial, sans-serif" font-size="26" letter-spacing="2">Modern Edition · Practical Lessons · Real Scenarios</text>
</svg>
