<svg width="1200" height="1800" viewBox="0 0 1200 1800" fill="none" xmlns="http://www.w3.org/2000/svg" role="img" aria-labelledby="title desc">
  <title id="title">The Psychology of Money cover</title>
  <desc id="desc">Auto-generated themed cover for The Psychology of Money by Morgan Housel.</desc>
  <defs>
    <linearGradient id="g110774657" x1="0" y1="0" x2="0" y2="1800" gradientUnits="userSpaceOnUse">
      <stop offset="0%" stop-color="#1F513A"/>
      <stop offset="100%" stop-color="#2F7A58"/>
    </linearGradient>
  </defs>

  <rect width="1200" height="1800" fill="url(#g110774657)"/>

  <rect x="0" y="300" width="1200" height="1180" fill="#89B39C" opacity="0.1"/>
  <g stroke="#FCFAF1" opacity="0.2">
    <line x1="160" y1="320" x2="160" y2="1460" stroke-width="4"/>
    <line x1="320" y1="320" x2="320" y2="1460" stroke-width="3"/>
    <line x1="480" y1="320" x2="480" y2="1460" stroke-width="2"/>
    <line x1="640" y1="320" x2="640" y2="1460" stroke-width="3"/>
    <line x1="800" y1="320" x2="800" y2="1460" stroke-width="2"/>
    <line x1="960" y1="320" x2="960" y2="1460" stroke-width="3"/>
  </g>
  <path d="M140 430 L1060 430" stroke="#CFA34C" stroke-width="10" opacity="0.22"/>
  <path d="M140 1330 L1060 1330" stroke="#CFA34C" stroke-width="10" opacity="0.2"/>
  <rect x="116" y="304" width="968" height="1036" rx="38" fill="#F4F1E5" stroke="#B8B193" stroke-width="10"/>

  <g transform="translate(408 562)">
    <rect x="0" y="0" width="396" height="336" rx="24" fill="#FCFAF1" stroke="#89B39C" stroke-width="8"/>
    <rect x="58" y="214" width="56" height="90" rx="12" fill="#89B39C" opacity="0.85"/>
    <rect x="142" y="174" width="56" height="130" rx="12" fill="#CFA34C" opacity="0.82"/>
    <rect x="226" y="128" width="56" height="176" rx="12" fill="#89B39C" opacity="0.88"/>
    <rect x="310" y="92" width="56" height="212" rx="12" fill="#CFA34C" opacity="0.9"/>
    <path d="M44 236 L112 206 L170 184 L252 134 L332 108" stroke="#1E3128" stroke-width="10" stroke-linecap="round" stroke-linejoin="round"/>
    <circle cx="334" cy="108" r="16" fill="#1E3128"/>
    <circle cx="84" cy="78" r="34" fill="#CFA34C" opacity="0.88"/>
    <text x="84" y="89" text-anchor="middle" fill="#FCFAF1" font-family="Georgia, serif" font-size="34" font-weight="700">$</text>
  </g>

  <rect x="0" y="0" width="1200" height="238" fill="#1F513A" opacity="0.93"/>
  <rect x="0" y="1454" width="1200" height="346" fill="#2F7A58" opacity="0.95"/>
  <text x="600" y="136" text-anchor="middle" fill="#FCFAF1" font-family="Georgia, serif" font-size="62" font-weight="700" letter-spacing="3">MORGAN HOUSEL</text>
  <text x="600" y="208" text-anchor="middle" fill="#FCFAF1" font-family="'Trebuchet MS', Arial, sans-serif" font-size="30" letter-spacing="4">MONEY</text>
  <text x="600" y="1216" text-anchor="middle" fill="#1E3128" font-family="Georgia, 'Times New Roman', serif" font-size="78" font-weight="700" letter-spacing="2">THE PSYCHOLOGY OF MONEY</text>
  <text x="600" y="1538" text-anchor="middle" fill="#FCFAF1" font-family="'Trebuchet MS', Arial, sans-serif" font-size="30" letter-spacing="3">MONEY  ·  BEHAVIOR  ·  WEALTH</text>
  <text x="600" y="1604" text-anchor="middle" fill="#FCFAF1" font-family="Georgia, serif" font-size="30">Behavior and incentives behind money decisions</text>
  <text x="600" y="1668" text-anchor="middle" fill="#FCFAF1" font-family="'Trebuchet MS', Arial, sans-serif" font-size="26" letter-spacing="2">Modern Edition · Practical Lessons · Real Scenarios</text>
</svg>
