<svg width="1200" height="1800" viewBox="0 0 1200 1800" fill="none" xmlns="http://www.w3.org/2000/svg" role="img" aria-labelledby="title desc">
  <title id="title">The Prince cover</title>
  <desc id="desc">Auto-generated themed cover for The Prince by Niccolò Machiavelli.</desc>
  <defs>
    <linearGradient id="g50878949" x1="0" y1="0" x2="0" y2="1800" gradientUnits="userSpaceOnUse">
      <stop offset="0%" stop-color="#0E2A44"/>
      <stop offset="100%" stop-color="#1E486A"/>
    </linearGradient>
  </defs>

  <rect width="1200" height="1800" fill="url(#g50878949)"/>

  <rect x="-120" y="310" width="820" height="1100" transform="rotate(-12 400 860)" fill="#7AA4C4" opacity="0.24"/>
  <rect x="560" y="260" width="760" height="1150" transform="rotate(8 940 835)" fill="#D19A34" opacity="0.16"/>
  <circle cx="265" cy="538" r="180" fill="#D19A34" opacity="0.17"/>
  <circle cx="965" cy="1062" r="220" fill="#7AA4C4" opacity="0.2"/>
  <rect x="116" y="304" width="968" height="1036" rx="38" fill="#F4ECDD" stroke="#CDBA9D" stroke-width="10"/>

  <g transform="translate(414 554)">
    <rect x="30" y="44" width="332" height="292" rx="24" fill="#FFF8EE" stroke="#7AA4C4" stroke-width="8"/>
    <path d="M74 246 L104 118 L176 186 L222 110 L286 186 L318 118 L346 246 Z" fill="#D19A34" opacity="0.9"/>
    <rect x="88" y="244" width="248" height="38" rx="14" fill="#1C2B34" opacity="0.88"/>
    <circle cx="104" cy="112" r="10" fill="#1C2B34"/>
    <circle cx="222" cy="102" r="11" fill="#1C2B34"/>
    <circle cx="318" cy="112" r="10" fill="#1C2B34"/>
  </g>

  <g transform="translate(930 336)">
    <path d="M82 8 L152 34 V90 C152 142 120 174 82 190 C44 174 12 142 12 90 V34 Z" fill="#FFF8EE" stroke="#D19A34" stroke-width="10"/>
    <rect x="30" y="64" width="104" height="64" rx="20" fill="#7AA4C4" opacity="0.72"/>
    <text x="82" y="106" text-anchor="middle" fill="#1C2B34" font-family="'Trebuchet MS', Arial, sans-serif" font-size="40" font-weight="700" letter-spacing="2">PR</text>
  </g>

  <rect x="0" y="0" width="1200" height="238" fill="#0E2A44" opacity="0.93"/>
  <rect x="0" y="1454" width="1200" height="346" fill="#1E486A" opacity="0.95"/>
  <text x="600" y="136" text-anchor="middle" fill="#FFF8EE" font-family="Georgia, serif" font-size="62" font-weight="700" letter-spacing="3">NICCOLÒ MACHIAVELLI</text>
  <text x="600" y="208" text-anchor="middle" fill="#FFF8EE" font-family="'Trebuchet MS', Arial, sans-serif" font-size="30" letter-spacing="4">STRATEGY</text>
  <text x="600" y="1216" text-anchor="middle" fill="#1C2B34" font-family="Georgia, 'Times New Roman', serif" font-size="108" font-weight="700" letter-spacing="2">THE PRINCE</text>
  <text x="600" y="1538" text-anchor="middle" fill="#FFF8EE" font-family="'Trebuchet MS', Arial, sans-serif" font-size="30" letter-spacing="3">LEADERSHIP  ·  REPUTATION  ·  GOVERNANCE</text>
  <text x="600" y="1604" text-anchor="middle" fill="#FFF8EE" font-family="Georgia, serif" font-size="30">Power, governance, and political realism</text>
  <text x="600" y="1668" text-anchor="middle" fill="#FFF8EE" font-family="'Trebuchet MS', Arial, sans-serif" font-size="26" letter-spacing="2">Modern Edition · Practical Lessons · Real Scenarios</text>
</svg>
