<svg width="1200" height="1800" viewBox="0 0 1200 1800" fill="none" xmlns="http://www.w3.org/2000/svg" role="img" aria-labelledby="title desc">
  <title id="title">The Hard Thing About Hard Things cover</title>
  <desc id="desc">Auto-generated themed cover for The Hard Thing About Hard Things by Ben Horowitz.</desc>
  <defs>
    <linearGradient id="g1213952656" x1="0" y1="0" x2="0" y2="1800" gradientUnits="userSpaceOnUse">
      <stop offset="0%" stop-color="#14253E"/>
      <stop offset="100%" stop-color="#364F72"/>
    </linearGradient>
  </defs>

  <rect width="1200" height="1800" fill="url(#g1213952656)"/>

  <circle cx="600" cy="840" r="420" fill="#89AACB" opacity="0.16"/>
  <circle cx="600" cy="840" r="300" fill="#FDF8EE" opacity="0.16"/>
  <circle cx="617" cy="860" r="210" fill="#DE9E4A" opacity="0.18"/>
  <circle cx="583" cy="820" r="130" fill="#FDF8EE" opacity="0.34"/>
  <ellipse cx="600" cy="812" rx="470" ry="382" fill="#FDF8EE" opacity="0.08"/>
  <rect x="116" y="304" width="968" height="1036" rx="38" fill="#F4EDE2" stroke="#C8B49B" stroke-width="10"/>
<g opacity="0.24" transform="translate(0 -26)">
  <g transform="translate(399 573)">
    <path d="M54 194 H254 C278 194 298 174 298 150 H180 C150 150 126 126 126 96 H294 C326 96 352 122 352 154 C352 226 298 278 228 278 H166 L154 318 H76 Z" fill="#89AACB" opacity="0.88"/>
    <rect x="120" y="278" width="154" height="28" rx="12" fill="#202E3F" opacity="0.86"/>
    <rect x="146" y="244" width="110" height="22" rx="10" fill="#F4EDE2" opacity="0.82"/>
  </g></g>

  <g transform="translate(412 564)">
    <path d="M54 194 H254 C278 194 298 174 298 150 H180 C150 150 126 126 126 96 H294 C326 96 352 122 352 154 C352 226 298 278 228 278 H166 L154 318 H76 Z" fill="#DE9E4A" opacity="0.88"/>
    <rect x="120" y="278" width="154" height="28" rx="12" fill="#202E3F" opacity="0.86"/>
    <rect x="146" y="244" width="110" height="22" rx="10" fill="#FDF8EE" opacity="0.82"/>
  </g>

  <g transform="translate(924 332)">
    <polygon points="88,8 168,88 88,168 8,88" fill="#FDF8EE" stroke="#DE9E4A" stroke-width="10"/>
    <circle cx="88" cy="88" r="38" fill="#89AACB" opacity="0.72"/>
    <text x="88" y="102" text-anchor="middle" fill="#202E3F" font-family="'Trebuchet MS', Arial, sans-serif" font-size="40" font-weight="700" letter-spacing="2">HT</text>
  </g>

  <rect x="0" y="0" width="1200" height="238" fill="#14253E" opacity="0.93"/>
  <rect x="0" y="1454" width="1200" height="346" fill="#364F72" opacity="0.95"/>
  <text x="600" y="136" text-anchor="middle" fill="#FDF8EE" font-family="Georgia, serif" font-size="62" font-weight="700" letter-spacing="3">BEN HOROWITZ</text>
  <text x="600" y="208" text-anchor="middle" fill="#FDF8EE" font-family="'Trebuchet MS', Arial, sans-serif" font-size="30" letter-spacing="4">LEADERSHIP</text>
  <text x="600" y="1114" text-anchor="middle" fill="#202E3F" font-family="Georgia, 'Times New Roman', serif" font-size="108" font-weight="700" letter-spacing="2">THE HARD</text>
  <text x="600" y="1231" text-anchor="middle" fill="#202E3F" font-family="Georgia, 'Times New Roman', serif" font-size="108" font-weight="700" letter-spacing="2">THING ABOUT</text>
  <text x="600" y="1348" text-anchor="middle" fill="#202E3F" font-family="Georgia, 'Times New Roman', serif" font-size="108" font-weight="700" letter-spacing="2">HARD THINGS</text>
  <g>
    <rect x="429" y="1466" width="148" height="42" rx="21" fill="#FDF8EE" opacity="0.18" stroke="#FDF8EE" stroke-width="2"/>
    <text x="503" y="1494" text-anchor="middle" fill="#FDF8EE" font-family="'Trebuchet MS', Arial, sans-serif" font-size="20" letter-spacing="1">STARTUPS</text>
  </g>
  <g>
    <rect x="599" y="1466" width="172" height="42" rx="21" fill="#FDF8EE" opacity="0.18" stroke="#FDF8EE" stroke-width="2"/>
    <text x="685" y="1494" text-anchor="middle" fill="#FDF8EE" font-family="'Trebuchet MS', Arial, sans-serif" font-size="20" letter-spacing="1">MANAGEMENT</text>
  </g>
  <text x="600" y="1538" text-anchor="middle" fill="#FDF8EE" font-family="'Trebuchet MS', Arial, sans-serif" font-size="30" letter-spacing="3">STARTUPS  ·  MANAGEMENT  ·  LEADERSHIP</text>
  <text x="600" y="1604" text-anchor="middle" fill="#FDF8EE" font-family="Georgia, serif" font-size="30">Lead through chaos and hard tradeoffs</text>
  <text x="600" y="1668" text-anchor="middle" fill="#FDF8EE" font-family="'Trebuchet MS', Arial, sans-serif" font-size="26" letter-spacing="2">Modern Edition · Practical Lessons · Real Scenarios</text>
</svg>
