<svg width="1200" height="1800" viewBox="0 0 1200 1800" fill="none" xmlns="http://www.w3.org/2000/svg" role="img" aria-labelledby="title desc">
  <title id="title">The Black Swan cover</title>
  <desc id="desc">Auto-generated themed cover for The Black Swan by Nassim Nicholas Taleb.</desc>
  <defs>
    <linearGradient id="g528522690" x1="0" y1="0" x2="0" y2="1800" gradientUnits="userSpaceOnUse">
      <stop offset="0%" stop-color="#0F0F0F"/>
      <stop offset="100%" stop-color="#2A2A2A"/>
    </linearGradient>
  </defs>

  <rect width="1200" height="1800" fill="url(#g528522690)"/>

  <rect x="0" y="300" width="1200" height="1180" fill="#7B7B7B" opacity="0.1"/>
  <rect x="110" y="360" width="420" height="430" rx="42" fill="#FFFFFF" opacity="0.2"/>
  <rect x="670" y="360" width="420" height="420" rx="42" fill="#101010" opacity="0.16"/>
  <rect x="110" y="980" width="420" height="360" rx="42" fill="#101010" opacity="0.15"/>
  <rect x="670" y="950" width="420" height="390" rx="42" fill="#FFFFFF" opacity="0.2"/>
  <circle cx="596" cy="853" r="128" fill="#FFFFFF" opacity="0.16"/>
  <ellipse cx="600" cy="812" rx="470" ry="382" fill="#FFFFFF" opacity="0.08"/>
  <rect x="116" y="304" width="968" height="1036" rx="38" fill="#F5F4EF" stroke="#BFBBAF" stroke-width="10"/>
<g opacity="0.24" transform="translate(0 -26)">
  <g transform="translate(408 561)">
    <rect x="0" y="0" width="400" height="324" rx="24" fill="#F5F4EF" stroke="#FFFFFF" stroke-width="8"/>
    <path d="M98 232 C122 166 196 142 236 178 C264 204 246 248 202 256 C180 260 158 254 138 236 C170 274 232 284 278 246 C324 208 320 138 266 104 C226 80 176 84 138 112" fill="none" stroke="#1D1D1D" stroke-width="12" stroke-linecap="round" stroke-linejoin="round"/>
    <circle cx="252" cy="122" r="8" fill="#1D1D1D"/>
  </g></g>

  <g transform="translate(391 553)">
    <rect x="0" y="0" width="400" height="324" rx="24" fill="#FFFFFF" stroke="#7B7B7B" stroke-width="8"/>
    <path d="M98 232 C122 166 196 142 236 178 C264 204 246 248 202 256 C180 260 158 254 138 236 C170 274 232 284 278 246 C324 208 320 138 266 104 C226 80 176 84 138 112" fill="none" stroke="#1D1D1D" stroke-width="12" stroke-linecap="round" stroke-linejoin="round"/>
    <circle cx="252" cy="122" r="8" fill="#1D1D1D"/>
  </g>

  <g transform="translate(928 336)">
    <circle cx="84" cy="84" r="76" fill="#FFFFFF" stroke="#101010" stroke-width="10"/>
    <circle cx="84" cy="84" r="56" fill="#7B7B7B" opacity="0.68"/>
    <text x="84" y="98" text-anchor="middle" fill="#1D1D1D" font-family="'Trebuchet MS', Arial, sans-serif" font-size="44" font-weight="700" letter-spacing="2">BS</text>
  </g>

  <rect x="0" y="0" width="1200" height="238" fill="#0F0F0F" opacity="0.93"/>
  <rect x="0" y="1454" width="1200" height="346" fill="#2A2A2A" opacity="0.95"/>
  <text x="600" y="136" text-anchor="middle" fill="#FFFFFF" font-family="Georgia, serif" font-size="62" font-weight="700" letter-spacing="3">NASSIM NICHOLAS TALEB</text>
  <text x="600" y="208" text-anchor="middle" fill="#FFFFFF" font-family="'Trebuchet MS', Arial, sans-serif" font-size="30" letter-spacing="4">THINKING</text>
  <text x="600" y="1216" text-anchor="middle" fill="#1D1D1D" font-family="Georgia, 'Times New Roman', serif" font-size="92" font-weight="700" letter-spacing="2">THE BLACK SWAN</text>
  <g>
    <rect x="435" y="1466" width="160" height="42" rx="21" fill="#FFFFFF" opacity="0.18" stroke="#FFFFFF" stroke-width="2"/>
    <text x="515" y="1494" text-anchor="middle" fill="#FFFFFF" font-family="'Trebuchet MS', Arial, sans-serif" font-size="20" letter-spacing="1">REASONING</text>
  </g>
  <g>
    <rect x="617" y="1466" width="148" height="42" rx="21" fill="#FFFFFF" opacity="0.18" stroke="#FFFFFF" stroke-width="2"/>
    <text x="691" y="1494" text-anchor="middle" fill="#FFFFFF" font-family="'Trebuchet MS', Arial, sans-serif" font-size="20" letter-spacing="1">JUDGMENT</text>
  </g>
  <text x="600" y="1538" text-anchor="middle" fill="#FFFFFF" font-family="'Trebuchet MS', Arial, sans-serif" font-size="30" letter-spacing="3">REASONING  ·  JUDGMENT  ·  SYSTEMS</text>
  <text x="600" y="1604" text-anchor="middle" fill="#FFFFFF" font-family="Georgia, serif" font-size="30">Prepare for rare, high impact uncertainty</text>
  <text x="600" y="1668" text-anchor="middle" fill="#FFFFFF" font-family="'Trebuchet MS', Arial, sans-serif" font-size="26" letter-spacing="2">Modern Edition · Practical Lessons · Real Scenarios</text>
</svg>
