<svg width="1200" height="1800" viewBox="0 0 1200 1800" fill="none" xmlns="http://www.w3.org/2000/svg" role="img" aria-labelledby="title desc">
  <title id="title">The Almanack of Naval Ravikant cover</title>
  <desc id="desc">Auto-generated themed cover for The Almanack of Naval Ravikant by Eric Jorgenson.</desc>
  <defs>
    <linearGradient id="g161763703" x1="0" y1="0" x2="0" y2="1800" gradientUnits="userSpaceOnUse">
      <stop offset="0%" stop-color="#264A37"/>
      <stop offset="100%" stop-color="#3B7557"/>
    </linearGradient>
  </defs>

  <rect width="1200" height="1800" fill="url(#g161763703)"/>

  <rect x="0" y="300" width="1200" height="1180" fill="#94C2A7" opacity="0.12"/>
  <rect x="140" y="360" width="920" height="1050" rx="48" fill="#FCF8EF" opacity="0.22"/>
  <path d="M0 560 Q300 433 600 560 T1200 560" stroke="#FCF8EF" stroke-width="22" opacity="0.24"/>
  <path d="M0 1180 Q300 1053 600 1180 T1200 1180" stroke="#E0A33F" stroke-width="16" opacity="0.22"/>
  <rect x="116" y="304" width="968" height="1036" rx="38" fill="#F2EEE3" stroke="#C6B9A4" stroke-width="10"/>

  <g transform="translate(403 561)">
    <ellipse cx="198" cy="286" rx="144" ry="34" fill="#94C2A7" opacity="0.72"/>
    <ellipse cx="198" cy="248" rx="144" ry="34" fill="#E0A33F" opacity="0.8"/>
    <ellipse cx="198" cy="210" rx="144" ry="34" fill="#94C2A7" opacity="0.86"/>
    <ellipse cx="198" cy="172" rx="144" ry="34" fill="#E0A33F" opacity="0.92"/>
    <circle cx="198" cy="100" r="44" fill="#20332A" opacity="0.85"/>
    <text x="198" y="114" text-anchor="middle" fill="#FCF8EF" font-family="Georgia, serif" font-size="40" font-weight="700">$</text>
  </g>

  <rect x="0" y="0" width="1200" height="238" fill="#264A37" opacity="0.93"/>
  <rect x="0" y="1454" width="1200" height="346" fill="#3B7557" opacity="0.95"/>
  <text x="600" y="136" text-anchor="middle" fill="#FCF8EF" font-family="Georgia, serif" font-size="62" font-weight="700" letter-spacing="3">ERIC JORGENSON</text>
  <text x="600" y="208" text-anchor="middle" fill="#FCF8EF" font-family="'Trebuchet MS', Arial, sans-serif" font-size="30" letter-spacing="4">MONEY</text>
  <text x="600" y="1114" text-anchor="middle" fill="#20332A" font-family="Georgia, 'Times New Roman', serif" font-size="108" font-weight="700" letter-spacing="2">THE ALMANACK</text>
  <text x="600" y="1231" text-anchor="middle" fill="#20332A" font-family="Georgia, 'Times New Roman', serif" font-size="108" font-weight="700" letter-spacing="2">OF NAVAL</text>
  <text x="600" y="1348" text-anchor="middle" fill="#20332A" font-family="Georgia, 'Times New Roman', serif" font-size="108" font-weight="700" letter-spacing="2">RAVIKANT</text>
  <text x="600" y="1538" text-anchor="middle" fill="#FCF8EF" font-family="'Trebuchet MS', Arial, sans-serif" font-size="30" letter-spacing="3">WEALTH  ·  JUDGMENT  ·  HAPPINESS</text>
  <text x="600" y="1604" text-anchor="middle" fill="#FCF8EF" font-family="Georgia, serif" font-size="30">Wealth, risk, and incentives</text>
  <text x="600" y="1668" text-anchor="middle" fill="#FCF8EF" font-family="'Trebuchet MS', Arial, sans-serif" font-size="26" letter-spacing="2">Modern Edition · Practical Lessons · Real Scenarios</text>
</svg>
