<svg width="1200" height="1800" viewBox="0 0 1200 1800" fill="none" xmlns="http://www.w3.org/2000/svg" role="img" aria-labelledby="title desc">
  <title id="title">The Denial of Death cover</title>
  <desc id="desc">Auto-generated themed cover for The Denial of Death by Ernest Becker.</desc>
  <defs>
    <linearGradient id="g1030542122" x1="0" y1="0" x2="0" y2="1800" gradientUnits="userSpaceOnUse">
      <stop offset="0%" stop-color="#3C3730"/>
      <stop offset="100%" stop-color="#655B4E"/>
    </linearGradient>
  </defs>

  <rect width="1200" height="1800" fill="url(#g1030542122)"/>

  <rect x="0" y="300" width="1200" height="1180" fill="#B59F8B" opacity="0.1"/>
  <g fill="#FEF8EE" opacity="0.19">
    <circle cx="210" cy="560" r="124"/>
    <circle cx="1020" cy="640" r="110"/>
    <circle cx="920" cy="1220" r="132"/>
    <circle cx="230" cy="1190" r="96"/>
  </g>
  <path d="M70 730 Q300 608 600 740 T1130 760" stroke="#D79D64" stroke-width="20" opacity="0.2"/>
  <path d="M70 960 Q320 1098 600 940 T1130 920" stroke="#FEF8EE" stroke-width="16" opacity="0.24"/>
  <ellipse cx="600" cy="812" rx="470" ry="382" fill="#FEF8EE" opacity="0.08"/>
  <rect x="116" y="304" width="968" height="1036" rx="38" fill="#F3ECE2" stroke="#C4B29C" stroke-width="10"/>
<g opacity="0.24" transform="translate(0 -26)">
  <g transform="translate(395 548)">
    <rect x="42" y="56" width="58" height="250" rx="8" fill="#B59F8B" opacity="0.84"/>
    <rect x="294" y="56" width="58" height="250" rx="8" fill="#B59F8B" opacity="0.84"/>
    <path d="M100 90 C136 40 258 40 294 90 V132 H100 Z" fill="#F3ECE2" stroke="#FEF8EE" stroke-width="8"/>
    <rect x="126" y="132" width="168" height="174" rx="14" fill="#F3ECE2" stroke="#FEF8EE" stroke-width="8"/>
    <line x1="100" y1="198" x2="294" y2="198" stroke="#FEF8EE" stroke-width="8"/>
  </g></g>

  <g transform="translate(408 565)">
    <rect x="42" y="56" width="58" height="250" rx="8" fill="#D79D64" opacity="0.84"/>
    <rect x="294" y="56" width="58" height="250" rx="8" fill="#D79D64" opacity="0.84"/>
    <path d="M100 90 C136 40 258 40 294 90 V132 H100 Z" fill="#FEF8EE" stroke="#B59F8B" stroke-width="8"/>
    <rect x="126" y="132" width="168" height="174" rx="14" fill="#FEF8EE" stroke="#B59F8B" stroke-width="8"/>
    <line x1="100" y1="198" x2="294" y2="198" stroke="#B59F8B" stroke-width="8"/>
  </g>

  <g transform="translate(924 332)">
    <polygon points="88,8 168,88 88,168 8,88" fill="#FEF8EE" stroke="#D79D64" stroke-width="10"/>
    <circle cx="88" cy="88" r="38" fill="#B59F8B" opacity="0.72"/>
    <text x="88" y="102" text-anchor="middle" fill="#2F2923" font-family="'Trebuchet MS', Arial, sans-serif" font-size="40" font-weight="700" letter-spacing="2">DD</text>
  </g>

  <rect x="0" y="0" width="1200" height="238" fill="#3C3730" opacity="0.93"/>
  <rect x="0" y="1454" width="1200" height="346" fill="#655B4E" opacity="0.95"/>
  <text x="600" y="136" text-anchor="middle" fill="#FEF8EE" font-family="Georgia, serif" font-size="62" font-weight="700" letter-spacing="3">ERNEST BECKER</text>
  <text x="600" y="208" text-anchor="middle" fill="#FEF8EE" font-family="'Trebuchet MS', Arial, sans-serif" font-size="30" letter-spacing="4">PHILOSOPHY</text>
  <text x="600" y="1216" text-anchor="middle" fill="#2F2923" font-family="Georgia, 'Times New Roman', serif" font-size="78" font-weight="700" letter-spacing="2">THE DENIAL OF DEATH</text>
  <g>
    <rect x="459" y="1466" width="160" height="42" rx="21" fill="#FEF8EE" opacity="0.18" stroke="#FEF8EE" stroke-width="2"/>
    <text x="539" y="1494" text-anchor="middle" fill="#FEF8EE" font-family="'Trebuchet MS', Arial, sans-serif" font-size="20" letter-spacing="1">MORTALITY</text>
  </g>
  <g>
    <rect x="641" y="1466" width="100" height="42" rx="21" fill="#FEF8EE" opacity="0.18" stroke="#FEF8EE" stroke-width="2"/>
    <text x="691" y="1494" text-anchor="middle" fill="#FEF8EE" font-family="'Trebuchet MS', Arial, sans-serif" font-size="20" letter-spacing="1">FEAR</text>
  </g>
  <text x="600" y="1538" text-anchor="middle" fill="#FEF8EE" font-family="'Trebuchet MS', Arial, sans-serif" font-size="30" letter-spacing="3">MORTALITY  ·  FEAR  ·  CULTURE</text>
  <text x="600" y="1604" text-anchor="middle" fill="#FEF8EE" font-family="Georgia, serif" font-size="30">Mortality and the stories people build</text>
  <text x="600" y="1668" text-anchor="middle" fill="#FEF8EE" font-family="'Trebuchet MS', Arial, sans-serif" font-size="26" letter-spacing="2">Modern Edition · Practical Lessons · Real Scenarios</text>
</svg>
