<svg width="1200" height="1800" viewBox="0 0 1200 1800" fill="none" xmlns="http://www.w3.org/2000/svg" role="img" aria-labelledby="title desc">
  <title id="title">The Pyramid Principle cover</title>
  <desc id="desc">Auto-generated themed cover for The Pyramid Principle by Barbara Minto.</desc>
  <defs>
    <linearGradient id="g15764826" x1="0" y1="0" x2="0" y2="1800" gradientUnits="userSpaceOnUse">
      <stop offset="0%" stop-color="#2A324C"/>
      <stop offset="100%" stop-color="#4F5F8F"/>
    </linearGradient>
  </defs>

  <rect width="1200" height="1800" fill="url(#g15764826)"/>

  <rect x="0" y="300" width="1200" height="1180" fill="#A1B1D1" opacity="0.1"/>
  <rect x="110" y="360" width="420" height="430" rx="42" fill="#FDF9EF" opacity="0.2"/>
  <rect x="670" y="360" width="420" height="420" rx="42" fill="#DAAB56" opacity="0.16"/>
  <rect x="110" y="980" width="420" height="360" rx="42" fill="#DAAB56" opacity="0.15"/>
  <rect x="670" y="950" width="420" height="390" rx="42" fill="#FDF9EF" opacity="0.2"/>
  <circle cx="620" cy="873" r="128" fill="#FDF9EF" opacity="0.16"/>
  <ellipse cx="600" cy="812" rx="470" ry="382" fill="#FDF9EF" opacity="0.08"/>
  <rect x="116" y="304" width="968" height="1036" rx="38" fill="#F4EEE2" stroke="#C5B59C" stroke-width="10"/>
<g opacity="0.24" transform="translate(0 -26)">
  <g transform="translate(410 572)">
    <polygon points="198,34 344,304 52,304" fill="#A1B1D1" opacity="0.9"/>
    <polygon points="198,74 304,272 92,272" fill="#F4EEE2" opacity="0.88"/>
    <line x1="198" y1="74" x2="198" y2="272" stroke="#FDF9EF" stroke-width="10"/>
    <line x1="144" y1="174" x2="252" y2="174" stroke="#FDF9EF" stroke-width="10"/>
  </g></g>

  <g transform="translate(393 564)">
    <polygon points="198,34 344,304 52,304" fill="#DAAB56" opacity="0.9"/>
    <polygon points="198,74 304,272 92,272" fill="#FDF9EF" opacity="0.88"/>
    <line x1="198" y1="74" x2="198" y2="272" stroke="#A1B1D1" stroke-width="10"/>
    <line x1="144" y1="174" x2="252" y2="174" stroke="#A1B1D1" stroke-width="10"/>
  </g>

  <g transform="translate(928 336)">
    <circle cx="84" cy="84" r="76" fill="#FDF9EF" stroke="#DAAB56" stroke-width="10"/>
    <circle cx="84" cy="84" r="56" fill="#A1B1D1" opacity="0.68"/>
    <text x="84" y="98" text-anchor="middle" fill="#233040" font-family="'Trebuchet MS', Arial, sans-serif" font-size="44" font-weight="700" letter-spacing="2">PP</text>
  </g>

  <rect x="0" y="0" width="1200" height="238" fill="#2A324C" opacity="0.93"/>
  <rect x="0" y="1454" width="1200" height="346" fill="#4F5F8F" opacity="0.95"/>
  <text x="600" y="136" text-anchor="middle" fill="#FDF9EF" font-family="Georgia, serif" font-size="62" font-weight="700" letter-spacing="3">BARBARA MINTO</text>
  <text x="600" y="208" text-anchor="middle" fill="#FDF9EF" font-family="'Trebuchet MS', Arial, sans-serif" font-size="30" letter-spacing="4">THINKING</text>
  <text x="600" y="1216" text-anchor="middle" fill="#233040" font-family="Georgia, 'Times New Roman', serif" font-size="78" font-weight="700" letter-spacing="2">THE PYRAMID PRINCIPLE</text>
  <g>
    <rect x="441" y="1466" width="136" height="42" rx="21" fill="#FDF9EF" opacity="0.18" stroke="#FDF9EF" stroke-width="2"/>
    <text x="509" y="1494" text-anchor="middle" fill="#FDF9EF" font-family="'Trebuchet MS', Arial, sans-serif" font-size="20" letter-spacing="1">WRITING</text>
  </g>
  <g>
    <rect x="599" y="1466" width="160" height="42" rx="21" fill="#FDF9EF" opacity="0.18" stroke="#FDF9EF" stroke-width="2"/>
    <text x="679" y="1494" text-anchor="middle" fill="#FDF9EF" font-family="'Trebuchet MS', Arial, sans-serif" font-size="20" letter-spacing="1">STRUCTURE</text>
  </g>
  <text x="600" y="1538" text-anchor="middle" fill="#FDF9EF" font-family="'Trebuchet MS', Arial, sans-serif" font-size="30" letter-spacing="3">WRITING  ·  STRUCTURE  ·  COMMUNICATION</text>
  <text x="600" y="1604" text-anchor="middle" fill="#FDF9EF" font-family="Georgia, serif" font-size="30">Structure ideas from insight to evidence</text>
  <text x="600" y="1668" text-anchor="middle" fill="#FDF9EF" font-family="'Trebuchet MS', Arial, sans-serif" font-size="26" letter-spacing="2">Modern Edition · Practical Lessons · Real Scenarios</text>
</svg>
