<svg width="1200" height="1800" viewBox="0 0 1200 1800" fill="none" xmlns="http://www.w3.org/2000/svg" role="img" aria-labelledby="title desc">
  <title id="title">The Prince cover</title>
  <desc id="desc">Auto-generated themed cover for The Prince by Niccolò Machiavelli.</desc>
  <defs>
    <linearGradient id="g544969875" x1="0" y1="0" x2="0" y2="1800" gradientUnits="userSpaceOnUse">
      <stop offset="0%" stop-color="#30354F"/>
      <stop offset="100%" stop-color="#4F5A79"/>
    </linearGradient>
  </defs>

  <rect width="1200" height="1800" fill="url(#g544969875)"/>

  <rect x="-120" y="310" width="820" height="1100" transform="rotate(-12 400 860)" fill="#96A8CA" opacity="0.24"/>
  <rect x="560" y="260" width="760" height="1150" transform="rotate(8 940 835)" fill="#D8A354" opacity="0.16"/>
  <circle cx="261" cy="560" r="180" fill="#D8A354" opacity="0.17"/>
  <circle cx="969" cy="1040" r="220" fill="#96A8CA" opacity="0.2"/>
  <rect x="116" y="304" width="968" height="1036" rx="38" fill="#F2ECE1" stroke="#C7B7A3" stroke-width="10"/>

  <g transform="translate(400 548)">
    <circle cx="196" cy="196" r="188" fill="#FEF8EE" opacity="0.95" stroke="#96A8CA" stroke-width="10"/>
    <circle cx="196" cy="196" r="124" fill="none" stroke="#D8A354" stroke-width="14" opacity="0.8"/>
    <polygon points="196,52 226,166 340,196 226,226 196,340 166,226 52,196 166,166" fill="#D8A354" opacity="0.92"/>
    <circle cx="196" cy="196" r="36" fill="#252B3E" opacity="0.84"/>
  </g>

  <rect x="0" y="0" width="1200" height="238" fill="#30354F" opacity="0.93"/>
  <rect x="0" y="1454" width="1200" height="346" fill="#4F5A79" opacity="0.95"/>
  <text x="600" y="136" text-anchor="middle" fill="#FEF8EE" font-family="Georgia, serif" font-size="62" font-weight="700" letter-spacing="3">NICCOLÒ MACHIAVELLI</text>
  <text x="600" y="208" text-anchor="middle" fill="#FEF8EE" font-family="'Trebuchet MS', Arial, sans-serif" font-size="30" letter-spacing="4">LEADERSHIP</text>
  <text x="600" y="1216" text-anchor="middle" fill="#252B3E" font-family="Georgia, 'Times New Roman', serif" font-size="108" font-weight="700" letter-spacing="2">THE PRINCE</text>
  <text x="600" y="1538" text-anchor="middle" fill="#FEF8EE" font-family="'Trebuchet MS', Arial, sans-serif" font-size="30" letter-spacing="3">LEADERSHIP  ·  REPUTATION  ·  GOVERNANCE</text>
  <text x="600" y="1604" text-anchor="middle" fill="#FEF8EE" font-family="Georgia, serif" font-size="30">Responsibility and alignment</text>
  <text x="600" y="1668" text-anchor="middle" fill="#FEF8EE" font-family="'Trebuchet MS', Arial, sans-serif" font-size="26" letter-spacing="2">Modern Edition · Practical Lessons · Real Scenarios</text>
</svg>
