<svg width="1200" height="1800" viewBox="0 0 1200 1800" fill="none" xmlns="http://www.w3.org/2000/svg" role="img" aria-labelledby="title desc">
  <title id="title">The Prince cover</title>
  <desc id="desc">Auto-generated themed cover for The Prince by Niccolò Machiavelli.</desc>
  <defs>
    <linearGradient id="g50878949" x1="0" y1="0" x2="0" y2="1800" gradientUnits="userSpaceOnUse">
      <stop offset="0%" stop-color="#091C26"/>
      <stop offset="100%" stop-color="#1B4558"/>
    </linearGradient>
  </defs>

  <rect width="1200" height="1800" fill="url(#g50878949)"/>

  <rect x="0" y="300" width="1200" height="1180" fill="#7FAFC4" opacity="0.12"/>
  <rect x="140" y="360" width="920" height="1050" rx="48" fill="#FFF7EE" opacity="0.22"/>
  <path d="M0 560 Q300 418 600 560 T1200 560" stroke="#FFF7EE" stroke-width="22" opacity="0.24"/>
  <path d="M0 1180 Q300 1038 600 1180 T1200 1180" stroke="#D0863B" stroke-width="16" opacity="0.22"/>
  <ellipse cx="600" cy="812" rx="470" ry="382" fill="#FFF7EE" opacity="0.08"/>
  <rect x="116" y="304" width="968" height="1036" rx="38" fill="#F4EBDD" stroke="#C9B297" stroke-width="10"/>
<g opacity="0.24" transform="translate(0 -26)">
  <g transform="translate(401 563)">
    <rect x="30" y="44" width="332" height="292" rx="24" fill="#F4EBDD" stroke="#FFF7EE" stroke-width="8"/>
    <path d="M74 246 L104 118 L176 186 L222 110 L286 186 L318 118 L346 246 Z" fill="#7FAFC4" opacity="0.9"/>
    <rect x="88" y="244" width="248" height="38" rx="14" fill="#1B2930" opacity="0.88"/>
    <circle cx="104" cy="112" r="10" fill="#1B2930"/>
    <circle cx="222" cy="102" r="11" fill="#1B2930"/>
    <circle cx="318" cy="112" r="10" fill="#1B2930"/>
  </g></g>

  <g transform="translate(414 554)">
    <rect x="30" y="44" width="332" height="292" rx="24" fill="#FFF7EE" stroke="#7FAFC4" stroke-width="8"/>
    <path d="M74 246 L104 118 L176 186 L222 110 L286 186 L318 118 L346 246 Z" fill="#D0863B" opacity="0.9"/>
    <rect x="88" y="244" width="248" height="38" rx="14" fill="#1B2930" opacity="0.88"/>
    <circle cx="104" cy="112" r="10" fill="#1B2930"/>
    <circle cx="222" cy="102" r="11" fill="#1B2930"/>
    <circle cx="318" cy="112" r="10" fill="#1B2930"/>
  </g>

  <g transform="translate(930 336)">
    <path d="M82 8 L152 34 V90 C152 142 120 174 82 190 C44 174 12 142 12 90 V34 Z" fill="#FFF7EE" stroke="#D0863B" stroke-width="10"/>
    <rect x="30" y="64" width="104" height="64" rx="20" fill="#7FAFC4" opacity="0.72"/>
    <text x="82" y="106" text-anchor="middle" fill="#1B2930" font-family="'Trebuchet MS', Arial, sans-serif" font-size="40" font-weight="700" letter-spacing="2">PR</text>
  </g>

  <rect x="0" y="0" width="1200" height="238" fill="#091C26" opacity="0.93"/>
  <rect x="0" y="1454" width="1200" height="346" fill="#1B4558" opacity="0.95"/>
  <text x="600" y="136" text-anchor="middle" fill="#FFF7EE" font-family="Georgia, serif" font-size="62" font-weight="700" letter-spacing="3">NICCOLÒ MACHIAVELLI</text>
  <text x="600" y="208" text-anchor="middle" fill="#FFF7EE" font-family="'Trebuchet MS', Arial, sans-serif" font-size="30" letter-spacing="4">STRATEGY</text>
  <text x="600" y="1216" text-anchor="middle" fill="#1B2930" font-family="Georgia, 'Times New Roman', serif" font-size="108" font-weight="700" letter-spacing="2">THE PRINCE</text>
  <g>
    <rect x="417" y="1466" width="172" height="42" rx="21" fill="#FFF7EE" opacity="0.18" stroke="#FFF7EE" stroke-width="2"/>
    <text x="503" y="1494" text-anchor="middle" fill="#FFF7EE" font-family="'Trebuchet MS', Arial, sans-serif" font-size="20" letter-spacing="1">LEADERSHIP</text>
  </g>
  <g>
    <rect x="611" y="1466" width="172" height="42" rx="21" fill="#FFF7EE" opacity="0.18" stroke="#FFF7EE" stroke-width="2"/>
    <text x="697" y="1494" text-anchor="middle" fill="#FFF7EE" font-family="'Trebuchet MS', Arial, sans-serif" font-size="20" letter-spacing="1">REPUTATION</text>
  </g>
  <text x="600" y="1538" text-anchor="middle" fill="#FFF7EE" font-family="'Trebuchet MS', Arial, sans-serif" font-size="30" letter-spacing="3">LEADERSHIP  ·  REPUTATION  ·  GOVERNANCE</text>
  <text x="600" y="1604" text-anchor="middle" fill="#FFF7EE" font-family="Georgia, serif" font-size="30">Power, legitimacy, and political realism</text>
  <text x="600" y="1668" text-anchor="middle" fill="#FFF7EE" font-family="'Trebuchet MS', Arial, sans-serif" font-size="26" letter-spacing="2">Modern Edition · Practical Lessons · Real Scenarios</text>
</svg>
