<svg width="1200" height="1800" viewBox="0 0 1200 1800" fill="none" xmlns="http://www.w3.org/2000/svg" role="img" aria-labelledby="title desc">
  <title id="title">The 7 Habits of Highly Effective People cover</title>
  <desc id="desc">Auto-generated themed cover for The 7 Habits of Highly Effective People by Stephen R. Covey.</desc>
  <defs>
    <linearGradient id="g1896454746" x1="0" y1="0" x2="0" y2="1800" gradientUnits="userSpaceOnUse">
      <stop offset="0%" stop-color="#205F5D"/>
      <stop offset="100%" stop-color="#3A8279"/>
    </linearGradient>
  </defs>

  <rect width="1200" height="1800" fill="url(#g1896454746)"/>

  <rect x="0" y="300" width="1200" height="1180" fill="#7FC5B8" opacity="0.12"/>
  <rect x="140" y="360" width="920" height="1050" rx="48" fill="#FDF8EE" opacity="0.22"/>
  <path d="M0 560 Q300 433 600 560 T1200 560" stroke="#FDF8EE" stroke-width="22" opacity="0.24"/>
  <path d="M0 1180 Q300 1053 600 1180 T1200 1180" stroke="#E2A457" stroke-width="16" opacity="0.22"/>
  <rect x="116" y="304" width="968" height="1036" rx="38" fill="#F4EEE3" stroke="#C8B9A3" stroke-width="10"/>

  <g transform="translate(410 547)">
    <rect x="0" y="0" width="392" height="340" rx="24" fill="#FDF8EE" stroke="#7FC5B8" stroke-width="8"/>
    <circle cx="72" cy="70" r="13" fill="#E2A457" opacity="0.88"/><circle cx="134" cy="70" r="13" fill="#7FC5B8" opacity="0.88"/><circle cx="196" cy="70" r="13" fill="#E2A457" opacity="0.88"/><circle cx="258" cy="70" r="13" fill="#7FC5B8" opacity="0.88"/><circle cx="320" cy="70" r="13" fill="#E2A457" opacity="0.88"/>
<circle cx="72" cy="126" r="13" fill="#7FC5B8" opacity="0.88"/><circle cx="134" cy="126" r="13" fill="#E2A457" opacity="0.88"/><circle cx="196" cy="126" r="13" fill="#7FC5B8" opacity="0.88"/><circle cx="258" cy="126" r="13" fill="#E2A457" opacity="0.88"/><circle cx="320" cy="126" r="13" fill="#7FC5B8" opacity="0.88"/>
<circle cx="72" cy="182" r="13" fill="#E2A457" opacity="0.88"/><circle cx="134" cy="182" r="13" fill="#7FC5B8" opacity="0.88"/><circle cx="196" cy="182" r="13" fill="#E2A457" opacity="0.88"/><circle cx="258" cy="182" r="13" fill="#7FC5B8" opacity="0.88"/><circle cx="320" cy="182" r="13" fill="#E2A457" opacity="0.88"/>
<circle cx="72" cy="238" r="13" fill="#7FC5B8" opacity="0.88"/><circle cx="134" cy="238" r="13" fill="#E2A457" opacity="0.88"/><circle cx="196" cy="238" r="13" fill="#7FC5B8" opacity="0.88"/><circle cx="258" cy="238" r="13" fill="#E2A457" opacity="0.88"/><circle cx="320" cy="238" r="13" fill="#7FC5B8" opacity="0.88"/>
<circle cx="72" cy="294" r="13" fill="#E2A457" opacity="0.88"/><circle cx="134" cy="294" r="13" fill="#7FC5B8" opacity="0.88"/><circle cx="196" cy="294" r="13" fill="#E2A457" opacity="0.88"/><circle cx="258" cy="294" r="13" fill="#7FC5B8" opacity="0.88"/><circle cx="320" cy="294" r="13" fill="#E2A457" opacity="0.88"/>
  </g>

  <rect x="0" y="0" width="1200" height="238" fill="#205F5D" opacity="0.93"/>
  <rect x="0" y="1454" width="1200" height="346" fill="#3A8279" opacity="0.95"/>
  <text x="600" y="136" text-anchor="middle" fill="#FDF8EE" font-family="Georgia, serif" font-size="62" font-weight="700" letter-spacing="3">STEPHEN R. COVEY</text>
  <text x="600" y="208" text-anchor="middle" fill="#FDF8EE" font-family="'Trebuchet MS', Arial, sans-serif" font-size="30" letter-spacing="4">PRODUCTIVITY</text>
  <text x="600" y="1114" text-anchor="middle" fill="#1F3331" font-family="'Trebuchet MS', Arial, sans-serif" font-size="78" font-weight="700" letter-spacing="2">THE 7 HABITS</text>
  <text x="600" y="1198" text-anchor="middle" fill="#1F3331" font-family="'Trebuchet MS', Arial, sans-serif" font-size="78" font-weight="700" letter-spacing="2">OF HIGHLY EFFECTIVE</text>
  <text x="600" y="1282" text-anchor="middle" fill="#1F3331" font-family="'Trebuchet MS', Arial, sans-serif" font-size="78" font-weight="700" letter-spacing="2">PEOPLE</text>
  <text x="600" y="1538" text-anchor="middle" fill="#FDF8EE" font-family="'Trebuchet MS', Arial, sans-serif" font-size="30" letter-spacing="3">HABITS  ·  LEADERSHIP  ·  PRINCIPLES</text>
  <text x="600" y="1604" text-anchor="middle" fill="#FDF8EE" font-family="Georgia, serif" font-size="30">Focus, habits, and execution</text>
  <text x="600" y="1668" text-anchor="middle" fill="#FDF8EE" font-family="'Trebuchet MS', Arial, sans-serif" font-size="26" letter-spacing="2">Modern Edition · Practical Lessons · Real Scenarios</text>
</svg>
