<svg width="1200" height="1800" viewBox="0 0 1200 1800" fill="none" xmlns="http://www.w3.org/2000/svg" role="img" aria-labelledby="title desc">
  <title id="title">The Innovator&#39;s Dilemma cover</title>
  <desc id="desc">Auto-generated themed cover for The Innovator&#39;s Dilemma by Clayton Christensen.</desc>
  <defs>
    <linearGradient id="g1405746515" x1="0" y1="0" x2="0" y2="1800" gradientUnits="userSpaceOnUse">
      <stop offset="0%" stop-color="#244162"/>
      <stop offset="100%" stop-color="#3E6594"/>
    </linearGradient>
  </defs>

  <rect width="1200" height="1800" fill="url(#g1405746515)"/>

  <rect x="0" y="300" width="1200" height="1180" fill="#93B2D4" opacity="0.1"/>
  <rect x="70" y="350" width="1060" height="1060" rx="520" fill="#FDF8EE" opacity="0.12"/>
  <rect x="194" y="474" width="812" height="812" rx="406" fill="#F1A152" opacity="0.1"/>
  <path d="M600 330 V1440" stroke="#FDF8EE" stroke-width="6" opacity="0.24"/>
  <path d="M160 885 H1040" stroke="#F1A152" stroke-width="8" opacity="0.24"/>
  <ellipse cx="600" cy="812" rx="470" ry="382" fill="#FDF8EE" opacity="0.08"/>
  <rect x="116" y="304" width="968" height="1036" rx="38" fill="#F3ECE1" stroke="#C2B39E" stroke-width="10"/>
<g opacity="0.24" transform="translate(0 -26)">
  <g transform="translate(400 554)">
    <circle cx="200" cy="188" r="146" fill="#F3ECE1" opacity="0.95" stroke="#FDF8EE" stroke-width="8"/>
    <circle cx="200" cy="188" r="104" fill="none" stroke="#93B2D4" stroke-width="18" opacity="0.86"/>
    <circle cx="200" cy="188" r="56" fill="none" stroke="#FDF8EE" stroke-width="14" opacity="0.86"/>
    <path d="M306 168 L332 200 L292 204" fill="#93B2D4"/>
  </g></g>

  <g transform="translate(413 546)">
    <circle cx="200" cy="188" r="146" fill="#FDF8EE" opacity="0.95" stroke="#93B2D4" stroke-width="8"/>
    <circle cx="200" cy="188" r="104" fill="none" stroke="#F1A152" stroke-width="18" opacity="0.86"/>
    <circle cx="200" cy="188" r="56" fill="none" stroke="#93B2D4" stroke-width="14" opacity="0.86"/>
    <path d="M306 168 L332 200 L292 204" fill="#F1A152"/>
  </g>

  <g transform="translate(924 332)">
    <rect x="24" y="14" width="128" height="156" rx="64" fill="#FDF8EE" stroke="#F1A152" stroke-width="10"/>
    <path d="M44 54 H132" stroke="#93B2D4" stroke-width="10" stroke-linecap="round"/>
    <path d="M44 80 H132" stroke="#93B2D4" stroke-width="10" stroke-linecap="round"/>
    <text x="88" y="128" text-anchor="middle" fill="#202F40" font-family="'Trebuchet MS', Arial, sans-serif" font-size="42" font-weight="700" letter-spacing="2">IS</text>
  </g>

  <rect x="0" y="0" width="1200" height="238" fill="#244162" opacity="0.93"/>
  <rect x="0" y="1454" width="1200" height="346" fill="#3E6594" opacity="0.95"/>
  <text x="600" y="136" text-anchor="middle" fill="#FDF8EE" font-family="Georgia, serif" font-size="62" font-weight="700" letter-spacing="3">CLAYTON CHRISTENSEN</text>
  <text x="600" y="208" text-anchor="middle" fill="#FDF8EE" font-family="'Trebuchet MS', Arial, sans-serif" font-size="30" letter-spacing="4">INNOVATION</text>
  <text x="600" y="1216" text-anchor="middle" fill="#202F40" font-family="'Trebuchet MS', Arial, sans-serif" font-size="78" font-weight="700" letter-spacing="2">THE INNOVATOR&#39;S DILEMMA</text>
  <g>
    <rect x="423" y="1466" width="172" height="42" rx="21" fill="#FDF8EE" opacity="0.18" stroke="#FDF8EE" stroke-width="2"/>
    <text x="509" y="1494" text-anchor="middle" fill="#FDF8EE" font-family="'Trebuchet MS', Arial, sans-serif" font-size="20" letter-spacing="1">INNOVATION</text>
  </g>
  <g>
    <rect x="617" y="1466" width="160" height="42" rx="21" fill="#FDF8EE" opacity="0.18" stroke="#FDF8EE" stroke-width="2"/>
    <text x="697" y="1494" text-anchor="middle" fill="#FDF8EE" font-family="'Trebuchet MS', Arial, sans-serif" font-size="20" letter-spacing="1">CUSTOMERS</text>
  </g>
  <text x="600" y="1538" text-anchor="middle" fill="#FDF8EE" font-family="'Trebuchet MS', Arial, sans-serif" font-size="30" letter-spacing="3">INNOVATION  ·  CUSTOMERS  ·  STRATEGY</text>
  <text x="600" y="1604" text-anchor="middle" fill="#FDF8EE" font-family="Georgia, serif" font-size="30">Incumbent success can block future growth</text>
  <text x="600" y="1668" text-anchor="middle" fill="#FDF8EE" font-family="'Trebuchet MS', Arial, sans-serif" font-size="26" letter-spacing="2">Modern Edition · Practical Lessons · Real Scenarios</text>
</svg>
