<svg width="1200" height="1800" viewBox="0 0 1200 1800" fill="none" xmlns="http://www.w3.org/2000/svg" role="img" aria-labelledby="title desc">
  <title id="title">The Hard Thing About Hard Things cover</title>
  <desc id="desc">Auto-generated themed cover for The Hard Thing About Hard Things by Ben Horowitz.</desc>
  <defs>
    <linearGradient id="g1213952656" x1="0" y1="0" x2="0" y2="1800" gradientUnits="userSpaceOnUse">
      <stop offset="0%" stop-color="#1E3352"/>
      <stop offset="100%" stop-color="#3F5978"/>
    </linearGradient>
  </defs>

  <rect width="1200" height="1800" fill="url(#g1213952656)"/>

  <circle cx="600" cy="840" r="420" fill="#88A8C7" opacity="0.16"/>
  <circle cx="600" cy="840" r="300" fill="#FDF8EE" opacity="0.16"/>
  <circle cx="617" cy="860" r="210" fill="#DA9A49" opacity="0.18"/>
  <circle cx="583" cy="820" r="130" fill="#FDF8EE" opacity="0.34"/>
  <rect x="116" y="304" width="968" height="1036" rx="38" fill="#F4EDE2" stroke="#CAB9A3" stroke-width="10"/>

  <g transform="translate(406 548)">
    <circle cx="196" cy="196" r="188" fill="#FDF8EE" opacity="0.95" stroke="#88A8C7" stroke-width="10"/>
    <circle cx="196" cy="196" r="124" fill="none" stroke="#DA9A49" stroke-width="14" opacity="0.8"/>
    <polygon points="196,52 226,166 340,196 226,226 196,340 166,226 52,196 166,166" fill="#DA9A49" opacity="0.92"/>
    <circle cx="196" cy="196" r="36" fill="#223142" opacity="0.84"/>
  </g>

  <rect x="0" y="0" width="1200" height="238" fill="#1E3352" opacity="0.93"/>
  <rect x="0" y="1454" width="1200" height="346" fill="#3F5978" opacity="0.95"/>
  <text x="600" y="136" text-anchor="middle" fill="#FDF8EE" font-family="Georgia, serif" font-size="62" font-weight="700" letter-spacing="3">BEN HOROWITZ</text>
  <text x="600" y="208" text-anchor="middle" fill="#FDF8EE" font-family="'Trebuchet MS', Arial, sans-serif" font-size="30" letter-spacing="4">LEADERSHIP</text>
  <text x="600" y="1114" text-anchor="middle" fill="#223142" font-family="Georgia, 'Times New Roman', serif" font-size="108" font-weight="700" letter-spacing="2">THE HARD</text>
  <text x="600" y="1231" text-anchor="middle" fill="#223142" font-family="Georgia, 'Times New Roman', serif" font-size="108" font-weight="700" letter-spacing="2">THING ABOUT</text>
  <text x="600" y="1348" text-anchor="middle" fill="#223142" font-family="Georgia, 'Times New Roman', serif" font-size="108" font-weight="700" letter-spacing="2">HARD THINGS</text>
  <text x="600" y="1538" text-anchor="middle" fill="#FDF8EE" font-family="'Trebuchet MS', Arial, sans-serif" font-size="30" letter-spacing="3">STARTUPS  ·  MANAGEMENT  ·  LEADERSHIP</text>
  <text x="600" y="1604" text-anchor="middle" fill="#FDF8EE" font-family="Georgia, serif" font-size="30">Responsibility and alignment</text>
  <text x="600" y="1668" text-anchor="middle" fill="#FDF8EE" font-family="'Trebuchet MS', Arial, sans-serif" font-size="26" letter-spacing="2">Modern Edition · Practical Lessons · Real Scenarios</text>
</svg>
