<svg width="1200" height="1800" viewBox="0 0 1200 1800" fill="none" xmlns="http://www.w3.org/2000/svg" role="img" aria-labelledby="title desc">
  <title id="title">The Millionaire Fastlane cover</title>
  <desc id="desc">Auto-generated themed cover for The Millionaire Fastlane by MJ DeMarco.</desc>
  <defs>
    <linearGradient id="g802454696" x1="0" y1="0" x2="0" y2="1800" gradientUnits="userSpaceOnUse">
      <stop offset="0%" stop-color="#234057"/>
      <stop offset="100%" stop-color="#3C6E7C"/>
    </linearGradient>
  </defs>

  <rect width="1200" height="1800" fill="url(#g802454696)"/>

  <rect x="0" y="300" width="1200" height="1180" fill="#8CBCC6" opacity="0.1"/>
  <g stroke="#FDF8EE" opacity="0.2">
    <line x1="160" y1="320" x2="160" y2="1460" stroke-width="4"/>
    <line x1="320" y1="320" x2="320" y2="1460" stroke-width="3"/>
    <line x1="480" y1="320" x2="480" y2="1460" stroke-width="2"/>
    <line x1="640" y1="320" x2="640" y2="1460" stroke-width="3"/>
    <line x1="800" y1="320" x2="800" y2="1460" stroke-width="2"/>
    <line x1="960" y1="320" x2="960" y2="1460" stroke-width="3"/>
  </g>
  <path d="M140 430 L1060 430" stroke="#EB9A4F" stroke-width="10" opacity="0.22"/>
  <path d="M140 1330 L1060 1330" stroke="#EB9A4F" stroke-width="10" opacity="0.2"/>
  <rect x="116" y="304" width="968" height="1036" rx="38" fill="#F4ECE2" stroke="#C8B8A2" stroke-width="10"/>

  <g transform="translate(410 576)">
    <ellipse cx="198" cy="286" rx="144" ry="34" fill="#8CBCC6" opacity="0.72"/>
    <ellipse cx="198" cy="248" rx="144" ry="34" fill="#EB9A4F" opacity="0.8"/>
    <ellipse cx="198" cy="210" rx="144" ry="34" fill="#8CBCC6" opacity="0.86"/>
    <ellipse cx="198" cy="172" rx="144" ry="34" fill="#EB9A4F" opacity="0.92"/>
    <circle cx="198" cy="100" r="44" fill="#22343B" opacity="0.85"/>
    <text x="198" y="114" text-anchor="middle" fill="#FDF8EE" font-family="Georgia, serif" font-size="40" font-weight="700">$</text>
  </g>

  <g transform="translate(924 332)">
    <polygon points="88,8 168,88 88,168 8,88" fill="#FDF8EE" stroke="#EB9A4F" stroke-width="10"/>
    <circle cx="88" cy="88" r="38" fill="#8CBCC6" opacity="0.72"/>
    <text x="88" y="102" text-anchor="middle" fill="#22343B" font-family="'Trebuchet MS', Arial, sans-serif" font-size="40" font-weight="700" letter-spacing="2">MF</text>
  </g>

  <rect x="0" y="0" width="1200" height="238" fill="#234057" opacity="0.93"/>
  <rect x="0" y="1454" width="1200" height="346" fill="#3C6E7C" opacity="0.95"/>
  <text x="600" y="136" text-anchor="middle" fill="#FDF8EE" font-family="Georgia, serif" font-size="62" font-weight="700" letter-spacing="3">MJ DEMARCO</text>
  <text x="600" y="208" text-anchor="middle" fill="#FDF8EE" font-family="'Trebuchet MS', Arial, sans-serif" font-size="30" letter-spacing="4">INNOVATION</text>
  <text x="600" y="1216" text-anchor="middle" fill="#22343B" font-family="'Trebuchet MS', Arial, sans-serif" font-size="78" font-weight="700" letter-spacing="2">THE MILLIONAIRE FASTLANE</text>
  <text x="600" y="1538" text-anchor="middle" fill="#FDF8EE" font-family="'Trebuchet MS', Arial, sans-serif" font-size="30" letter-spacing="3">WEALTH  ·  ENTREPRENEURSHIP  ·  LEVERAGE</text>
  <text x="600" y="1604" text-anchor="middle" fill="#FDF8EE" font-family="Georgia, serif" font-size="30">Entrepreneurship and growth</text>
  <text x="600" y="1668" text-anchor="middle" fill="#FDF8EE" font-family="'Trebuchet MS', Arial, sans-serif" font-size="26" letter-spacing="2">Modern Edition · Practical Lessons · Real Scenarios</text>
</svg>
