<svg width="1200" height="1800" viewBox="0 0 1200 1800" fill="none" xmlns="http://www.w3.org/2000/svg" role="img" aria-labelledby="title desc">
  <title id="title">The War of Art cover</title>
  <desc id="desc">Auto-generated themed cover for The War of Art by Steven Pressfield.</desc>
  <defs>
    <linearGradient id="g1887505200" x1="0" y1="0" x2="0" y2="1800" gradientUnits="userSpaceOnUse">
      <stop offset="0%" stop-color="#2D324B"/>
      <stop offset="100%" stop-color="#4F5681"/>
    </linearGradient>
  </defs>

  <rect width="1200" height="1800" fill="url(#g1887505200)"/>

  <rect x="0" y="300" width="1200" height="1180" fill="#ABB8D4" opacity="0.1"/>
  <rect x="110" y="360" width="420" height="430" rx="42" fill="#FEF8EE" opacity="0.2"/>
  <rect x="670" y="360" width="420" height="420" rx="42" fill="#E3A859" opacity="0.16"/>
  <rect x="110" y="980" width="420" height="360" rx="42" fill="#E3A859" opacity="0.15"/>
  <rect x="670" y="950" width="420" height="390" rx="42" fill="#FEF8EE" opacity="0.2"/>
  <circle cx="604" cy="866" r="128" fill="#FEF8EE" opacity="0.16"/>
  <ellipse cx="600" cy="812" rx="470" ry="382" fill="#FEF8EE" opacity="0.08"/>
  <rect x="116" y="304" width="968" height="1036" rx="38" fill="#F4EDE2" stroke="#C7B59C" stroke-width="10"/>
<g opacity="0.24" transform="translate(0 -26)">
  <g transform="translate(390 545)">
    <rect x="38" y="28" width="320" height="300" rx="24" fill="#F4EDE2" stroke="#FEF8EE" stroke-width="8"/>
    <path d="M86 288 L302 72" stroke="#ABB8D4" stroke-width="16" stroke-linecap="round"/>
    <path d="M302 288 L86 72" stroke="#FEF8EE" stroke-width="16" stroke-linecap="round"/>
    <rect x="74" y="278" width="34" height="12" rx="6" fill="#2A2F44"/>
    <rect x="292" y="278" width="34" height="12" rx="6" fill="#2A2F44"/>
  </g></g>

  <g transform="translate(403 536)">
    <rect x="38" y="28" width="320" height="300" rx="24" fill="#FEF8EE" stroke="#ABB8D4" stroke-width="8"/>
    <path d="M86 288 L302 72" stroke="#E3A859" stroke-width="16" stroke-linecap="round"/>
    <path d="M302 288 L86 72" stroke="#ABB8D4" stroke-width="16" stroke-linecap="round"/>
    <rect x="74" y="278" width="34" height="12" rx="6" fill="#2A2F44"/>
    <rect x="292" y="278" width="34" height="12" rx="6" fill="#2A2F44"/>
  </g>

  <g transform="translate(926 334)">
    <polygon points="88,8 162,52 162,136 88,180 14,136 14,52" fill="#FEF8EE" stroke="#E3A859" stroke-width="10"/>
    <circle cx="88" cy="94" r="44" fill="#ABB8D4" opacity="0.7"/>
    <text x="88" y="108" text-anchor="middle" fill="#2A2F44" font-family="'Trebuchet MS', Arial, sans-serif" font-size="42" font-weight="700" letter-spacing="2">WA</text>
  </g>

  <rect x="0" y="0" width="1200" height="238" fill="#2D324B" opacity="0.93"/>
  <rect x="0" y="1454" width="1200" height="346" fill="#4F5681" opacity="0.95"/>
  <text x="600" y="136" text-anchor="middle" fill="#FEF8EE" font-family="Georgia, serif" font-size="62" font-weight="700" letter-spacing="3">STEVEN PRESSFIELD</text>
  <text x="600" y="208" text-anchor="middle" fill="#FEF8EE" font-family="'Trebuchet MS', Arial, sans-serif" font-size="30" letter-spacing="4">RESILIENCE</text>
  <text x="600" y="1216" text-anchor="middle" fill="#2A2F44" font-family="Georgia, 'Times New Roman', serif" font-size="92" font-weight="700" letter-spacing="2">THE WAR OF ART</text>
  <g>
    <rect x="417" y="1466" width="172" height="42" rx="21" fill="#FEF8EE" opacity="0.18" stroke="#FEF8EE" stroke-width="2"/>
    <text x="503" y="1494" text-anchor="middle" fill="#FEF8EE" font-family="'Trebuchet MS', Arial, sans-serif" font-size="20" letter-spacing="1">CREATIVITY</text>
  </g>
  <g>
    <rect x="611" y="1466" width="172" height="42" rx="21" fill="#FEF8EE" opacity="0.18" stroke="#FEF8EE" stroke-width="2"/>
    <text x="697" y="1494" text-anchor="middle" fill="#FEF8EE" font-family="'Trebuchet MS', Arial, sans-serif" font-size="20" letter-spacing="1">DISCIPLINE</text>
  </g>
  <text x="600" y="1538" text-anchor="middle" fill="#FEF8EE" font-family="'Trebuchet MS', Arial, sans-serif" font-size="30" letter-spacing="3">CREATIVITY  ·  DISCIPLINE  ·  RESISTANCE</text>
  <text x="600" y="1604" text-anchor="middle" fill="#FEF8EE" font-family="Georgia, serif" font-size="30">Defeat resistance and ship creative work</text>
  <text x="600" y="1668" text-anchor="middle" fill="#FEF8EE" font-family="'Trebuchet MS', Arial, sans-serif" font-size="26" letter-spacing="2">Modern Edition · Practical Lessons · Real Scenarios</text>
</svg>
