<svg width="1200" height="1800" viewBox="0 0 1200 1800" fill="none" xmlns="http://www.w3.org/2000/svg" role="img" aria-labelledby="title desc">
  <title id="title">Thinking in Bets cover</title>
  <desc id="desc">Auto-generated themed cover for Thinking in Bets by Annie Duke.</desc>
  <defs>
    <linearGradient id="g627131632" x1="0" y1="0" x2="0" y2="1800" gradientUnits="userSpaceOnUse">
      <stop offset="0%" stop-color="#212B46"/>
      <stop offset="100%" stop-color="#42578D"/>
    </linearGradient>
  </defs>

  <rect width="1200" height="1800" fill="url(#g627131632)"/>

  <rect x="0" y="300" width="1200" height="1180" fill="#9EB2D4" opacity="0.1"/>
  <g stroke="#FDF8EF" opacity="0.2">
    <line x1="160" y1="320" x2="160" y2="1460" stroke-width="4"/>
    <line x1="320" y1="320" x2="320" y2="1460" stroke-width="3"/>
    <line x1="480" y1="320" x2="480" y2="1460" stroke-width="2"/>
    <line x1="640" y1="320" x2="640" y2="1460" stroke-width="3"/>
    <line x1="800" y1="320" x2="800" y2="1460" stroke-width="2"/>
    <line x1="960" y1="320" x2="960" y2="1460" stroke-width="3"/>
  </g>
  <path d="M140 430 L1060 430" stroke="#DFA852" stroke-width="10" opacity="0.22"/>
  <path d="M140 1330 L1060 1330" stroke="#DFA852" stroke-width="10" opacity="0.2"/>
  <ellipse cx="600" cy="812" rx="470" ry="382" fill="#FDF8EF" opacity="0.08"/>
  <rect x="116" y="304" width="968" height="1036" rx="38" fill="#F4EEE2" stroke="#C8B59A" stroke-width="10"/>
<g opacity="0.24" transform="translate(0 -26)">
  <g transform="translate(400 571)">
    <rect x="0" y="0" width="388" height="334" rx="24" fill="#F4EEE2" stroke="#FDF8EF" stroke-width="8"/>
    <text x="104" y="204" text-anchor="middle" fill="#223041" font-family="Georgia, serif" font-size="150" font-weight="700">0</text>
    <text x="292" y="204" text-anchor="middle" fill="#9EB2D4" font-family="Georgia, serif" font-size="150" font-weight="700">1</text>
    <path d="M166 176 L222 176" stroke="#FDF8EF" stroke-width="14" stroke-linecap="round"/>
  </g></g>

  <g transform="translate(413 563)">
    <rect x="0" y="0" width="388" height="334" rx="24" fill="#FDF8EF" stroke="#9EB2D4" stroke-width="8"/>
    <text x="104" y="204" text-anchor="middle" fill="#223041" font-family="Georgia, serif" font-size="150" font-weight="700">0</text>
    <text x="292" y="204" text-anchor="middle" fill="#DFA852" font-family="Georgia, serif" font-size="150" font-weight="700">1</text>
    <path d="M166 176 L222 176" stroke="#9EB2D4" stroke-width="14" stroke-linecap="round"/>
  </g>

  <g transform="translate(924 332)">
    <rect x="24" y="14" width="128" height="156" rx="64" fill="#FDF8EF" stroke="#DFA852" stroke-width="10"/>
    <path d="M44 54 H132" stroke="#9EB2D4" stroke-width="10" stroke-linecap="round"/>
    <path d="M44 80 H132" stroke="#9EB2D4" stroke-width="10" stroke-linecap="round"/>
    <text x="88" y="128" text-anchor="middle" fill="#223041" font-family="'Trebuchet MS', Arial, sans-serif" font-size="42" font-weight="700" letter-spacing="2">TB</text>
  </g>

  <rect x="0" y="0" width="1200" height="238" fill="#212B46" opacity="0.93"/>
  <rect x="0" y="1454" width="1200" height="346" fill="#42578D" opacity="0.95"/>
  <text x="600" y="136" text-anchor="middle" fill="#FDF8EF" font-family="Georgia, serif" font-size="62" font-weight="700" letter-spacing="3">ANNIE DUKE</text>
  <text x="600" y="208" text-anchor="middle" fill="#FDF8EF" font-family="'Trebuchet MS', Arial, sans-serif" font-size="30" letter-spacing="4">THINKING</text>
  <text x="600" y="1216" text-anchor="middle" fill="#223041" font-family="Georgia, 'Times New Roman', serif" font-size="92" font-weight="700" letter-spacing="2">THINKING IN BETS</text>
  <g>
    <rect x="435" y="1466" width="160" height="42" rx="21" fill="#FDF8EF" opacity="0.18" stroke="#FDF8EF" stroke-width="2"/>
    <text x="515" y="1494" text-anchor="middle" fill="#FDF8EF" font-family="'Trebuchet MS', Arial, sans-serif" font-size="20" letter-spacing="1">REASONING</text>
  </g>
  <g>
    <rect x="617" y="1466" width="148" height="42" rx="21" fill="#FDF8EF" opacity="0.18" stroke="#FDF8EF" stroke-width="2"/>
    <text x="691" y="1494" text-anchor="middle" fill="#FDF8EF" font-family="'Trebuchet MS', Arial, sans-serif" font-size="20" letter-spacing="1">JUDGMENT</text>
  </g>
  <text x="600" y="1538" text-anchor="middle" fill="#FDF8EF" font-family="'Trebuchet MS', Arial, sans-serif" font-size="30" letter-spacing="3">REASONING  ·  JUDGMENT  ·  SYSTEMS</text>
  <text x="600" y="1604" text-anchor="middle" fill="#FDF8EF" font-family="Georgia, serif" font-size="30">Decide under uncertainty with probabilities</text>
  <text x="600" y="1668" text-anchor="middle" fill="#FDF8EF" font-family="'Trebuchet MS', Arial, sans-serif" font-size="26" letter-spacing="2">Modern Edition · Practical Lessons · Real Scenarios</text>
</svg>
