<svg width="1200" height="1800" viewBox="0 0 1200 1800" fill="none" xmlns="http://www.w3.org/2000/svg" role="img" aria-labelledby="title desc">
  <title id="title">Thinking, Fast and Slow cover</title>
  <desc id="desc">Auto-generated themed cover for Thinking, Fast and Slow by Daniel Kahneman.</desc>
  <defs>
    <linearGradient id="g1861940242" x1="0" y1="0" x2="0" y2="1800" gradientUnits="userSpaceOnUse">
      <stop offset="0%" stop-color="#E9ECEF"/>
      <stop offset="100%" stop-color="#C9D0D8"/>
    </linearGradient>
  </defs>

  <rect width="1200" height="1800" fill="url(#g1861940242)"/>

  <rect x="-120" y="310" width="820" height="1100" transform="rotate(-12 400 860)" fill="#8DA0B3" opacity="0.24"/>
  <rect x="560" y="260" width="760" height="1150" transform="rotate(8 940 835)" fill="#E3A542" opacity="0.16"/>
  <circle cx="263" cy="575" r="180" fill="#E3A542" opacity="0.17"/>
  <circle cx="967" cy="1025" r="220" fill="#8DA0B3" opacity="0.2"/>
  <ellipse cx="600" cy="812" rx="470" ry="382" fill="#FFFFFF" opacity="0.08"/>
  <rect x="116" y="304" width="968" height="1036" rx="38" fill="#FFFFFF" stroke="#BFC7D0" stroke-width="10"/>
<g opacity="0.24" transform="translate(0 -26)">
  <g transform="translate(391 561)">
    <rect x="0" y="0" width="388" height="334" rx="24" fill="#FFFFFF" stroke="#FFFFFF" stroke-width="8"/>
    <text x="104" y="204" text-anchor="middle" fill="#2A3139" font-family="Georgia, serif" font-size="150" font-weight="700">0</text>
    <text x="292" y="204" text-anchor="middle" fill="#8DA0B3" font-family="Georgia, serif" font-size="150" font-weight="700">1</text>
    <path d="M166 176 L222 176" stroke="#FFFFFF" stroke-width="14" stroke-linecap="round"/>
  </g></g>

  <g transform="translate(404 553)">
    <rect x="0" y="0" width="388" height="334" rx="24" fill="#FFFFFF" stroke="#8DA0B3" stroke-width="8"/>
    <text x="104" y="204" text-anchor="middle" fill="#2A3139" font-family="Georgia, serif" font-size="150" font-weight="700">0</text>
    <text x="292" y="204" text-anchor="middle" fill="#E3A542" font-family="Georgia, serif" font-size="150" font-weight="700">1</text>
    <path d="M166 176 L222 176" stroke="#8DA0B3" stroke-width="14" stroke-linecap="round"/>
  </g>

  <g transform="translate(922 332)">
    <rect x="12" y="12" width="152" height="152" rx="24" fill="#FFFFFF" stroke="#E3A542" stroke-width="10"/>
    <path d="M30 116 L146 52" stroke="#8DA0B3" stroke-width="8" stroke-linecap="round"/>
    <path d="M30 138 L146 74" stroke="#8DA0B3" stroke-width="8" stroke-linecap="round"/>
    <text x="88" y="102" text-anchor="middle" fill="#2A3139" font-family="'Trebuchet MS', Arial, sans-serif" font-size="44" font-weight="700" letter-spacing="2">TF</text>
  </g>

  <rect x="0" y="0" width="1200" height="238" fill="#E9ECEF" opacity="0.93"/>
  <rect x="0" y="1454" width="1200" height="346" fill="#C9D0D8" opacity="0.95"/>
  <text x="600" y="136" text-anchor="middle" fill="#FFFFFF" font-family="Georgia, serif" font-size="62" font-weight="700" letter-spacing="3">DANIEL KAHNEMAN</text>
  <text x="600" y="208" text-anchor="middle" fill="#FFFFFF" font-family="'Trebuchet MS', Arial, sans-serif" font-size="30" letter-spacing="4">THINKING</text>
  <text x="600" y="1216" text-anchor="middle" fill="#2A3139" font-family="Georgia, 'Times New Roman', serif" font-size="78" font-weight="700" letter-spacing="2">THINKING, FAST AND SLOW</text>
  <g>
    <rect x="465" y="1466" width="100" height="42" rx="21" fill="#FFFFFF" opacity="0.18" stroke="#FFFFFF" stroke-width="2"/>
    <text x="515" y="1494" text-anchor="middle" fill="#FFFFFF" font-family="'Trebuchet MS', Arial, sans-serif" font-size="20" letter-spacing="1">BIAS</text>
  </g>
  <g>
    <rect x="587" y="1466" width="148" height="42" rx="21" fill="#FFFFFF" opacity="0.18" stroke="#FFFFFF" stroke-width="2"/>
    <text x="661" y="1494" text-anchor="middle" fill="#FFFFFF" font-family="'Trebuchet MS', Arial, sans-serif" font-size="20" letter-spacing="1">JUDGMENT</text>
  </g>
  <text x="600" y="1538" text-anchor="middle" fill="#FFFFFF" font-family="'Trebuchet MS', Arial, sans-serif" font-size="30" letter-spacing="3">BIAS  ·  JUDGMENT  ·  DECISION-MAKING</text>
  <text x="600" y="1604" text-anchor="middle" fill="#FFFFFF" font-family="Georgia, serif" font-size="30">Fast intuition versus slow deliberation</text>
  <text x="600" y="1668" text-anchor="middle" fill="#FFFFFF" font-family="'Trebuchet MS', Arial, sans-serif" font-size="26" letter-spacing="2">Modern Edition · Practical Lessons · Real Scenarios</text>
</svg>
