<svg width="1200" height="1800" viewBox="0 0 1200 1800" fill="none" xmlns="http://www.w3.org/2000/svg" role="img" aria-labelledby="title desc">
  <title id="title">Thinking, Fast and Slow cover</title>
  <desc id="desc">Auto-generated themed cover for Thinking, Fast and Slow by Daniel Kahneman.</desc>
  <defs>
    <linearGradient id="g1861940242" x1="0" y1="0" x2="0" y2="1800" gradientUnits="userSpaceOnUse">
      <stop offset="0%" stop-color="#E9ECEF"/>
      <stop offset="100%" stop-color="#C9D0D8"/>
    </linearGradient>
  </defs>

  <rect width="1200" height="1800" fill="url(#g1861940242)"/>

  <rect x="0" y="300" width="1200" height="1180" fill="#8DA0B3" opacity="0.1"/>
  <g stroke="#FFFFFF" opacity="0.2">
    <line x1="160" y1="320" x2="160" y2="1460" stroke-width="4"/>
    <line x1="320" y1="320" x2="320" y2="1460" stroke-width="3"/>
    <line x1="480" y1="320" x2="480" y2="1460" stroke-width="2"/>
    <line x1="640" y1="320" x2="640" y2="1460" stroke-width="3"/>
    <line x1="800" y1="320" x2="800" y2="1460" stroke-width="2"/>
    <line x1="960" y1="320" x2="960" y2="1460" stroke-width="3"/>
  </g>
  <path d="M140 430 L1060 430" stroke="#E3A542" stroke-width="10" opacity="0.22"/>
  <path d="M140 1330 L1060 1330" stroke="#E3A542" stroke-width="10" opacity="0.2"/>
  <rect x="116" y="304" width="968" height="1036" rx="38" fill="#FFFFFF" stroke="#BFC7D0" stroke-width="10"/>

  <g transform="translate(388 553)">
    <rect x="0" y="0" width="420" height="328" rx="24" fill="#FFFFFF" stroke="#8DA0B3" stroke-width="8"/>
    <path d="M56 258 C136 192 228 222 306 158" stroke="#2A3139" stroke-width="10" stroke-linecap="round"/>
    <rect x="82" y="98" width="250" height="26" rx="13" fill="#8DA0B3" opacity="0.55"/>
    <rect x="82" y="132" width="212" height="26" rx="13" fill="#E3A542" opacity="0.45"/>
    <g transform="translate(294 214) rotate(-18)">
      <rect x="0" y="0" width="88" height="22" rx="10" fill="#E3A542" opacity="0.9"/>
      <polygon points="88,11 108,0 108,22" fill="#2A3139"/>
      <polygon points="108,0 118,11 108,22" fill="#FFFFFF"/>
    </g>
  </g>

  <g transform="translate(922 332)">
    <rect x="12" y="12" width="152" height="152" rx="24" fill="#FFFFFF" stroke="#E3A542" stroke-width="10"/>
    <path d="M30 116 L146 52" stroke="#8DA0B3" stroke-width="8" stroke-linecap="round"/>
    <path d="M30 138 L146 74" stroke="#8DA0B3" stroke-width="8" stroke-linecap="round"/>
    <text x="88" y="102" text-anchor="middle" fill="#2A3139" font-family="'Trebuchet MS', Arial, sans-serif" font-size="44" font-weight="700" letter-spacing="2">TF</text>
  </g>

  <rect x="0" y="0" width="1200" height="238" fill="#E9ECEF" opacity="0.93"/>
  <rect x="0" y="1454" width="1200" height="346" fill="#C9D0D8" opacity="0.95"/>
  <text x="600" y="136" text-anchor="middle" fill="#FFFFFF" font-family="Georgia, serif" font-size="62" font-weight="700" letter-spacing="3">DANIEL KAHNEMAN</text>
  <text x="600" y="208" text-anchor="middle" fill="#FFFFFF" font-family="'Trebuchet MS', Arial, sans-serif" font-size="30" letter-spacing="4">THINKING</text>
  <text x="600" y="1216" text-anchor="middle" fill="#2A3139" font-family="Georgia, 'Times New Roman', serif" font-size="78" font-weight="700" letter-spacing="2">THINKING, FAST AND SLOW</text>
  <text x="600" y="1538" text-anchor="middle" fill="#FFFFFF" font-family="'Trebuchet MS', Arial, sans-serif" font-size="30" letter-spacing="3">BIAS  ·  JUDGMENT  ·  DECISION-MAKING</text>
  <text x="600" y="1604" text-anchor="middle" fill="#FFFFFF" font-family="Georgia, serif" font-size="30">Two systems of thought in tension</text>
  <text x="600" y="1668" text-anchor="middle" fill="#FFFFFF" font-family="'Trebuchet MS', Arial, sans-serif" font-size="26" letter-spacing="2">Modern Edition · Practical Lessons · Real Scenarios</text>
</svg>
