<svg width="1200" height="1800" viewBox="0 0 1200 1800" fill="none" xmlns="http://www.w3.org/2000/svg" role="img" aria-labelledby="title desc">
  <title id="title">What Every BODY is Saying cover</title>
  <desc id="desc">Auto-generated themed cover for What Every BODY is Saying by Joe Navarro.</desc>
  <defs>
    <linearGradient id="g1624117100" x1="0" y1="0" x2="0" y2="1800" gradientUnits="userSpaceOnUse">
      <stop offset="0%" stop-color="#1E2341"/>
      <stop offset="100%" stop-color="#424B82"/>
    </linearGradient>
  </defs>

  <rect width="1200" height="1800" fill="url(#g1624117100)"/>

  <rect x="0" y="300" width="1200" height="1180" fill="#9CAAD6" opacity="0.1"/>
  <g stroke="#FDF8EF" opacity="0.2">
    <line x1="160" y1="320" x2="160" y2="1460" stroke-width="4"/>
    <line x1="320" y1="320" x2="320" y2="1460" stroke-width="3"/>
    <line x1="480" y1="320" x2="480" y2="1460" stroke-width="2"/>
    <line x1="640" y1="320" x2="640" y2="1460" stroke-width="3"/>
    <line x1="800" y1="320" x2="800" y2="1460" stroke-width="2"/>
    <line x1="960" y1="320" x2="960" y2="1460" stroke-width="3"/>
  </g>
  <path d="M140 430 L1060 430" stroke="#DC9858" stroke-width="10" opacity="0.22"/>
  <path d="M140 1330 L1060 1330" stroke="#DC9858" stroke-width="10" opacity="0.2"/>
  <ellipse cx="600" cy="812" rx="470" ry="382" fill="#FDF8EF" opacity="0.08"/>
  <rect x="116" y="304" width="968" height="1036" rx="38" fill="#F3ECE2" stroke="#C7B59A" stroke-width="10"/>
<g opacity="0.24" transform="translate(0 -26)">
  <g transform="translate(402 560)">
    <rect x="18" y="24" width="364" height="334" rx="26" fill="#F3ECE2" stroke="#FDF8EF" stroke-width="8"/>
    <g stroke="#9CAAD6" stroke-width="8" opacity="0.86">
      <line x1="84" y1="96" x2="174" y2="144"/>
      <line x1="174" y1="144" x2="282" y2="110"/>
      <line x1="174" y1="144" x2="166" y2="244"/>
      <line x1="166" y1="244" x2="280" y2="286"/>
      <line x1="84" y1="96" x2="96" y2="232"/>
      <line x1="96" y1="232" x2="166" y2="244"/>
      <line x1="282" y1="110" x2="280" y2="286"/>
    </g>
    <g fill="#202838">
      <circle cx="84" cy="96" r="14"/>
      <circle cx="174" cy="144" r="14"/>
      <circle cx="282" cy="110" r="14"/>
      <circle cx="96" cy="232" r="14"/>
      <circle cx="166" cy="244" r="14"/>
      <circle cx="280" cy="286" r="14"/>
    </g>
  </g></g>

  <g transform="translate(385 552)">
    <rect x="18" y="24" width="364" height="334" rx="26" fill="#FDF8EF" stroke="#9CAAD6" stroke-width="8"/>
    <g stroke="#DC9858" stroke-width="8" opacity="0.86">
      <line x1="84" y1="96" x2="174" y2="144"/>
      <line x1="174" y1="144" x2="282" y2="110"/>
      <line x1="174" y1="144" x2="166" y2="244"/>
      <line x1="166" y1="244" x2="280" y2="286"/>
      <line x1="84" y1="96" x2="96" y2="232"/>
      <line x1="96" y1="232" x2="166" y2="244"/>
      <line x1="282" y1="110" x2="280" y2="286"/>
    </g>
    <g fill="#202838">
      <circle cx="84" cy="96" r="14"/>
      <circle cx="174" cy="144" r="14"/>
      <circle cx="282" cy="110" r="14"/>
      <circle cx="96" cy="232" r="14"/>
      <circle cx="166" cy="244" r="14"/>
      <circle cx="280" cy="286" r="14"/>
    </g>
  </g>

  <g transform="translate(924 332)">
    <rect x="24" y="14" width="128" height="156" rx="64" fill="#FDF8EF" stroke="#DC9858" stroke-width="10"/>
    <path d="M44 54 H132" stroke="#9CAAD6" stroke-width="10" stroke-linecap="round"/>
    <path d="M44 80 H132" stroke="#9CAAD6" stroke-width="10" stroke-linecap="round"/>
    <text x="88" y="128" text-anchor="middle" fill="#202838" font-family="'Trebuchet MS', Arial, sans-serif" font-size="42" font-weight="700" letter-spacing="2">WE</text>
  </g>

  <rect x="0" y="0" width="1200" height="238" fill="#1E2341" opacity="0.93"/>
  <rect x="0" y="1454" width="1200" height="346" fill="#424B82" opacity="0.95"/>
  <text x="600" y="136" text-anchor="middle" fill="#FDF8EF" font-family="Georgia, serif" font-size="62" font-weight="700" letter-spacing="3">JOE NAVARRO</text>
  <text x="600" y="208" text-anchor="middle" fill="#FDF8EF" font-family="'Trebuchet MS', Arial, sans-serif" font-size="30" letter-spacing="4">PSYCHOLOGY</text>
  <text x="600" y="1114" text-anchor="middle" fill="#202838" font-family="Georgia, 'Times New Roman', serif" font-size="108" font-weight="700" letter-spacing="2">WHAT EVERY</text>
  <text x="600" y="1231" text-anchor="middle" fill="#202838" font-family="Georgia, 'Times New Roman', serif" font-size="108" font-weight="700" letter-spacing="2">BODY IS</text>
  <text x="600" y="1348" text-anchor="middle" fill="#202838" font-family="Georgia, 'Times New Roman', serif" font-size="108" font-weight="700" letter-spacing="2">SAYING</text>
  <g>
    <rect x="393" y="1466" width="208" height="42" rx="21" fill="#FDF8EF" opacity="0.18" stroke="#FDF8EF" stroke-width="2"/>
    <text x="497" y="1494" text-anchor="middle" fill="#FDF8EF" font-family="'Trebuchet MS', Arial, sans-serif" font-size="20" letter-spacing="1">BODY LANGUAGE</text>
  </g>
  <g>
    <rect x="623" y="1466" width="184" height="42" rx="21" fill="#FDF8EF" opacity="0.18" stroke="#FDF8EF" stroke-width="2"/>
    <text x="715" y="1494" text-anchor="middle" fill="#FDF8EF" font-family="'Trebuchet MS', Arial, sans-serif" font-size="20" letter-spacing="1">OBSERVATION</text>
  </g>
  <text x="600" y="1538" text-anchor="middle" fill="#FDF8EF" font-family="'Trebuchet MS', Arial, sans-serif" font-size="30" letter-spacing="3">BODY-LANGUAGE  ·  OBSERVATION  ·  NONVERBAL</text>
  <text x="600" y="1604" text-anchor="middle" fill="#FDF8EF" font-family="Georgia, serif" font-size="30">Read nonverbal signals with context</text>
  <text x="600" y="1668" text-anchor="middle" fill="#FDF8EF" font-family="'Trebuchet MS', Arial, sans-serif" font-size="26" letter-spacing="2">Modern Edition · Practical Lessons · Real Scenarios</text>
</svg>
