<svg width="1200" height="1800" viewBox="0 0 1200 1800" fill="none" xmlns="http://www.w3.org/2000/svg" role="img" aria-labelledby="title desc">
  <title id="title">Zero to One cover</title>
  <desc id="desc">Auto-generated themed cover for Zero to One by Peter Thiel, Blake Masters.</desc>
  <defs>
    <linearGradient id="g87680217" x1="0" y1="0" x2="0" y2="1800" gradientUnits="userSpaceOnUse">
      <stop offset="0%" stop-color="#1F3C5C"/>
      <stop offset="100%" stop-color="#345C85"/>
    </linearGradient>
  </defs>

  <rect width="1200" height="1800" fill="url(#g87680217)"/>

  <rect x="0" y="300" width="1200" height="1180" fill="#8EB0D4" opacity="0.1"/>
  <g stroke="#FDF8EE" opacity="0.2">
    <line x1="160" y1="320" x2="160" y2="1460" stroke-width="4"/>
    <line x1="320" y1="320" x2="320" y2="1460" stroke-width="3"/>
    <line x1="480" y1="320" x2="480" y2="1460" stroke-width="2"/>
    <line x1="640" y1="320" x2="640" y2="1460" stroke-width="3"/>
    <line x1="800" y1="320" x2="800" y2="1460" stroke-width="2"/>
    <line x1="960" y1="320" x2="960" y2="1460" stroke-width="3"/>
  </g>
  <path d="M140 430 L1060 430" stroke="#F29B4B" stroke-width="10" opacity="0.22"/>
  <path d="M140 1330 L1060 1330" stroke="#F29B4B" stroke-width="10" opacity="0.2"/>
  <rect x="116" y="304" width="968" height="1036" rx="38" fill="#F3ECE1" stroke="#C7B8A3" stroke-width="10"/>

  <g transform="translate(402 548)">
    <path d="M198 20 C272 74 304 146 304 212 C304 284 254 332 198 364 C142 332 92 284 92 212 C92 146 124 74 198 20 Z" fill="#F29B4B" opacity="0.9"/>
    <circle cx="198" cy="156" r="44" fill="#FDF8EE" opacity="0.95"/>
    <path d="M176 224 L220 224 L236 320 L160 320 Z" fill="#FDF8EE" opacity="0.94"/>
    <path d="M110 270 L58 302 L104 314 Z" fill="#8EB0D4" opacity="0.9"/>
    <path d="M286 270 L338 302 L292 314 Z" fill="#8EB0D4" opacity="0.9"/>
    <circle cx="72" cy="94" r="8" fill="#FDF8EE"/>
    <circle cx="328" cy="114" r="10" fill="#FDF8EE"/>
    <circle cx="304" cy="56" r="6" fill="#FDF8EE"/>
  </g>

  <rect x="0" y="0" width="1200" height="238" fill="#1F3C5C" opacity="0.93"/>
  <rect x="0" y="1454" width="1200" height="346" fill="#345C85" opacity="0.95"/>
  <text x="600" y="136" text-anchor="middle" fill="#FDF8EE" font-family="Georgia, serif" font-size="62" font-weight="700" letter-spacing="3">PETER THIEL, BLAKE MASTERS</text>
  <text x="600" y="208" text-anchor="middle" fill="#FDF8EE" font-family="'Trebuchet MS', Arial, sans-serif" font-size="30" letter-spacing="4">INNOVATION</text>
  <text x="600" y="1216" text-anchor="middle" fill="#213244" font-family="'Trebuchet MS', Arial, sans-serif" font-size="108" font-weight="700" letter-spacing="2">ZERO TO ONE</text>
  <text x="600" y="1538" text-anchor="middle" fill="#FDF8EE" font-family="'Trebuchet MS', Arial, sans-serif" font-size="30" letter-spacing="3">STARTUPS  ·  STRATEGY  ·  INNOVATION</text>
  <text x="600" y="1604" text-anchor="middle" fill="#FDF8EE" font-family="Georgia, serif" font-size="30">Entrepreneurship and growth</text>
  <text x="600" y="1668" text-anchor="middle" fill="#FDF8EE" font-family="'Trebuchet MS', Arial, sans-serif" font-size="26" letter-spacing="2">Modern Edition · Practical Lessons · Real Scenarios</text>
</svg>
