<svg width="1200" height="1800" viewBox="0 0 1200 1800" fill="none" xmlns="http://www.w3.org/2000/svg" role="img" aria-labelledby="title desc">
  <title id="title">Zero to One cover</title>
  <desc id="desc">Auto-generated themed cover for Zero to One by Peter Thiel, Blake Masters.</desc>
  <defs>
    <linearGradient id="g87680217" x1="0" y1="0" x2="0" y2="1800" gradientUnits="userSpaceOnUse">
      <stop offset="0%" stop-color="#1F3C5C"/>
      <stop offset="100%" stop-color="#345C85"/>
    </linearGradient>
  </defs>

  <rect width="1200" height="1800" fill="url(#g87680217)"/>

  <rect x="0" y="300" width="1200" height="1180" fill="#8EB0D4" opacity="0.1"/>
  <g stroke="#FDF8EE" opacity="0.2">
    <line x1="160" y1="320" x2="160" y2="1460" stroke-width="4"/>
    <line x1="320" y1="320" x2="320" y2="1460" stroke-width="3"/>
    <line x1="480" y1="320" x2="480" y2="1460" stroke-width="2"/>
    <line x1="640" y1="320" x2="640" y2="1460" stroke-width="3"/>
    <line x1="800" y1="320" x2="800" y2="1460" stroke-width="2"/>
    <line x1="960" y1="320" x2="960" y2="1460" stroke-width="3"/>
  </g>
  <path d="M140 430 L1060 430" stroke="#F29B4B" stroke-width="10" opacity="0.22"/>
  <path d="M140 1330 L1060 1330" stroke="#F29B4B" stroke-width="10" opacity="0.2"/>
  <rect x="116" y="304" width="968" height="1036" rx="38" fill="#F3ECE1" stroke="#C7B8A3" stroke-width="10"/>

  <g transform="translate(400 562)">
    <rect x="0" y="0" width="388" height="334" rx="24" fill="#FDF8EE" stroke="#8EB0D4" stroke-width="8"/>
    <text x="104" y="204" text-anchor="middle" fill="#213244" font-family="Georgia, serif" font-size="150" font-weight="700">0</text>
    <text x="292" y="204" text-anchor="middle" fill="#F29B4B" font-family="Georgia, serif" font-size="150" font-weight="700">1</text>
    <path d="M166 176 L222 176" stroke="#8EB0D4" stroke-width="14" stroke-linecap="round"/>
  </g>

  <rect x="0" y="0" width="1200" height="238" fill="#1F3C5C" opacity="0.93"/>
  <rect x="0" y="1454" width="1200" height="346" fill="#345C85" opacity="0.95"/>
  <text x="600" y="136" text-anchor="middle" fill="#FDF8EE" font-family="Georgia, serif" font-size="62" font-weight="700" letter-spacing="3">PETER THIEL, BLAKE MASTERS</text>
  <text x="600" y="208" text-anchor="middle" fill="#FDF8EE" font-family="'Trebuchet MS', Arial, sans-serif" font-size="30" letter-spacing="4">INNOVATION</text>
  <text x="600" y="1216" text-anchor="middle" fill="#213244" font-family="'Trebuchet MS', Arial, sans-serif" font-size="108" font-weight="700" letter-spacing="2">ZERO TO ONE</text>
  <text x="600" y="1538" text-anchor="middle" fill="#FDF8EE" font-family="'Trebuchet MS', Arial, sans-serif" font-size="30" letter-spacing="3">STARTUPS  ·  STRATEGY  ·  INNOVATION</text>
  <text x="600" y="1604" text-anchor="middle" fill="#FDF8EE" font-family="Georgia, serif" font-size="30">Move from incremental to truly new value</text>
  <text x="600" y="1668" text-anchor="middle" fill="#FDF8EE" font-family="'Trebuchet MS', Arial, sans-serif" font-size="26" letter-spacing="2">Modern Edition · Practical Lessons · Real Scenarios</text>
</svg>
